%TF.GenerationSoftware,KiCad,Pcbnew,7.0.11+1*%
%TF.CreationDate,2024-04-14T15:49:11+02:00*%
%TF.ProjectId,GoldCard,476f6c64-4361-4726-942e-6b696361645f,rev?*%
%TF.SameCoordinates,Original*%
%TF.FileFunction,Copper,L2,Inr*%
%TF.FilePolarity,Positive*%
%FSLAX46Y46*%
G04 Gerber Fmt 4.6, Leading zero omitted, Abs format (unit mm)*
G04 Created by KiCad (PCBNEW 7.0.11+1) date 2024-04-14 15:49:11*
%MOMM*%
%LPD*%
G01*
G04 APERTURE LIST*
G04 Aperture macros list*
%AMRoundRect*
0 Rectangle with rounded corners*
0 $1 Rounding radius*
0 $2 $3 $4 $5 $6 $7 $8 $9 X,Y pos of 4 corners*
0 Add a 4 corners polygon primitive as box body*
4,1,4,$2,$3,$4,$5,$6,$7,$8,$9,$2,$3,0*
0 Add four circle primitives for the rounded corners*
1,1,$1+$1,$2,$3*
1,1,$1+$1,$4,$5*
1,1,$1+$1,$6,$7*
1,1,$1+$1,$8,$9*
0 Add four rect primitives between the rounded corners*
20,1,$1+$1,$2,$3,$4,$5,0*
20,1,$1+$1,$4,$5,$6,$7,0*
20,1,$1+$1,$6,$7,$8,$9,0*
20,1,$1+$1,$8,$9,$2,$3,0*%
G04 Aperture macros list end*
%TA.AperFunction,ComponentPad*%
%ADD10R,1.600000X1.600000*%
%TD*%
%TA.AperFunction,ComponentPad*%
%ADD11O,1.600000X1.600000*%
%TD*%
%TA.AperFunction,ComponentPad*%
%ADD12C,1.400000*%
%TD*%
%TA.AperFunction,ComponentPad*%
%ADD13O,1.400000X1.400000*%
%TD*%
%TA.AperFunction,ComponentPad*%
%ADD14R,1.700000X1.700000*%
%TD*%
%TA.AperFunction,ComponentPad*%
%ADD15O,1.700000X1.700000*%
%TD*%
%TA.AperFunction,ComponentPad*%
%ADD16O,1.200000X1.600000*%
%TD*%
%TA.AperFunction,ComponentPad*%
%ADD17O,1.200000X1.200000*%
%TD*%
%TA.AperFunction,ComponentPad*%
%ADD18C,0.800000*%
%TD*%
%TA.AperFunction,ComponentPad*%
%ADD19C,5.000000*%
%TD*%
%TA.AperFunction,ComponentPad*%
%ADD20C,2.200000*%
%TD*%
%TA.AperFunction,ComponentPad*%
%ADD21C,1.600000*%
%TD*%
%TA.AperFunction,ComponentPad*%
%ADD22C,1.000000*%
%TD*%
%TA.AperFunction,ComponentPad*%
%ADD23RoundRect,0.249999X0.525001X-0.525001X0.525001X0.525001X-0.525001X0.525001X-0.525001X-0.525001X0*%
%TD*%
%TA.AperFunction,ComponentPad*%
%ADD24C,1.550000*%
%TD*%
%TA.AperFunction,ComponentPad*%
%ADD25C,1.500000*%
%TD*%
%TA.AperFunction,ComponentPad*%
%ADD26R,1.422400X1.422400*%
%TD*%
%TA.AperFunction,ComponentPad*%
%ADD27C,1.422400*%
%TD*%
%TA.AperFunction,ComponentPad*%
%ADD28R,1.905000X2.000000*%
%TD*%
%TA.AperFunction,ComponentPad*%
%ADD29O,1.905000X2.000000*%
%TD*%
%TA.AperFunction,ViaPad*%
%ADD30C,0.800000*%
%TD*%
%TA.AperFunction,ViaPad*%
%ADD31C,1.000000*%
%TD*%
%TA.AperFunction,Conductor*%
%ADD32C,0.250000*%
%TD*%
G04 APERTURE END LIST*
D10*
%TO.N,GND*%
%TO.C,U6*%
X219456000Y-129540000D03*
D11*
%TO.N,unconnected-(U6-A0-Pad2)*%
X219456000Y-127000000D03*
%TO.N,/A10*%
X219456000Y-124460000D03*
%TO.N,/A17*%
X219456000Y-121920000D03*
%TO.N,/A11*%
X219456000Y-119380000D03*
%TO.N,/A9*%
X219456000Y-116840000D03*
%TO.N,/A8*%
X219456000Y-114300000D03*
%TO.N,/A13*%
X219456000Y-111760000D03*
%TO.N,/A14*%
X219456000Y-109220000D03*
%TO.N,GND*%
X219456000Y-106680000D03*
%TO.N,/AG14*%
X211836000Y-106680000D03*
%TO.N,/AG13*%
X211836000Y-109220000D03*
%TO.N,/AG8*%
X211836000Y-111760000D03*
%TO.N,/AG9*%
X211836000Y-114300000D03*
%TO.N,/AG11*%
X211836000Y-116840000D03*
%TO.N,/AG17*%
X211836000Y-119380000D03*
%TO.N,/AG10*%
X211836000Y-121920000D03*
%TO.N,unconnected-(U6-B0-Pad18)*%
X211836000Y-124460000D03*
%TO.N,GND*%
X211836000Y-127000000D03*
%TO.N,+5V*%
X211836000Y-129540000D03*
%TD*%
D12*
%TO.N,Net-(U12-SETCU)*%
%TO.C,R3*%
X176276000Y-132080000D03*
D13*
%TO.N,GND*%
X176276000Y-124460000D03*
%TD*%
D14*
%TO.N,GND*%
%TO.C,J2*%
X171196000Y-137160000D03*
D15*
%TO.N,unconnected-(J2-Pin_2-Pad2)*%
X168656000Y-137160000D03*
%TO.N,GND*%
X171196000Y-134620000D03*
%TO.N,unconnected-(J2-Pin_4-Pad4)*%
X168656000Y-134620000D03*
%TO.N,GND*%
X171196000Y-132080000D03*
%TO.N,unconnected-(J2-Pin_6-Pad6)*%
X168656000Y-132080000D03*
%TO.N,GND*%
X171196000Y-129540000D03*
%TO.N,/FDC_IP*%
X168656000Y-129540000D03*
%TO.N,GND*%
X171196000Y-127000000D03*
%TO.N,/DS0*%
X168656000Y-127000000D03*
%TO.N,GND*%
X171196000Y-124460000D03*
%TO.N,/DS1*%
X168656000Y-124460000D03*
%TO.N,GND*%
X171196000Y-121920000D03*
%TO.N,/DS2*%
X168656000Y-121920000D03*
%TO.N,GND*%
X171196000Y-119380000D03*
%TO.N,/MOTOR_ON*%
X168656000Y-119380000D03*
%TO.N,GND*%
X171196000Y-116840000D03*
%TO.N,/FDC_DIR*%
X168656000Y-116840000D03*
%TO.N,GND*%
X171196000Y-114300000D03*
%TO.N,/FDC_STEP*%
X168656000Y-114300000D03*
%TO.N,GND*%
X171196000Y-111760000D03*
%TO.N,/FDC_WD*%
X168656000Y-111760000D03*
%TO.N,GND*%
X171196000Y-109220000D03*
%TO.N,/FDC_WG*%
X168656000Y-109220000D03*
%TO.N,GND*%
X171196000Y-106680000D03*
%TO.N,/FDC_T0*%
X168656000Y-106680000D03*
%TO.N,GND*%
X171196000Y-104140000D03*
%TO.N,/FDC_WPRT*%
X168656000Y-104140000D03*
%TO.N,GND*%
X171196000Y-101600000D03*
%TO.N,/FDC_RD*%
X168656000Y-101600000D03*
%TO.N,GND*%
X171196000Y-99060000D03*
%TO.N,/FDC_HD*%
X168656000Y-99060000D03*
%TO.N,GND*%
X171196000Y-96520000D03*
%TO.N,unconnected-(J2-Pin_34-Pad34)*%
X168656000Y-96520000D03*
%TD*%
D10*
%TO.N,/RW*%
%TO.C,U4*%
X195326000Y-60960000D03*
D11*
%TO.N,/D7*%
X192786000Y-60960000D03*
%TO.N,/D6*%
X190246000Y-60960000D03*
%TO.N,/D5*%
X187706000Y-60960000D03*
%TO.N,/D4*%
X185166000Y-60960000D03*
%TO.N,/D3*%
X182626000Y-60960000D03*
%TO.N,/D2*%
X180086000Y-60960000D03*
%TO.N,/D1*%
X177546000Y-60960000D03*
%TO.N,/D0*%
X175006000Y-60960000D03*
%TO.N,GND*%
X172466000Y-60960000D03*
%TO.N,/DG0*%
X172466000Y-68580000D03*
%TO.N,/DG1*%
X175006000Y-68580000D03*
%TO.N,/DG2*%
X177546000Y-68580000D03*
%TO.N,/DG3*%
X180086000Y-68580000D03*
%TO.N,/DG4*%
X182626000Y-68580000D03*
%TO.N,/DG5*%
X185166000Y-68580000D03*
%TO.N,/DG6*%
X187706000Y-68580000D03*
%TO.N,/DG7*%
X190246000Y-68580000D03*
%TO.N,/RDL*%
X192786000Y-68580000D03*
%TO.N,+5V*%
X195326000Y-68580000D03*
%TD*%
D16*
%TO.N,/CSRTC*%
%TO.C,Q1*%
X234245700Y-49345300D03*
D17*
%TO.N,Net-(Q1-B)*%
X235515700Y-48075300D03*
%TO.N,Net-(Q1-C)*%
X234245700Y-46805300D03*
%TD*%
D10*
%TO.N,GND*%
%TO.C,D1*%
X200406000Y-46355000D03*
D11*
%TO.N,Net-(D1-A)*%
X208026000Y-46355000D03*
%TD*%
D18*
%TO.N,GND*%
%TO.C,H1*%
X158526000Y-79375000D03*
X159075175Y-78049175D03*
X159075175Y-80700825D03*
X160401000Y-77500000D03*
D19*
X160401000Y-79375000D03*
D18*
X160401000Y-81250000D03*
X161726825Y-78049175D03*
X161726825Y-80700825D03*
X162276000Y-79375000D03*
%TD*%
D20*
%TO.N,Net-(U12-FE50)*%
%TO.C,C3*%
X205232000Y-139700000D03*
%TO.N,Net-(C3-Pad2)*%
X190232000Y-139700000D03*
%TD*%
D21*
%TO.N,+5V*%
%TO.C,C10*%
X201081000Y-50165000D03*
%TO.N,GND*%
X206081000Y-50165000D03*
%TD*%
%TO.N,+5V*%
%TO.C,C14*%
X178482000Y-107950000D03*
%TO.N,GND*%
X173482000Y-107950000D03*
%TD*%
%TO.N,Net-(U7-XTAL_IN)*%
%TO.C,C1*%
X233426000Y-116800000D03*
%TO.N,GND*%
X233426000Y-114300000D03*
%TD*%
D22*
%TO.N,Net-(U7-XTAL_OUT)*%
%TO.C,Y3*%
X228981000Y-116840000D03*
%TO.N,Net-(U7-XTAL_IN)*%
X231521000Y-116840000D03*
%TD*%
D10*
%TO.N,GND*%
%TO.C,U8*%
X209296000Y-66040000D03*
D21*
%TO.N,/CAS0*%
X210566000Y-63500000D03*
%TO.N,/DG3*%
X211836000Y-66040000D03*
%TO.N,/DG1*%
X213106000Y-63500000D03*
%TO.N,GND*%
X214376000Y-66040000D03*
%TO.N,/DG0*%
X215646000Y-63500000D03*
%TO.N,/DG2*%
X216916000Y-66040000D03*
%TO.N,/RW*%
X218186000Y-63500000D03*
%TO.N,/RAS*%
X219456000Y-66040000D03*
%TO.N,/MA9*%
X220726000Y-63500000D03*
%TO.N,/MA0*%
X221996000Y-66040000D03*
%TO.N,/MA1*%
X223266000Y-63500000D03*
%TO.N,/MA2*%
X224536000Y-66040000D03*
%TO.N,/MA3*%
X225806000Y-63500000D03*
%TO.N,+5V*%
X227076000Y-66040000D03*
%TO.N,/MA4*%
X228346000Y-63500000D03*
%TO.N,/MA5*%
X229616000Y-66040000D03*
%TO.N,/MA6*%
X230886000Y-63500000D03*
%TO.N,/MA7*%
X232156000Y-66040000D03*
%TO.N,/MA8*%
X233426000Y-63500000D03*
%TD*%
D14*
%TO.N,unconnected-(J5-Pin_1-Pad1)*%
%TO.C,J5*%
X197866000Y-71120000D03*
%TD*%
D21*
%TO.N,+5V*%
%TO.C,C15*%
X201081000Y-55245000D03*
%TO.N,GND*%
X206081000Y-55245000D03*
%TD*%
D14*
%TO.N,unconnected-(J6-Pin_1-Pad1)*%
%TO.C,J6*%
X172466000Y-45085000D03*
%TD*%
D12*
%TO.N,GND*%
%TO.C,R1*%
X210566000Y-48895000D03*
D13*
%TO.N,Net-(D3-A)*%
X218186000Y-48895000D03*
%TD*%
D20*
%TO.N,Net-(U12-FE25)*%
%TO.C,C4*%
X205232000Y-135255000D03*
%TO.N,Net-(C3-Pad2)*%
X190232000Y-135255000D03*
%TD*%
D21*
%TO.N,Net-(U12-FILT)*%
%TO.C,C6*%
X177606000Y-134620000D03*
%TO.N,GND*%
X187606000Y-134620000D03*
%TD*%
D10*
%TO.N,+5V*%
%TO.C,X1*%
X199136000Y-60706000D03*
D11*
%TO.N,GND*%
X199136000Y-68326000D03*
%TO.N,/16MHZ*%
X206756000Y-68326000D03*
%TO.N,+5V*%
X206756000Y-60706000D03*
%TD*%
D10*
%TO.N,+5V*%
%TO.C,C16*%
X228021000Y-109220000D03*
D21*
%TO.N,GND*%
X231521000Y-109220000D03*
%TD*%
D23*
%TO.N,GND*%
%TO.C,J1*%
X238506000Y-132080000D03*
D24*
%TO.N,/D3*%
X238506000Y-129540000D03*
%TO.N,/D4*%
X238506000Y-127000000D03*
%TO.N,/D5*%
X238506000Y-124460000D03*
%TO.N,/D6*%
X238506000Y-121920000D03*
%TO.N,/D7*%
X238506000Y-119380000D03*
%TO.N,/A18*%
X238506000Y-116840000D03*
X238506000Y-114300000D03*
%TO.N,/A17*%
X238506000Y-111760000D03*
%TO.N,/A16*%
X238506000Y-109220000D03*
%TO.N,unconnected-(J1-CLKCPU-Pada11)*%
X238506000Y-106680000D03*
%TO.N,unconnected-(J1-RED-Pada12)*%
X238506000Y-104140000D03*
%TO.N,/A14*%
X238506000Y-101600000D03*
%TO.N,/A13*%
X238506000Y-99060000D03*
%TO.N,/A12*%
X238506000Y-96520000D03*
%TO.N,/A11*%
X238506000Y-93980000D03*
%TO.N,/A10*%
X238506000Y-91440000D03*
%TO.N,/A9*%
X238506000Y-88900000D03*
%TO.N,/A8*%
X238506000Y-86360000D03*
%TO.N,/A7*%
X238506000Y-83820000D03*
%TO.N,/A6*%
X238506000Y-81280000D03*
%TO.N,/A5*%
X238506000Y-78740000D03*
%TO.N,/A4*%
X238506000Y-76200000D03*
%TO.N,/A3*%
X238506000Y-73660000D03*
%TO.N,unconnected-(J1-~{DBG}-Pada25)*%
X238506000Y-71120000D03*
%TO.N,GND*%
X238506000Y-68580000D03*
%TO.N,unconnected-(J1-~{DSMC}-Pada27)*%
X238506000Y-66040000D03*
%TO.N,GND*%
X238506000Y-63500000D03*
X238506000Y-60960000D03*
%TO.N,unconnected-(J1-+12V-Pada30)*%
X238506000Y-58420000D03*
%TO.N,unconnected-(J1--12V-Pada31)*%
X238506000Y-55880000D03*
%TO.N,+9V*%
X238506000Y-53340000D03*
%TO.N,GND*%
X235966000Y-132080000D03*
%TO.N,/D2*%
X235966000Y-129540000D03*
%TO.N,/D1*%
X235966000Y-127000000D03*
%TO.N,/D0*%
X235966000Y-124460000D03*
%TO.N,unconnected-(J1-~{AS}-Padb5)*%
X235966000Y-121920000D03*
%TO.N,/DS*%
X235966000Y-119380000D03*
%TO.N,/RDW*%
X235966000Y-116840000D03*
%TO.N,/DTACK*%
X235966000Y-114300000D03*
%TO.N,unconnected-(J1-~{BG}-Padb9)*%
X235966000Y-111760000D03*
%TO.N,/A18*%
X235966000Y-109220000D03*
%TO.N,/A15*%
X235966000Y-106680000D03*
%TO.N,/RESET*%
X235966000Y-104140000D03*
%TO.N,unconnected-(J1-~{CSYNC}-Padb13)*%
X235966000Y-101600000D03*
%TO.N,unconnected-(J1-E-Padb14)*%
X235966000Y-99060000D03*
%TO.N,/VSYNC*%
X235966000Y-96520000D03*
%TO.N,/VPA*%
X235966000Y-93980000D03*
%TO.N,unconnected-(J1-GREEN-Padb17)*%
X235966000Y-91440000D03*
%TO.N,unconnected-(J1-BLUE-Padb18)*%
X235966000Y-88900000D03*
%TO.N,unconnected-(J1-FC2-Padb19)*%
X235966000Y-86360000D03*
%TO.N,/FC1*%
X235966000Y-83820000D03*
%TO.N,/FC0*%
X235966000Y-81280000D03*
%TO.N,/A0*%
X235966000Y-78740000D03*
%TO.N,unconnected-(J1-ROMOEH-Padb23)*%
X235966000Y-76200000D03*
%TO.N,/A1*%
X235966000Y-73660000D03*
%TO.N,/A2*%
X235966000Y-71120000D03*
%TO.N,GND*%
X235966000Y-68580000D03*
%TO.N,/IPL0*%
X235966000Y-66040000D03*
%TO.N,unconnected-(J1-~{BERR}-Padb28)*%
X235966000Y-63500000D03*
%TO.N,/IPL1*%
X235966000Y-60960000D03*
%TO.N,unconnected-(J1-~{EXTINT}-Padb30)*%
X235966000Y-58420000D03*
%TO.N,+9V*%
X235966000Y-55880000D03*
X235966000Y-53340000D03*
%TD*%
D25*
%TO.N,Net-(U12-OSC2{slash}CLK)*%
%TO.C,Y2*%
X177546000Y-119380000D03*
%TO.N,Net-(U12-OSC1)*%
X177546000Y-114500000D03*
%TD*%
D26*
%TO.N,GND*%
%TO.C,U2*%
X219456000Y-76200000D03*
D27*
%TO.N,/RAS*%
X219456000Y-78740000D03*
%TO.N,/DTA*%
X216916000Y-76200000D03*
%TO.N,/A0*%
X216916000Y-78740000D03*
%TO.N,/RDH*%
X214376000Y-76200000D03*
%TO.N,/WRH*%
X214376000Y-78740000D03*
%TO.N,/CAS0*%
X211836000Y-76200000D03*
%TO.N,/CAS1*%
X211836000Y-78740000D03*
%TO.N,/RDL*%
X209296000Y-76200000D03*
%TO.N,/UDS*%
X206756000Y-78740000D03*
%TO.N,/DTACK*%
X209296000Y-78740000D03*
%TO.N,/LDS*%
X206756000Y-81280000D03*
%TO.N,unconnected-(U2-I{slash}O_12A-Pad13)*%
X209296000Y-81280000D03*
%TO.N,/RW*%
X206756000Y-83820000D03*
%TO.N,/AG3*%
X209296000Y-83820000D03*
%TO.N,/AG5*%
X206756000Y-86360000D03*
%TO.N,/RESET*%
X209296000Y-86360000D03*
%TO.N,+5V*%
X206756000Y-88900000D03*
%TO.N,/AG19*%
X209296000Y-88900000D03*
%TO.N,/16MHZ*%
X206756000Y-91440000D03*
%TO.N,/AG20*%
X209296000Y-91440000D03*
%TO.N,/AG17*%
X206756000Y-93980000D03*
%TO.N,unconnected-(U2-I{slash}O_13B-Pad23)*%
X209296000Y-93980000D03*
%TO.N,/AG16*%
X206756000Y-96520000D03*
%TO.N,/AG14*%
X209296000Y-96520000D03*
%TO.N,/AG13*%
X206756000Y-99060000D03*
%TO.N,/A12*%
X209296000Y-101600000D03*
%TO.N,/A15*%
X209296000Y-99060000D03*
%TO.N,/A6*%
X211836000Y-101600000D03*
%TO.N,/A7*%
X211836000Y-99060000D03*
%TO.N,/A4*%
X214376000Y-101600000D03*
%TO.N,/A5*%
X214376000Y-99060000D03*
%TO.N,/A3*%
X216916000Y-101600000D03*
%TO.N,/A2*%
X216916000Y-99060000D03*
%TO.N,GND*%
X219456000Y-101600000D03*
%TO.N,/AG1*%
X219456000Y-99060000D03*
%TO.N,/A1*%
X221996000Y-101600000D03*
%TO.N,/CSRTC*%
X221996000Y-99060000D03*
%TO.N,/RDW*%
X224536000Y-101600000D03*
%TO.N,/A16*%
X224536000Y-99060000D03*
%TO.N,/MA5*%
X227076000Y-101600000D03*
%TO.N,/MA8*%
X227076000Y-99060000D03*
%TO.N,/DS*%
X229616000Y-101600000D03*
%TO.N,/FDCON_CS*%
X232156000Y-99060000D03*
%TO.N,/CSROM*%
X229616000Y-99060000D03*
%TO.N,unconnected-(U2-I{slash}O_35C-Pad46)*%
X232156000Y-96520000D03*
%TO.N,/RESFDC*%
X229616000Y-96520000D03*
%TO.N,/AG2*%
X232156000Y-93980000D03*
%TO.N,/AG4*%
X229616000Y-93980000D03*
%TO.N,/AG8*%
X232156000Y-91440000D03*
%TO.N,/AG6*%
X229616000Y-91440000D03*
%TO.N,+5V*%
X232156000Y-88900000D03*
%TO.N,/AG10*%
X229616000Y-88900000D03*
%TO.N,/AG12*%
X232156000Y-86360000D03*
%TO.N,/AG11*%
X229616000Y-86360000D03*
%TO.N,/AG15*%
X232156000Y-83820000D03*
%TO.N,/AG18*%
X229616000Y-83820000D03*
%TO.N,/AG9*%
X232156000Y-81280000D03*
%TO.N,/AG7*%
X229616000Y-81280000D03*
%TO.N,unconnected-(U2-I{slash}O_40D-Pad60)*%
X232156000Y-78740000D03*
%TO.N,/MA6*%
X229616000Y-76200000D03*
%TO.N,/MA7*%
X229616000Y-78740000D03*
%TO.N,/MA4*%
X227076000Y-76200000D03*
%TO.N,/MA3*%
X227076000Y-78740000D03*
%TO.N,/MA2*%
X224536000Y-76200000D03*
%TO.N,/MA1*%
X224536000Y-78740000D03*
%TO.N,/MA0*%
X221996000Y-76200000D03*
%TO.N,/MA9*%
X221996000Y-78740000D03*
%TD*%
D26*
%TO.N,/DG4*%
%TO.C,U1*%
X187706000Y-76200000D03*
D27*
%TO.N,/DG3*%
X187706000Y-78740000D03*
%TO.N,/DG2*%
X185166000Y-76200000D03*
%TO.N,/DG1*%
X185166000Y-78740000D03*
%TO.N,/DG0*%
X182626000Y-76200000D03*
%TO.N,unconnected-(U1-AS-Pad6)*%
X182626000Y-78740000D03*
%TO.N,/UDS*%
X180086000Y-76200000D03*
%TO.N,/LDS*%
X180086000Y-78740000D03*
%TO.N,/RW*%
X177546000Y-76200000D03*
%TO.N,/DTA*%
X175006000Y-78740000D03*
%TO.N,unconnected-(U1-BG-Pad11)*%
X177546000Y-78740000D03*
%TO.N,+5V*%
X175006000Y-81280000D03*
X177546000Y-81280000D03*
X175006000Y-83820000D03*
%TO.N,/16MHZ*%
X177546000Y-83820000D03*
%TO.N,GND*%
X175006000Y-86360000D03*
X177546000Y-86360000D03*
%TO.N,unconnected-(U1-NC-Pad18)*%
X175006000Y-88900000D03*
%TO.N,/RESET*%
X177546000Y-88900000D03*
X175006000Y-91440000D03*
%TO.N,unconnected-(U1-VMA-Pad21)*%
X177546000Y-91440000D03*
%TO.N,unconnected-(U1-E-Pad22)*%
X175006000Y-93980000D03*
%TO.N,/VPA*%
X177546000Y-93980000D03*
%TO.N,+5V*%
X175006000Y-96520000D03*
%TO.N,unconnected-(U1-IPL2-Pad25)*%
X177546000Y-96520000D03*
%TO.N,/IPL1*%
X175006000Y-99060000D03*
%TO.N,/IPL0*%
X177546000Y-101600000D03*
%TO.N,unconnected-(U1-FC2-Pad28)*%
X177546000Y-99060000D03*
%TO.N,/FC1*%
X180086000Y-101600000D03*
%TO.N,/FC0*%
X180086000Y-99060000D03*
%TO.N,unconnected-(U1-NC-Pad31)*%
X182626000Y-101600000D03*
%TO.N,/AG1*%
X182626000Y-99060000D03*
%TO.N,/AG2*%
X185166000Y-101600000D03*
%TO.N,/AG3*%
X185166000Y-99060000D03*
%TO.N,/AG4*%
X187706000Y-101600000D03*
%TO.N,/AG5*%
X187706000Y-99060000D03*
%TO.N,/AG6*%
X190246000Y-101600000D03*
%TO.N,/AG7*%
X190246000Y-99060000D03*
%TO.N,/AG8*%
X192786000Y-101600000D03*
%TO.N,/AG9*%
X192786000Y-99060000D03*
%TO.N,/AG10*%
X195326000Y-101600000D03*
%TO.N,/AG11*%
X195326000Y-99060000D03*
%TO.N,/AG12*%
X197866000Y-101600000D03*
%TO.N,/AG13*%
X200406000Y-99060000D03*
%TO.N,/AG14*%
X197866000Y-99060000D03*
%TO.N,/AG15*%
X200406000Y-96520000D03*
%TO.N,/AG16*%
X197866000Y-96520000D03*
%TO.N,/AG17*%
X200406000Y-93980000D03*
%TO.N,/AG18*%
X197866000Y-93980000D03*
%TO.N,/AG19*%
X200406000Y-91440000D03*
%TO.N,/AG20*%
X197866000Y-91440000D03*
%TO.N,+5V*%
X200406000Y-88900000D03*
%TO.N,unconnected-(U1-A21-Pad53)*%
X197866000Y-88900000D03*
%TO.N,unconnected-(U1-A22-Pad54)*%
X200406000Y-86360000D03*
%TO.N,unconnected-(U1-A23-Pad55)*%
X197866000Y-86360000D03*
%TO.N,GND*%
X200406000Y-83820000D03*
X197866000Y-83820000D03*
%TO.N,/DG15*%
X200406000Y-81280000D03*
%TO.N,/DG14*%
X197866000Y-81280000D03*
%TO.N,/DG13*%
X200406000Y-78740000D03*
%TO.N,/DG12*%
X197866000Y-76200000D03*
%TO.N,/DG11*%
X197866000Y-78740000D03*
%TO.N,/DG10*%
X195326000Y-76200000D03*
%TO.N,/DG9*%
X195326000Y-78740000D03*
%TO.N,/DG8*%
X192786000Y-76200000D03*
%TO.N,/DG7*%
X192786000Y-78740000D03*
%TO.N,/DG6*%
X190246000Y-76200000D03*
%TO.N,/DG5*%
X190246000Y-78740000D03*
%TD*%
D21*
%TO.N,+5V*%
%TO.C,C7*%
X225806000Y-139700000D03*
%TO.N,GND*%
X233306000Y-139700000D03*
%TD*%
%TO.N,+5V*%
%TO.C,C11*%
X167533000Y-93599000D03*
%TO.N,GND*%
X170033000Y-93599000D03*
%TD*%
D12*
%TO.N,Net-(U12-FILT)*%
%TO.C,R4*%
X178816000Y-124460000D03*
D13*
%TO.N,Net-(C3-Pad2)*%
X178816000Y-132080000D03*
%TD*%
D10*
%TO.N,/WRH*%
%TO.C,U5*%
X197866000Y-47625000D03*
D11*
X195326000Y-47625000D03*
%TO.N,/RW*%
X192786000Y-47625000D03*
%TO.N,/D7*%
X190246000Y-47625000D03*
%TO.N,/D6*%
X187706000Y-47625000D03*
%TO.N,/D5*%
X185166000Y-47625000D03*
%TO.N,/D4*%
X182626000Y-47625000D03*
%TO.N,/D3*%
X180086000Y-47625000D03*
%TO.N,/D2*%
X177546000Y-47625000D03*
%TO.N,/D1*%
X175006000Y-47625000D03*
%TO.N,/D0*%
X172466000Y-47625000D03*
%TO.N,GND*%
X169926000Y-47625000D03*
%TO.N,/DG8*%
X169926000Y-55245000D03*
%TO.N,/DG9*%
X172466000Y-55245000D03*
%TO.N,/DG10*%
X175006000Y-55245000D03*
%TO.N,/DG11*%
X177546000Y-55245000D03*
%TO.N,/DG12*%
X180086000Y-55245000D03*
%TO.N,/DG13*%
X182626000Y-55245000D03*
%TO.N,/DG14*%
X185166000Y-55245000D03*
%TO.N,/DG15*%
X187706000Y-55245000D03*
%TO.N,/RDH*%
X190246000Y-55245000D03*
%TO.N,GND*%
X192786000Y-55245000D03*
X195326000Y-55245000D03*
%TO.N,+5V*%
X197866000Y-55245000D03*
%TD*%
D21*
%TO.N,+5V*%
%TO.C,C12*%
X172506000Y-57785000D03*
%TO.N,GND*%
X180006000Y-57785000D03*
%TD*%
D28*
%TO.N,+9V*%
%TO.C,U0*%
X166116000Y-55880000D03*
D29*
%TO.N,GND*%
X163576000Y-55880000D03*
%TO.N,+5V*%
X161036000Y-55880000D03*
%TD*%
D21*
%TO.N,+5V*%
%TO.C,C13*%
X213146000Y-139700000D03*
%TO.N,GND*%
X220646000Y-139700000D03*
%TD*%
D10*
%TO.N,GND*%
%TO.C,U11*%
X209296000Y-60960000D03*
D21*
%TO.N,/CAS1*%
X210566000Y-58420000D03*
%TO.N,/DG14*%
X211836000Y-60960000D03*
%TO.N,/DG13*%
X213106000Y-58420000D03*
%TO.N,GND*%
X214376000Y-60960000D03*
%TO.N,/DG12*%
X215646000Y-58420000D03*
%TO.N,/DG15*%
X216916000Y-60960000D03*
%TO.N,/RW*%
X218186000Y-58420000D03*
%TO.N,/RAS*%
X219456000Y-60960000D03*
%TO.N,/MA9*%
X220726000Y-58420000D03*
%TO.N,/MA0*%
X221996000Y-60960000D03*
%TO.N,/MA1*%
X223266000Y-58420000D03*
%TO.N,/MA2*%
X224536000Y-60960000D03*
%TO.N,/MA3*%
X225806000Y-58420000D03*
%TO.N,+5V*%
X227076000Y-60960000D03*
%TO.N,/MA4*%
X228346000Y-58420000D03*
%TO.N,/MA5*%
X229616000Y-60960000D03*
%TO.N,/MA6*%
X230886000Y-58420000D03*
%TO.N,/MA7*%
X232156000Y-60960000D03*
%TO.N,/MA8*%
X233426000Y-58420000D03*
%TD*%
D14*
%TO.N,+5V*%
%TO.C,J4*%
X172466000Y-71120000D03*
%TD*%
D10*
%TO.N,Net-(Q1-C)*%
%TO.C,U7*%
X225806000Y-119380000D03*
D11*
%TO.N,/A1*%
X225806000Y-121920000D03*
%TO.N,/RDW*%
X225806000Y-124460000D03*
%TO.N,/D7*%
X225806000Y-127000000D03*
%TO.N,/D6*%
X225806000Y-129540000D03*
%TO.N,/D5*%
X225806000Y-132080000D03*
%TO.N,/D4*%
X225806000Y-134620000D03*
%TO.N,Net-(D1-A)*%
X225806000Y-137160000D03*
%TO.N,/A5*%
X233426000Y-137160000D03*
%TO.N,/A4*%
X233426000Y-134620000D03*
%TO.N,/A3*%
X233426000Y-132080000D03*
%TO.N,/A2*%
X233426000Y-129540000D03*
%TO.N,unconnected-(U7-~{INT}-Pad13)*%
X233426000Y-127000000D03*
%TO.N,Net-(U7-XTAL_OUT)*%
X233426000Y-124460000D03*
%TO.N,Net-(U7-XTAL_IN)*%
X233426000Y-121920000D03*
%TO.N,+5V*%
X233426000Y-119380000D03*
%TD*%
D18*
%TO.N,GND*%
%TO.C,H2*%
X164241000Y-86360000D03*
X164790175Y-85034175D03*
X164790175Y-87685825D03*
X166116000Y-84485000D03*
D19*
X166116000Y-86360000D03*
D18*
X166116000Y-88235000D03*
X167441825Y-85034175D03*
X167441825Y-87685825D03*
X167991000Y-86360000D03*
%TD*%
D10*
%TO.N,/A15*%
%TO.C,U3*%
X208026000Y-106680000D03*
D11*
%TO.N,/A12*%
X208026000Y-109220000D03*
%TO.N,/A7*%
X208026000Y-111760000D03*
%TO.N,/A6*%
X208026000Y-114300000D03*
%TO.N,/A5*%
X208026000Y-116840000D03*
%TO.N,/A4*%
X208026000Y-119380000D03*
%TO.N,/A3*%
X208026000Y-121920000D03*
%TO.N,/A2*%
X208026000Y-124460000D03*
%TO.N,/A1*%
X208026000Y-127000000D03*
%TO.N,/A0*%
X208026000Y-129540000D03*
%TO.N,/D0*%
X208026000Y-132080000D03*
%TO.N,/D1*%
X208026000Y-134620000D03*
%TO.N,/D2*%
X208026000Y-137160000D03*
%TO.N,GND*%
X208026000Y-139700000D03*
%TO.N,/D3*%
X223266000Y-139700000D03*
%TO.N,/D4*%
X223266000Y-137160000D03*
%TO.N,/D5*%
X223266000Y-134620000D03*
%TO.N,/D6*%
X223266000Y-132080000D03*
%TO.N,/D7*%
X223266000Y-129540000D03*
%TO.N,/CSROM*%
X223266000Y-127000000D03*
%TO.N,/A10*%
X223266000Y-124460000D03*
%TO.N,GND*%
X223266000Y-121920000D03*
%TO.N,/A11*%
X223266000Y-119380000D03*
%TO.N,/A9*%
X223266000Y-116840000D03*
%TO.N,/A8*%
X223266000Y-114300000D03*
%TO.N,/A13*%
X223266000Y-111760000D03*
%TO.N,/A14*%
X223266000Y-109220000D03*
%TO.N,+5V*%
X223266000Y-106680000D03*
%TD*%
D20*
%TO.N,Net-(C3-Pad2)*%
%TO.C,C5*%
X172466000Y-139700000D03*
%TO.N,GND*%
X187466000Y-139700000D03*
%TD*%
D10*
%TO.N,GND*%
%TO.C,U9*%
X209296000Y-71120000D03*
D21*
%TO.N,/CAS0*%
X210566000Y-68580000D03*
%TO.N,/DG7*%
X211836000Y-71120000D03*
%TO.N,/DG5*%
X213106000Y-68580000D03*
%TO.N,GND*%
X214376000Y-71120000D03*
%TO.N,/DG4*%
X215646000Y-68580000D03*
%TO.N,/DG6*%
X216916000Y-71120000D03*
%TO.N,/RW*%
X218186000Y-68580000D03*
%TO.N,/RAS*%
X219456000Y-71120000D03*
%TO.N,/MA9*%
X220726000Y-68580000D03*
%TO.N,/MA0*%
X221996000Y-71120000D03*
%TO.N,/MA1*%
X223266000Y-68580000D03*
%TO.N,/MA2*%
X224536000Y-71120000D03*
%TO.N,/MA3*%
X225806000Y-68580000D03*
%TO.N,+5V*%
X227076000Y-71120000D03*
%TO.N,/MA4*%
X228346000Y-68580000D03*
%TO.N,/MA5*%
X229616000Y-71120000D03*
%TO.N,/MA6*%
X230886000Y-68580000D03*
%TO.N,/MA7*%
X232156000Y-71120000D03*
%TO.N,/MA8*%
X233426000Y-68580000D03*
%TD*%
%TO.N,Net-(U7-XTAL_OUT)*%
%TO.C,C2*%
X225806000Y-116820000D03*
%TO.N,GND*%
X225806000Y-114320000D03*
%TD*%
D10*
%TO.N,+9V*%
%TO.C,D3*%
X228346000Y-48895000D03*
D11*
%TO.N,Net-(D3-A)*%
X220726000Y-48895000D03*
%TD*%
D26*
%TO.N,/DS2*%
%TO.C,U12*%
X192786000Y-128270000D03*
D27*
%TO.N,N/C*%
X192786000Y-125730000D03*
%TO.N,/FDC_WD*%
X195326000Y-128270000D03*
%TO.N,/FDC_DIR*%
X195326000Y-125730000D03*
%TO.N,/MOTOR_ON*%
X197866000Y-128270000D03*
X197866000Y-125730000D03*
%TO.N,/DS1*%
X200406000Y-128270000D03*
%TO.N,/DS0*%
X202946000Y-125730000D03*
%TO.N,/FDC_HD*%
X200406000Y-125730000D03*
%TO.N,/FDC_T0*%
X202946000Y-123190000D03*
%TO.N,/FDC_IP*%
X200406000Y-123190000D03*
%TO.N,/FDC_WPRT*%
X202946000Y-120650000D03*
%TO.N,N/C*%
X200406000Y-120650000D03*
%TO.N,GND*%
X202946000Y-118110000D03*
%TO.N,+5V*%
X200406000Y-118110000D03*
%TO.N,/RDW*%
X202946000Y-115570000D03*
%TO.N,/A1*%
X200406000Y-115570000D03*
%TO.N,/FDCON_CS*%
X202946000Y-113030000D03*
%TO.N,/A5*%
X200406000Y-113030000D03*
%TO.N,/A6*%
X202946000Y-110490000D03*
%TO.N,/A7*%
X200406000Y-107950000D03*
%TO.N,/D0*%
X200406000Y-110490000D03*
%TO.N,/D1*%
X197866000Y-107950000D03*
%TO.N,/D2*%
X197866000Y-110490000D03*
%TO.N,/D3*%
X195326000Y-107950000D03*
%TO.N,/D4*%
X195326000Y-110490000D03*
%TO.N,N/C*%
X192786000Y-107950000D03*
%TO.N,/D5*%
X192786000Y-110490000D03*
%TO.N,/D6*%
X190246000Y-107950000D03*
%TO.N,/D7*%
X190246000Y-110490000D03*
%TO.N,unconnected-(U12-DRQ-Pad31)*%
X187706000Y-107950000D03*
%TO.N,+5V*%
X187706000Y-110490000D03*
X185166000Y-107950000D03*
%TO.N,unconnected-(U12-INTRQ-Pad34)*%
X182626000Y-110490000D03*
%TO.N,/VSYNC*%
X185166000Y-110490000D03*
%TO.N,N/C*%
X182626000Y-113030000D03*
X185166000Y-113030000D03*
%TO.N,Net-(U12-OSC1)*%
X182626000Y-115570000D03*
%TO.N,Net-(U12-OSC2{slash}CLK)*%
X185166000Y-115570000D03*
%TO.N,Net-(U12-FILT)*%
X182626000Y-118110000D03*
%TO.N,Net-(U12-FE50)*%
X185166000Y-118110000D03*
%TO.N,Net-(U12-FE25)*%
X182626000Y-120650000D03*
%TO.N,unconnected-(U12-DR3-Pad43)*%
X185166000Y-120650000D03*
%TO.N,/FDC_RD*%
X182626000Y-123190000D03*
%TO.N,/MOTOR_ON*%
X185166000Y-123190000D03*
%TO.N,N/C*%
X182626000Y-125730000D03*
%TO.N,GND*%
X185166000Y-128270000D03*
X185166000Y-125730000D03*
%TO.N,/FDC_WG*%
X187706000Y-128270000D03*
%TO.N,/FDC_STEP*%
X187706000Y-125730000D03*
%TO.N,unconnected-(U12-RPM{slash}LC-Pad51)*%
X190246000Y-128270000D03*
%TO.N,unconnected-(U12-MOTOR3-Pad52)*%
X190246000Y-125730000D03*
%TD*%
D10*
%TO.N,Net-(D2-K)*%
%TO.C,D2*%
X218186000Y-46355000D03*
D11*
%TO.N,Net-(D1-A)*%
X210566000Y-46355000D03*
%TD*%
D21*
%TO.N,+9V*%
%TO.C,C9*%
X166076000Y-52070000D03*
%TO.N,GND*%
X161076000Y-52070000D03*
%TD*%
D10*
%TO.N,GND*%
%TO.C,U10*%
X209296000Y-55880000D03*
D21*
%TO.N,/CAS1*%
X210566000Y-53340000D03*
%TO.N,/DG11*%
X211836000Y-55880000D03*
%TO.N,/DG10*%
X213106000Y-53340000D03*
%TO.N,GND*%
X214376000Y-55880000D03*
%TO.N,/DG8*%
X215646000Y-53340000D03*
%TO.N,/DG9*%
X216916000Y-55880000D03*
%TO.N,/RW*%
X218186000Y-53340000D03*
%TO.N,/RAS*%
X219456000Y-55880000D03*
%TO.N,/MA9*%
X220726000Y-53340000D03*
%TO.N,/MA0*%
X221996000Y-55880000D03*
%TO.N,/MA1*%
X223266000Y-53340000D03*
%TO.N,/MA2*%
X224536000Y-55880000D03*
%TO.N,/MA3*%
X225806000Y-53340000D03*
%TO.N,+5V*%
X227076000Y-55880000D03*
%TO.N,/MA4*%
X228346000Y-53340000D03*
%TO.N,/MA5*%
X229616000Y-55880000D03*
%TO.N,/MA6*%
X230886000Y-53340000D03*
%TO.N,/MA7*%
X232156000Y-55880000D03*
%TO.N,/MA8*%
X233426000Y-53340000D03*
%TD*%
D12*
%TO.N,Net-(D3-A)*%
%TO.C,R2*%
X220726000Y-46355000D03*
D13*
%TO.N,Net-(Q1-B)*%
X228346000Y-46355000D03*
%TD*%
D10*
%TO.N,+9V*%
%TO.C,C8*%
X164737400Y-46990000D03*
D21*
%TO.N,GND*%
X162237400Y-46990000D03*
%TD*%
D14*
%TO.N,Net-(D2-K)*%
%TO.C,J3*%
X197866000Y-45085000D03*
%TD*%
D10*
%TO.N,+5V*%
%TO.C,RN1*%
X173736000Y-135890000D03*
D11*
%TO.N,unconnected-(RN1-R1-Pad2)*%
X173736000Y-133350000D03*
%TO.N,/FDC_IP*%
X173736000Y-130810000D03*
%TO.N,/DS0*%
X173736000Y-128270000D03*
%TO.N,/DS1*%
X173736000Y-125730000D03*
%TO.N,/FDC_RD*%
X173736000Y-123190000D03*
%TO.N,/FDC_T0*%
X173736000Y-120650000D03*
%TO.N,unconnected-(RN1-R7-Pad8)*%
X173736000Y-118110000D03*
%TO.N,/FDC_WPRT*%
X173736000Y-115570000D03*
%TO.N,/DS2*%
X173736000Y-113030000D03*
%TD*%
D30*
%TO.N,/AG9*%
X221996000Y-83820000D03*
%TO.N,/DTA*%
X203581000Y-81280000D03*
D31*
%TO.N,/RDW*%
X230886000Y-123190000D03*
%TO.N,/DTACK*%
X234696000Y-77470000D03*
D30*
%TO.N,/VSYNC*%
X193446400Y-105320000D03*
X198411000Y-105320000D03*
%TO.N,/FC1*%
X192654550Y-87630000D03*
%TO.N,/FC0*%
X203205000Y-85090000D03*
D31*
%TO.N,/A3*%
X228346000Y-127000000D03*
%TO.N,/A4*%
X229616000Y-139700000D03*
D30*
X210566000Y-140335000D03*
D31*
%TO.N,/A9*%
X241046000Y-121920000D03*
%TO.N,/A10*%
X241046000Y-124460000D03*
%TO.N,/A11*%
X240411000Y-119380000D03*
%TO.N,/A17*%
X216916000Y-109855000D03*
D30*
%TO.N,/IPL0*%
X201962300Y-91952800D03*
D31*
%TO.N,/D7*%
X195326000Y-131445000D03*
%TO.N,/D6*%
X192786000Y-132080000D03*
%TO.N,/D5*%
X185801000Y-133350000D03*
X187706000Y-113030000D03*
%TO.N,/D4*%
X187706000Y-115570000D03*
X200406000Y-137795000D03*
%TO.N,/D3*%
X182626000Y-107950000D03*
X182626000Y-137795000D03*
%TO.N,/IPL1*%
X237033000Y-45974000D03*
X164846000Y-96520000D03*
%TO.N,/A2*%
X228346000Y-128905000D03*
X210566000Y-74295000D03*
%TO.N,/A1*%
X218186000Y-73660000D03*
%TO.N,/VPA*%
X234442000Y-105410000D03*
%TO.N,/RESET*%
X195326000Y-83820000D03*
D30*
X221996000Y-86360000D03*
X227076000Y-103505000D03*
D31*
%TO.N,+5V*%
X202311000Y-106680000D03*
%TO.N,/DS*%
X234442000Y-102870000D03*
D30*
%TO.N,/D0*%
X212635600Y-132715000D03*
D31*
X177546000Y-130175000D03*
X177546000Y-105410000D03*
%TO.N,/D1*%
X180086000Y-106680000D03*
X181356000Y-132080000D03*
D30*
%TO.N,/D2*%
X217481200Y-137795000D03*
D31*
X181356000Y-134620000D03*
X180086000Y-110490000D03*
%TO.N,/16MHZ*%
X204216000Y-83820000D03*
D30*
%TO.N,/DG3*%
X207566500Y-66034700D03*
%TO.N,/DG2*%
X198628500Y-64730200D03*
X207653200Y-70352300D03*
X199673400Y-69785500D03*
%TO.N,/DG1*%
X206658400Y-65304200D03*
%TO.N,/DG0*%
X206944100Y-56417100D03*
X201041000Y-58420000D03*
X195758300Y-64003300D03*
D31*
%TO.N,/RW*%
X208026000Y-74295000D03*
D30*
%TO.N,/AG8*%
X217651600Y-113030000D03*
D31*
X228981000Y-113030000D03*
%TO.N,/AG9*%
X230886000Y-114300000D03*
%TO.N,/AG10*%
X229870000Y-125730000D03*
%TO.N,/AG11*%
X228346000Y-119380000D03*
D30*
X200276400Y-105010100D03*
%TO.N,/AG13*%
X205994000Y-107950000D03*
D31*
%TO.N,/DG15*%
X204851000Y-61595000D03*
%TO.N,/DG14*%
X202311000Y-60960000D03*
%TO.N,/DG13*%
X202311000Y-57785000D03*
%TO.N,/DG12*%
X204851000Y-57785000D03*
D30*
%TO.N,/DG11*%
X199771000Y-58435800D03*
%TO.N,/DG9*%
X197709900Y-57901800D03*
%TO.N,/DG6*%
X205740000Y-74676000D03*
X192006249Y-72779445D03*
%TO.N,/DG5*%
X193511000Y-72390000D03*
D31*
%TO.N,/CSRTC*%
X234696000Y-87630000D03*
%TO.N,/CSROM*%
X229616000Y-106680000D03*
X221361000Y-107950000D03*
%TO.N,Net-(D1-A)*%
X203708000Y-78486000D03*
D30*
X227794600Y-137574100D03*
D31*
X208026000Y-49022000D03*
%TO.N,/RDH*%
X188976000Y-50165000D03*
X214376000Y-48895000D03*
%TO.N,/FDCON_CS*%
X230378000Y-110744000D03*
%TO.N,Net-(Q1-C)*%
X230886000Y-134620000D03*
X241681000Y-133350000D03*
%TO.N,Net-(U12-FE50)*%
X197866000Y-118110000D03*
%TO.N,Net-(U12-FE25)*%
X196469000Y-135255000D03*
X196469000Y-120523000D03*
%TD*%
D32*
%TO.N,/DTA*%
X203581000Y-81280000D02*
X204851000Y-81280000D01*
X206121000Y-80010000D02*
X215011000Y-80010000D01*
X204851000Y-81280000D02*
X206121000Y-80010000D01*
%TO.N,/UDS*%
X206756000Y-78740000D02*
X204851000Y-78740000D01*
X204851000Y-78740000D02*
X203581000Y-80010000D01*
X203581000Y-80010000D02*
X181991000Y-80010000D01*
X181356000Y-77470000D02*
X180086000Y-76200000D01*
X181991000Y-80010000D02*
X181356000Y-79375000D01*
X181356000Y-79375000D02*
X181356000Y-77470000D01*
%TO.N,/AG9*%
X221996000Y-83820000D02*
X210566000Y-95250000D01*
X210566000Y-95250000D02*
X203568800Y-95250000D01*
X201028800Y-97790000D02*
X203568800Y-95250000D01*
%TO.N,/AG15*%
X232156000Y-83820000D02*
X230886000Y-85090000D01*
X220746600Y-82550000D02*
X210566000Y-92730600D01*
X230886000Y-85090000D02*
X227711000Y-85090000D01*
X227711000Y-85090000D02*
X225171000Y-82550000D01*
X225171000Y-82550000D02*
X220746600Y-82550000D01*
X210566000Y-92730600D02*
X204195400Y-92730600D01*
X204195400Y-92730600D02*
X200406000Y-96520000D01*
%TO.N,/AG18*%
X229616000Y-83820000D02*
X228346000Y-83820000D01*
X199136000Y-95250000D02*
X197866000Y-93980000D01*
X228346000Y-83820000D02*
X226441000Y-81915000D01*
X226441000Y-81915000D02*
X219046100Y-81915000D01*
X219046100Y-81915000D02*
X210566000Y-90395100D01*
X210566000Y-90395100D02*
X205604900Y-90395100D01*
X205604900Y-90395100D02*
X200750000Y-95250000D01*
X200750000Y-95250000D02*
X199136000Y-95250000D01*
%TO.N,/AG7*%
X229614500Y-81281500D02*
X218592700Y-81281500D01*
X218592700Y-81281500D02*
X209931000Y-89943200D01*
X209931000Y-89943200D02*
X205192800Y-89943200D01*
X205192800Y-89943200D02*
X202426000Y-92710000D01*
X202426000Y-92710000D02*
X196596000Y-92710000D01*
X196596000Y-92710000D02*
X190246000Y-99060000D01*
%TO.N,/AG12*%
X197867500Y-101598500D02*
X200206200Y-101598500D01*
X200206200Y-101598500D02*
X204014700Y-97790000D01*
X219651408Y-87630000D02*
X230886000Y-87630000D01*
X204014700Y-97790000D02*
X209491409Y-97790000D01*
X209491409Y-97790000D02*
X219651408Y-87630000D01*
X230886000Y-87630000D02*
X232156000Y-86360000D01*
%TO.N,/AG10*%
X195326000Y-101600000D02*
X196408000Y-102682000D01*
X196408000Y-102682000D02*
X198796500Y-102682000D01*
X198796500Y-102682000D02*
X199428100Y-102050400D01*
X199428100Y-102050400D02*
X206940600Y-102050400D01*
X210566000Y-99695000D02*
X210566000Y-98425000D01*
X206940600Y-102050400D02*
X208661000Y-100330000D01*
X208661000Y-100330000D02*
X209931000Y-100330000D01*
X209931000Y-100330000D02*
X210566000Y-99695000D01*
X210566000Y-98425000D02*
X220091000Y-88900000D01*
X220091000Y-88900000D02*
X229616000Y-88900000D01*
%TO.N,/AG6*%
X229616000Y-91440000D02*
X222631000Y-91440000D01*
X199689400Y-102651900D02*
X199207400Y-103133900D01*
X199207400Y-103133900D02*
X191779900Y-103133900D01*
X191779900Y-103133900D02*
X190246000Y-101600000D01*
X222631000Y-91440000D02*
X215646000Y-98425000D01*
X215646000Y-98425000D02*
X215646000Y-102235000D01*
X215646000Y-102235000D02*
X215229100Y-102651900D01*
X215229100Y-102651900D02*
X199689400Y-102651900D01*
%TO.N,/DTA*%
X215646000Y-77470000D02*
X216916000Y-76200000D01*
X215011000Y-80010000D02*
X215646000Y-79375000D01*
X215646000Y-79375000D02*
X215646000Y-77470000D01*
%TO.N,/RW*%
X204216000Y-82550000D02*
X181356000Y-82550000D01*
X206756000Y-83820000D02*
X205486000Y-83820000D01*
X205486000Y-83820000D02*
X204216000Y-82550000D01*
%TO.N,/AG3*%
X209296000Y-83820000D02*
X208026000Y-85090000D01*
X208026000Y-85090000D02*
X205296000Y-85090000D01*
X205296000Y-85090000D02*
X202756000Y-87630000D01*
X202756000Y-87630000D02*
X196596000Y-87630000D01*
X196596000Y-87630000D02*
X185166000Y-99060000D01*
%TO.N,/FC0*%
X180086000Y-99060000D02*
X194056000Y-85090000D01*
X194056000Y-85090000D02*
X203205000Y-85090000D01*
%TO.N,/DG5*%
X193511000Y-72390000D02*
X192241000Y-71120000D01*
X192241000Y-71120000D02*
X186693200Y-71120000D01*
X186693200Y-71120000D02*
X185166000Y-69592800D01*
X185166000Y-69592800D02*
X185166000Y-68580000D01*
%TO.N,/VSYNC*%
X193446400Y-105320000D02*
X198411000Y-105320000D01*
X198501000Y-105410000D02*
X198411000Y-105320000D01*
%TO.N,/FC1*%
X181356000Y-100330000D02*
X180086000Y-101600000D01*
X192654550Y-87630000D02*
X181356000Y-98848300D01*
X181356000Y-98848300D02*
X181356000Y-100330000D01*
%TO.N,/A3*%
X242316000Y-77470000D02*
X238506000Y-73660000D01*
X235331000Y-133985000D02*
X239141000Y-133985000D01*
X227076000Y-125730000D02*
X216194100Y-125730000D01*
X233426000Y-132080000D02*
X235331000Y-133985000D01*
X242316000Y-130810000D02*
X242316000Y-77470000D01*
X239141000Y-133985000D02*
X242316000Y-130810000D01*
X213654100Y-123190000D02*
X210566000Y-123190000D01*
X210566000Y-123190000D02*
X209296000Y-121920000D01*
X228346000Y-127000000D02*
X227076000Y-125730000D01*
X216194100Y-125730000D02*
X213654100Y-123190000D01*
X209296000Y-121920000D02*
X208026000Y-121920000D01*
%TO.N,/A7*%
X234061000Y-100330000D02*
X234061000Y-93980000D01*
X206845800Y-104685200D02*
X229705800Y-104685200D01*
X236601000Y-92710000D02*
X237236000Y-92075000D01*
X234061000Y-93980000D02*
X235331000Y-92710000D01*
X235331000Y-92710000D02*
X236601000Y-92710000D01*
X229705800Y-104685200D02*
X234061000Y-100330000D01*
X205254800Y-108988800D02*
X205254800Y-106276200D01*
X237236000Y-85090000D02*
X238506000Y-83820000D01*
X237236000Y-92075000D02*
X237236000Y-85090000D01*
X205254800Y-106276200D02*
X206845800Y-104685200D01*
X208026000Y-111760000D02*
X205254800Y-108988800D01*
%TO.N,/A8*%
X241046000Y-88900000D02*
X238506000Y-86360000D01*
X241046000Y-113665000D02*
X241046000Y-88900000D01*
X224536000Y-115570000D02*
X239141000Y-115570000D01*
X223266000Y-114300000D02*
X224536000Y-115570000D01*
X239141000Y-115570000D02*
X241046000Y-113665000D01*
%TO.N,/A9*%
X241046000Y-121920000D02*
X239776000Y-120650000D01*
X232166000Y-120650000D02*
X229616000Y-118100000D01*
X239776000Y-120650000D02*
X232166000Y-120650000D01*
X229616000Y-118100000D02*
X224526000Y-118100000D01*
X224526000Y-118100000D02*
X223266000Y-116840000D01*
%TO.N,/A10*%
X225243400Y-123117600D02*
X226513400Y-123117600D01*
X223266000Y-125095000D02*
X225243400Y-123117600D01*
X226513400Y-123117600D02*
X227711000Y-121920000D01*
X231521000Y-121920000D02*
X232791000Y-123190000D01*
X239776000Y-123190000D02*
X241046000Y-124460000D01*
X227711000Y-121920000D02*
X231521000Y-121920000D01*
X232791000Y-123190000D02*
X239776000Y-123190000D01*
%TO.N,/A12*%
X209296000Y-107950000D02*
X213818250Y-107950000D01*
X234696000Y-98451400D02*
X235331000Y-97816400D01*
X213818250Y-107950000D02*
X216358250Y-105410000D01*
X208026000Y-109220000D02*
X209296000Y-107950000D01*
X237209600Y-97816400D02*
X238506000Y-96520000D01*
X234696000Y-100965000D02*
X234696000Y-98451400D01*
X216358250Y-105410000D02*
X230251000Y-105410000D01*
X235331000Y-97816400D02*
X237209600Y-97816400D01*
X230251000Y-105410000D02*
X234696000Y-100965000D01*
%TO.N,/A13*%
X240411000Y-100965000D02*
X240411000Y-109855000D01*
X233971000Y-110490000D02*
X232791000Y-111670000D01*
X232791000Y-111670000D02*
X223356000Y-111670000D01*
X239776000Y-110490000D02*
X233971000Y-110490000D01*
X238506000Y-99060000D02*
X240411000Y-100965000D01*
X240411000Y-109855000D02*
X239776000Y-110490000D01*
%TO.N,/A14*%
X237236000Y-102870000D02*
X237236000Y-107315000D01*
X225331100Y-109220000D02*
X223266000Y-109220000D01*
X236601000Y-107950000D02*
X226601100Y-107950000D01*
X238506000Y-101600000D02*
X237236000Y-102870000D01*
X226601100Y-107950000D02*
X225331100Y-109220000D01*
X237236000Y-107315000D02*
X236601000Y-107950000D01*
%TO.N,/IPL0*%
X237236000Y-67310000D02*
X237236000Y-71755000D01*
X230251000Y-80010000D02*
X217357300Y-80010000D01*
X230886000Y-79375000D02*
X230251000Y-80010000D01*
X230886000Y-76962000D02*
X230886000Y-79375000D01*
X235966000Y-66040000D02*
X237236000Y-67310000D01*
X236601000Y-72390000D02*
X235458000Y-72390000D01*
X217357300Y-80010000D02*
X209794500Y-87572800D01*
X235458000Y-72390000D02*
X230886000Y-76962000D01*
X209794500Y-87572800D02*
X206342300Y-87572800D01*
X237236000Y-71755000D02*
X236601000Y-72390000D01*
X206342300Y-87572800D02*
X201962300Y-91952800D01*
%TO.N,/D7*%
X225806000Y-127000000D02*
X223266000Y-129540000D01*
%TO.N,/D4*%
X232156000Y-128270000D02*
X225806000Y-134620000D01*
X237236000Y-128270000D02*
X232156000Y-128270000D01*
X225806000Y-134620000D02*
X223266000Y-137160000D01*
X238506000Y-127000000D02*
X237236000Y-128270000D01*
%TO.N,/D3*%
X194261300Y-106885300D02*
X195326000Y-107950000D01*
X182626000Y-107950000D02*
X183690700Y-106885300D01*
X183690700Y-106885300D02*
X194261300Y-106885300D01*
%TO.N,/A1*%
X224536000Y-120650000D02*
X207391000Y-120650000D01*
X225806000Y-121920000D02*
X224536000Y-120650000D01*
X206847100Y-121193900D02*
X206847100Y-126456100D01*
X206847100Y-126456100D02*
X208026000Y-127635000D01*
X207391000Y-120650000D02*
X206847100Y-121193900D01*
%TO.N,/RESET*%
X182626000Y-83820000D02*
X195326000Y-83820000D01*
X177546000Y-88900000D02*
X182626000Y-83820000D01*
%TO.N,+5V*%
X211836000Y-129540000D02*
X210566000Y-128270000D01*
X221361000Y-116840000D02*
X221361000Y-111247100D01*
X204358650Y-110347350D02*
X207041300Y-113030000D01*
X199136000Y-63108300D02*
X195326000Y-66918300D01*
X199136000Y-60706000D02*
X199136000Y-63108300D01*
X215011000Y-114412400D02*
X215011000Y-116840000D01*
X213146000Y-137200000D02*
X211836000Y-135890000D01*
X220091000Y-118110000D02*
X221361000Y-116840000D01*
X213741000Y-118110000D02*
X220091000Y-118110000D01*
X222118100Y-110490000D02*
X221361000Y-111247100D01*
X215011000Y-116840000D02*
X213741000Y-118110000D01*
X207041300Y-113030000D02*
X213628600Y-113030000D01*
X206963600Y-128270000D02*
X206328600Y-127635000D01*
X225171000Y-110490000D02*
X222118100Y-110490000D01*
X213741000Y-118110000D02*
X206756000Y-118110000D01*
X210566000Y-128270000D02*
X206963600Y-128270000D01*
X228021000Y-109220000D02*
X226441000Y-109220000D01*
X202311000Y-106680000D02*
X204358650Y-108727650D01*
X206328600Y-127635000D02*
X206328600Y-118537400D01*
X204358650Y-108727650D02*
X204358650Y-110347350D01*
X195326000Y-68580000D02*
X195326000Y-66918300D01*
X213628600Y-113030000D02*
X215011000Y-114412400D01*
X226441000Y-109220000D02*
X225171000Y-110490000D01*
X206756000Y-118110000D02*
X206328600Y-118537400D01*
X213146000Y-139700000D02*
X213146000Y-137200000D01*
X211836000Y-135890000D02*
X211836000Y-129540000D01*
%TO.N,/D0*%
X234696000Y-125730000D02*
X235966000Y-124460000D01*
X199136000Y-107741600D02*
X197439400Y-106045000D01*
X212635600Y-132715000D02*
X214540600Y-130810000D01*
X200406000Y-110490000D02*
X199136000Y-109220000D01*
X199136000Y-109220000D02*
X199136000Y-107741600D01*
X197439400Y-106045000D02*
X181991000Y-106045000D01*
X181991000Y-106045000D02*
X181356000Y-105410000D01*
X214540600Y-130810000D02*
X228025009Y-130810000D01*
X181356000Y-105410000D02*
X177546000Y-105410000D01*
X233105009Y-125730000D02*
X234696000Y-125730000D01*
X228025009Y-130810000D02*
X233105009Y-125730000D01*
%TO.N,/D1*%
X180086000Y-106680000D02*
X180086000Y-107950000D01*
X180086000Y-107950000D02*
X181356000Y-109220000D01*
X181356000Y-109220000D02*
X197866000Y-109220000D01*
X197866000Y-109220000D02*
X197866000Y-107950000D01*
%TO.N,/D2*%
X229616000Y-133350000D02*
X229616000Y-137160000D01*
X181122200Y-111526200D02*
X180086000Y-110490000D01*
X218116200Y-138430000D02*
X217481200Y-137795000D01*
X232156000Y-130810000D02*
X229616000Y-133350000D01*
X234696000Y-130810000D02*
X232156000Y-130810000D01*
X229616000Y-137160000D02*
X228346000Y-138430000D01*
X197866000Y-110490000D02*
X196829800Y-111526200D01*
X235966000Y-129540000D02*
X234696000Y-130810000D01*
X228346000Y-138430000D02*
X218116200Y-138430000D01*
X196829800Y-111526200D02*
X181122200Y-111526200D01*
%TO.N,/DG3*%
X211836000Y-66040000D02*
X210709100Y-67166900D01*
X208276100Y-67166900D02*
X207566500Y-66457300D01*
X207566500Y-66457300D02*
X207566500Y-66034700D01*
X210709100Y-67166900D02*
X208276100Y-67166900D01*
%TO.N,/DG2*%
X214376000Y-68944200D02*
X213327100Y-69993100D01*
X213327100Y-69993100D02*
X208012400Y-69993100D01*
X200315500Y-69143400D02*
X200315500Y-66417200D01*
X199673400Y-69785500D02*
X200315500Y-69143400D01*
X200315500Y-66417200D02*
X198628500Y-64730200D01*
X216519000Y-66040000D02*
X214376000Y-68183000D01*
X208012400Y-69993100D02*
X207653200Y-70352300D01*
X214376000Y-68183000D02*
X214376000Y-68944200D01*
%TO.N,/DG1*%
X213106000Y-63500000D02*
X211693000Y-64913000D01*
X211693000Y-64913000D02*
X207049600Y-64913000D01*
X207049600Y-64913000D02*
X206658400Y-65304200D01*
%TO.N,/DG0*%
X199899600Y-59561400D02*
X198146800Y-59561400D01*
X197689000Y-62072600D02*
X195758300Y-64003300D01*
X197689000Y-60019200D02*
X197689000Y-62072600D01*
X210441500Y-61165700D02*
X210441500Y-59914500D01*
X198146800Y-59561400D02*
X197689000Y-60019200D01*
X210441500Y-59914500D02*
X206944100Y-56417100D01*
X215646000Y-63500000D02*
X214376000Y-62230000D01*
X214376000Y-62230000D02*
X211505800Y-62230000D01*
X211505800Y-62230000D02*
X210441500Y-61165700D01*
X201041000Y-58420000D02*
X199899600Y-59561400D01*
%TO.N,/RW*%
X218186000Y-53340000D02*
X215646000Y-50800000D01*
X215646000Y-47625000D02*
X211929100Y-43908100D01*
X215646000Y-50800000D02*
X215646000Y-47625000D01*
X178816000Y-77470000D02*
X177546000Y-76200000D01*
X178816000Y-80010000D02*
X178816000Y-77470000D01*
X196502900Y-43908100D02*
X192786000Y-47625000D01*
X211929100Y-43908100D02*
X196502900Y-43908100D01*
X181356000Y-82550000D02*
X178816000Y-80010000D01*
%TO.N,/AG1*%
X182626000Y-99060000D02*
X183896000Y-100330000D01*
X217317200Y-103103800D02*
X218186000Y-102235000D01*
X187907000Y-100330000D02*
X188976000Y-101399000D01*
X199876600Y-103103800D02*
X217317200Y-103103800D01*
X218186000Y-102235000D02*
X218186000Y-100330000D01*
X188976000Y-101399000D02*
X188976000Y-101900300D01*
X218186000Y-100330000D02*
X219456000Y-99060000D01*
X199394600Y-103585800D02*
X199876600Y-103103800D01*
X188976000Y-101900300D02*
X190661500Y-103585800D01*
X190661500Y-103585800D02*
X199394600Y-103585800D01*
X183896000Y-100330000D02*
X187907000Y-100330000D01*
%TO.N,/AG2*%
X224033400Y-104007600D02*
X225806000Y-102235000D01*
X227711000Y-95250000D02*
X230886000Y-95250000D01*
X225806000Y-97155000D02*
X227711000Y-95250000D01*
X188055600Y-104489600D02*
X199769000Y-104489600D01*
X199769000Y-104489600D02*
X200251000Y-104007600D01*
X200251000Y-104007600D02*
X224033400Y-104007600D01*
X225806000Y-102235000D02*
X225806000Y-97155000D01*
X230886000Y-95250000D02*
X232156000Y-93980000D01*
X185166000Y-101600000D02*
X188055600Y-104489600D01*
%TO.N,/AG4*%
X200063800Y-103555700D02*
X221945300Y-103555700D01*
X199581800Y-104037700D02*
X200063800Y-103555700D01*
X223266000Y-96520000D02*
X225806000Y-93980000D01*
X221945300Y-103555700D02*
X223266000Y-102235000D01*
X225806000Y-93980000D02*
X229616000Y-93980000D01*
X187706000Y-101600000D02*
X190143700Y-104037700D01*
X190143700Y-104037700D02*
X199581800Y-104037700D01*
X223266000Y-102235000D02*
X223266000Y-96520000D01*
%TO.N,/AG5*%
X206756000Y-86360000D02*
X205232000Y-86360000D01*
X201422000Y-90170000D02*
X196596000Y-90170000D01*
X196596000Y-90170000D02*
X187706000Y-99060000D01*
X205232000Y-86360000D02*
X201422000Y-90170000D01*
%TO.N,/AG8*%
X211836000Y-111760000D02*
X216381600Y-111760000D01*
X216381600Y-111760000D02*
X217651600Y-113030000D01*
%TO.N,/AG9*%
X194056000Y-97790000D02*
X201028800Y-97790000D01*
X192786000Y-99060000D02*
X194056000Y-97790000D01*
%TO.N,/AG11*%
X210566000Y-115570000D02*
X206121000Y-115570000D01*
X200276400Y-106032000D02*
X200276400Y-105010100D01*
X211836000Y-116840000D02*
X210566000Y-115570000D01*
X201676000Y-107431600D02*
X200276400Y-106032000D01*
X205486000Y-114935000D02*
X205486000Y-113030000D01*
X206121000Y-115570000D02*
X205486000Y-114935000D01*
X205486000Y-113030000D02*
X204216000Y-111760000D01*
X204216000Y-111760000D02*
X202311000Y-111760000D01*
X201676000Y-111125000D02*
X202311000Y-111760000D01*
X201676000Y-111125000D02*
X201676000Y-107431600D01*
%TO.N,/DG15*%
X202415726Y-56723000D02*
X203529363Y-57836637D01*
X189184000Y-56723000D02*
X202415726Y-56723000D01*
X203529363Y-60273363D02*
X204851000Y-61595000D01*
X203529363Y-57836637D02*
X203529363Y-60273363D01*
X187706000Y-55245000D02*
X189184000Y-56723000D01*
%TO.N,/DG13*%
X201700900Y-57174900D02*
X202311000Y-57785000D01*
X182626000Y-55245000D02*
X184555900Y-57174900D01*
X184555900Y-57174900D02*
X201700900Y-57174900D01*
%TO.N,/DG12*%
X196596000Y-71755000D02*
X196596000Y-74930000D01*
X194056000Y-69215000D02*
X196596000Y-71755000D01*
X194056000Y-67310000D02*
X194056000Y-69215000D01*
X178816000Y-62230000D02*
X181356000Y-64770000D01*
X196596000Y-74930000D02*
X197866000Y-76200000D01*
X181356000Y-64770000D02*
X191516000Y-64770000D01*
X180086000Y-55245000D02*
X178816000Y-56515000D01*
X191516000Y-64770000D02*
X194056000Y-67310000D01*
X178816000Y-56515000D02*
X178816000Y-62230000D01*
%TO.N,/DG10*%
X176276000Y-56515000D02*
X175006000Y-55245000D01*
X195326000Y-71755000D02*
X193421000Y-69850000D01*
X192151000Y-69850000D02*
X191516000Y-69215000D01*
X180086000Y-66040000D02*
X176276000Y-62230000D01*
X191516000Y-67310000D02*
X190246000Y-66040000D01*
X190246000Y-66040000D02*
X180086000Y-66040000D01*
X176276000Y-62230000D02*
X176276000Y-56515000D01*
X193421000Y-69850000D02*
X192151000Y-69850000D01*
X195326000Y-76200000D02*
X195326000Y-71755000D01*
X191516000Y-69215000D02*
X191516000Y-67310000D01*
%TO.N,/DG8*%
X176621300Y-67020300D02*
X188051300Y-67020300D01*
X169926000Y-60325000D02*
X176621300Y-67020300D01*
X194373500Y-74612500D02*
X192786000Y-76200000D01*
X190246000Y-70485000D02*
X192786000Y-70485000D01*
X188976000Y-67945000D02*
X188976000Y-69215000D01*
X188976000Y-69215000D02*
X190246000Y-70485000D01*
X169926000Y-55245000D02*
X169926000Y-60325000D01*
X188051300Y-67020300D02*
X188976000Y-67945000D01*
X194373500Y-72072500D02*
X194373500Y-74612500D01*
X192786000Y-70485000D02*
X194373500Y-72072500D01*
%TO.N,/DG6*%
X205740000Y-74676000D02*
X207581000Y-72835000D01*
X207581000Y-72835000D02*
X215201000Y-72835000D01*
X190246000Y-74539694D02*
X190246000Y-76200000D01*
X192006249Y-72779445D02*
X190246000Y-74539694D01*
X215201000Y-72835000D02*
X216916000Y-71120000D01*
%TO.N,/CSRTC*%
X221996000Y-95885000D02*
X225171000Y-92710000D01*
X225171000Y-92710000D02*
X233426000Y-92710000D01*
X221996000Y-99060000D02*
X221996000Y-95885000D01*
X234696000Y-91440000D02*
X234696000Y-87630000D01*
X233426000Y-92710000D02*
X234696000Y-91440000D01*
%TO.N,/CSROM*%
X225881300Y-107950000D02*
X227151300Y-106680000D01*
X227151300Y-106680000D02*
X229616000Y-106680000D01*
X221361000Y-107950000D02*
X225881300Y-107950000D01*
%TO.N,/DS2*%
X191204000Y-129852000D02*
X192786000Y-128270000D01*
X166751000Y-120015000D02*
X168656000Y-121920000D01*
X167640000Y-113030000D02*
X166751000Y-113919000D01*
X168656000Y-121920000D02*
X170021000Y-123285000D01*
X173736000Y-113030000D02*
X167640000Y-113030000D01*
X170021000Y-123285000D02*
X171926000Y-123285000D01*
X173246000Y-124605000D02*
X174516000Y-124605000D01*
X171926000Y-123285000D02*
X173246000Y-124605000D01*
X174516000Y-124605000D02*
X179763000Y-129852000D01*
X179763000Y-129852000D02*
X191204000Y-129852000D01*
X166751000Y-113919000D02*
X166751000Y-120015000D01*
%TO.N,/WRH*%
X206121000Y-77470000D02*
X204851000Y-76200000D01*
X204851000Y-65548100D02*
X207881000Y-62518100D01*
X213106000Y-77470000D02*
X206121000Y-77470000D01*
X204851000Y-76200000D02*
X204851000Y-65548100D01*
X207881000Y-62518100D02*
X207881000Y-58910000D01*
X207881000Y-58910000D02*
X197866000Y-48895000D01*
X197866000Y-48895000D02*
X197866000Y-47625000D01*
X214376000Y-78740000D02*
X213106000Y-77470000D01*
%TO.N,/FDC_WD*%
X177001200Y-110580200D02*
X180721000Y-114300000D01*
X181991000Y-127000000D02*
X194056000Y-127000000D01*
X169835800Y-110580200D02*
X177001200Y-110580200D01*
X180721000Y-125730000D02*
X181991000Y-127000000D01*
X194056000Y-127000000D02*
X195326000Y-128270000D01*
X168656000Y-111760000D02*
X169835800Y-110580200D01*
X180721000Y-114300000D02*
X180721000Y-125730000D01*
%TD*%
M02*
