%TF.GenerationSoftware,KiCad,Pcbnew,7.0.11+1*%
%TF.CreationDate,2024-04-14T15:49:11+02:00*%
%TF.ProjectId,GoldCard,476f6c64-4361-4726-942e-6b696361645f,rev?*%
%TF.SameCoordinates,Original*%
%TF.FileFunction,Legend,Top*%
%TF.FilePolarity,Positive*%
%FSLAX46Y46*%
G04 Gerber Fmt 4.6, Leading zero omitted, Abs format (unit mm)*
G04 Created by KiCad (PCBNEW 7.0.11+1) date 2024-04-14 15:49:11*
%MOMM*%
%LPD*%
G01*
G04 APERTURE LIST*
%ADD10C,0.150000*%
%ADD11C,0.120000*%
%ADD12C,0.100000*%
G04 APERTURE END LIST*
D10*
X241185819Y-96532506D02*
X241900104Y-96532506D01*
X241900104Y-96532506D02*
X242042961Y-96580125D01*
X242042961Y-96580125D02*
X242138200Y-96675363D01*
X242138200Y-96675363D02*
X242185819Y-96818220D01*
X242185819Y-96818220D02*
X242185819Y-96913458D01*
X242185819Y-95580125D02*
X242185819Y-96056315D01*
X242185819Y-96056315D02*
X241185819Y-96056315D01*
X242090580Y-94675363D02*
X242138200Y-94722982D01*
X242138200Y-94722982D02*
X242185819Y-94865839D01*
X242185819Y-94865839D02*
X242185819Y-94961077D01*
X242185819Y-94961077D02*
X242138200Y-95103934D01*
X242138200Y-95103934D02*
X242042961Y-95199172D01*
X242042961Y-95199172D02*
X241947723Y-95246791D01*
X241947723Y-95246791D02*
X241757247Y-95294410D01*
X241757247Y-95294410D02*
X241614390Y-95294410D01*
X241614390Y-95294410D02*
X241423914Y-95246791D01*
X241423914Y-95246791D02*
X241328676Y-95199172D01*
X241328676Y-95199172D02*
X241233438Y-95103934D01*
X241233438Y-95103934D02*
X241185819Y-94961077D01*
X241185819Y-94961077D02*
X241185819Y-94865839D01*
X241185819Y-94865839D02*
X241233438Y-94722982D01*
X241233438Y-94722982D02*
X241281057Y-94675363D01*
X241185819Y-93961077D02*
X241900104Y-93961077D01*
X241900104Y-93961077D02*
X242042961Y-94008696D01*
X242042961Y-94008696D02*
X242138200Y-94103934D01*
X242138200Y-94103934D02*
X242185819Y-94246791D01*
X242185819Y-94246791D02*
X242185819Y-94342029D01*
X242185819Y-93008696D02*
X242185819Y-93484886D01*
X242185819Y-93484886D02*
X241185819Y-93484886D01*
X242090580Y-92103934D02*
X242138200Y-92151553D01*
X242138200Y-92151553D02*
X242185819Y-92294410D01*
X242185819Y-92294410D02*
X242185819Y-92389648D01*
X242185819Y-92389648D02*
X242138200Y-92532505D01*
X242138200Y-92532505D02*
X242042961Y-92627743D01*
X242042961Y-92627743D02*
X241947723Y-92675362D01*
X241947723Y-92675362D02*
X241757247Y-92722981D01*
X241757247Y-92722981D02*
X241614390Y-92722981D01*
X241614390Y-92722981D02*
X241423914Y-92675362D01*
X241423914Y-92675362D02*
X241328676Y-92627743D01*
X241328676Y-92627743D02*
X241233438Y-92532505D01*
X241233438Y-92532505D02*
X241185819Y-92389648D01*
X241185819Y-92389648D02*
X241185819Y-92294410D01*
X241185819Y-92294410D02*
X241233438Y-92151553D01*
X241233438Y-92151553D02*
X241281057Y-92103934D01*
X241185819Y-91389648D02*
X241900104Y-91389648D01*
X241900104Y-91389648D02*
X242042961Y-91437267D01*
X242042961Y-91437267D02*
X242138200Y-91532505D01*
X242138200Y-91532505D02*
X242185819Y-91675362D01*
X242185819Y-91675362D02*
X242185819Y-91770600D01*
X242185819Y-90437267D02*
X242185819Y-90913457D01*
X242185819Y-90913457D02*
X241185819Y-90913457D01*
X242090580Y-89532505D02*
X242138200Y-89580124D01*
X242138200Y-89580124D02*
X242185819Y-89722981D01*
X242185819Y-89722981D02*
X242185819Y-89818219D01*
X242185819Y-89818219D02*
X242138200Y-89961076D01*
X242138200Y-89961076D02*
X242042961Y-90056314D01*
X242042961Y-90056314D02*
X241947723Y-90103933D01*
X241947723Y-90103933D02*
X241757247Y-90151552D01*
X241757247Y-90151552D02*
X241614390Y-90151552D01*
X241614390Y-90151552D02*
X241423914Y-90103933D01*
X241423914Y-90103933D02*
X241328676Y-90056314D01*
X241328676Y-90056314D02*
X241233438Y-89961076D01*
X241233438Y-89961076D02*
X241185819Y-89818219D01*
X241185819Y-89818219D02*
X241185819Y-89722981D01*
X241185819Y-89722981D02*
X241233438Y-89580124D01*
X241233438Y-89580124D02*
X241281057Y-89532505D01*
X241185819Y-88818219D02*
X241900104Y-88818219D01*
X241900104Y-88818219D02*
X242042961Y-88865838D01*
X242042961Y-88865838D02*
X242138200Y-88961076D01*
X242138200Y-88961076D02*
X242185819Y-89103933D01*
X242185819Y-89103933D02*
X242185819Y-89199171D01*
X242185819Y-87865838D02*
X242185819Y-88342028D01*
X242185819Y-88342028D02*
X241185819Y-88342028D01*
X242090580Y-86961076D02*
X242138200Y-87008695D01*
X242138200Y-87008695D02*
X242185819Y-87151552D01*
X242185819Y-87151552D02*
X242185819Y-87246790D01*
X242185819Y-87246790D02*
X242138200Y-87389647D01*
X242138200Y-87389647D02*
X242042961Y-87484885D01*
X242042961Y-87484885D02*
X241947723Y-87532504D01*
X241947723Y-87532504D02*
X241757247Y-87580123D01*
X241757247Y-87580123D02*
X241614390Y-87580123D01*
X241614390Y-87580123D02*
X241423914Y-87532504D01*
X241423914Y-87532504D02*
X241328676Y-87484885D01*
X241328676Y-87484885D02*
X241233438Y-87389647D01*
X241233438Y-87389647D02*
X241185819Y-87246790D01*
X241185819Y-87246790D02*
X241185819Y-87151552D01*
X241185819Y-87151552D02*
X241233438Y-87008695D01*
X241233438Y-87008695D02*
X241281057Y-86961076D01*
X214884095Y-131534819D02*
X214884095Y-132344342D01*
X214884095Y-132344342D02*
X214931714Y-132439580D01*
X214931714Y-132439580D02*
X214979333Y-132487200D01*
X214979333Y-132487200D02*
X215074571Y-132534819D01*
X215074571Y-132534819D02*
X215265047Y-132534819D01*
X215265047Y-132534819D02*
X215360285Y-132487200D01*
X215360285Y-132487200D02*
X215407904Y-132439580D01*
X215407904Y-132439580D02*
X215455523Y-132344342D01*
X215455523Y-132344342D02*
X215455523Y-131534819D01*
X216360285Y-131534819D02*
X216169809Y-131534819D01*
X216169809Y-131534819D02*
X216074571Y-131582438D01*
X216074571Y-131582438D02*
X216026952Y-131630057D01*
X216026952Y-131630057D02*
X215931714Y-131772914D01*
X215931714Y-131772914D02*
X215884095Y-131963390D01*
X215884095Y-131963390D02*
X215884095Y-132344342D01*
X215884095Y-132344342D02*
X215931714Y-132439580D01*
X215931714Y-132439580D02*
X215979333Y-132487200D01*
X215979333Y-132487200D02*
X216074571Y-132534819D01*
X216074571Y-132534819D02*
X216265047Y-132534819D01*
X216265047Y-132534819D02*
X216360285Y-132487200D01*
X216360285Y-132487200D02*
X216407904Y-132439580D01*
X216407904Y-132439580D02*
X216455523Y-132344342D01*
X216455523Y-132344342D02*
X216455523Y-132106247D01*
X216455523Y-132106247D02*
X216407904Y-132011009D01*
X216407904Y-132011009D02*
X216360285Y-131963390D01*
X216360285Y-131963390D02*
X216265047Y-131915771D01*
X216265047Y-131915771D02*
X216074571Y-131915771D01*
X216074571Y-131915771D02*
X215979333Y-131963390D01*
X215979333Y-131963390D02*
X215931714Y-132011009D01*
X215931714Y-132011009D02*
X215884095Y-132106247D01*
X215100819Y-116784047D02*
X215100819Y-116117381D01*
X215100819Y-116117381D02*
X216100819Y-116545952D01*
X215434152Y-115307857D02*
X216100819Y-115307857D01*
X215053200Y-115545952D02*
X215767485Y-115784047D01*
X215767485Y-115784047D02*
X215767485Y-115165000D01*
X216100819Y-114307857D02*
X216100819Y-114784047D01*
X216100819Y-114784047D02*
X215100819Y-114784047D01*
X216053200Y-114022142D02*
X216100819Y-113879285D01*
X216100819Y-113879285D02*
X216100819Y-113641190D01*
X216100819Y-113641190D02*
X216053200Y-113545952D01*
X216053200Y-113545952D02*
X216005580Y-113498333D01*
X216005580Y-113498333D02*
X215910342Y-113450714D01*
X215910342Y-113450714D02*
X215815104Y-113450714D01*
X215815104Y-113450714D02*
X215719866Y-113498333D01*
X215719866Y-113498333D02*
X215672247Y-113545952D01*
X215672247Y-113545952D02*
X215624628Y-113641190D01*
X215624628Y-113641190D02*
X215577009Y-113831666D01*
X215577009Y-113831666D02*
X215529390Y-113926904D01*
X215529390Y-113926904D02*
X215481771Y-113974523D01*
X215481771Y-113974523D02*
X215386533Y-114022142D01*
X215386533Y-114022142D02*
X215291295Y-114022142D01*
X215291295Y-114022142D02*
X215196057Y-113974523D01*
X215196057Y-113974523D02*
X215148438Y-113926904D01*
X215148438Y-113926904D02*
X215100819Y-113831666D01*
X215100819Y-113831666D02*
X215100819Y-113593571D01*
X215100819Y-113593571D02*
X215148438Y-113450714D01*
X215196057Y-113069761D02*
X215148438Y-113022142D01*
X215148438Y-113022142D02*
X215100819Y-112926904D01*
X215100819Y-112926904D02*
X215100819Y-112688809D01*
X215100819Y-112688809D02*
X215148438Y-112593571D01*
X215148438Y-112593571D02*
X215196057Y-112545952D01*
X215196057Y-112545952D02*
X215291295Y-112498333D01*
X215291295Y-112498333D02*
X215386533Y-112498333D01*
X215386533Y-112498333D02*
X215529390Y-112545952D01*
X215529390Y-112545952D02*
X216100819Y-113117380D01*
X216100819Y-113117380D02*
X216100819Y-112498333D01*
X215434152Y-111641190D02*
X216100819Y-111641190D01*
X215053200Y-111879285D02*
X215767485Y-112117380D01*
X215767485Y-112117380D02*
X215767485Y-111498333D01*
X215100819Y-110641190D02*
X215100819Y-111117380D01*
X215100819Y-111117380D02*
X215577009Y-111164999D01*
X215577009Y-111164999D02*
X215529390Y-111117380D01*
X215529390Y-111117380D02*
X215481771Y-111022142D01*
X215481771Y-111022142D02*
X215481771Y-110784047D01*
X215481771Y-110784047D02*
X215529390Y-110688809D01*
X215529390Y-110688809D02*
X215577009Y-110641190D01*
X215577009Y-110641190D02*
X215672247Y-110593571D01*
X215672247Y-110593571D02*
X215910342Y-110593571D01*
X215910342Y-110593571D02*
X216005580Y-110641190D01*
X216005580Y-110641190D02*
X216053200Y-110688809D01*
X216053200Y-110688809D02*
X216100819Y-110784047D01*
X216100819Y-110784047D02*
X216100819Y-111022142D01*
X216100819Y-111022142D02*
X216053200Y-111117380D01*
X216053200Y-111117380D02*
X216005580Y-111164999D01*
X176730819Y-128436666D02*
X176254628Y-128769999D01*
X176730819Y-129008094D02*
X175730819Y-129008094D01*
X175730819Y-129008094D02*
X175730819Y-128627142D01*
X175730819Y-128627142D02*
X175778438Y-128531904D01*
X175778438Y-128531904D02*
X175826057Y-128484285D01*
X175826057Y-128484285D02*
X175921295Y-128436666D01*
X175921295Y-128436666D02*
X176064152Y-128436666D01*
X176064152Y-128436666D02*
X176159390Y-128484285D01*
X176159390Y-128484285D02*
X176207009Y-128531904D01*
X176207009Y-128531904D02*
X176254628Y-128627142D01*
X176254628Y-128627142D02*
X176254628Y-129008094D01*
X175730819Y-128103332D02*
X175730819Y-127484285D01*
X175730819Y-127484285D02*
X176111771Y-127817618D01*
X176111771Y-127817618D02*
X176111771Y-127674761D01*
X176111771Y-127674761D02*
X176159390Y-127579523D01*
X176159390Y-127579523D02*
X176207009Y-127531904D01*
X176207009Y-127531904D02*
X176302247Y-127484285D01*
X176302247Y-127484285D02*
X176540342Y-127484285D01*
X176540342Y-127484285D02*
X176635580Y-127531904D01*
X176635580Y-127531904D02*
X176683200Y-127579523D01*
X176683200Y-127579523D02*
X176730819Y-127674761D01*
X176730819Y-127674761D02*
X176730819Y-127960475D01*
X176730819Y-127960475D02*
X176683200Y-128055713D01*
X176683200Y-128055713D02*
X176635580Y-128103332D01*
X165207666Y-138884819D02*
X165207666Y-139599104D01*
X165207666Y-139599104D02*
X165160047Y-139741961D01*
X165160047Y-139741961D02*
X165064809Y-139837200D01*
X165064809Y-139837200D02*
X164921952Y-139884819D01*
X164921952Y-139884819D02*
X164826714Y-139884819D01*
X165636238Y-138980057D02*
X165683857Y-138932438D01*
X165683857Y-138932438D02*
X165779095Y-138884819D01*
X165779095Y-138884819D02*
X166017190Y-138884819D01*
X166017190Y-138884819D02*
X166112428Y-138932438D01*
X166112428Y-138932438D02*
X166160047Y-138980057D01*
X166160047Y-138980057D02*
X166207666Y-139075295D01*
X166207666Y-139075295D02*
X166207666Y-139170533D01*
X166207666Y-139170533D02*
X166160047Y-139313390D01*
X166160047Y-139313390D02*
X165588619Y-139884819D01*
X165588619Y-139884819D02*
X166207666Y-139884819D01*
X197110819Y-65531904D02*
X197920342Y-65531904D01*
X197920342Y-65531904D02*
X198015580Y-65484285D01*
X198015580Y-65484285D02*
X198063200Y-65436666D01*
X198063200Y-65436666D02*
X198110819Y-65341428D01*
X198110819Y-65341428D02*
X198110819Y-65150952D01*
X198110819Y-65150952D02*
X198063200Y-65055714D01*
X198063200Y-65055714D02*
X198015580Y-65008095D01*
X198015580Y-65008095D02*
X197920342Y-64960476D01*
X197920342Y-64960476D02*
X197110819Y-64960476D01*
X197444152Y-64055714D02*
X198110819Y-64055714D01*
X197063200Y-64293809D02*
X197777485Y-64531904D01*
X197777485Y-64531904D02*
X197777485Y-63912857D01*
X174426952Y-64224819D02*
X175093618Y-64224819D01*
X175093618Y-64224819D02*
X174665047Y-65224819D01*
X175903142Y-64558152D02*
X175903142Y-65224819D01*
X175665047Y-64177200D02*
X175426952Y-64891485D01*
X175426952Y-64891485D02*
X176045999Y-64891485D01*
X176903142Y-65224819D02*
X176426952Y-65224819D01*
X176426952Y-65224819D02*
X176426952Y-64224819D01*
X177188857Y-65177200D02*
X177331714Y-65224819D01*
X177331714Y-65224819D02*
X177569809Y-65224819D01*
X177569809Y-65224819D02*
X177665047Y-65177200D01*
X177665047Y-65177200D02*
X177712666Y-65129580D01*
X177712666Y-65129580D02*
X177760285Y-65034342D01*
X177760285Y-65034342D02*
X177760285Y-64939104D01*
X177760285Y-64939104D02*
X177712666Y-64843866D01*
X177712666Y-64843866D02*
X177665047Y-64796247D01*
X177665047Y-64796247D02*
X177569809Y-64748628D01*
X177569809Y-64748628D02*
X177379333Y-64701009D01*
X177379333Y-64701009D02*
X177284095Y-64653390D01*
X177284095Y-64653390D02*
X177236476Y-64605771D01*
X177236476Y-64605771D02*
X177188857Y-64510533D01*
X177188857Y-64510533D02*
X177188857Y-64415295D01*
X177188857Y-64415295D02*
X177236476Y-64320057D01*
X177236476Y-64320057D02*
X177284095Y-64272438D01*
X177284095Y-64272438D02*
X177379333Y-64224819D01*
X177379333Y-64224819D02*
X177617428Y-64224819D01*
X177617428Y-64224819D02*
X177760285Y-64272438D01*
X178141238Y-64320057D02*
X178188857Y-64272438D01*
X178188857Y-64272438D02*
X178284095Y-64224819D01*
X178284095Y-64224819D02*
X178522190Y-64224819D01*
X178522190Y-64224819D02*
X178617428Y-64272438D01*
X178617428Y-64272438D02*
X178665047Y-64320057D01*
X178665047Y-64320057D02*
X178712666Y-64415295D01*
X178712666Y-64415295D02*
X178712666Y-64510533D01*
X178712666Y-64510533D02*
X178665047Y-64653390D01*
X178665047Y-64653390D02*
X178093619Y-65224819D01*
X178093619Y-65224819D02*
X178712666Y-65224819D01*
X179569809Y-64558152D02*
X179569809Y-65224819D01*
X179331714Y-64177200D02*
X179093619Y-64891485D01*
X179093619Y-64891485D02*
X179712666Y-64891485D01*
X180569809Y-64224819D02*
X180093619Y-64224819D01*
X180093619Y-64224819D02*
X180046000Y-64701009D01*
X180046000Y-64701009D02*
X180093619Y-64653390D01*
X180093619Y-64653390D02*
X180188857Y-64605771D01*
X180188857Y-64605771D02*
X180426952Y-64605771D01*
X180426952Y-64605771D02*
X180522190Y-64653390D01*
X180522190Y-64653390D02*
X180569809Y-64701009D01*
X180569809Y-64701009D02*
X180617428Y-64796247D01*
X180617428Y-64796247D02*
X180617428Y-65034342D01*
X180617428Y-65034342D02*
X180569809Y-65129580D01*
X180569809Y-65129580D02*
X180522190Y-65177200D01*
X180522190Y-65177200D02*
X180426952Y-65224819D01*
X180426952Y-65224819D02*
X180188857Y-65224819D01*
X180188857Y-65224819D02*
X180093619Y-65177200D01*
X180093619Y-65177200D02*
X180046000Y-65129580D01*
X231044737Y-45508081D02*
X230949499Y-45460462D01*
X230949499Y-45460462D02*
X230854261Y-45365224D01*
X230854261Y-45365224D02*
X230711404Y-45222366D01*
X230711404Y-45222366D02*
X230616166Y-45174747D01*
X230616166Y-45174747D02*
X230520928Y-45174747D01*
X230568547Y-45412843D02*
X230473309Y-45365224D01*
X230473309Y-45365224D02*
X230378071Y-45269985D01*
X230378071Y-45269985D02*
X230330452Y-45079509D01*
X230330452Y-45079509D02*
X230330452Y-44746176D01*
X230330452Y-44746176D02*
X230378071Y-44555700D01*
X230378071Y-44555700D02*
X230473309Y-44460462D01*
X230473309Y-44460462D02*
X230568547Y-44412843D01*
X230568547Y-44412843D02*
X230759023Y-44412843D01*
X230759023Y-44412843D02*
X230854261Y-44460462D01*
X230854261Y-44460462D02*
X230949499Y-44555700D01*
X230949499Y-44555700D02*
X230997118Y-44746176D01*
X230997118Y-44746176D02*
X230997118Y-45079509D01*
X230997118Y-45079509D02*
X230949499Y-45269985D01*
X230949499Y-45269985D02*
X230854261Y-45365224D01*
X230854261Y-45365224D02*
X230759023Y-45412843D01*
X230759023Y-45412843D02*
X230568547Y-45412843D01*
X231949499Y-45412843D02*
X231378071Y-45412843D01*
X231663785Y-45412843D02*
X231663785Y-44412843D01*
X231663785Y-44412843D02*
X231568547Y-44555700D01*
X231568547Y-44555700D02*
X231473309Y-44650938D01*
X231473309Y-44650938D02*
X231378071Y-44698557D01*
X203477905Y-44689819D02*
X203477905Y-43689819D01*
X203477905Y-43689819D02*
X203716000Y-43689819D01*
X203716000Y-43689819D02*
X203858857Y-43737438D01*
X203858857Y-43737438D02*
X203954095Y-43832676D01*
X203954095Y-43832676D02*
X204001714Y-43927914D01*
X204001714Y-43927914D02*
X204049333Y-44118390D01*
X204049333Y-44118390D02*
X204049333Y-44261247D01*
X204049333Y-44261247D02*
X204001714Y-44451723D01*
X204001714Y-44451723D02*
X203954095Y-44546961D01*
X203954095Y-44546961D02*
X203858857Y-44642200D01*
X203858857Y-44642200D02*
X203716000Y-44689819D01*
X203716000Y-44689819D02*
X203477905Y-44689819D01*
X205001714Y-44689819D02*
X204430286Y-44689819D01*
X204716000Y-44689819D02*
X204716000Y-43689819D01*
X204716000Y-43689819D02*
X204620762Y-43832676D01*
X204620762Y-43832676D02*
X204525524Y-43927914D01*
X204525524Y-43927914D02*
X204430286Y-43975533D01*
X200144095Y-45009819D02*
X200144095Y-44009819D01*
X200715523Y-45009819D02*
X200286952Y-44438390D01*
X200715523Y-44009819D02*
X200144095Y-44581247D01*
X159639095Y-83512819D02*
X159639095Y-82512819D01*
X159639095Y-82989009D02*
X160210523Y-82989009D01*
X160210523Y-83512819D02*
X160210523Y-82512819D01*
X161210523Y-83512819D02*
X160639095Y-83512819D01*
X160924809Y-83512819D02*
X160924809Y-82512819D01*
X160924809Y-82512819D02*
X160829571Y-82655676D01*
X160829571Y-82655676D02*
X160734333Y-82750914D01*
X160734333Y-82750914D02*
X160639095Y-82798533D01*
X197565333Y-140059580D02*
X197517714Y-140107200D01*
X197517714Y-140107200D02*
X197374857Y-140154819D01*
X197374857Y-140154819D02*
X197279619Y-140154819D01*
X197279619Y-140154819D02*
X197136762Y-140107200D01*
X197136762Y-140107200D02*
X197041524Y-140011961D01*
X197041524Y-140011961D02*
X196993905Y-139916723D01*
X196993905Y-139916723D02*
X196946286Y-139726247D01*
X196946286Y-139726247D02*
X196946286Y-139583390D01*
X196946286Y-139583390D02*
X196993905Y-139392914D01*
X196993905Y-139392914D02*
X197041524Y-139297676D01*
X197041524Y-139297676D02*
X197136762Y-139202438D01*
X197136762Y-139202438D02*
X197279619Y-139154819D01*
X197279619Y-139154819D02*
X197374857Y-139154819D01*
X197374857Y-139154819D02*
X197517714Y-139202438D01*
X197517714Y-139202438D02*
X197565333Y-139250057D01*
X197898667Y-139154819D02*
X198517714Y-139154819D01*
X198517714Y-139154819D02*
X198184381Y-139535771D01*
X198184381Y-139535771D02*
X198327238Y-139535771D01*
X198327238Y-139535771D02*
X198422476Y-139583390D01*
X198422476Y-139583390D02*
X198470095Y-139631009D01*
X198470095Y-139631009D02*
X198517714Y-139726247D01*
X198517714Y-139726247D02*
X198517714Y-139964342D01*
X198517714Y-139964342D02*
X198470095Y-140059580D01*
X198470095Y-140059580D02*
X198422476Y-140107200D01*
X198422476Y-140107200D02*
X198327238Y-140154819D01*
X198327238Y-140154819D02*
X198041524Y-140154819D01*
X198041524Y-140154819D02*
X197946286Y-140107200D01*
X197946286Y-140107200D02*
X197898667Y-140059580D01*
X203065142Y-50651580D02*
X203017523Y-50699200D01*
X203017523Y-50699200D02*
X202874666Y-50746819D01*
X202874666Y-50746819D02*
X202779428Y-50746819D01*
X202779428Y-50746819D02*
X202636571Y-50699200D01*
X202636571Y-50699200D02*
X202541333Y-50603961D01*
X202541333Y-50603961D02*
X202493714Y-50508723D01*
X202493714Y-50508723D02*
X202446095Y-50318247D01*
X202446095Y-50318247D02*
X202446095Y-50175390D01*
X202446095Y-50175390D02*
X202493714Y-49984914D01*
X202493714Y-49984914D02*
X202541333Y-49889676D01*
X202541333Y-49889676D02*
X202636571Y-49794438D01*
X202636571Y-49794438D02*
X202779428Y-49746819D01*
X202779428Y-49746819D02*
X202874666Y-49746819D01*
X202874666Y-49746819D02*
X203017523Y-49794438D01*
X203017523Y-49794438D02*
X203065142Y-49842057D01*
X204017523Y-50746819D02*
X203446095Y-50746819D01*
X203731809Y-50746819D02*
X203731809Y-49746819D01*
X203731809Y-49746819D02*
X203636571Y-49889676D01*
X203636571Y-49889676D02*
X203541333Y-49984914D01*
X203541333Y-49984914D02*
X203446095Y-50032533D01*
X204636571Y-49746819D02*
X204731809Y-49746819D01*
X204731809Y-49746819D02*
X204827047Y-49794438D01*
X204827047Y-49794438D02*
X204874666Y-49842057D01*
X204874666Y-49842057D02*
X204922285Y-49937295D01*
X204922285Y-49937295D02*
X204969904Y-50127771D01*
X204969904Y-50127771D02*
X204969904Y-50365866D01*
X204969904Y-50365866D02*
X204922285Y-50556342D01*
X204922285Y-50556342D02*
X204874666Y-50651580D01*
X204874666Y-50651580D02*
X204827047Y-50699200D01*
X204827047Y-50699200D02*
X204731809Y-50746819D01*
X204731809Y-50746819D02*
X204636571Y-50746819D01*
X204636571Y-50746819D02*
X204541333Y-50699200D01*
X204541333Y-50699200D02*
X204493714Y-50651580D01*
X204493714Y-50651580D02*
X204446095Y-50556342D01*
X204446095Y-50556342D02*
X204398476Y-50365866D01*
X204398476Y-50365866D02*
X204398476Y-50127771D01*
X204398476Y-50127771D02*
X204446095Y-49937295D01*
X204446095Y-49937295D02*
X204493714Y-49842057D01*
X204493714Y-49842057D02*
X204541333Y-49794438D01*
X204541333Y-49794438D02*
X204636571Y-49746819D01*
X174490142Y-106277580D02*
X174442523Y-106325200D01*
X174442523Y-106325200D02*
X174299666Y-106372819D01*
X174299666Y-106372819D02*
X174204428Y-106372819D01*
X174204428Y-106372819D02*
X174061571Y-106325200D01*
X174061571Y-106325200D02*
X173966333Y-106229961D01*
X173966333Y-106229961D02*
X173918714Y-106134723D01*
X173918714Y-106134723D02*
X173871095Y-105944247D01*
X173871095Y-105944247D02*
X173871095Y-105801390D01*
X173871095Y-105801390D02*
X173918714Y-105610914D01*
X173918714Y-105610914D02*
X173966333Y-105515676D01*
X173966333Y-105515676D02*
X174061571Y-105420438D01*
X174061571Y-105420438D02*
X174204428Y-105372819D01*
X174204428Y-105372819D02*
X174299666Y-105372819D01*
X174299666Y-105372819D02*
X174442523Y-105420438D01*
X174442523Y-105420438D02*
X174490142Y-105468057D01*
X175442523Y-106372819D02*
X174871095Y-106372819D01*
X175156809Y-106372819D02*
X175156809Y-105372819D01*
X175156809Y-105372819D02*
X175061571Y-105515676D01*
X175061571Y-105515676D02*
X174966333Y-105610914D01*
X174966333Y-105610914D02*
X174871095Y-105658533D01*
X176299666Y-105706152D02*
X176299666Y-106372819D01*
X176061571Y-105325200D02*
X175823476Y-106039485D01*
X175823476Y-106039485D02*
X176442523Y-106039485D01*
X231227333Y-114659580D02*
X231179714Y-114707200D01*
X231179714Y-114707200D02*
X231036857Y-114754819D01*
X231036857Y-114754819D02*
X230941619Y-114754819D01*
X230941619Y-114754819D02*
X230798762Y-114707200D01*
X230798762Y-114707200D02*
X230703524Y-114611961D01*
X230703524Y-114611961D02*
X230655905Y-114516723D01*
X230655905Y-114516723D02*
X230608286Y-114326247D01*
X230608286Y-114326247D02*
X230608286Y-114183390D01*
X230608286Y-114183390D02*
X230655905Y-113992914D01*
X230655905Y-113992914D02*
X230703524Y-113897676D01*
X230703524Y-113897676D02*
X230798762Y-113802438D01*
X230798762Y-113802438D02*
X230941619Y-113754819D01*
X230941619Y-113754819D02*
X231036857Y-113754819D01*
X231036857Y-113754819D02*
X231179714Y-113802438D01*
X231179714Y-113802438D02*
X231227333Y-113850057D01*
X232179714Y-114754819D02*
X231608286Y-114754819D01*
X231894000Y-114754819D02*
X231894000Y-113754819D01*
X231894000Y-113754819D02*
X231798762Y-113897676D01*
X231798762Y-113897676D02*
X231703524Y-113992914D01*
X231703524Y-113992914D02*
X231608286Y-114040533D01*
X229774809Y-116056628D02*
X229774809Y-116532819D01*
X229441476Y-115532819D02*
X229774809Y-116056628D01*
X229774809Y-116056628D02*
X230108142Y-115532819D01*
X230346238Y-115532819D02*
X230965285Y-115532819D01*
X230965285Y-115532819D02*
X230631952Y-115913771D01*
X230631952Y-115913771D02*
X230774809Y-115913771D01*
X230774809Y-115913771D02*
X230870047Y-115961390D01*
X230870047Y-115961390D02*
X230917666Y-116009009D01*
X230917666Y-116009009D02*
X230965285Y-116104247D01*
X230965285Y-116104247D02*
X230965285Y-116342342D01*
X230965285Y-116342342D02*
X230917666Y-116437580D01*
X230917666Y-116437580D02*
X230870047Y-116485200D01*
X230870047Y-116485200D02*
X230774809Y-116532819D01*
X230774809Y-116532819D02*
X230489095Y-116532819D01*
X230489095Y-116532819D02*
X230393857Y-116485200D01*
X230393857Y-116485200D02*
X230346238Y-116437580D01*
X207772095Y-62954819D02*
X207772095Y-63764342D01*
X207772095Y-63764342D02*
X207819714Y-63859580D01*
X207819714Y-63859580D02*
X207867333Y-63907200D01*
X207867333Y-63907200D02*
X207962571Y-63954819D01*
X207962571Y-63954819D02*
X208153047Y-63954819D01*
X208153047Y-63954819D02*
X208248285Y-63907200D01*
X208248285Y-63907200D02*
X208295904Y-63859580D01*
X208295904Y-63859580D02*
X208343523Y-63764342D01*
X208343523Y-63764342D02*
X208343523Y-62954819D01*
X208962571Y-63383390D02*
X208867333Y-63335771D01*
X208867333Y-63335771D02*
X208819714Y-63288152D01*
X208819714Y-63288152D02*
X208772095Y-63192914D01*
X208772095Y-63192914D02*
X208772095Y-63145295D01*
X208772095Y-63145295D02*
X208819714Y-63050057D01*
X208819714Y-63050057D02*
X208867333Y-63002438D01*
X208867333Y-63002438D02*
X208962571Y-62954819D01*
X208962571Y-62954819D02*
X209153047Y-62954819D01*
X209153047Y-62954819D02*
X209248285Y-63002438D01*
X209248285Y-63002438D02*
X209295904Y-63050057D01*
X209295904Y-63050057D02*
X209343523Y-63145295D01*
X209343523Y-63145295D02*
X209343523Y-63192914D01*
X209343523Y-63192914D02*
X209295904Y-63288152D01*
X209295904Y-63288152D02*
X209248285Y-63335771D01*
X209248285Y-63335771D02*
X209153047Y-63383390D01*
X209153047Y-63383390D02*
X208962571Y-63383390D01*
X208962571Y-63383390D02*
X208867333Y-63431009D01*
X208867333Y-63431009D02*
X208819714Y-63478628D01*
X208819714Y-63478628D02*
X208772095Y-63573866D01*
X208772095Y-63573866D02*
X208772095Y-63764342D01*
X208772095Y-63764342D02*
X208819714Y-63859580D01*
X208819714Y-63859580D02*
X208867333Y-63907200D01*
X208867333Y-63907200D02*
X208962571Y-63954819D01*
X208962571Y-63954819D02*
X209153047Y-63954819D01*
X209153047Y-63954819D02*
X209248285Y-63907200D01*
X209248285Y-63907200D02*
X209295904Y-63859580D01*
X209295904Y-63859580D02*
X209343523Y-63764342D01*
X209343523Y-63764342D02*
X209343523Y-63573866D01*
X209343523Y-63573866D02*
X209295904Y-63478628D01*
X209295904Y-63478628D02*
X209248285Y-63431009D01*
X209248285Y-63431009D02*
X209153047Y-63383390D01*
X194484666Y-70574819D02*
X194484666Y-71289104D01*
X194484666Y-71289104D02*
X194437047Y-71431961D01*
X194437047Y-71431961D02*
X194341809Y-71527200D01*
X194341809Y-71527200D02*
X194198952Y-71574819D01*
X194198952Y-71574819D02*
X194103714Y-71574819D01*
X195437047Y-70574819D02*
X194960857Y-70574819D01*
X194960857Y-70574819D02*
X194913238Y-71051009D01*
X194913238Y-71051009D02*
X194960857Y-71003390D01*
X194960857Y-71003390D02*
X195056095Y-70955771D01*
X195056095Y-70955771D02*
X195294190Y-70955771D01*
X195294190Y-70955771D02*
X195389428Y-71003390D01*
X195389428Y-71003390D02*
X195437047Y-71051009D01*
X195437047Y-71051009D02*
X195484666Y-71146247D01*
X195484666Y-71146247D02*
X195484666Y-71384342D01*
X195484666Y-71384342D02*
X195437047Y-71479580D01*
X195437047Y-71479580D02*
X195389428Y-71527200D01*
X195389428Y-71527200D02*
X195294190Y-71574819D01*
X195294190Y-71574819D02*
X195056095Y-71574819D01*
X195056095Y-71574819D02*
X194960857Y-71527200D01*
X194960857Y-71527200D02*
X194913238Y-71479580D01*
X202938142Y-55477580D02*
X202890523Y-55525200D01*
X202890523Y-55525200D02*
X202747666Y-55572819D01*
X202747666Y-55572819D02*
X202652428Y-55572819D01*
X202652428Y-55572819D02*
X202509571Y-55525200D01*
X202509571Y-55525200D02*
X202414333Y-55429961D01*
X202414333Y-55429961D02*
X202366714Y-55334723D01*
X202366714Y-55334723D02*
X202319095Y-55144247D01*
X202319095Y-55144247D02*
X202319095Y-55001390D01*
X202319095Y-55001390D02*
X202366714Y-54810914D01*
X202366714Y-54810914D02*
X202414333Y-54715676D01*
X202414333Y-54715676D02*
X202509571Y-54620438D01*
X202509571Y-54620438D02*
X202652428Y-54572819D01*
X202652428Y-54572819D02*
X202747666Y-54572819D01*
X202747666Y-54572819D02*
X202890523Y-54620438D01*
X202890523Y-54620438D02*
X202938142Y-54668057D01*
X203890523Y-55572819D02*
X203319095Y-55572819D01*
X203604809Y-55572819D02*
X203604809Y-54572819D01*
X203604809Y-54572819D02*
X203509571Y-54715676D01*
X203509571Y-54715676D02*
X203414333Y-54810914D01*
X203414333Y-54810914D02*
X203319095Y-54858533D01*
X204795285Y-54572819D02*
X204319095Y-54572819D01*
X204319095Y-54572819D02*
X204271476Y-55049009D01*
X204271476Y-55049009D02*
X204319095Y-55001390D01*
X204319095Y-55001390D02*
X204414333Y-54953771D01*
X204414333Y-54953771D02*
X204652428Y-54953771D01*
X204652428Y-54953771D02*
X204747666Y-55001390D01*
X204747666Y-55001390D02*
X204795285Y-55049009D01*
X204795285Y-55049009D02*
X204842904Y-55144247D01*
X204842904Y-55144247D02*
X204842904Y-55382342D01*
X204842904Y-55382342D02*
X204795285Y-55477580D01*
X204795285Y-55477580D02*
X204747666Y-55525200D01*
X204747666Y-55525200D02*
X204652428Y-55572819D01*
X204652428Y-55572819D02*
X204414333Y-55572819D01*
X204414333Y-55572819D02*
X204319095Y-55525200D01*
X204319095Y-55525200D02*
X204271476Y-55477580D01*
X174672666Y-44539819D02*
X174672666Y-45254104D01*
X174672666Y-45254104D02*
X174625047Y-45396961D01*
X174625047Y-45396961D02*
X174529809Y-45492200D01*
X174529809Y-45492200D02*
X174386952Y-45539819D01*
X174386952Y-45539819D02*
X174291714Y-45539819D01*
X175577428Y-44539819D02*
X175386952Y-44539819D01*
X175386952Y-44539819D02*
X175291714Y-44587438D01*
X175291714Y-44587438D02*
X175244095Y-44635057D01*
X175244095Y-44635057D02*
X175148857Y-44777914D01*
X175148857Y-44777914D02*
X175101238Y-44968390D01*
X175101238Y-44968390D02*
X175101238Y-45349342D01*
X175101238Y-45349342D02*
X175148857Y-45444580D01*
X175148857Y-45444580D02*
X175196476Y-45492200D01*
X175196476Y-45492200D02*
X175291714Y-45539819D01*
X175291714Y-45539819D02*
X175482190Y-45539819D01*
X175482190Y-45539819D02*
X175577428Y-45492200D01*
X175577428Y-45492200D02*
X175625047Y-45444580D01*
X175625047Y-45444580D02*
X175672666Y-45349342D01*
X175672666Y-45349342D02*
X175672666Y-45111247D01*
X175672666Y-45111247D02*
X175625047Y-45016009D01*
X175625047Y-45016009D02*
X175577428Y-44968390D01*
X175577428Y-44968390D02*
X175482190Y-44920771D01*
X175482190Y-44920771D02*
X175291714Y-44920771D01*
X175291714Y-44920771D02*
X175196476Y-44968390D01*
X175196476Y-44968390D02*
X175148857Y-45016009D01*
X175148857Y-45016009D02*
X175101238Y-45111247D01*
X214463333Y-51254819D02*
X214130000Y-50778628D01*
X213891905Y-51254819D02*
X213891905Y-50254819D01*
X213891905Y-50254819D02*
X214272857Y-50254819D01*
X214272857Y-50254819D02*
X214368095Y-50302438D01*
X214368095Y-50302438D02*
X214415714Y-50350057D01*
X214415714Y-50350057D02*
X214463333Y-50445295D01*
X214463333Y-50445295D02*
X214463333Y-50588152D01*
X214463333Y-50588152D02*
X214415714Y-50683390D01*
X214415714Y-50683390D02*
X214368095Y-50731009D01*
X214368095Y-50731009D02*
X214272857Y-50778628D01*
X214272857Y-50778628D02*
X213891905Y-50778628D01*
X215415714Y-51254819D02*
X214844286Y-51254819D01*
X215130000Y-51254819D02*
X215130000Y-50254819D01*
X215130000Y-50254819D02*
X215034762Y-50397676D01*
X215034762Y-50397676D02*
X214939524Y-50492914D01*
X214939524Y-50492914D02*
X214844286Y-50540533D01*
X197445333Y-135614580D02*
X197397714Y-135662200D01*
X197397714Y-135662200D02*
X197254857Y-135709819D01*
X197254857Y-135709819D02*
X197159619Y-135709819D01*
X197159619Y-135709819D02*
X197016762Y-135662200D01*
X197016762Y-135662200D02*
X196921524Y-135566961D01*
X196921524Y-135566961D02*
X196873905Y-135471723D01*
X196873905Y-135471723D02*
X196826286Y-135281247D01*
X196826286Y-135281247D02*
X196826286Y-135138390D01*
X196826286Y-135138390D02*
X196873905Y-134947914D01*
X196873905Y-134947914D02*
X196921524Y-134852676D01*
X196921524Y-134852676D02*
X197016762Y-134757438D01*
X197016762Y-134757438D02*
X197159619Y-134709819D01*
X197159619Y-134709819D02*
X197254857Y-134709819D01*
X197254857Y-134709819D02*
X197397714Y-134757438D01*
X197397714Y-134757438D02*
X197445333Y-134805057D01*
X198302476Y-135043152D02*
X198302476Y-135709819D01*
X198064381Y-134662200D02*
X197826286Y-135376485D01*
X197826286Y-135376485D02*
X198445333Y-135376485D01*
X182439333Y-134979580D02*
X182391714Y-135027200D01*
X182391714Y-135027200D02*
X182248857Y-135074819D01*
X182248857Y-135074819D02*
X182153619Y-135074819D01*
X182153619Y-135074819D02*
X182010762Y-135027200D01*
X182010762Y-135027200D02*
X181915524Y-134931961D01*
X181915524Y-134931961D02*
X181867905Y-134836723D01*
X181867905Y-134836723D02*
X181820286Y-134646247D01*
X181820286Y-134646247D02*
X181820286Y-134503390D01*
X181820286Y-134503390D02*
X181867905Y-134312914D01*
X181867905Y-134312914D02*
X181915524Y-134217676D01*
X181915524Y-134217676D02*
X182010762Y-134122438D01*
X182010762Y-134122438D02*
X182153619Y-134074819D01*
X182153619Y-134074819D02*
X182248857Y-134074819D01*
X182248857Y-134074819D02*
X182391714Y-134122438D01*
X182391714Y-134122438D02*
X182439333Y-134170057D01*
X183296476Y-134074819D02*
X183106000Y-134074819D01*
X183106000Y-134074819D02*
X183010762Y-134122438D01*
X183010762Y-134122438D02*
X182963143Y-134170057D01*
X182963143Y-134170057D02*
X182867905Y-134312914D01*
X182867905Y-134312914D02*
X182820286Y-134503390D01*
X182820286Y-134503390D02*
X182820286Y-134884342D01*
X182820286Y-134884342D02*
X182867905Y-134979580D01*
X182867905Y-134979580D02*
X182915524Y-135027200D01*
X182915524Y-135027200D02*
X183010762Y-135074819D01*
X183010762Y-135074819D02*
X183201238Y-135074819D01*
X183201238Y-135074819D02*
X183296476Y-135027200D01*
X183296476Y-135027200D02*
X183344095Y-134979580D01*
X183344095Y-134979580D02*
X183391714Y-134884342D01*
X183391714Y-134884342D02*
X183391714Y-134646247D01*
X183391714Y-134646247D02*
X183344095Y-134551009D01*
X183344095Y-134551009D02*
X183296476Y-134503390D01*
X183296476Y-134503390D02*
X183201238Y-134455771D01*
X183201238Y-134455771D02*
X183010762Y-134455771D01*
X183010762Y-134455771D02*
X182915524Y-134503390D01*
X182915524Y-134503390D02*
X182867905Y-134551009D01*
X182867905Y-134551009D02*
X182820286Y-134646247D01*
X202186476Y-56020819D02*
X202853142Y-57020819D01*
X202853142Y-56020819D02*
X202186476Y-57020819D01*
X203757904Y-57020819D02*
X203186476Y-57020819D01*
X203472190Y-57020819D02*
X203472190Y-56020819D01*
X203472190Y-56020819D02*
X203376952Y-56163676D01*
X203376952Y-56163676D02*
X203281714Y-56258914D01*
X203281714Y-56258914D02*
X203186476Y-56306533D01*
X225163142Y-105769580D02*
X225115523Y-105817200D01*
X225115523Y-105817200D02*
X224972666Y-105864819D01*
X224972666Y-105864819D02*
X224877428Y-105864819D01*
X224877428Y-105864819D02*
X224734571Y-105817200D01*
X224734571Y-105817200D02*
X224639333Y-105721961D01*
X224639333Y-105721961D02*
X224591714Y-105626723D01*
X224591714Y-105626723D02*
X224544095Y-105436247D01*
X224544095Y-105436247D02*
X224544095Y-105293390D01*
X224544095Y-105293390D02*
X224591714Y-105102914D01*
X224591714Y-105102914D02*
X224639333Y-105007676D01*
X224639333Y-105007676D02*
X224734571Y-104912438D01*
X224734571Y-104912438D02*
X224877428Y-104864819D01*
X224877428Y-104864819D02*
X224972666Y-104864819D01*
X224972666Y-104864819D02*
X225115523Y-104912438D01*
X225115523Y-104912438D02*
X225163142Y-104960057D01*
X226115523Y-105864819D02*
X225544095Y-105864819D01*
X225829809Y-105864819D02*
X225829809Y-104864819D01*
X225829809Y-104864819D02*
X225734571Y-105007676D01*
X225734571Y-105007676D02*
X225639333Y-105102914D01*
X225639333Y-105102914D02*
X225544095Y-105150533D01*
X226972666Y-104864819D02*
X226782190Y-104864819D01*
X226782190Y-104864819D02*
X226686952Y-104912438D01*
X226686952Y-104912438D02*
X226639333Y-104960057D01*
X226639333Y-104960057D02*
X226544095Y-105102914D01*
X226544095Y-105102914D02*
X226496476Y-105293390D01*
X226496476Y-105293390D02*
X226496476Y-105674342D01*
X226496476Y-105674342D02*
X226544095Y-105769580D01*
X226544095Y-105769580D02*
X226591714Y-105817200D01*
X226591714Y-105817200D02*
X226686952Y-105864819D01*
X226686952Y-105864819D02*
X226877428Y-105864819D01*
X226877428Y-105864819D02*
X226972666Y-105817200D01*
X226972666Y-105817200D02*
X227020285Y-105769580D01*
X227020285Y-105769580D02*
X227067904Y-105674342D01*
X227067904Y-105674342D02*
X227067904Y-105436247D01*
X227067904Y-105436247D02*
X227020285Y-105341009D01*
X227020285Y-105341009D02*
X226972666Y-105293390D01*
X226972666Y-105293390D02*
X226877428Y-105245771D01*
X226877428Y-105245771D02*
X226686952Y-105245771D01*
X226686952Y-105245771D02*
X226591714Y-105293390D01*
X226591714Y-105293390D02*
X226544095Y-105341009D01*
X226544095Y-105341009D02*
X226496476Y-105436247D01*
X240458666Y-43904819D02*
X240458666Y-44619104D01*
X240458666Y-44619104D02*
X240411047Y-44761961D01*
X240411047Y-44761961D02*
X240315809Y-44857200D01*
X240315809Y-44857200D02*
X240172952Y-44904819D01*
X240172952Y-44904819D02*
X240077714Y-44904819D01*
X241458666Y-44904819D02*
X240887238Y-44904819D01*
X241172952Y-44904819D02*
X241172952Y-43904819D01*
X241172952Y-43904819D02*
X241077714Y-44047676D01*
X241077714Y-44047676D02*
X240982476Y-44142914D01*
X240982476Y-44142914D02*
X240887238Y-44190533D01*
X177524628Y-117416190D02*
X178000819Y-117416190D01*
X177000819Y-117749523D02*
X177524628Y-117416190D01*
X177524628Y-117416190D02*
X177000819Y-117082857D01*
X177096057Y-116797142D02*
X177048438Y-116749523D01*
X177048438Y-116749523D02*
X177000819Y-116654285D01*
X177000819Y-116654285D02*
X177000819Y-116416190D01*
X177000819Y-116416190D02*
X177048438Y-116320952D01*
X177048438Y-116320952D02*
X177096057Y-116273333D01*
X177096057Y-116273333D02*
X177191295Y-116225714D01*
X177191295Y-116225714D02*
X177286533Y-116225714D01*
X177286533Y-116225714D02*
X177429390Y-116273333D01*
X177429390Y-116273333D02*
X178000819Y-116844761D01*
X178000819Y-116844761D02*
X178000819Y-116225714D01*
X218694095Y-73622819D02*
X218694095Y-74432342D01*
X218694095Y-74432342D02*
X218741714Y-74527580D01*
X218741714Y-74527580D02*
X218789333Y-74575200D01*
X218789333Y-74575200D02*
X218884571Y-74622819D01*
X218884571Y-74622819D02*
X219075047Y-74622819D01*
X219075047Y-74622819D02*
X219170285Y-74575200D01*
X219170285Y-74575200D02*
X219217904Y-74527580D01*
X219217904Y-74527580D02*
X219265523Y-74432342D01*
X219265523Y-74432342D02*
X219265523Y-73622819D01*
X219694095Y-73718057D02*
X219741714Y-73670438D01*
X219741714Y-73670438D02*
X219836952Y-73622819D01*
X219836952Y-73622819D02*
X220075047Y-73622819D01*
X220075047Y-73622819D02*
X220170285Y-73670438D01*
X220170285Y-73670438D02*
X220217904Y-73718057D01*
X220217904Y-73718057D02*
X220265523Y-73813295D01*
X220265523Y-73813295D02*
X220265523Y-73908533D01*
X220265523Y-73908533D02*
X220217904Y-74051390D01*
X220217904Y-74051390D02*
X219646476Y-74622819D01*
X219646476Y-74622819D02*
X220265523Y-74622819D01*
X216836952Y-83751009D02*
X217170285Y-83751009D01*
X217313142Y-84274819D02*
X216836952Y-84274819D01*
X216836952Y-84274819D02*
X216836952Y-83274819D01*
X216836952Y-83274819D02*
X217313142Y-83274819D01*
X217741714Y-84274819D02*
X217741714Y-83274819D01*
X217741714Y-83274819D02*
X218122666Y-83274819D01*
X218122666Y-83274819D02*
X218217904Y-83322438D01*
X218217904Y-83322438D02*
X218265523Y-83370057D01*
X218265523Y-83370057D02*
X218313142Y-83465295D01*
X218313142Y-83465295D02*
X218313142Y-83608152D01*
X218313142Y-83608152D02*
X218265523Y-83703390D01*
X218265523Y-83703390D02*
X218217904Y-83751009D01*
X218217904Y-83751009D02*
X218122666Y-83798628D01*
X218122666Y-83798628D02*
X217741714Y-83798628D01*
X219265523Y-84274819D02*
X218694095Y-84274819D01*
X218979809Y-84274819D02*
X218979809Y-83274819D01*
X218979809Y-83274819D02*
X218884571Y-83417676D01*
X218884571Y-83417676D02*
X218789333Y-83512914D01*
X218789333Y-83512914D02*
X218694095Y-83560533D01*
X219836952Y-83703390D02*
X219741714Y-83655771D01*
X219741714Y-83655771D02*
X219694095Y-83608152D01*
X219694095Y-83608152D02*
X219646476Y-83512914D01*
X219646476Y-83512914D02*
X219646476Y-83465295D01*
X219646476Y-83465295D02*
X219694095Y-83370057D01*
X219694095Y-83370057D02*
X219741714Y-83322438D01*
X219741714Y-83322438D02*
X219836952Y-83274819D01*
X219836952Y-83274819D02*
X220027428Y-83274819D01*
X220027428Y-83274819D02*
X220122666Y-83322438D01*
X220122666Y-83322438D02*
X220170285Y-83370057D01*
X220170285Y-83370057D02*
X220217904Y-83465295D01*
X220217904Y-83465295D02*
X220217904Y-83512914D01*
X220217904Y-83512914D02*
X220170285Y-83608152D01*
X220170285Y-83608152D02*
X220122666Y-83655771D01*
X220122666Y-83655771D02*
X220027428Y-83703390D01*
X220027428Y-83703390D02*
X219836952Y-83703390D01*
X219836952Y-83703390D02*
X219741714Y-83751009D01*
X219741714Y-83751009D02*
X219694095Y-83798628D01*
X219694095Y-83798628D02*
X219646476Y-83893866D01*
X219646476Y-83893866D02*
X219646476Y-84084342D01*
X219646476Y-84084342D02*
X219694095Y-84179580D01*
X219694095Y-84179580D02*
X219741714Y-84227200D01*
X219741714Y-84227200D02*
X219836952Y-84274819D01*
X219836952Y-84274819D02*
X220027428Y-84274819D01*
X220027428Y-84274819D02*
X220122666Y-84227200D01*
X220122666Y-84227200D02*
X220170285Y-84179580D01*
X220170285Y-84179580D02*
X220217904Y-84084342D01*
X220217904Y-84084342D02*
X220217904Y-83893866D01*
X220217904Y-83893866D02*
X220170285Y-83798628D01*
X220170285Y-83798628D02*
X220122666Y-83751009D01*
X220122666Y-83751009D02*
X220027428Y-83703390D01*
X221170285Y-84274819D02*
X220598857Y-84274819D01*
X220884571Y-84274819D02*
X220884571Y-83274819D01*
X220884571Y-83274819D02*
X220789333Y-83417676D01*
X220789333Y-83417676D02*
X220694095Y-83512914D01*
X220694095Y-83512914D02*
X220598857Y-83560533D01*
X221789333Y-83274819D02*
X221884571Y-83274819D01*
X221884571Y-83274819D02*
X221979809Y-83322438D01*
X221979809Y-83322438D02*
X222027428Y-83370057D01*
X222027428Y-83370057D02*
X222075047Y-83465295D01*
X222075047Y-83465295D02*
X222122666Y-83655771D01*
X222122666Y-83655771D02*
X222122666Y-83893866D01*
X222122666Y-83893866D02*
X222075047Y-84084342D01*
X222075047Y-84084342D02*
X222027428Y-84179580D01*
X222027428Y-84179580D02*
X221979809Y-84227200D01*
X221979809Y-84227200D02*
X221884571Y-84274819D01*
X221884571Y-84274819D02*
X221789333Y-84274819D01*
X221789333Y-84274819D02*
X221694095Y-84227200D01*
X221694095Y-84227200D02*
X221646476Y-84179580D01*
X221646476Y-84179580D02*
X221598857Y-84084342D01*
X221598857Y-84084342D02*
X221551238Y-83893866D01*
X221551238Y-83893866D02*
X221551238Y-83655771D01*
X221551238Y-83655771D02*
X221598857Y-83465295D01*
X221598857Y-83465295D02*
X221646476Y-83370057D01*
X221646476Y-83370057D02*
X221694095Y-83322438D01*
X221694095Y-83322438D02*
X221789333Y-83274819D01*
X186944095Y-73622819D02*
X186944095Y-74432342D01*
X186944095Y-74432342D02*
X186991714Y-74527580D01*
X186991714Y-74527580D02*
X187039333Y-74575200D01*
X187039333Y-74575200D02*
X187134571Y-74622819D01*
X187134571Y-74622819D02*
X187325047Y-74622819D01*
X187325047Y-74622819D02*
X187420285Y-74575200D01*
X187420285Y-74575200D02*
X187467904Y-74527580D01*
X187467904Y-74527580D02*
X187515523Y-74432342D01*
X187515523Y-74432342D02*
X187515523Y-73622819D01*
X188515523Y-74622819D02*
X187944095Y-74622819D01*
X188229809Y-74622819D02*
X188229809Y-73622819D01*
X188229809Y-73622819D02*
X188134571Y-73765676D01*
X188134571Y-73765676D02*
X188039333Y-73860914D01*
X188039333Y-73860914D02*
X187944095Y-73908533D01*
X185491714Y-83274819D02*
X185301238Y-83274819D01*
X185301238Y-83274819D02*
X185206000Y-83322438D01*
X185206000Y-83322438D02*
X185158381Y-83370057D01*
X185158381Y-83370057D02*
X185063143Y-83512914D01*
X185063143Y-83512914D02*
X185015524Y-83703390D01*
X185015524Y-83703390D02*
X185015524Y-84084342D01*
X185015524Y-84084342D02*
X185063143Y-84179580D01*
X185063143Y-84179580D02*
X185110762Y-84227200D01*
X185110762Y-84227200D02*
X185206000Y-84274819D01*
X185206000Y-84274819D02*
X185396476Y-84274819D01*
X185396476Y-84274819D02*
X185491714Y-84227200D01*
X185491714Y-84227200D02*
X185539333Y-84179580D01*
X185539333Y-84179580D02*
X185586952Y-84084342D01*
X185586952Y-84084342D02*
X185586952Y-83846247D01*
X185586952Y-83846247D02*
X185539333Y-83751009D01*
X185539333Y-83751009D02*
X185491714Y-83703390D01*
X185491714Y-83703390D02*
X185396476Y-83655771D01*
X185396476Y-83655771D02*
X185206000Y-83655771D01*
X185206000Y-83655771D02*
X185110762Y-83703390D01*
X185110762Y-83703390D02*
X185063143Y-83751009D01*
X185063143Y-83751009D02*
X185015524Y-83846247D01*
X186158381Y-83703390D02*
X186063143Y-83655771D01*
X186063143Y-83655771D02*
X186015524Y-83608152D01*
X186015524Y-83608152D02*
X185967905Y-83512914D01*
X185967905Y-83512914D02*
X185967905Y-83465295D01*
X185967905Y-83465295D02*
X186015524Y-83370057D01*
X186015524Y-83370057D02*
X186063143Y-83322438D01*
X186063143Y-83322438D02*
X186158381Y-83274819D01*
X186158381Y-83274819D02*
X186348857Y-83274819D01*
X186348857Y-83274819D02*
X186444095Y-83322438D01*
X186444095Y-83322438D02*
X186491714Y-83370057D01*
X186491714Y-83370057D02*
X186539333Y-83465295D01*
X186539333Y-83465295D02*
X186539333Y-83512914D01*
X186539333Y-83512914D02*
X186491714Y-83608152D01*
X186491714Y-83608152D02*
X186444095Y-83655771D01*
X186444095Y-83655771D02*
X186348857Y-83703390D01*
X186348857Y-83703390D02*
X186158381Y-83703390D01*
X186158381Y-83703390D02*
X186063143Y-83751009D01*
X186063143Y-83751009D02*
X186015524Y-83798628D01*
X186015524Y-83798628D02*
X185967905Y-83893866D01*
X185967905Y-83893866D02*
X185967905Y-84084342D01*
X185967905Y-84084342D02*
X186015524Y-84179580D01*
X186015524Y-84179580D02*
X186063143Y-84227200D01*
X186063143Y-84227200D02*
X186158381Y-84274819D01*
X186158381Y-84274819D02*
X186348857Y-84274819D01*
X186348857Y-84274819D02*
X186444095Y-84227200D01*
X186444095Y-84227200D02*
X186491714Y-84179580D01*
X186491714Y-84179580D02*
X186539333Y-84084342D01*
X186539333Y-84084342D02*
X186539333Y-83893866D01*
X186539333Y-83893866D02*
X186491714Y-83798628D01*
X186491714Y-83798628D02*
X186444095Y-83751009D01*
X186444095Y-83751009D02*
X186348857Y-83703390D01*
X187158381Y-83274819D02*
X187253619Y-83274819D01*
X187253619Y-83274819D02*
X187348857Y-83322438D01*
X187348857Y-83322438D02*
X187396476Y-83370057D01*
X187396476Y-83370057D02*
X187444095Y-83465295D01*
X187444095Y-83465295D02*
X187491714Y-83655771D01*
X187491714Y-83655771D02*
X187491714Y-83893866D01*
X187491714Y-83893866D02*
X187444095Y-84084342D01*
X187444095Y-84084342D02*
X187396476Y-84179580D01*
X187396476Y-84179580D02*
X187348857Y-84227200D01*
X187348857Y-84227200D02*
X187253619Y-84274819D01*
X187253619Y-84274819D02*
X187158381Y-84274819D01*
X187158381Y-84274819D02*
X187063143Y-84227200D01*
X187063143Y-84227200D02*
X187015524Y-84179580D01*
X187015524Y-84179580D02*
X186967905Y-84084342D01*
X186967905Y-84084342D02*
X186920286Y-83893866D01*
X186920286Y-83893866D02*
X186920286Y-83655771D01*
X186920286Y-83655771D02*
X186967905Y-83465295D01*
X186967905Y-83465295D02*
X187015524Y-83370057D01*
X187015524Y-83370057D02*
X187063143Y-83322438D01*
X187063143Y-83322438D02*
X187158381Y-83274819D01*
X188110762Y-83274819D02*
X188206000Y-83274819D01*
X188206000Y-83274819D02*
X188301238Y-83322438D01*
X188301238Y-83322438D02*
X188348857Y-83370057D01*
X188348857Y-83370057D02*
X188396476Y-83465295D01*
X188396476Y-83465295D02*
X188444095Y-83655771D01*
X188444095Y-83655771D02*
X188444095Y-83893866D01*
X188444095Y-83893866D02*
X188396476Y-84084342D01*
X188396476Y-84084342D02*
X188348857Y-84179580D01*
X188348857Y-84179580D02*
X188301238Y-84227200D01*
X188301238Y-84227200D02*
X188206000Y-84274819D01*
X188206000Y-84274819D02*
X188110762Y-84274819D01*
X188110762Y-84274819D02*
X188015524Y-84227200D01*
X188015524Y-84227200D02*
X187967905Y-84179580D01*
X187967905Y-84179580D02*
X187920286Y-84084342D01*
X187920286Y-84084342D02*
X187872667Y-83893866D01*
X187872667Y-83893866D02*
X187872667Y-83655771D01*
X187872667Y-83655771D02*
X187920286Y-83465295D01*
X187920286Y-83465295D02*
X187967905Y-83370057D01*
X187967905Y-83370057D02*
X188015524Y-83322438D01*
X188015524Y-83322438D02*
X188110762Y-83274819D01*
X189063143Y-83274819D02*
X189158381Y-83274819D01*
X189158381Y-83274819D02*
X189253619Y-83322438D01*
X189253619Y-83322438D02*
X189301238Y-83370057D01*
X189301238Y-83370057D02*
X189348857Y-83465295D01*
X189348857Y-83465295D02*
X189396476Y-83655771D01*
X189396476Y-83655771D02*
X189396476Y-83893866D01*
X189396476Y-83893866D02*
X189348857Y-84084342D01*
X189348857Y-84084342D02*
X189301238Y-84179580D01*
X189301238Y-84179580D02*
X189253619Y-84227200D01*
X189253619Y-84227200D02*
X189158381Y-84274819D01*
X189158381Y-84274819D02*
X189063143Y-84274819D01*
X189063143Y-84274819D02*
X188967905Y-84227200D01*
X188967905Y-84227200D02*
X188920286Y-84179580D01*
X188920286Y-84179580D02*
X188872667Y-84084342D01*
X188872667Y-84084342D02*
X188825048Y-83893866D01*
X188825048Y-83893866D02*
X188825048Y-83655771D01*
X188825048Y-83655771D02*
X188872667Y-83465295D01*
X188872667Y-83465295D02*
X188920286Y-83370057D01*
X188920286Y-83370057D02*
X188967905Y-83322438D01*
X188967905Y-83322438D02*
X189063143Y-83274819D01*
X189825048Y-84274819D02*
X189825048Y-83274819D01*
X189825048Y-83274819D02*
X190063143Y-83274819D01*
X190063143Y-83274819D02*
X190206000Y-83322438D01*
X190206000Y-83322438D02*
X190301238Y-83417676D01*
X190301238Y-83417676D02*
X190348857Y-83512914D01*
X190348857Y-83512914D02*
X190396476Y-83703390D01*
X190396476Y-83703390D02*
X190396476Y-83846247D01*
X190396476Y-83846247D02*
X190348857Y-84036723D01*
X190348857Y-84036723D02*
X190301238Y-84131961D01*
X190301238Y-84131961D02*
X190206000Y-84227200D01*
X190206000Y-84227200D02*
X190063143Y-84274819D01*
X190063143Y-84274819D02*
X189825048Y-84274819D01*
X235418333Y-140059580D02*
X235370714Y-140107200D01*
X235370714Y-140107200D02*
X235227857Y-140154819D01*
X235227857Y-140154819D02*
X235132619Y-140154819D01*
X235132619Y-140154819D02*
X234989762Y-140107200D01*
X234989762Y-140107200D02*
X234894524Y-140011961D01*
X234894524Y-140011961D02*
X234846905Y-139916723D01*
X234846905Y-139916723D02*
X234799286Y-139726247D01*
X234799286Y-139726247D02*
X234799286Y-139583390D01*
X234799286Y-139583390D02*
X234846905Y-139392914D01*
X234846905Y-139392914D02*
X234894524Y-139297676D01*
X234894524Y-139297676D02*
X234989762Y-139202438D01*
X234989762Y-139202438D02*
X235132619Y-139154819D01*
X235132619Y-139154819D02*
X235227857Y-139154819D01*
X235227857Y-139154819D02*
X235370714Y-139202438D01*
X235370714Y-139202438D02*
X235418333Y-139250057D01*
X235751667Y-139154819D02*
X236418333Y-139154819D01*
X236418333Y-139154819D02*
X235989762Y-140154819D01*
X168140142Y-91408580D02*
X168092523Y-91456200D01*
X168092523Y-91456200D02*
X167949666Y-91503819D01*
X167949666Y-91503819D02*
X167854428Y-91503819D01*
X167854428Y-91503819D02*
X167711571Y-91456200D01*
X167711571Y-91456200D02*
X167616333Y-91360961D01*
X167616333Y-91360961D02*
X167568714Y-91265723D01*
X167568714Y-91265723D02*
X167521095Y-91075247D01*
X167521095Y-91075247D02*
X167521095Y-90932390D01*
X167521095Y-90932390D02*
X167568714Y-90741914D01*
X167568714Y-90741914D02*
X167616333Y-90646676D01*
X167616333Y-90646676D02*
X167711571Y-90551438D01*
X167711571Y-90551438D02*
X167854428Y-90503819D01*
X167854428Y-90503819D02*
X167949666Y-90503819D01*
X167949666Y-90503819D02*
X168092523Y-90551438D01*
X168092523Y-90551438D02*
X168140142Y-90599057D01*
X169092523Y-91503819D02*
X168521095Y-91503819D01*
X168806809Y-91503819D02*
X168806809Y-90503819D01*
X168806809Y-90503819D02*
X168711571Y-90646676D01*
X168711571Y-90646676D02*
X168616333Y-90741914D01*
X168616333Y-90741914D02*
X168521095Y-90789533D01*
X170044904Y-91503819D02*
X169473476Y-91503819D01*
X169759190Y-91503819D02*
X169759190Y-90503819D01*
X169759190Y-90503819D02*
X169663952Y-90646676D01*
X169663952Y-90646676D02*
X169568714Y-90741914D01*
X169568714Y-90741914D02*
X169473476Y-90789533D01*
X179270819Y-128436666D02*
X178794628Y-128769999D01*
X179270819Y-129008094D02*
X178270819Y-129008094D01*
X178270819Y-129008094D02*
X178270819Y-128627142D01*
X178270819Y-128627142D02*
X178318438Y-128531904D01*
X178318438Y-128531904D02*
X178366057Y-128484285D01*
X178366057Y-128484285D02*
X178461295Y-128436666D01*
X178461295Y-128436666D02*
X178604152Y-128436666D01*
X178604152Y-128436666D02*
X178699390Y-128484285D01*
X178699390Y-128484285D02*
X178747009Y-128531904D01*
X178747009Y-128531904D02*
X178794628Y-128627142D01*
X178794628Y-128627142D02*
X178794628Y-129008094D01*
X178604152Y-127579523D02*
X179270819Y-127579523D01*
X178223200Y-127817618D02*
X178937485Y-128055713D01*
X178937485Y-128055713D02*
X178937485Y-127436666D01*
X199644095Y-52032819D02*
X199644095Y-52842342D01*
X199644095Y-52842342D02*
X199691714Y-52937580D01*
X199691714Y-52937580D02*
X199739333Y-52985200D01*
X199739333Y-52985200D02*
X199834571Y-53032819D01*
X199834571Y-53032819D02*
X200025047Y-53032819D01*
X200025047Y-53032819D02*
X200120285Y-52985200D01*
X200120285Y-52985200D02*
X200167904Y-52937580D01*
X200167904Y-52937580D02*
X200215523Y-52842342D01*
X200215523Y-52842342D02*
X200215523Y-52032819D01*
X201167904Y-52032819D02*
X200691714Y-52032819D01*
X200691714Y-52032819D02*
X200644095Y-52509009D01*
X200644095Y-52509009D02*
X200691714Y-52461390D01*
X200691714Y-52461390D02*
X200786952Y-52413771D01*
X200786952Y-52413771D02*
X201025047Y-52413771D01*
X201025047Y-52413771D02*
X201120285Y-52461390D01*
X201120285Y-52461390D02*
X201167904Y-52509009D01*
X201167904Y-52509009D02*
X201215523Y-52604247D01*
X201215523Y-52604247D02*
X201215523Y-52842342D01*
X201215523Y-52842342D02*
X201167904Y-52937580D01*
X201167904Y-52937580D02*
X201120285Y-52985200D01*
X201120285Y-52985200D02*
X201025047Y-53032819D01*
X201025047Y-53032819D02*
X200786952Y-53032819D01*
X200786952Y-53032819D02*
X200691714Y-52985200D01*
X200691714Y-52985200D02*
X200644095Y-52937580D01*
X174284095Y-50889819D02*
X174950761Y-50889819D01*
X174950761Y-50889819D02*
X174522190Y-51889819D01*
X175760285Y-51223152D02*
X175760285Y-51889819D01*
X175522190Y-50842200D02*
X175284095Y-51556485D01*
X175284095Y-51556485D02*
X175903142Y-51556485D01*
X176284095Y-51889819D02*
X176284095Y-50889819D01*
X176284095Y-51366009D02*
X176855523Y-51366009D01*
X176855523Y-51889819D02*
X176855523Y-50889819D01*
X177903142Y-51794580D02*
X177855523Y-51842200D01*
X177855523Y-51842200D02*
X177712666Y-51889819D01*
X177712666Y-51889819D02*
X177617428Y-51889819D01*
X177617428Y-51889819D02*
X177474571Y-51842200D01*
X177474571Y-51842200D02*
X177379333Y-51746961D01*
X177379333Y-51746961D02*
X177331714Y-51651723D01*
X177331714Y-51651723D02*
X177284095Y-51461247D01*
X177284095Y-51461247D02*
X177284095Y-51318390D01*
X177284095Y-51318390D02*
X177331714Y-51127914D01*
X177331714Y-51127914D02*
X177379333Y-51032676D01*
X177379333Y-51032676D02*
X177474571Y-50937438D01*
X177474571Y-50937438D02*
X177617428Y-50889819D01*
X177617428Y-50889819D02*
X177712666Y-50889819D01*
X177712666Y-50889819D02*
X177855523Y-50937438D01*
X177855523Y-50937438D02*
X177903142Y-50985057D01*
X178760285Y-50889819D02*
X178569809Y-50889819D01*
X178569809Y-50889819D02*
X178474571Y-50937438D01*
X178474571Y-50937438D02*
X178426952Y-50985057D01*
X178426952Y-50985057D02*
X178331714Y-51127914D01*
X178331714Y-51127914D02*
X178284095Y-51318390D01*
X178284095Y-51318390D02*
X178284095Y-51699342D01*
X178284095Y-51699342D02*
X178331714Y-51794580D01*
X178331714Y-51794580D02*
X178379333Y-51842200D01*
X178379333Y-51842200D02*
X178474571Y-51889819D01*
X178474571Y-51889819D02*
X178665047Y-51889819D01*
X178665047Y-51889819D02*
X178760285Y-51842200D01*
X178760285Y-51842200D02*
X178807904Y-51794580D01*
X178807904Y-51794580D02*
X178855523Y-51699342D01*
X178855523Y-51699342D02*
X178855523Y-51461247D01*
X178855523Y-51461247D02*
X178807904Y-51366009D01*
X178807904Y-51366009D02*
X178760285Y-51318390D01*
X178760285Y-51318390D02*
X178665047Y-51270771D01*
X178665047Y-51270771D02*
X178474571Y-51270771D01*
X178474571Y-51270771D02*
X178379333Y-51318390D01*
X178379333Y-51318390D02*
X178331714Y-51366009D01*
X178331714Y-51366009D02*
X178284095Y-51461247D01*
X179712666Y-51223152D02*
X179712666Y-51889819D01*
X179474571Y-50842200D02*
X179236476Y-51556485D01*
X179236476Y-51556485D02*
X179855523Y-51556485D01*
X180665047Y-50889819D02*
X180474571Y-50889819D01*
X180474571Y-50889819D02*
X180379333Y-50937438D01*
X180379333Y-50937438D02*
X180331714Y-50985057D01*
X180331714Y-50985057D02*
X180236476Y-51127914D01*
X180236476Y-51127914D02*
X180188857Y-51318390D01*
X180188857Y-51318390D02*
X180188857Y-51699342D01*
X180188857Y-51699342D02*
X180236476Y-51794580D01*
X180236476Y-51794580D02*
X180284095Y-51842200D01*
X180284095Y-51842200D02*
X180379333Y-51889819D01*
X180379333Y-51889819D02*
X180569809Y-51889819D01*
X180569809Y-51889819D02*
X180665047Y-51842200D01*
X180665047Y-51842200D02*
X180712666Y-51794580D01*
X180712666Y-51794580D02*
X180760285Y-51699342D01*
X180760285Y-51699342D02*
X180760285Y-51461247D01*
X180760285Y-51461247D02*
X180712666Y-51366009D01*
X180712666Y-51366009D02*
X180665047Y-51318390D01*
X180665047Y-51318390D02*
X180569809Y-51270771D01*
X180569809Y-51270771D02*
X180379333Y-51270771D01*
X180379333Y-51270771D02*
X180284095Y-51318390D01*
X180284095Y-51318390D02*
X180236476Y-51366009D01*
X180236476Y-51366009D02*
X180188857Y-51461247D01*
X182237142Y-58017580D02*
X182189523Y-58065200D01*
X182189523Y-58065200D02*
X182046666Y-58112819D01*
X182046666Y-58112819D02*
X181951428Y-58112819D01*
X181951428Y-58112819D02*
X181808571Y-58065200D01*
X181808571Y-58065200D02*
X181713333Y-57969961D01*
X181713333Y-57969961D02*
X181665714Y-57874723D01*
X181665714Y-57874723D02*
X181618095Y-57684247D01*
X181618095Y-57684247D02*
X181618095Y-57541390D01*
X181618095Y-57541390D02*
X181665714Y-57350914D01*
X181665714Y-57350914D02*
X181713333Y-57255676D01*
X181713333Y-57255676D02*
X181808571Y-57160438D01*
X181808571Y-57160438D02*
X181951428Y-57112819D01*
X181951428Y-57112819D02*
X182046666Y-57112819D01*
X182046666Y-57112819D02*
X182189523Y-57160438D01*
X182189523Y-57160438D02*
X182237142Y-57208057D01*
X183189523Y-58112819D02*
X182618095Y-58112819D01*
X182903809Y-58112819D02*
X182903809Y-57112819D01*
X182903809Y-57112819D02*
X182808571Y-57255676D01*
X182808571Y-57255676D02*
X182713333Y-57350914D01*
X182713333Y-57350914D02*
X182618095Y-57398533D01*
X183570476Y-57208057D02*
X183618095Y-57160438D01*
X183618095Y-57160438D02*
X183713333Y-57112819D01*
X183713333Y-57112819D02*
X183951428Y-57112819D01*
X183951428Y-57112819D02*
X184046666Y-57160438D01*
X184046666Y-57160438D02*
X184094285Y-57208057D01*
X184094285Y-57208057D02*
X184141904Y-57303295D01*
X184141904Y-57303295D02*
X184141904Y-57398533D01*
X184141904Y-57398533D02*
X184094285Y-57541390D01*
X184094285Y-57541390D02*
X183522857Y-58112819D01*
X183522857Y-58112819D02*
X184141904Y-58112819D01*
X162814095Y-75914819D02*
X162814095Y-76724342D01*
X162814095Y-76724342D02*
X162861714Y-76819580D01*
X162861714Y-76819580D02*
X162909333Y-76867200D01*
X162909333Y-76867200D02*
X163004571Y-76914819D01*
X163004571Y-76914819D02*
X163195047Y-76914819D01*
X163195047Y-76914819D02*
X163290285Y-76867200D01*
X163290285Y-76867200D02*
X163337904Y-76819580D01*
X163337904Y-76819580D02*
X163385523Y-76724342D01*
X163385523Y-76724342D02*
X163385523Y-75914819D01*
X164052190Y-75914819D02*
X164147428Y-75914819D01*
X164147428Y-75914819D02*
X164242666Y-75962438D01*
X164242666Y-75962438D02*
X164290285Y-76010057D01*
X164290285Y-76010057D02*
X164337904Y-76105295D01*
X164337904Y-76105295D02*
X164385523Y-76295771D01*
X164385523Y-76295771D02*
X164385523Y-76533866D01*
X164385523Y-76533866D02*
X164337904Y-76724342D01*
X164337904Y-76724342D02*
X164290285Y-76819580D01*
X164290285Y-76819580D02*
X164242666Y-76867200D01*
X164242666Y-76867200D02*
X164147428Y-76914819D01*
X164147428Y-76914819D02*
X164052190Y-76914819D01*
X164052190Y-76914819D02*
X163956952Y-76867200D01*
X163956952Y-76867200D02*
X163909333Y-76819580D01*
X163909333Y-76819580D02*
X163861714Y-76724342D01*
X163861714Y-76724342D02*
X163814095Y-76533866D01*
X163814095Y-76533866D02*
X163814095Y-76295771D01*
X163814095Y-76295771D02*
X163861714Y-76105295D01*
X163861714Y-76105295D02*
X163909333Y-76010057D01*
X163909333Y-76010057D02*
X163956952Y-75962438D01*
X163956952Y-75962438D02*
X164052190Y-75914819D01*
X216253142Y-137559580D02*
X216205523Y-137607200D01*
X216205523Y-137607200D02*
X216062666Y-137654819D01*
X216062666Y-137654819D02*
X215967428Y-137654819D01*
X215967428Y-137654819D02*
X215824571Y-137607200D01*
X215824571Y-137607200D02*
X215729333Y-137511961D01*
X215729333Y-137511961D02*
X215681714Y-137416723D01*
X215681714Y-137416723D02*
X215634095Y-137226247D01*
X215634095Y-137226247D02*
X215634095Y-137083390D01*
X215634095Y-137083390D02*
X215681714Y-136892914D01*
X215681714Y-136892914D02*
X215729333Y-136797676D01*
X215729333Y-136797676D02*
X215824571Y-136702438D01*
X215824571Y-136702438D02*
X215967428Y-136654819D01*
X215967428Y-136654819D02*
X216062666Y-136654819D01*
X216062666Y-136654819D02*
X216205523Y-136702438D01*
X216205523Y-136702438D02*
X216253142Y-136750057D01*
X217205523Y-137654819D02*
X216634095Y-137654819D01*
X216919809Y-137654819D02*
X216919809Y-136654819D01*
X216919809Y-136654819D02*
X216824571Y-136797676D01*
X216824571Y-136797676D02*
X216729333Y-136892914D01*
X216729333Y-136892914D02*
X216634095Y-136940533D01*
X217538857Y-136654819D02*
X218157904Y-136654819D01*
X218157904Y-136654819D02*
X217824571Y-137035771D01*
X217824571Y-137035771D02*
X217967428Y-137035771D01*
X217967428Y-137035771D02*
X218062666Y-137083390D01*
X218062666Y-137083390D02*
X218110285Y-137131009D01*
X218110285Y-137131009D02*
X218157904Y-137226247D01*
X218157904Y-137226247D02*
X218157904Y-137464342D01*
X218157904Y-137464342D02*
X218110285Y-137559580D01*
X218110285Y-137559580D02*
X218062666Y-137607200D01*
X218062666Y-137607200D02*
X217967428Y-137654819D01*
X217967428Y-137654819D02*
X217681714Y-137654819D01*
X217681714Y-137654819D02*
X217586476Y-137607200D01*
X217586476Y-137607200D02*
X217538857Y-137559580D01*
X207041905Y-57874819D02*
X207041905Y-58684342D01*
X207041905Y-58684342D02*
X207089524Y-58779580D01*
X207089524Y-58779580D02*
X207137143Y-58827200D01*
X207137143Y-58827200D02*
X207232381Y-58874819D01*
X207232381Y-58874819D02*
X207422857Y-58874819D01*
X207422857Y-58874819D02*
X207518095Y-58827200D01*
X207518095Y-58827200D02*
X207565714Y-58779580D01*
X207565714Y-58779580D02*
X207613333Y-58684342D01*
X207613333Y-58684342D02*
X207613333Y-57874819D01*
X208613333Y-58874819D02*
X208041905Y-58874819D01*
X208327619Y-58874819D02*
X208327619Y-57874819D01*
X208327619Y-57874819D02*
X208232381Y-58017676D01*
X208232381Y-58017676D02*
X208137143Y-58112914D01*
X208137143Y-58112914D02*
X208041905Y-58160533D01*
X209565714Y-58874819D02*
X208994286Y-58874819D01*
X209280000Y-58874819D02*
X209280000Y-57874819D01*
X209280000Y-57874819D02*
X209184762Y-58017676D01*
X209184762Y-58017676D02*
X209089524Y-58112914D01*
X209089524Y-58112914D02*
X208994286Y-58160533D01*
X174672666Y-70701819D02*
X174672666Y-71416104D01*
X174672666Y-71416104D02*
X174625047Y-71558961D01*
X174625047Y-71558961D02*
X174529809Y-71654200D01*
X174529809Y-71654200D02*
X174386952Y-71701819D01*
X174386952Y-71701819D02*
X174291714Y-71701819D01*
X175577428Y-71035152D02*
X175577428Y-71701819D01*
X175339333Y-70654200D02*
X175101238Y-71368485D01*
X175101238Y-71368485D02*
X175720285Y-71368485D01*
X228854095Y-130264819D02*
X228854095Y-131074342D01*
X228854095Y-131074342D02*
X228901714Y-131169580D01*
X228901714Y-131169580D02*
X228949333Y-131217200D01*
X228949333Y-131217200D02*
X229044571Y-131264819D01*
X229044571Y-131264819D02*
X229235047Y-131264819D01*
X229235047Y-131264819D02*
X229330285Y-131217200D01*
X229330285Y-131217200D02*
X229377904Y-131169580D01*
X229377904Y-131169580D02*
X229425523Y-131074342D01*
X229425523Y-131074342D02*
X229425523Y-130264819D01*
X229806476Y-130264819D02*
X230473142Y-130264819D01*
X230473142Y-130264819D02*
X230044571Y-131264819D01*
X230070819Y-132825713D02*
X229070819Y-132825713D01*
X229070819Y-132825713D02*
X229785104Y-132492380D01*
X229785104Y-132492380D02*
X229070819Y-132159047D01*
X229070819Y-132159047D02*
X230070819Y-132159047D01*
X230070819Y-131682856D02*
X229070819Y-131682856D01*
X229070819Y-131682856D02*
X229785104Y-131349523D01*
X229785104Y-131349523D02*
X229070819Y-131016190D01*
X229070819Y-131016190D02*
X230070819Y-131016190D01*
X229070819Y-130063809D02*
X229070819Y-130539999D01*
X229070819Y-130539999D02*
X229547009Y-130587618D01*
X229547009Y-130587618D02*
X229499390Y-130539999D01*
X229499390Y-130539999D02*
X229451771Y-130444761D01*
X229451771Y-130444761D02*
X229451771Y-130206666D01*
X229451771Y-130206666D02*
X229499390Y-130111428D01*
X229499390Y-130111428D02*
X229547009Y-130063809D01*
X229547009Y-130063809D02*
X229642247Y-130016190D01*
X229642247Y-130016190D02*
X229880342Y-130016190D01*
X229880342Y-130016190D02*
X229975580Y-130063809D01*
X229975580Y-130063809D02*
X230023200Y-130111428D01*
X230023200Y-130111428D02*
X230070819Y-130206666D01*
X230070819Y-130206666D02*
X230070819Y-130444761D01*
X230070819Y-130444761D02*
X230023200Y-130539999D01*
X230023200Y-130539999D02*
X229975580Y-130587618D01*
X229499390Y-129444761D02*
X229451771Y-129539999D01*
X229451771Y-129539999D02*
X229404152Y-129587618D01*
X229404152Y-129587618D02*
X229308914Y-129635237D01*
X229308914Y-129635237D02*
X229261295Y-129635237D01*
X229261295Y-129635237D02*
X229166057Y-129587618D01*
X229166057Y-129587618D02*
X229118438Y-129539999D01*
X229118438Y-129539999D02*
X229070819Y-129444761D01*
X229070819Y-129444761D02*
X229070819Y-129254285D01*
X229070819Y-129254285D02*
X229118438Y-129159047D01*
X229118438Y-129159047D02*
X229166057Y-129111428D01*
X229166057Y-129111428D02*
X229261295Y-129063809D01*
X229261295Y-129063809D02*
X229308914Y-129063809D01*
X229308914Y-129063809D02*
X229404152Y-129111428D01*
X229404152Y-129111428D02*
X229451771Y-129159047D01*
X229451771Y-129159047D02*
X229499390Y-129254285D01*
X229499390Y-129254285D02*
X229499390Y-129444761D01*
X229499390Y-129444761D02*
X229547009Y-129539999D01*
X229547009Y-129539999D02*
X229594628Y-129587618D01*
X229594628Y-129587618D02*
X229689866Y-129635237D01*
X229689866Y-129635237D02*
X229880342Y-129635237D01*
X229880342Y-129635237D02*
X229975580Y-129587618D01*
X229975580Y-129587618D02*
X230023200Y-129539999D01*
X230023200Y-129539999D02*
X230070819Y-129444761D01*
X230070819Y-129444761D02*
X230070819Y-129254285D01*
X230070819Y-129254285D02*
X230023200Y-129159047D01*
X230023200Y-129159047D02*
X229975580Y-129111428D01*
X229975580Y-129111428D02*
X229880342Y-129063809D01*
X229880342Y-129063809D02*
X229689866Y-129063809D01*
X229689866Y-129063809D02*
X229594628Y-129111428D01*
X229594628Y-129111428D02*
X229547009Y-129159047D01*
X229547009Y-129159047D02*
X229499390Y-129254285D01*
X229166057Y-128682856D02*
X229118438Y-128635237D01*
X229118438Y-128635237D02*
X229070819Y-128539999D01*
X229070819Y-128539999D02*
X229070819Y-128301904D01*
X229070819Y-128301904D02*
X229118438Y-128206666D01*
X229118438Y-128206666D02*
X229166057Y-128159047D01*
X229166057Y-128159047D02*
X229261295Y-128111428D01*
X229261295Y-128111428D02*
X229356533Y-128111428D01*
X229356533Y-128111428D02*
X229499390Y-128159047D01*
X229499390Y-128159047D02*
X230070819Y-128730475D01*
X230070819Y-128730475D02*
X230070819Y-128111428D01*
X229070819Y-127778094D02*
X229070819Y-127111428D01*
X229070819Y-127111428D02*
X230070819Y-127539999D01*
X229404152Y-126301904D02*
X230070819Y-126301904D01*
X229023200Y-126539999D02*
X229737485Y-126778094D01*
X229737485Y-126778094D02*
X229737485Y-126159047D01*
X165354095Y-83314819D02*
X165354095Y-82314819D01*
X165354095Y-82791009D02*
X165925523Y-82791009D01*
X165925523Y-83314819D02*
X165925523Y-82314819D01*
X166354095Y-82410057D02*
X166401714Y-82362438D01*
X166401714Y-82362438D02*
X166496952Y-82314819D01*
X166496952Y-82314819D02*
X166735047Y-82314819D01*
X166735047Y-82314819D02*
X166830285Y-82362438D01*
X166830285Y-82362438D02*
X166877904Y-82410057D01*
X166877904Y-82410057D02*
X166925523Y-82505295D01*
X166925523Y-82505295D02*
X166925523Y-82600533D01*
X166925523Y-82600533D02*
X166877904Y-82743390D01*
X166877904Y-82743390D02*
X166306476Y-83314819D01*
X166306476Y-83314819D02*
X166925523Y-83314819D01*
X207264095Y-104229819D02*
X207264095Y-105039342D01*
X207264095Y-105039342D02*
X207311714Y-105134580D01*
X207311714Y-105134580D02*
X207359333Y-105182200D01*
X207359333Y-105182200D02*
X207454571Y-105229819D01*
X207454571Y-105229819D02*
X207645047Y-105229819D01*
X207645047Y-105229819D02*
X207740285Y-105182200D01*
X207740285Y-105182200D02*
X207787904Y-105134580D01*
X207787904Y-105134580D02*
X207835523Y-105039342D01*
X207835523Y-105039342D02*
X207835523Y-104229819D01*
X208216476Y-104229819D02*
X208835523Y-104229819D01*
X208835523Y-104229819D02*
X208502190Y-104610771D01*
X208502190Y-104610771D02*
X208645047Y-104610771D01*
X208645047Y-104610771D02*
X208740285Y-104658390D01*
X208740285Y-104658390D02*
X208787904Y-104706009D01*
X208787904Y-104706009D02*
X208835523Y-104801247D01*
X208835523Y-104801247D02*
X208835523Y-105039342D01*
X208835523Y-105039342D02*
X208787904Y-105134580D01*
X208787904Y-105134580D02*
X208740285Y-105182200D01*
X208740285Y-105182200D02*
X208645047Y-105229819D01*
X208645047Y-105229819D02*
X208359333Y-105229819D01*
X208359333Y-105229819D02*
X208264095Y-105182200D01*
X208264095Y-105182200D02*
X208216476Y-105134580D01*
X212336476Y-134074819D02*
X212574571Y-135074819D01*
X212574571Y-135074819D02*
X212765047Y-134360533D01*
X212765047Y-134360533D02*
X212955523Y-135074819D01*
X212955523Y-135074819D02*
X213193619Y-134074819D01*
X213526952Y-134170057D02*
X213574571Y-134122438D01*
X213574571Y-134122438D02*
X213669809Y-134074819D01*
X213669809Y-134074819D02*
X213907904Y-134074819D01*
X213907904Y-134074819D02*
X214003142Y-134122438D01*
X214003142Y-134122438D02*
X214050761Y-134170057D01*
X214050761Y-134170057D02*
X214098380Y-134265295D01*
X214098380Y-134265295D02*
X214098380Y-134360533D01*
X214098380Y-134360533D02*
X214050761Y-134503390D01*
X214050761Y-134503390D02*
X213479333Y-135074819D01*
X213479333Y-135074819D02*
X214098380Y-135074819D01*
X214431714Y-134074819D02*
X215098380Y-134074819D01*
X215098380Y-134074819D02*
X214669809Y-135074819D01*
X216050761Y-134979580D02*
X216003142Y-135027200D01*
X216003142Y-135027200D02*
X215860285Y-135074819D01*
X215860285Y-135074819D02*
X215765047Y-135074819D01*
X215765047Y-135074819D02*
X215622190Y-135027200D01*
X215622190Y-135027200D02*
X215526952Y-134931961D01*
X215526952Y-134931961D02*
X215479333Y-134836723D01*
X215479333Y-134836723D02*
X215431714Y-134646247D01*
X215431714Y-134646247D02*
X215431714Y-134503390D01*
X215431714Y-134503390D02*
X215479333Y-134312914D01*
X215479333Y-134312914D02*
X215526952Y-134217676D01*
X215526952Y-134217676D02*
X215622190Y-134122438D01*
X215622190Y-134122438D02*
X215765047Y-134074819D01*
X215765047Y-134074819D02*
X215860285Y-134074819D01*
X215860285Y-134074819D02*
X216003142Y-134122438D01*
X216003142Y-134122438D02*
X216050761Y-134170057D01*
X216955523Y-134074819D02*
X216479333Y-134074819D01*
X216479333Y-134074819D02*
X216431714Y-134551009D01*
X216431714Y-134551009D02*
X216479333Y-134503390D01*
X216479333Y-134503390D02*
X216574571Y-134455771D01*
X216574571Y-134455771D02*
X216812666Y-134455771D01*
X216812666Y-134455771D02*
X216907904Y-134503390D01*
X216907904Y-134503390D02*
X216955523Y-134551009D01*
X216955523Y-134551009D02*
X217003142Y-134646247D01*
X217003142Y-134646247D02*
X217003142Y-134884342D01*
X217003142Y-134884342D02*
X216955523Y-134979580D01*
X216955523Y-134979580D02*
X216907904Y-135027200D01*
X216907904Y-135027200D02*
X216812666Y-135074819D01*
X216812666Y-135074819D02*
X216574571Y-135074819D01*
X216574571Y-135074819D02*
X216479333Y-135027200D01*
X216479333Y-135027200D02*
X216431714Y-134979580D01*
X217955523Y-135074819D02*
X217384095Y-135074819D01*
X217669809Y-135074819D02*
X217669809Y-134074819D01*
X217669809Y-134074819D02*
X217574571Y-134217676D01*
X217574571Y-134217676D02*
X217479333Y-134312914D01*
X217479333Y-134312914D02*
X217384095Y-134360533D01*
X218336476Y-134170057D02*
X218384095Y-134122438D01*
X218384095Y-134122438D02*
X218479333Y-134074819D01*
X218479333Y-134074819D02*
X218717428Y-134074819D01*
X218717428Y-134074819D02*
X218812666Y-134122438D01*
X218812666Y-134122438D02*
X218860285Y-134170057D01*
X218860285Y-134170057D02*
X218907904Y-134265295D01*
X218907904Y-134265295D02*
X218907904Y-134360533D01*
X218907904Y-134360533D02*
X218860285Y-134503390D01*
X218860285Y-134503390D02*
X218288857Y-135074819D01*
X218288857Y-135074819D02*
X218907904Y-135074819D01*
X179919333Y-140059580D02*
X179871714Y-140107200D01*
X179871714Y-140107200D02*
X179728857Y-140154819D01*
X179728857Y-140154819D02*
X179633619Y-140154819D01*
X179633619Y-140154819D02*
X179490762Y-140107200D01*
X179490762Y-140107200D02*
X179395524Y-140011961D01*
X179395524Y-140011961D02*
X179347905Y-139916723D01*
X179347905Y-139916723D02*
X179300286Y-139726247D01*
X179300286Y-139726247D02*
X179300286Y-139583390D01*
X179300286Y-139583390D02*
X179347905Y-139392914D01*
X179347905Y-139392914D02*
X179395524Y-139297676D01*
X179395524Y-139297676D02*
X179490762Y-139202438D01*
X179490762Y-139202438D02*
X179633619Y-139154819D01*
X179633619Y-139154819D02*
X179728857Y-139154819D01*
X179728857Y-139154819D02*
X179871714Y-139202438D01*
X179871714Y-139202438D02*
X179919333Y-139250057D01*
X180824095Y-139154819D02*
X180347905Y-139154819D01*
X180347905Y-139154819D02*
X180300286Y-139631009D01*
X180300286Y-139631009D02*
X180347905Y-139583390D01*
X180347905Y-139583390D02*
X180443143Y-139535771D01*
X180443143Y-139535771D02*
X180681238Y-139535771D01*
X180681238Y-139535771D02*
X180776476Y-139583390D01*
X180776476Y-139583390D02*
X180824095Y-139631009D01*
X180824095Y-139631009D02*
X180871714Y-139726247D01*
X180871714Y-139726247D02*
X180871714Y-139964342D01*
X180871714Y-139964342D02*
X180824095Y-140059580D01*
X180824095Y-140059580D02*
X180776476Y-140107200D01*
X180776476Y-140107200D02*
X180681238Y-140154819D01*
X180681238Y-140154819D02*
X180443143Y-140154819D01*
X180443143Y-140154819D02*
X180347905Y-140107200D01*
X180347905Y-140107200D02*
X180300286Y-140059580D01*
X207772095Y-67780819D02*
X207772095Y-68590342D01*
X207772095Y-68590342D02*
X207819714Y-68685580D01*
X207819714Y-68685580D02*
X207867333Y-68733200D01*
X207867333Y-68733200D02*
X207962571Y-68780819D01*
X207962571Y-68780819D02*
X208153047Y-68780819D01*
X208153047Y-68780819D02*
X208248285Y-68733200D01*
X208248285Y-68733200D02*
X208295904Y-68685580D01*
X208295904Y-68685580D02*
X208343523Y-68590342D01*
X208343523Y-68590342D02*
X208343523Y-67780819D01*
X208867333Y-68780819D02*
X209057809Y-68780819D01*
X209057809Y-68780819D02*
X209153047Y-68733200D01*
X209153047Y-68733200D02*
X209200666Y-68685580D01*
X209200666Y-68685580D02*
X209295904Y-68542723D01*
X209295904Y-68542723D02*
X209343523Y-68352247D01*
X209343523Y-68352247D02*
X209343523Y-67971295D01*
X209343523Y-67971295D02*
X209295904Y-67876057D01*
X209295904Y-67876057D02*
X209248285Y-67828438D01*
X209248285Y-67828438D02*
X209153047Y-67780819D01*
X209153047Y-67780819D02*
X208962571Y-67780819D01*
X208962571Y-67780819D02*
X208867333Y-67828438D01*
X208867333Y-67828438D02*
X208819714Y-67876057D01*
X208819714Y-67876057D02*
X208772095Y-67971295D01*
X208772095Y-67971295D02*
X208772095Y-68209390D01*
X208772095Y-68209390D02*
X208819714Y-68304628D01*
X208819714Y-68304628D02*
X208867333Y-68352247D01*
X208867333Y-68352247D02*
X208962571Y-68399866D01*
X208962571Y-68399866D02*
X209153047Y-68399866D01*
X209153047Y-68399866D02*
X209248285Y-68352247D01*
X209248285Y-68352247D02*
X209295904Y-68304628D01*
X209295904Y-68304628D02*
X209343523Y-68209390D01*
X227925333Y-114659580D02*
X227877714Y-114707200D01*
X227877714Y-114707200D02*
X227734857Y-114754819D01*
X227734857Y-114754819D02*
X227639619Y-114754819D01*
X227639619Y-114754819D02*
X227496762Y-114707200D01*
X227496762Y-114707200D02*
X227401524Y-114611961D01*
X227401524Y-114611961D02*
X227353905Y-114516723D01*
X227353905Y-114516723D02*
X227306286Y-114326247D01*
X227306286Y-114326247D02*
X227306286Y-114183390D01*
X227306286Y-114183390D02*
X227353905Y-113992914D01*
X227353905Y-113992914D02*
X227401524Y-113897676D01*
X227401524Y-113897676D02*
X227496762Y-113802438D01*
X227496762Y-113802438D02*
X227639619Y-113754819D01*
X227639619Y-113754819D02*
X227734857Y-113754819D01*
X227734857Y-113754819D02*
X227877714Y-113802438D01*
X227877714Y-113802438D02*
X227925333Y-113850057D01*
X228306286Y-113850057D02*
X228353905Y-113802438D01*
X228353905Y-113802438D02*
X228449143Y-113754819D01*
X228449143Y-113754819D02*
X228687238Y-113754819D01*
X228687238Y-113754819D02*
X228782476Y-113802438D01*
X228782476Y-113802438D02*
X228830095Y-113850057D01*
X228830095Y-113850057D02*
X228877714Y-113945295D01*
X228877714Y-113945295D02*
X228877714Y-114040533D01*
X228877714Y-114040533D02*
X228830095Y-114183390D01*
X228830095Y-114183390D02*
X228258667Y-114754819D01*
X228258667Y-114754819D02*
X228877714Y-114754819D01*
X223797905Y-51469819D02*
X223797905Y-50469819D01*
X223797905Y-50469819D02*
X224036000Y-50469819D01*
X224036000Y-50469819D02*
X224178857Y-50517438D01*
X224178857Y-50517438D02*
X224274095Y-50612676D01*
X224274095Y-50612676D02*
X224321714Y-50707914D01*
X224321714Y-50707914D02*
X224369333Y-50898390D01*
X224369333Y-50898390D02*
X224369333Y-51041247D01*
X224369333Y-51041247D02*
X224321714Y-51231723D01*
X224321714Y-51231723D02*
X224274095Y-51326961D01*
X224274095Y-51326961D02*
X224178857Y-51422200D01*
X224178857Y-51422200D02*
X224036000Y-51469819D01*
X224036000Y-51469819D02*
X223797905Y-51469819D01*
X224702667Y-50469819D02*
X225321714Y-50469819D01*
X225321714Y-50469819D02*
X224988381Y-50850771D01*
X224988381Y-50850771D02*
X225131238Y-50850771D01*
X225131238Y-50850771D02*
X225226476Y-50898390D01*
X225226476Y-50898390D02*
X225274095Y-50946009D01*
X225274095Y-50946009D02*
X225321714Y-51041247D01*
X225321714Y-51041247D02*
X225321714Y-51279342D01*
X225321714Y-51279342D02*
X225274095Y-51374580D01*
X225274095Y-51374580D02*
X225226476Y-51422200D01*
X225226476Y-51422200D02*
X225131238Y-51469819D01*
X225131238Y-51469819D02*
X224845524Y-51469819D01*
X224845524Y-51469819D02*
X224750286Y-51422200D01*
X224750286Y-51422200D02*
X224702667Y-51374580D01*
X228084095Y-51149819D02*
X228084095Y-50149819D01*
X228655523Y-51149819D02*
X228226952Y-50578390D01*
X228655523Y-50149819D02*
X228084095Y-50721247D01*
X191547905Y-129756819D02*
X191547905Y-130566342D01*
X191547905Y-130566342D02*
X191595524Y-130661580D01*
X191595524Y-130661580D02*
X191643143Y-130709200D01*
X191643143Y-130709200D02*
X191738381Y-130756819D01*
X191738381Y-130756819D02*
X191928857Y-130756819D01*
X191928857Y-130756819D02*
X192024095Y-130709200D01*
X192024095Y-130709200D02*
X192071714Y-130661580D01*
X192071714Y-130661580D02*
X192119333Y-130566342D01*
X192119333Y-130566342D02*
X192119333Y-129756819D01*
X193119333Y-130756819D02*
X192547905Y-130756819D01*
X192833619Y-130756819D02*
X192833619Y-129756819D01*
X192833619Y-129756819D02*
X192738381Y-129899676D01*
X192738381Y-129899676D02*
X192643143Y-129994914D01*
X192643143Y-129994914D02*
X192547905Y-130042533D01*
X193500286Y-129852057D02*
X193547905Y-129804438D01*
X193547905Y-129804438D02*
X193643143Y-129756819D01*
X193643143Y-129756819D02*
X193881238Y-129756819D01*
X193881238Y-129756819D02*
X193976476Y-129804438D01*
X193976476Y-129804438D02*
X194024095Y-129852057D01*
X194024095Y-129852057D02*
X194071714Y-129947295D01*
X194071714Y-129947295D02*
X194071714Y-130042533D01*
X194071714Y-130042533D02*
X194024095Y-130185390D01*
X194024095Y-130185390D02*
X193452667Y-130756819D01*
X193452667Y-130756819D02*
X194071714Y-130756819D01*
X189690762Y-116024819D02*
X189690762Y-115024819D01*
X189690762Y-115024819D02*
X189928857Y-115024819D01*
X189928857Y-115024819D02*
X190071714Y-115072438D01*
X190071714Y-115072438D02*
X190166952Y-115167676D01*
X190166952Y-115167676D02*
X190214571Y-115262914D01*
X190214571Y-115262914D02*
X190262190Y-115453390D01*
X190262190Y-115453390D02*
X190262190Y-115596247D01*
X190262190Y-115596247D02*
X190214571Y-115786723D01*
X190214571Y-115786723D02*
X190166952Y-115881961D01*
X190166952Y-115881961D02*
X190071714Y-115977200D01*
X190071714Y-115977200D02*
X189928857Y-116024819D01*
X189928857Y-116024819D02*
X189690762Y-116024819D01*
X190690762Y-116024819D02*
X190690762Y-115024819D01*
X190690762Y-115024819D02*
X191071714Y-115024819D01*
X191071714Y-115024819D02*
X191166952Y-115072438D01*
X191166952Y-115072438D02*
X191214571Y-115120057D01*
X191214571Y-115120057D02*
X191262190Y-115215295D01*
X191262190Y-115215295D02*
X191262190Y-115358152D01*
X191262190Y-115358152D02*
X191214571Y-115453390D01*
X191214571Y-115453390D02*
X191166952Y-115501009D01*
X191166952Y-115501009D02*
X191071714Y-115548628D01*
X191071714Y-115548628D02*
X190690762Y-115548628D01*
X192119333Y-115358152D02*
X192119333Y-116024819D01*
X191881238Y-114977200D02*
X191643143Y-115691485D01*
X191643143Y-115691485D02*
X192262190Y-115691485D01*
X192786000Y-115453390D02*
X192690762Y-115405771D01*
X192690762Y-115405771D02*
X192643143Y-115358152D01*
X192643143Y-115358152D02*
X192595524Y-115262914D01*
X192595524Y-115262914D02*
X192595524Y-115215295D01*
X192595524Y-115215295D02*
X192643143Y-115120057D01*
X192643143Y-115120057D02*
X192690762Y-115072438D01*
X192690762Y-115072438D02*
X192786000Y-115024819D01*
X192786000Y-115024819D02*
X192976476Y-115024819D01*
X192976476Y-115024819D02*
X193071714Y-115072438D01*
X193071714Y-115072438D02*
X193119333Y-115120057D01*
X193119333Y-115120057D02*
X193166952Y-115215295D01*
X193166952Y-115215295D02*
X193166952Y-115262914D01*
X193166952Y-115262914D02*
X193119333Y-115358152D01*
X193119333Y-115358152D02*
X193071714Y-115405771D01*
X193071714Y-115405771D02*
X192976476Y-115453390D01*
X192976476Y-115453390D02*
X192786000Y-115453390D01*
X192786000Y-115453390D02*
X192690762Y-115501009D01*
X192690762Y-115501009D02*
X192643143Y-115548628D01*
X192643143Y-115548628D02*
X192595524Y-115643866D01*
X192595524Y-115643866D02*
X192595524Y-115834342D01*
X192595524Y-115834342D02*
X192643143Y-115929580D01*
X192643143Y-115929580D02*
X192690762Y-115977200D01*
X192690762Y-115977200D02*
X192786000Y-116024819D01*
X192786000Y-116024819D02*
X192976476Y-116024819D01*
X192976476Y-116024819D02*
X193071714Y-115977200D01*
X193071714Y-115977200D02*
X193119333Y-115929580D01*
X193119333Y-115929580D02*
X193166952Y-115834342D01*
X193166952Y-115834342D02*
X193166952Y-115643866D01*
X193166952Y-115643866D02*
X193119333Y-115548628D01*
X193119333Y-115548628D02*
X193071714Y-115501009D01*
X193071714Y-115501009D02*
X192976476Y-115453390D01*
X193500286Y-115024819D02*
X194166952Y-115024819D01*
X194166952Y-115024819D02*
X193738381Y-116024819D01*
X194452667Y-115024819D02*
X195071714Y-115024819D01*
X195071714Y-115024819D02*
X194738381Y-115405771D01*
X194738381Y-115405771D02*
X194881238Y-115405771D01*
X194881238Y-115405771D02*
X194976476Y-115453390D01*
X194976476Y-115453390D02*
X195024095Y-115501009D01*
X195024095Y-115501009D02*
X195071714Y-115596247D01*
X195071714Y-115596247D02*
X195071714Y-115834342D01*
X195071714Y-115834342D02*
X195024095Y-115929580D01*
X195024095Y-115929580D02*
X194976476Y-115977200D01*
X194976476Y-115977200D02*
X194881238Y-116024819D01*
X194881238Y-116024819D02*
X194595524Y-116024819D01*
X194595524Y-116024819D02*
X194500286Y-115977200D01*
X194500286Y-115977200D02*
X194452667Y-115929580D01*
X195357429Y-115024819D02*
X195690762Y-116024819D01*
X195690762Y-116024819D02*
X196024095Y-115024819D01*
X213383905Y-44650819D02*
X213383905Y-43650819D01*
X213383905Y-43650819D02*
X213622000Y-43650819D01*
X213622000Y-43650819D02*
X213764857Y-43698438D01*
X213764857Y-43698438D02*
X213860095Y-43793676D01*
X213860095Y-43793676D02*
X213907714Y-43888914D01*
X213907714Y-43888914D02*
X213955333Y-44079390D01*
X213955333Y-44079390D02*
X213955333Y-44222247D01*
X213955333Y-44222247D02*
X213907714Y-44412723D01*
X213907714Y-44412723D02*
X213860095Y-44507961D01*
X213860095Y-44507961D02*
X213764857Y-44603200D01*
X213764857Y-44603200D02*
X213622000Y-44650819D01*
X213622000Y-44650819D02*
X213383905Y-44650819D01*
X214336286Y-43746057D02*
X214383905Y-43698438D01*
X214383905Y-43698438D02*
X214479143Y-43650819D01*
X214479143Y-43650819D02*
X214717238Y-43650819D01*
X214717238Y-43650819D02*
X214812476Y-43698438D01*
X214812476Y-43698438D02*
X214860095Y-43746057D01*
X214860095Y-43746057D02*
X214907714Y-43841295D01*
X214907714Y-43841295D02*
X214907714Y-43936533D01*
X214907714Y-43936533D02*
X214860095Y-44079390D01*
X214860095Y-44079390D02*
X214288667Y-44650819D01*
X214288667Y-44650819D02*
X214907714Y-44650819D01*
X217924095Y-48609819D02*
X217924095Y-47609819D01*
X218495523Y-48609819D02*
X218066952Y-48038390D01*
X218495523Y-47609819D02*
X217924095Y-48181247D01*
X158583333Y-52429580D02*
X158535714Y-52477200D01*
X158535714Y-52477200D02*
X158392857Y-52524819D01*
X158392857Y-52524819D02*
X158297619Y-52524819D01*
X158297619Y-52524819D02*
X158154762Y-52477200D01*
X158154762Y-52477200D02*
X158059524Y-52381961D01*
X158059524Y-52381961D02*
X158011905Y-52286723D01*
X158011905Y-52286723D02*
X157964286Y-52096247D01*
X157964286Y-52096247D02*
X157964286Y-51953390D01*
X157964286Y-51953390D02*
X158011905Y-51762914D01*
X158011905Y-51762914D02*
X158059524Y-51667676D01*
X158059524Y-51667676D02*
X158154762Y-51572438D01*
X158154762Y-51572438D02*
X158297619Y-51524819D01*
X158297619Y-51524819D02*
X158392857Y-51524819D01*
X158392857Y-51524819D02*
X158535714Y-51572438D01*
X158535714Y-51572438D02*
X158583333Y-51620057D01*
X159059524Y-52524819D02*
X159250000Y-52524819D01*
X159250000Y-52524819D02*
X159345238Y-52477200D01*
X159345238Y-52477200D02*
X159392857Y-52429580D01*
X159392857Y-52429580D02*
X159488095Y-52286723D01*
X159488095Y-52286723D02*
X159535714Y-52096247D01*
X159535714Y-52096247D02*
X159535714Y-51715295D01*
X159535714Y-51715295D02*
X159488095Y-51620057D01*
X159488095Y-51620057D02*
X159440476Y-51572438D01*
X159440476Y-51572438D02*
X159345238Y-51524819D01*
X159345238Y-51524819D02*
X159154762Y-51524819D01*
X159154762Y-51524819D02*
X159059524Y-51572438D01*
X159059524Y-51572438D02*
X159011905Y-51620057D01*
X159011905Y-51620057D02*
X158964286Y-51715295D01*
X158964286Y-51715295D02*
X158964286Y-51953390D01*
X158964286Y-51953390D02*
X159011905Y-52048628D01*
X159011905Y-52048628D02*
X159059524Y-52096247D01*
X159059524Y-52096247D02*
X159154762Y-52143866D01*
X159154762Y-52143866D02*
X159345238Y-52143866D01*
X159345238Y-52143866D02*
X159440476Y-52096247D01*
X159440476Y-52096247D02*
X159488095Y-52048628D01*
X159488095Y-52048628D02*
X159535714Y-51953390D01*
X206787905Y-52540819D02*
X206787905Y-53350342D01*
X206787905Y-53350342D02*
X206835524Y-53445580D01*
X206835524Y-53445580D02*
X206883143Y-53493200D01*
X206883143Y-53493200D02*
X206978381Y-53540819D01*
X206978381Y-53540819D02*
X207168857Y-53540819D01*
X207168857Y-53540819D02*
X207264095Y-53493200D01*
X207264095Y-53493200D02*
X207311714Y-53445580D01*
X207311714Y-53445580D02*
X207359333Y-53350342D01*
X207359333Y-53350342D02*
X207359333Y-52540819D01*
X208359333Y-53540819D02*
X207787905Y-53540819D01*
X208073619Y-53540819D02*
X208073619Y-52540819D01*
X208073619Y-52540819D02*
X207978381Y-52683676D01*
X207978381Y-52683676D02*
X207883143Y-52778914D01*
X207883143Y-52778914D02*
X207787905Y-52826533D01*
X208978381Y-52540819D02*
X209073619Y-52540819D01*
X209073619Y-52540819D02*
X209168857Y-52588438D01*
X209168857Y-52588438D02*
X209216476Y-52636057D01*
X209216476Y-52636057D02*
X209264095Y-52731295D01*
X209264095Y-52731295D02*
X209311714Y-52921771D01*
X209311714Y-52921771D02*
X209311714Y-53159866D01*
X209311714Y-53159866D02*
X209264095Y-53350342D01*
X209264095Y-53350342D02*
X209216476Y-53445580D01*
X209216476Y-53445580D02*
X209168857Y-53493200D01*
X209168857Y-53493200D02*
X209073619Y-53540819D01*
X209073619Y-53540819D02*
X208978381Y-53540819D01*
X208978381Y-53540819D02*
X208883143Y-53493200D01*
X208883143Y-53493200D02*
X208835524Y-53445580D01*
X208835524Y-53445580D02*
X208787905Y-53350342D01*
X208787905Y-53350342D02*
X208740286Y-53159866D01*
X208740286Y-53159866D02*
X208740286Y-52921771D01*
X208740286Y-52921771D02*
X208787905Y-52731295D01*
X208787905Y-52731295D02*
X208835524Y-52636057D01*
X208835524Y-52636057D02*
X208883143Y-52588438D01*
X208883143Y-52588438D02*
X208978381Y-52540819D01*
X224369333Y-44889819D02*
X224036000Y-44413628D01*
X223797905Y-44889819D02*
X223797905Y-43889819D01*
X223797905Y-43889819D02*
X224178857Y-43889819D01*
X224178857Y-43889819D02*
X224274095Y-43937438D01*
X224274095Y-43937438D02*
X224321714Y-43985057D01*
X224321714Y-43985057D02*
X224369333Y-44080295D01*
X224369333Y-44080295D02*
X224369333Y-44223152D01*
X224369333Y-44223152D02*
X224321714Y-44318390D01*
X224321714Y-44318390D02*
X224274095Y-44366009D01*
X224274095Y-44366009D02*
X224178857Y-44413628D01*
X224178857Y-44413628D02*
X223797905Y-44413628D01*
X224750286Y-43985057D02*
X224797905Y-43937438D01*
X224797905Y-43937438D02*
X224893143Y-43889819D01*
X224893143Y-43889819D02*
X225131238Y-43889819D01*
X225131238Y-43889819D02*
X225226476Y-43937438D01*
X225226476Y-43937438D02*
X225274095Y-43985057D01*
X225274095Y-43985057D02*
X225321714Y-44080295D01*
X225321714Y-44080295D02*
X225321714Y-44175533D01*
X225321714Y-44175533D02*
X225274095Y-44318390D01*
X225274095Y-44318390D02*
X224702667Y-44889819D01*
X224702667Y-44889819D02*
X225321714Y-44889819D01*
X158837339Y-44555580D02*
X158789720Y-44603200D01*
X158789720Y-44603200D02*
X158646863Y-44650819D01*
X158646863Y-44650819D02*
X158551625Y-44650819D01*
X158551625Y-44650819D02*
X158408768Y-44603200D01*
X158408768Y-44603200D02*
X158313530Y-44507961D01*
X158313530Y-44507961D02*
X158265911Y-44412723D01*
X158265911Y-44412723D02*
X158218292Y-44222247D01*
X158218292Y-44222247D02*
X158218292Y-44079390D01*
X158218292Y-44079390D02*
X158265911Y-43888914D01*
X158265911Y-43888914D02*
X158313530Y-43793676D01*
X158313530Y-43793676D02*
X158408768Y-43698438D01*
X158408768Y-43698438D02*
X158551625Y-43650819D01*
X158551625Y-43650819D02*
X158646863Y-43650819D01*
X158646863Y-43650819D02*
X158789720Y-43698438D01*
X158789720Y-43698438D02*
X158837339Y-43746057D01*
X159408768Y-44079390D02*
X159313530Y-44031771D01*
X159313530Y-44031771D02*
X159265911Y-43984152D01*
X159265911Y-43984152D02*
X159218292Y-43888914D01*
X159218292Y-43888914D02*
X159218292Y-43841295D01*
X159218292Y-43841295D02*
X159265911Y-43746057D01*
X159265911Y-43746057D02*
X159313530Y-43698438D01*
X159313530Y-43698438D02*
X159408768Y-43650819D01*
X159408768Y-43650819D02*
X159599244Y-43650819D01*
X159599244Y-43650819D02*
X159694482Y-43698438D01*
X159694482Y-43698438D02*
X159742101Y-43746057D01*
X159742101Y-43746057D02*
X159789720Y-43841295D01*
X159789720Y-43841295D02*
X159789720Y-43888914D01*
X159789720Y-43888914D02*
X159742101Y-43984152D01*
X159742101Y-43984152D02*
X159694482Y-44031771D01*
X159694482Y-44031771D02*
X159599244Y-44079390D01*
X159599244Y-44079390D02*
X159408768Y-44079390D01*
X159408768Y-44079390D02*
X159313530Y-44127009D01*
X159313530Y-44127009D02*
X159265911Y-44174628D01*
X159265911Y-44174628D02*
X159218292Y-44269866D01*
X159218292Y-44269866D02*
X159218292Y-44460342D01*
X159218292Y-44460342D02*
X159265911Y-44555580D01*
X159265911Y-44555580D02*
X159313530Y-44603200D01*
X159313530Y-44603200D02*
X159408768Y-44650819D01*
X159408768Y-44650819D02*
X159599244Y-44650819D01*
X159599244Y-44650819D02*
X159694482Y-44603200D01*
X159694482Y-44603200D02*
X159742101Y-44555580D01*
X159742101Y-44555580D02*
X159789720Y-44460342D01*
X159789720Y-44460342D02*
X159789720Y-44269866D01*
X159789720Y-44269866D02*
X159742101Y-44174628D01*
X159742101Y-44174628D02*
X159694482Y-44127009D01*
X159694482Y-44127009D02*
X159599244Y-44079390D01*
X194484666Y-44412819D02*
X194484666Y-45127104D01*
X194484666Y-45127104D02*
X194437047Y-45269961D01*
X194437047Y-45269961D02*
X194341809Y-45365200D01*
X194341809Y-45365200D02*
X194198952Y-45412819D01*
X194198952Y-45412819D02*
X194103714Y-45412819D01*
X194865619Y-44412819D02*
X195484666Y-44412819D01*
X195484666Y-44412819D02*
X195151333Y-44793771D01*
X195151333Y-44793771D02*
X195294190Y-44793771D01*
X195294190Y-44793771D02*
X195389428Y-44841390D01*
X195389428Y-44841390D02*
X195437047Y-44889009D01*
X195437047Y-44889009D02*
X195484666Y-44984247D01*
X195484666Y-44984247D02*
X195484666Y-45222342D01*
X195484666Y-45222342D02*
X195437047Y-45317580D01*
X195437047Y-45317580D02*
X195389428Y-45365200D01*
X195389428Y-45365200D02*
X195294190Y-45412819D01*
X195294190Y-45412819D02*
X195008476Y-45412819D01*
X195008476Y-45412819D02*
X194913238Y-45365200D01*
X194913238Y-45365200D02*
X194865619Y-45317580D01*
X173045523Y-110944819D02*
X172712190Y-110468628D01*
X172474095Y-110944819D02*
X172474095Y-109944819D01*
X172474095Y-109944819D02*
X172855047Y-109944819D01*
X172855047Y-109944819D02*
X172950285Y-109992438D01*
X172950285Y-109992438D02*
X172997904Y-110040057D01*
X172997904Y-110040057D02*
X173045523Y-110135295D01*
X173045523Y-110135295D02*
X173045523Y-110278152D01*
X173045523Y-110278152D02*
X172997904Y-110373390D01*
X172997904Y-110373390D02*
X172950285Y-110421009D01*
X172950285Y-110421009D02*
X172855047Y-110468628D01*
X172855047Y-110468628D02*
X172474095Y-110468628D01*
X173474095Y-110944819D02*
X173474095Y-109944819D01*
X173474095Y-109944819D02*
X174045523Y-110944819D01*
X174045523Y-110944819D02*
X174045523Y-109944819D01*
X175045523Y-110944819D02*
X174474095Y-110944819D01*
X174759809Y-110944819D02*
X174759809Y-109944819D01*
X174759809Y-109944819D02*
X174664571Y-110087676D01*
X174664571Y-110087676D02*
X174569333Y-110182914D01*
X174569333Y-110182914D02*
X174474095Y-110230533D01*
D11*
%TO.C,U6*%
X218296000Y-130870000D02*
X218296000Y-105350000D01*
X218296000Y-105350000D02*
X212996000Y-105350000D01*
X216646000Y-130870000D02*
X218296000Y-130870000D01*
X212996000Y-130870000D02*
X214646000Y-130870000D01*
X212996000Y-105350000D02*
X212996000Y-130870000D01*
X216646000Y-130870000D02*
G75*
G03*
X214646000Y-130870000I-1000000J0D01*
G01*
%TO.C,R3*%
X176276000Y-131140000D02*
X176276000Y-130190000D01*
X175356000Y-130190000D02*
X177196000Y-130190000D01*
X177196000Y-130190000D02*
X177196000Y-126350000D01*
X175356000Y-126350000D02*
X175356000Y-130190000D01*
X177196000Y-126350000D02*
X175356000Y-126350000D01*
X176276000Y-125400000D02*
X176276000Y-126350000D01*
%TO.C,J2*%
X172466000Y-138430000D02*
X171196000Y-138430000D01*
X172466000Y-137160000D02*
X172466000Y-138430000D01*
X170153071Y-135000000D02*
X169698929Y-135000000D01*
X170153071Y-134240000D02*
X169698929Y-134240000D01*
X170153071Y-132460000D02*
X169698929Y-132460000D01*
X170153071Y-131700000D02*
X169698929Y-131700000D01*
X170153071Y-129920000D02*
X169698929Y-129920000D01*
X170153071Y-129160000D02*
X169698929Y-129160000D01*
X170153071Y-127380000D02*
X169698929Y-127380000D01*
X170153071Y-126620000D02*
X169698929Y-126620000D01*
X170153071Y-124840000D02*
X169698929Y-124840000D01*
X170153071Y-124080000D02*
X169698929Y-124080000D01*
X170153071Y-122300000D02*
X169698929Y-122300000D01*
X170153071Y-121540000D02*
X169698929Y-121540000D01*
X170153071Y-119760000D02*
X169698929Y-119760000D01*
X170153071Y-119000000D02*
X169698929Y-119000000D01*
X170153071Y-117220000D02*
X169698929Y-117220000D01*
X170153071Y-116460000D02*
X169698929Y-116460000D01*
X170153071Y-114680000D02*
X169698929Y-114680000D01*
X170153071Y-113920000D02*
X169698929Y-113920000D01*
X170153071Y-112140000D02*
X169698929Y-112140000D01*
X170153071Y-111380000D02*
X169698929Y-111380000D01*
X170153071Y-109600000D02*
X169698929Y-109600000D01*
X170153071Y-108840000D02*
X169698929Y-108840000D01*
X170153071Y-107060000D02*
X169698929Y-107060000D01*
X170153071Y-106300000D02*
X169698929Y-106300000D01*
X170153071Y-104520000D02*
X169698929Y-104520000D01*
X170153071Y-103760000D02*
X169698929Y-103760000D01*
X170153071Y-101980000D02*
X169698929Y-101980000D01*
X170153071Y-101220000D02*
X169698929Y-101220000D01*
X170153071Y-99440000D02*
X169698929Y-99440000D01*
X170153071Y-98680000D02*
X169698929Y-98680000D01*
X170153071Y-96900000D02*
X169698929Y-96900000D01*
X170153071Y-96140000D02*
X169698929Y-96140000D01*
X170086000Y-137540000D02*
X169698929Y-137540000D01*
X170086000Y-136780000D02*
X169698929Y-136780000D01*
X167613071Y-137540000D02*
X167216000Y-137540000D01*
X167613071Y-136780000D02*
X167216000Y-136780000D01*
X167613071Y-135000000D02*
X167216000Y-135000000D01*
X167613071Y-134240000D02*
X167216000Y-134240000D01*
X167613071Y-132460000D02*
X167216000Y-132460000D01*
X167613071Y-131700000D02*
X167216000Y-131700000D01*
X167613071Y-129920000D02*
X167216000Y-129920000D01*
X167613071Y-129160000D02*
X167216000Y-129160000D01*
X167613071Y-127380000D02*
X167216000Y-127380000D01*
X167613071Y-126620000D02*
X167216000Y-126620000D01*
X167613071Y-124840000D02*
X167216000Y-124840000D01*
X167613071Y-124080000D02*
X167216000Y-124080000D01*
X167613071Y-122300000D02*
X167216000Y-122300000D01*
X167613071Y-121540000D02*
X167216000Y-121540000D01*
X167613071Y-119760000D02*
X167216000Y-119760000D01*
X167613071Y-119000000D02*
X167216000Y-119000000D01*
X167613071Y-117220000D02*
X167216000Y-117220000D01*
X167613071Y-116460000D02*
X167216000Y-116460000D01*
X167613071Y-114680000D02*
X167216000Y-114680000D01*
X167613071Y-113920000D02*
X167216000Y-113920000D01*
X167613071Y-112140000D02*
X167216000Y-112140000D01*
X167613071Y-111380000D02*
X167216000Y-111380000D01*
X167613071Y-109600000D02*
X167216000Y-109600000D01*
X167613071Y-108840000D02*
X167216000Y-108840000D01*
X167613071Y-107060000D02*
X167216000Y-107060000D01*
X167613071Y-106300000D02*
X167216000Y-106300000D01*
X167613071Y-104520000D02*
X167216000Y-104520000D01*
X167613071Y-103760000D02*
X167216000Y-103760000D01*
X167613071Y-101980000D02*
X167216000Y-101980000D01*
X167613071Y-101220000D02*
X167216000Y-101220000D01*
X167613071Y-99440000D02*
X167216000Y-99440000D01*
X167613071Y-98680000D02*
X167216000Y-98680000D01*
X167613071Y-96900000D02*
X167216000Y-96900000D01*
X167613071Y-96140000D02*
X167216000Y-96140000D01*
X167216000Y-138490000D02*
X167216000Y-95190000D01*
X167216000Y-135890000D02*
X164556000Y-135890000D01*
X167216000Y-133350000D02*
X164556000Y-133350000D01*
X167216000Y-130810000D02*
X164556000Y-130810000D01*
X167216000Y-128270000D02*
X164556000Y-128270000D01*
X167216000Y-125730000D02*
X164556000Y-125730000D01*
X167216000Y-123190000D02*
X164556000Y-123190000D01*
X167216000Y-120650000D02*
X164556000Y-120650000D01*
X167216000Y-118110000D02*
X164556000Y-118110000D01*
X167216000Y-115570000D02*
X164556000Y-115570000D01*
X167216000Y-113030000D02*
X164556000Y-113030000D01*
X167216000Y-110490000D02*
X164556000Y-110490000D01*
X167216000Y-107950000D02*
X164556000Y-107950000D01*
X167216000Y-105410000D02*
X164556000Y-105410000D01*
X167216000Y-102870000D02*
X164556000Y-102870000D01*
X167216000Y-100330000D02*
X164556000Y-100330000D01*
X167216000Y-97790000D02*
X164556000Y-97790000D01*
X167216000Y-95190000D02*
X164556000Y-95190000D01*
X164556000Y-138490000D02*
X167216000Y-138490000D01*
X164556000Y-137540000D02*
X158556000Y-137540000D01*
X164556000Y-137480000D02*
X158556000Y-137480000D01*
X164556000Y-137360000D02*
X158556000Y-137360000D01*
X164556000Y-137240000D02*
X158556000Y-137240000D01*
X164556000Y-137120000D02*
X158556000Y-137120000D01*
X164556000Y-137000000D02*
X158556000Y-137000000D01*
X164556000Y-136880000D02*
X158556000Y-136880000D01*
X164556000Y-135000000D02*
X158556000Y-135000000D01*
X164556000Y-132460000D02*
X158556000Y-132460000D01*
X164556000Y-129920000D02*
X158556000Y-129920000D01*
X164556000Y-127380000D02*
X158556000Y-127380000D01*
X164556000Y-124840000D02*
X158556000Y-124840000D01*
X164556000Y-122300000D02*
X158556000Y-122300000D01*
X164556000Y-119760000D02*
X158556000Y-119760000D01*
X164556000Y-117220000D02*
X158556000Y-117220000D01*
X164556000Y-114680000D02*
X158556000Y-114680000D01*
X164556000Y-112140000D02*
X158556000Y-112140000D01*
X164556000Y-109600000D02*
X158556000Y-109600000D01*
X164556000Y-107060000D02*
X158556000Y-107060000D01*
X164556000Y-104520000D02*
X158556000Y-104520000D01*
X164556000Y-101980000D02*
X158556000Y-101980000D01*
X164556000Y-99440000D02*
X158556000Y-99440000D01*
X164556000Y-96900000D02*
X158556000Y-96900000D01*
X164556000Y-95190000D02*
X164556000Y-138490000D01*
X158556000Y-137540000D02*
X158556000Y-136780000D01*
X158556000Y-136780000D02*
X164556000Y-136780000D01*
X158556000Y-135000000D02*
X158556000Y-134240000D01*
X158556000Y-134240000D02*
X164556000Y-134240000D01*
X158556000Y-132460000D02*
X158556000Y-131700000D01*
X158556000Y-131700000D02*
X164556000Y-131700000D01*
X158556000Y-129920000D02*
X158556000Y-129160000D01*
X158556000Y-129160000D02*
X164556000Y-129160000D01*
X158556000Y-127380000D02*
X158556000Y-126620000D01*
X158556000Y-126620000D02*
X164556000Y-126620000D01*
X158556000Y-124840000D02*
X158556000Y-124080000D01*
X158556000Y-124080000D02*
X164556000Y-124080000D01*
X158556000Y-122300000D02*
X158556000Y-121540000D01*
X158556000Y-121540000D02*
X164556000Y-121540000D01*
X158556000Y-119760000D02*
X158556000Y-119000000D01*
X158556000Y-119000000D02*
X164556000Y-119000000D01*
X158556000Y-117220000D02*
X158556000Y-116460000D01*
X158556000Y-116460000D02*
X164556000Y-116460000D01*
X158556000Y-114680000D02*
X158556000Y-113920000D01*
X158556000Y-113920000D02*
X164556000Y-113920000D01*
X158556000Y-112140000D02*
X158556000Y-111380000D01*
X158556000Y-111380000D02*
X164556000Y-111380000D01*
X158556000Y-109600000D02*
X158556000Y-108840000D01*
X158556000Y-108840000D02*
X164556000Y-108840000D01*
X158556000Y-107060000D02*
X158556000Y-106300000D01*
X158556000Y-106300000D02*
X164556000Y-106300000D01*
X158556000Y-104520000D02*
X158556000Y-103760000D01*
X158556000Y-103760000D02*
X164556000Y-103760000D01*
X158556000Y-101980000D02*
X158556000Y-101220000D01*
X158556000Y-101220000D02*
X164556000Y-101220000D01*
X158556000Y-99440000D02*
X158556000Y-98680000D01*
X158556000Y-98680000D02*
X164556000Y-98680000D01*
X158556000Y-96900000D02*
X158556000Y-96140000D01*
X158556000Y-96140000D02*
X164556000Y-96140000D01*
%TO.C,U4*%
X196656000Y-62120000D02*
X171136000Y-62120000D01*
X171136000Y-62120000D02*
X171136000Y-67420000D01*
X196656000Y-63770000D02*
X196656000Y-62120000D01*
X196656000Y-67420000D02*
X196656000Y-65770000D01*
X171136000Y-67420000D02*
X196656000Y-67420000D01*
X196656000Y-63770000D02*
G75*
G03*
X196656000Y-65770000I0J-1000000D01*
G01*
%TO.C,Q1*%
X231751201Y-51559748D02*
X232663369Y-50647581D01*
X230761252Y-50569799D02*
X231751201Y-51559748D01*
X231673419Y-49657631D02*
X230761252Y-50569799D01*
X232663156Y-50647450D02*
G75*
G03*
X231673419Y-49657631I1582544J2572150D01*
G01*
%TO.C,D1*%
X201446000Y-46355000D02*
X202096000Y-46355000D01*
X202096000Y-45235000D02*
X202096000Y-47475000D01*
X202096000Y-47475000D02*
X206336000Y-47475000D01*
X202696000Y-45235000D02*
X202696000Y-47475000D01*
X202816000Y-45235000D02*
X202816000Y-47475000D01*
X202936000Y-45235000D02*
X202936000Y-47475000D01*
X206336000Y-45235000D02*
X202096000Y-45235000D01*
X206336000Y-47475000D02*
X206336000Y-45235000D01*
X206986000Y-46355000D02*
X206336000Y-46355000D01*
%TO.C,C3*%
X206102000Y-142170000D02*
X206102000Y-140804000D01*
X206102000Y-142170000D02*
X189362000Y-142170000D01*
X206102000Y-138596000D02*
X206102000Y-137230000D01*
X206102000Y-137230000D02*
X189362000Y-137230000D01*
X189362000Y-142170000D02*
X189362000Y-140804000D01*
X189362000Y-138596000D02*
X189362000Y-137230000D01*
%TO.C,C10*%
X201311000Y-49095000D02*
X201311000Y-49110000D01*
X201311000Y-49095000D02*
X205851000Y-49095000D01*
X201311000Y-51220000D02*
X201311000Y-51235000D01*
X201311000Y-51235000D02*
X205851000Y-51235000D01*
X205851000Y-49095000D02*
X205851000Y-49110000D01*
X205851000Y-51220000D02*
X205851000Y-51235000D01*
%TO.C,C14*%
X178252000Y-109020000D02*
X178252000Y-109005000D01*
X178252000Y-109020000D02*
X173712000Y-109020000D01*
X178252000Y-106895000D02*
X178252000Y-106880000D01*
X178252000Y-106880000D02*
X173712000Y-106880000D01*
X173712000Y-109020000D02*
X173712000Y-109005000D01*
X173712000Y-106895000D02*
X173712000Y-106880000D01*
%TO.C,C1*%
X232506000Y-116179000D02*
X232506000Y-114921000D01*
X234346000Y-116179000D02*
X234346000Y-114921000D01*
%TO.C,Y3*%
X231521541Y-115710522D02*
G75*
G03*
X228981001Y-115709912I-1270541J-1129478D01*
G01*
X228981001Y-117970088D02*
G75*
G03*
X231521541Y-117969478I1269999J1130088D01*
G01*
D12*
%TO.C,U8*%
X207772000Y-67310000D02*
X234188000Y-67310000D01*
X234188000Y-67310000D02*
X234696000Y-66802000D01*
X234696000Y-66802000D02*
X234696000Y-62738000D01*
X207772000Y-62738000D02*
X207772000Y-67310000D01*
X234696000Y-62738000D02*
X234188000Y-62230000D01*
X208280000Y-62230000D02*
X207772000Y-62738000D01*
X234188000Y-62230000D02*
X208280000Y-62230000D01*
D11*
%TO.C,J5*%
X196536000Y-72330000D02*
X196536000Y-72450000D01*
X196536000Y-72450000D02*
X199196000Y-72450000D01*
X197866000Y-69790000D02*
X199196000Y-69790000D01*
X199196000Y-69790000D02*
X199196000Y-71120000D01*
X199196000Y-72330000D02*
X199196000Y-72450000D01*
%TO.C,C15*%
X201311000Y-54175000D02*
X201311000Y-54190000D01*
X201311000Y-54175000D02*
X205851000Y-54175000D01*
X201311000Y-56300000D02*
X201311000Y-56315000D01*
X201311000Y-56315000D02*
X205851000Y-56315000D01*
X205851000Y-54175000D02*
X205851000Y-54190000D01*
X205851000Y-56300000D02*
X205851000Y-56315000D01*
%TO.C,J6*%
X171136000Y-46295000D02*
X171136000Y-46415000D01*
X171136000Y-46415000D02*
X173796000Y-46415000D01*
X172466000Y-43755000D02*
X173796000Y-43755000D01*
X173796000Y-43755000D02*
X173796000Y-45085000D01*
X173796000Y-46295000D02*
X173796000Y-46415000D01*
%TO.C,R1*%
X211506000Y-48895000D02*
X212456000Y-48895000D01*
X212456000Y-47975000D02*
X212456000Y-49815000D01*
X212456000Y-49815000D02*
X216296000Y-49815000D01*
X216296000Y-47975000D02*
X212456000Y-47975000D01*
X216296000Y-49815000D02*
X216296000Y-47975000D01*
X217246000Y-48895000D02*
X216296000Y-48895000D01*
%TO.C,C4*%
X206102000Y-137725000D02*
X206102000Y-136359000D01*
X206102000Y-137725000D02*
X189362000Y-137725000D01*
X206102000Y-134151000D02*
X206102000Y-132785000D01*
X206102000Y-132785000D02*
X189362000Y-132785000D01*
X189362000Y-137725000D02*
X189362000Y-136359000D01*
X189362000Y-134151000D02*
X189362000Y-132785000D01*
%TO.C,C6*%
X176986000Y-133100000D02*
X176986000Y-133695000D01*
X176986000Y-133100000D02*
X188226000Y-133100000D01*
X176986000Y-135545000D02*
X176986000Y-136140000D01*
X176986000Y-136140000D02*
X188226000Y-136140000D01*
X188226000Y-133100000D02*
X188226000Y-133695000D01*
X188226000Y-135545000D02*
X188226000Y-136140000D01*
%TO.C,X1*%
X200226000Y-57566000D02*
X200226000Y-71166000D01*
X200226000Y-71166000D02*
X205766000Y-71166000D01*
X201996000Y-57566000D02*
X200226000Y-57566000D01*
X205766000Y-57566000D02*
X203996000Y-57566000D01*
X205766000Y-71166000D02*
X205766000Y-57566000D01*
X201996000Y-57566000D02*
G75*
G03*
X203996000Y-57566000I1000000J0D01*
G01*
%TO.C,C16*%
X225361302Y-106905000D02*
X226161302Y-106905000D01*
X225761302Y-106505000D02*
X225761302Y-107305000D01*
X229771000Y-105140000D02*
X229771000Y-113300000D01*
X229811000Y-105140000D02*
X229811000Y-113300000D01*
X229851000Y-105140000D02*
X229851000Y-113300000D01*
X229891000Y-105141000D02*
X229891000Y-113299000D01*
X229931000Y-105143000D02*
X229931000Y-113297000D01*
X229971000Y-105144000D02*
X229971000Y-113296000D01*
X230011000Y-105146000D02*
X230011000Y-113294000D01*
X230051000Y-105149000D02*
X230051000Y-113291000D01*
X230091000Y-105152000D02*
X230091000Y-113288000D01*
X230131000Y-105155000D02*
X230131000Y-113285000D01*
X230171000Y-105159000D02*
X230171000Y-113281000D01*
X230211000Y-105163000D02*
X230211000Y-113277000D01*
X230251000Y-105168000D02*
X230251000Y-113272000D01*
X230291000Y-105172000D02*
X230291000Y-113268000D01*
X230331000Y-105178000D02*
X230331000Y-113262000D01*
X230371000Y-105183000D02*
X230371000Y-113257000D01*
X230411000Y-105190000D02*
X230411000Y-113250000D01*
X230451000Y-105196000D02*
X230451000Y-113244000D01*
X230492000Y-105203000D02*
X230492000Y-108180000D01*
X230492000Y-110260000D02*
X230492000Y-113237000D01*
X230532000Y-105210000D02*
X230532000Y-108180000D01*
X230532000Y-110260000D02*
X230532000Y-113230000D01*
X230572000Y-105218000D02*
X230572000Y-108180000D01*
X230572000Y-110260000D02*
X230572000Y-113222000D01*
X230612000Y-105226000D02*
X230612000Y-108180000D01*
X230612000Y-110260000D02*
X230612000Y-113214000D01*
X230652000Y-105235000D02*
X230652000Y-108180000D01*
X230652000Y-110260000D02*
X230652000Y-113205000D01*
X230692000Y-105244000D02*
X230692000Y-108180000D01*
X230692000Y-110260000D02*
X230692000Y-113196000D01*
X230732000Y-105253000D02*
X230732000Y-108180000D01*
X230732000Y-110260000D02*
X230732000Y-113187000D01*
X230772000Y-105263000D02*
X230772000Y-108180000D01*
X230772000Y-110260000D02*
X230772000Y-113177000D01*
X230812000Y-105273000D02*
X230812000Y-108180000D01*
X230812000Y-110260000D02*
X230812000Y-113167000D01*
X230852000Y-105284000D02*
X230852000Y-108180000D01*
X230852000Y-110260000D02*
X230852000Y-113156000D01*
X230892000Y-105295000D02*
X230892000Y-108180000D01*
X230892000Y-110260000D02*
X230892000Y-113145000D01*
X230932000Y-105306000D02*
X230932000Y-108180000D01*
X230932000Y-110260000D02*
X230932000Y-113134000D01*
X230972000Y-105318000D02*
X230972000Y-108180000D01*
X230972000Y-110260000D02*
X230972000Y-113122000D01*
X231012000Y-105331000D02*
X231012000Y-108180000D01*
X231012000Y-110260000D02*
X231012000Y-113109000D01*
X231052000Y-105343000D02*
X231052000Y-108180000D01*
X231052000Y-110260000D02*
X231052000Y-113097000D01*
X231092000Y-105357000D02*
X231092000Y-108180000D01*
X231092000Y-110260000D02*
X231092000Y-113083000D01*
X231132000Y-105370000D02*
X231132000Y-108180000D01*
X231132000Y-110260000D02*
X231132000Y-113070000D01*
X231172000Y-105385000D02*
X231172000Y-108180000D01*
X231172000Y-110260000D02*
X231172000Y-113055000D01*
X231212000Y-105399000D02*
X231212000Y-108180000D01*
X231212000Y-110260000D02*
X231212000Y-113041000D01*
X231252000Y-105415000D02*
X231252000Y-108180000D01*
X231252000Y-110260000D02*
X231252000Y-113025000D01*
X231292000Y-105430000D02*
X231292000Y-108180000D01*
X231292000Y-110260000D02*
X231292000Y-113010000D01*
X231332000Y-105446000D02*
X231332000Y-108180000D01*
X231332000Y-110260000D02*
X231332000Y-112994000D01*
X231372000Y-105463000D02*
X231372000Y-108180000D01*
X231372000Y-110260000D02*
X231372000Y-112977000D01*
X231412000Y-105480000D02*
X231412000Y-108180000D01*
X231412000Y-110260000D02*
X231412000Y-112960000D01*
X231452000Y-105498000D02*
X231452000Y-108180000D01*
X231452000Y-110260000D02*
X231452000Y-112942000D01*
X231492000Y-105516000D02*
X231492000Y-108180000D01*
X231492000Y-110260000D02*
X231492000Y-112924000D01*
X231532000Y-105534000D02*
X231532000Y-108180000D01*
X231532000Y-110260000D02*
X231532000Y-112906000D01*
X231572000Y-105554000D02*
X231572000Y-108180000D01*
X231572000Y-110260000D02*
X231572000Y-112886000D01*
X231612000Y-105573000D02*
X231612000Y-108180000D01*
X231612000Y-110260000D02*
X231612000Y-112867000D01*
X231652000Y-105593000D02*
X231652000Y-108180000D01*
X231652000Y-110260000D02*
X231652000Y-112847000D01*
X231692000Y-105614000D02*
X231692000Y-108180000D01*
X231692000Y-110260000D02*
X231692000Y-112826000D01*
X231732000Y-105636000D02*
X231732000Y-108180000D01*
X231732000Y-110260000D02*
X231732000Y-112804000D01*
X231772000Y-105658000D02*
X231772000Y-108180000D01*
X231772000Y-110260000D02*
X231772000Y-112782000D01*
X231812000Y-105680000D02*
X231812000Y-108180000D01*
X231812000Y-110260000D02*
X231812000Y-112760000D01*
X231852000Y-105703000D02*
X231852000Y-108180000D01*
X231852000Y-110260000D02*
X231852000Y-112737000D01*
X231892000Y-105727000D02*
X231892000Y-108180000D01*
X231892000Y-110260000D02*
X231892000Y-112713000D01*
X231932000Y-105751000D02*
X231932000Y-108180000D01*
X231932000Y-110260000D02*
X231932000Y-112689000D01*
X231972000Y-105776000D02*
X231972000Y-108180000D01*
X231972000Y-110260000D02*
X231972000Y-112664000D01*
X232012000Y-105802000D02*
X232012000Y-108180000D01*
X232012000Y-110260000D02*
X232012000Y-112638000D01*
X232052000Y-105828000D02*
X232052000Y-108180000D01*
X232052000Y-110260000D02*
X232052000Y-112612000D01*
X232092000Y-105855000D02*
X232092000Y-108180000D01*
X232092000Y-110260000D02*
X232092000Y-112585000D01*
X232132000Y-105882000D02*
X232132000Y-108180000D01*
X232132000Y-110260000D02*
X232132000Y-112558000D01*
X232172000Y-105911000D02*
X232172000Y-108180000D01*
X232172000Y-110260000D02*
X232172000Y-112529000D01*
X232212000Y-105940000D02*
X232212000Y-108180000D01*
X232212000Y-110260000D02*
X232212000Y-112500000D01*
X232252000Y-105970000D02*
X232252000Y-108180000D01*
X232252000Y-110260000D02*
X232252000Y-112470000D01*
X232292000Y-106000000D02*
X232292000Y-108180000D01*
X232292000Y-110260000D02*
X232292000Y-112440000D01*
X232332000Y-106031000D02*
X232332000Y-108180000D01*
X232332000Y-110260000D02*
X232332000Y-112409000D01*
X232372000Y-106064000D02*
X232372000Y-108180000D01*
X232372000Y-110260000D02*
X232372000Y-112376000D01*
X232412000Y-106096000D02*
X232412000Y-108180000D01*
X232412000Y-110260000D02*
X232412000Y-112344000D01*
X232452000Y-106130000D02*
X232452000Y-108180000D01*
X232452000Y-110260000D02*
X232452000Y-112310000D01*
X232492000Y-106165000D02*
X232492000Y-108180000D01*
X232492000Y-110260000D02*
X232492000Y-112275000D01*
X232532000Y-106201000D02*
X232532000Y-108180000D01*
X232532000Y-110260000D02*
X232532000Y-112239000D01*
X232572000Y-106237000D02*
X232572000Y-112203000D01*
X232612000Y-106275000D02*
X232612000Y-112165000D01*
X232652000Y-106313000D02*
X232652000Y-112127000D01*
X232692000Y-106353000D02*
X232692000Y-112087000D01*
X232732000Y-106394000D02*
X232732000Y-112046000D01*
X232772000Y-106436000D02*
X232772000Y-112004000D01*
X232812000Y-106479000D02*
X232812000Y-111961000D01*
X232852000Y-106523000D02*
X232852000Y-111917000D01*
X232892000Y-106569000D02*
X232892000Y-111871000D01*
X232932000Y-106616000D02*
X232932000Y-111824000D01*
X232972000Y-106664000D02*
X232972000Y-111776000D01*
X233012000Y-106715000D02*
X233012000Y-111725000D01*
X233052000Y-106766000D02*
X233052000Y-111674000D01*
X233092000Y-106820000D02*
X233092000Y-111620000D01*
X233132000Y-106875000D02*
X233132000Y-111565000D01*
X233172000Y-106933000D02*
X233172000Y-111507000D01*
X233212000Y-106992000D02*
X233212000Y-111448000D01*
X233252000Y-107054000D02*
X233252000Y-111386000D01*
X233292000Y-107118000D02*
X233292000Y-111322000D01*
X233332000Y-107186000D02*
X233332000Y-111254000D01*
X233372000Y-107256000D02*
X233372000Y-111184000D01*
X233412000Y-107330000D02*
X233412000Y-111110000D01*
X233452000Y-107407000D02*
X233452000Y-111033000D01*
X233492000Y-107489000D02*
X233492000Y-110951000D01*
X233532000Y-107575000D02*
X233532000Y-110865000D01*
X233572000Y-107668000D02*
X233572000Y-110772000D01*
X233612000Y-107767000D02*
X233612000Y-110673000D01*
X233652000Y-107874000D02*
X233652000Y-110566000D01*
X233692000Y-107991000D02*
X233692000Y-110449000D01*
X233732000Y-108122000D02*
X233732000Y-110318000D01*
X233772000Y-108272000D02*
X233772000Y-110168000D01*
X233812000Y-108452000D02*
X233812000Y-109988000D01*
X233852000Y-108687000D02*
X233852000Y-109753000D01*
X233891000Y-109220000D02*
G75*
G03*
X225651000Y-109220000I-4120000J0D01*
G01*
X225651000Y-109220000D02*
G75*
G03*
X233891000Y-109220000I4120000J0D01*
G01*
%TO.C,J1*%
X243806000Y-45450000D02*
X238246000Y-45450000D01*
X238246000Y-45450000D02*
X238246000Y-50970000D01*
X239246000Y-50969000D02*
X239246000Y-52245000D01*
X238246000Y-50970000D02*
X239246000Y-50970000D01*
X239246000Y-54435000D02*
X239246000Y-55011000D01*
X239246000Y-56750000D02*
X239246000Y-57551000D01*
X239246000Y-59290000D02*
X239246000Y-60091000D01*
X239246000Y-61830000D02*
X239246000Y-62631000D01*
X239246000Y-65170000D02*
X239246000Y-64369000D01*
X239246000Y-67710000D02*
X239246000Y-66909000D01*
X239246000Y-70250000D02*
X239246000Y-69449000D01*
X239246000Y-72790000D02*
X239246000Y-71989000D01*
X239246000Y-75330000D02*
X239246000Y-74529000D01*
X239246000Y-77870000D02*
X239246000Y-77069000D01*
X239246000Y-80410000D02*
X239246000Y-79609000D01*
X239246000Y-82950000D02*
X239246000Y-82149000D01*
X239246000Y-85490000D02*
X239246000Y-84689000D01*
X239246000Y-88030000D02*
X239246000Y-87229000D01*
X239246000Y-90570000D02*
X239246000Y-89769000D01*
X239246000Y-93110000D02*
X239246000Y-92309000D01*
X239246000Y-95650000D02*
X239246000Y-94849000D01*
X239246000Y-98190000D02*
X239246000Y-97389000D01*
X239246000Y-100730000D02*
X239246000Y-99929000D01*
X239246000Y-103270000D02*
X239246000Y-102469000D01*
X239246000Y-105810000D02*
X239246000Y-105009000D01*
X239246000Y-108350000D02*
X239246000Y-107549000D01*
X239246000Y-110890000D02*
X239246000Y-110089000D01*
X239246000Y-113430000D02*
X239246000Y-112629000D01*
X239246000Y-115970000D02*
X239246000Y-115169000D01*
X239246000Y-118510000D02*
X239246000Y-117709000D01*
X239246000Y-121050000D02*
X239246000Y-120249000D01*
X239246000Y-122790000D02*
X239246000Y-123591000D01*
X239246000Y-125330000D02*
X239246000Y-126131000D01*
X239246000Y-127870000D02*
X239246000Y-128671000D01*
X239246000Y-130410000D02*
X239246000Y-131211000D01*
X239246000Y-132950000D02*
X239246000Y-134450000D01*
X238506000Y-133350000D02*
X238806000Y-133950000D01*
X238806000Y-133950000D02*
X238206000Y-133950000D01*
X238206000Y-133950000D02*
X238506000Y-133350000D01*
X238246000Y-134450000D02*
X239246000Y-134450000D01*
X243806000Y-139970000D02*
X238246000Y-139970000D01*
X238246000Y-139970000D02*
X238246000Y-134450000D01*
%TO.C,Y2*%
X175021000Y-120065000D02*
X175021000Y-113815000D01*
X180071000Y-120065000D02*
X180071000Y-113815000D01*
X175021000Y-120065000D02*
G75*
G03*
X180071000Y-120065000I2525000J0D01*
G01*
X180071000Y-113815000D02*
G75*
G03*
X175021000Y-113815000I-2525000J0D01*
G01*
%TO.C,U2*%
X203831000Y-74275000D02*
X203831000Y-104525000D01*
X203831000Y-104525000D02*
X235081000Y-104525000D01*
X204831000Y-73275000D02*
X203831000Y-74275000D01*
X218456000Y-73275000D02*
X204831000Y-73275000D01*
X235081000Y-73275000D02*
X220456000Y-73275000D01*
X235081000Y-104525000D02*
X235081000Y-73275000D01*
%TO.C,U1*%
X172081000Y-74275000D02*
X172081000Y-104525000D01*
X172081000Y-104525000D02*
X203331000Y-104525000D01*
X173081000Y-73275000D02*
X172081000Y-74275000D01*
X186706000Y-73275000D02*
X173081000Y-73275000D01*
X203331000Y-73275000D02*
X188706000Y-73275000D01*
X203331000Y-104525000D02*
X203331000Y-73275000D01*
%TO.C,C7*%
X224936000Y-138330000D02*
X224936000Y-139035000D01*
X224936000Y-138330000D02*
X234176000Y-138330000D01*
X224936000Y-140365000D02*
X224936000Y-141070000D01*
X224936000Y-141070000D02*
X234176000Y-141070000D01*
X234176000Y-138330000D02*
X234176000Y-139035000D01*
X234176000Y-140365000D02*
X234176000Y-141070000D01*
%TO.C,C11*%
X166763000Y-92179000D02*
X166763000Y-92804000D01*
X166763000Y-92179000D02*
X170803000Y-92179000D01*
X166763000Y-94394000D02*
X166763000Y-95019000D01*
X166763000Y-95019000D02*
X170803000Y-95019000D01*
X170803000Y-92179000D02*
X170803000Y-92804000D01*
X170803000Y-94394000D02*
X170803000Y-95019000D01*
%TO.C,R4*%
X178816000Y-125400000D02*
X178816000Y-126350000D01*
X179736000Y-126350000D02*
X177896000Y-126350000D01*
X177896000Y-126350000D02*
X177896000Y-130190000D01*
X179736000Y-130190000D02*
X179736000Y-126350000D01*
X177896000Y-130190000D02*
X179736000Y-130190000D01*
X178816000Y-131140000D02*
X178816000Y-130190000D01*
%TO.C,U5*%
X199196000Y-48785000D02*
X168596000Y-48785000D01*
X168596000Y-48785000D02*
X168596000Y-54085000D01*
X199196000Y-50435000D02*
X199196000Y-48785000D01*
X199196000Y-54085000D02*
X199196000Y-52435000D01*
X168596000Y-54085000D02*
X199196000Y-54085000D01*
X199196000Y-50435000D02*
G75*
G03*
X199196000Y-52435000I0J-1000000D01*
G01*
%TO.C,C12*%
X171636000Y-56415000D02*
X171636000Y-57120000D01*
X171636000Y-56415000D02*
X180876000Y-56415000D01*
X171636000Y-58450000D02*
X171636000Y-59155000D01*
X171636000Y-59155000D02*
X180876000Y-59155000D01*
X180876000Y-56415000D02*
X180876000Y-57120000D01*
X180876000Y-58450000D02*
X180876000Y-59155000D01*
%TO.C,U0*%
X168696000Y-75460000D02*
X168696000Y-59570000D01*
X168696000Y-75460000D02*
X158456000Y-75460000D01*
X168696000Y-59570000D02*
X158456000Y-59570000D01*
X166116000Y-59570000D02*
X166116000Y-57030000D01*
X163576000Y-59570000D02*
X163576000Y-57030000D01*
X161036000Y-59570000D02*
X161036000Y-57030000D01*
X158456000Y-75460000D02*
X158456000Y-59570000D01*
%TO.C,C13*%
X212276000Y-138330000D02*
X212276000Y-139035000D01*
X212276000Y-138330000D02*
X221516000Y-138330000D01*
X212276000Y-140365000D02*
X212276000Y-141070000D01*
X212276000Y-141070000D02*
X221516000Y-141070000D01*
X221516000Y-138330000D02*
X221516000Y-139035000D01*
X221516000Y-140365000D02*
X221516000Y-141070000D01*
D12*
%TO.C,U11*%
X207772000Y-62230000D02*
X234188000Y-62230000D01*
X234188000Y-62230000D02*
X234696000Y-61722000D01*
X234696000Y-61722000D02*
X234696000Y-57658000D01*
X207772000Y-57658000D02*
X207772000Y-62230000D01*
X234696000Y-57658000D02*
X234188000Y-57150000D01*
X208280000Y-57150000D02*
X207772000Y-57658000D01*
X234188000Y-57150000D02*
X208280000Y-57150000D01*
D11*
%TO.C,J4*%
X171136000Y-72330000D02*
X171136000Y-72450000D01*
X171136000Y-72450000D02*
X173796000Y-72450000D01*
X172466000Y-69790000D02*
X173796000Y-69790000D01*
X173796000Y-69790000D02*
X173796000Y-71120000D01*
X173796000Y-72330000D02*
X173796000Y-72450000D01*
%TO.C,U7*%
X226966000Y-118050000D02*
X226966000Y-138490000D01*
X226966000Y-138490000D02*
X232266000Y-138490000D01*
X228616000Y-118050000D02*
X226966000Y-118050000D01*
X232266000Y-118050000D02*
X230616000Y-118050000D01*
X232266000Y-138490000D02*
X232266000Y-118050000D01*
X228616000Y-118050000D02*
G75*
G03*
X230616000Y-118050000I1000000J0D01*
G01*
%TO.C,U3*%
X209186000Y-105350000D02*
X209186000Y-141030000D01*
X209186000Y-141030000D02*
X222106000Y-141030000D01*
X214646000Y-105350000D02*
X209186000Y-105350000D01*
X222106000Y-105350000D02*
X216646000Y-105350000D01*
X222106000Y-141030000D02*
X222106000Y-105350000D01*
X214646000Y-105350000D02*
G75*
G03*
X216646000Y-105350000I1000000J0D01*
G01*
%TO.C,C5*%
X171596000Y-137230000D02*
X171596000Y-138596000D01*
X171596000Y-137230000D02*
X188336000Y-137230000D01*
X171596000Y-140804000D02*
X171596000Y-142170000D01*
X171596000Y-142170000D02*
X188336000Y-142170000D01*
X188336000Y-137230000D02*
X188336000Y-138596000D01*
X188336000Y-140804000D02*
X188336000Y-142170000D01*
D12*
%TO.C,U9*%
X207772000Y-72390000D02*
X234188000Y-72390000D01*
X234188000Y-72390000D02*
X234696000Y-71882000D01*
X234696000Y-71882000D02*
X234696000Y-67818000D01*
X207772000Y-67818000D02*
X207772000Y-72390000D01*
X234696000Y-67818000D02*
X234188000Y-67310000D01*
X208280000Y-67310000D02*
X207772000Y-67818000D01*
X234188000Y-67310000D02*
X208280000Y-67310000D01*
D11*
%TO.C,C2*%
X224886000Y-116199000D02*
X224886000Y-114941000D01*
X226726000Y-116199000D02*
X226726000Y-114941000D01*
%TO.C,D3*%
X227306000Y-48895000D02*
X226656000Y-48895000D01*
X226656000Y-50015000D02*
X226656000Y-47775000D01*
X226656000Y-47775000D02*
X222416000Y-47775000D01*
X226056000Y-50015000D02*
X226056000Y-47775000D01*
X225936000Y-50015000D02*
X225936000Y-47775000D01*
X225816000Y-50015000D02*
X225816000Y-47775000D01*
X222416000Y-50015000D02*
X226656000Y-50015000D01*
X222416000Y-47775000D02*
X222416000Y-50015000D01*
X221766000Y-48895000D02*
X222416000Y-48895000D01*
%TO.C,U12*%
X205826000Y-130150000D02*
X205826000Y-105070000D01*
X205826000Y-105070000D02*
X179746000Y-105070000D01*
X204826000Y-131150000D02*
X205826000Y-130150000D01*
X193786000Y-131150000D02*
X204826000Y-131150000D01*
X179746000Y-131150000D02*
X191786000Y-131150000D01*
X179746000Y-105070000D02*
X179746000Y-131150000D01*
%TO.C,D2*%
X217146000Y-46355000D02*
X216496000Y-46355000D01*
X216496000Y-47475000D02*
X216496000Y-45235000D01*
X216496000Y-45235000D02*
X212256000Y-45235000D01*
X215896000Y-47475000D02*
X215896000Y-45235000D01*
X215776000Y-47475000D02*
X215776000Y-45235000D01*
X215656000Y-47475000D02*
X215656000Y-45235000D01*
X212256000Y-47475000D02*
X216496000Y-47475000D01*
X212256000Y-45235000D02*
X212256000Y-47475000D01*
X211606000Y-46355000D02*
X212256000Y-46355000D01*
%TO.C,C9*%
X165846000Y-53140000D02*
X165846000Y-53125000D01*
X165846000Y-53140000D02*
X161306000Y-53140000D01*
X165846000Y-51015000D02*
X165846000Y-51000000D01*
X165846000Y-51000000D02*
X161306000Y-51000000D01*
X161306000Y-53140000D02*
X161306000Y-53125000D01*
X161306000Y-51015000D02*
X161306000Y-51000000D01*
D12*
%TO.C,U10*%
X207772000Y-57150000D02*
X234188000Y-57150000D01*
X234188000Y-57150000D02*
X234696000Y-56642000D01*
X234696000Y-56642000D02*
X234696000Y-52578000D01*
X207772000Y-52578000D02*
X207772000Y-57150000D01*
X234696000Y-52578000D02*
X234188000Y-52070000D01*
X208280000Y-52070000D02*
X207772000Y-52578000D01*
X234188000Y-52070000D02*
X208280000Y-52070000D01*
D11*
%TO.C,R2*%
X221666000Y-46355000D02*
X222616000Y-46355000D01*
X222616000Y-45435000D02*
X222616000Y-47275000D01*
X222616000Y-47275000D02*
X226456000Y-47275000D01*
X226456000Y-45435000D02*
X222616000Y-45435000D01*
X226456000Y-47275000D02*
X226456000Y-45435000D01*
X227406000Y-46355000D02*
X226456000Y-46355000D01*
%TO.C,C8*%
X167629611Y-49165000D02*
X166879611Y-49165000D01*
X167254611Y-49540000D02*
X167254611Y-48790000D01*
X163487400Y-50820000D02*
X163487400Y-43160000D01*
X163447400Y-50820000D02*
X163447400Y-43160000D01*
X163407400Y-50820000D02*
X163407400Y-43160000D01*
X163367400Y-50819000D02*
X163367400Y-43161000D01*
X163327400Y-50817000D02*
X163327400Y-43163000D01*
X163287400Y-50815000D02*
X163287400Y-43165000D01*
X163247400Y-50813000D02*
X163247400Y-48030000D01*
X163247400Y-45950000D02*
X163247400Y-43167000D01*
X163207400Y-50810000D02*
X163207400Y-48030000D01*
X163207400Y-45950000D02*
X163207400Y-43170000D01*
X163167400Y-50807000D02*
X163167400Y-48030000D01*
X163167400Y-45950000D02*
X163167400Y-43173000D01*
X163127400Y-50804000D02*
X163127400Y-48030000D01*
X163127400Y-45950000D02*
X163127400Y-43176000D01*
X163087400Y-50800000D02*
X163087400Y-48030000D01*
X163087400Y-45950000D02*
X163087400Y-43180000D01*
X163047400Y-50795000D02*
X163047400Y-48030000D01*
X163047400Y-45950000D02*
X163047400Y-43185000D01*
X163007400Y-50791000D02*
X163007400Y-48030000D01*
X163007400Y-45950000D02*
X163007400Y-43189000D01*
X162967400Y-50785000D02*
X162967400Y-48030000D01*
X162967400Y-45950000D02*
X162967400Y-43195000D01*
X162927400Y-50780000D02*
X162927400Y-48030000D01*
X162927400Y-45950000D02*
X162927400Y-43200000D01*
X162887400Y-50774000D02*
X162887400Y-48030000D01*
X162887400Y-45950000D02*
X162887400Y-43206000D01*
X162847400Y-50767000D02*
X162847400Y-48030000D01*
X162847400Y-45950000D02*
X162847400Y-43213000D01*
X162807400Y-50760000D02*
X162807400Y-48030000D01*
X162807400Y-45950000D02*
X162807400Y-43220000D01*
X162766400Y-50753000D02*
X162766400Y-48030000D01*
X162766400Y-45950000D02*
X162766400Y-43227000D01*
X162726400Y-50745000D02*
X162726400Y-48030000D01*
X162726400Y-45950000D02*
X162726400Y-43235000D01*
X162686400Y-50737000D02*
X162686400Y-48030000D01*
X162686400Y-45950000D02*
X162686400Y-43243000D01*
X162646400Y-50728000D02*
X162646400Y-48030000D01*
X162646400Y-45950000D02*
X162646400Y-43252000D01*
X162606400Y-50719000D02*
X162606400Y-48030000D01*
X162606400Y-45950000D02*
X162606400Y-43261000D01*
X162566400Y-50710000D02*
X162566400Y-48030000D01*
X162566400Y-45950000D02*
X162566400Y-43270000D01*
X162526400Y-50700000D02*
X162526400Y-48030000D01*
X162526400Y-45950000D02*
X162526400Y-43280000D01*
X162486400Y-50689000D02*
X162486400Y-48030000D01*
X162486400Y-45950000D02*
X162486400Y-43291000D01*
X162446400Y-50678000D02*
X162446400Y-48030000D01*
X162446400Y-45950000D02*
X162446400Y-43302000D01*
X162406400Y-50667000D02*
X162406400Y-48030000D01*
X162406400Y-45950000D02*
X162406400Y-43313000D01*
X162366400Y-50655000D02*
X162366400Y-48030000D01*
X162366400Y-45950000D02*
X162366400Y-43325000D01*
X162326400Y-50643000D02*
X162326400Y-48030000D01*
X162326400Y-45950000D02*
X162326400Y-43337000D01*
X162286400Y-50630000D02*
X162286400Y-48030000D01*
X162286400Y-45950000D02*
X162286400Y-43350000D01*
X162246400Y-50616000D02*
X162246400Y-48030000D01*
X162246400Y-45950000D02*
X162246400Y-43364000D01*
X162206400Y-50603000D02*
X162206400Y-48030000D01*
X162206400Y-45950000D02*
X162206400Y-43377000D01*
X162166400Y-50588000D02*
X162166400Y-48030000D01*
X162166400Y-45950000D02*
X162166400Y-43392000D01*
X162126400Y-50574000D02*
X162126400Y-48030000D01*
X162126400Y-45950000D02*
X162126400Y-43406000D01*
X162086400Y-50558000D02*
X162086400Y-48030000D01*
X162086400Y-45950000D02*
X162086400Y-43422000D01*
X162046400Y-50543000D02*
X162046400Y-48030000D01*
X162046400Y-45950000D02*
X162046400Y-43437000D01*
X162006400Y-50526000D02*
X162006400Y-48030000D01*
X162006400Y-45950000D02*
X162006400Y-43454000D01*
X161966400Y-50510000D02*
X161966400Y-48030000D01*
X161966400Y-45950000D02*
X161966400Y-43470000D01*
X161926400Y-50492000D02*
X161926400Y-48030000D01*
X161926400Y-45950000D02*
X161926400Y-43488000D01*
X161886400Y-50474000D02*
X161886400Y-48030000D01*
X161886400Y-45950000D02*
X161886400Y-43506000D01*
X161846400Y-50456000D02*
X161846400Y-48030000D01*
X161846400Y-45950000D02*
X161846400Y-43524000D01*
X161806400Y-50437000D02*
X161806400Y-48030000D01*
X161806400Y-45950000D02*
X161806400Y-43543000D01*
X161766400Y-50417000D02*
X161766400Y-48030000D01*
X161766400Y-45950000D02*
X161766400Y-43563000D01*
X161726400Y-50397000D02*
X161726400Y-48030000D01*
X161726400Y-45950000D02*
X161726400Y-43583000D01*
X161686400Y-50376000D02*
X161686400Y-48030000D01*
X161686400Y-45950000D02*
X161686400Y-43604000D01*
X161646400Y-50355000D02*
X161646400Y-48030000D01*
X161646400Y-45950000D02*
X161646400Y-43625000D01*
X161606400Y-50333000D02*
X161606400Y-48030000D01*
X161606400Y-45950000D02*
X161606400Y-43647000D01*
X161566400Y-50311000D02*
X161566400Y-48030000D01*
X161566400Y-45950000D02*
X161566400Y-43669000D01*
X161526400Y-50287000D02*
X161526400Y-48030000D01*
X161526400Y-45950000D02*
X161526400Y-43693000D01*
X161486400Y-50264000D02*
X161486400Y-48030000D01*
X161486400Y-45950000D02*
X161486400Y-43716000D01*
X161446400Y-50239000D02*
X161446400Y-48030000D01*
X161446400Y-45950000D02*
X161446400Y-43741000D01*
X161406400Y-50214000D02*
X161406400Y-48030000D01*
X161406400Y-45950000D02*
X161406400Y-43766000D01*
X161366400Y-50188000D02*
X161366400Y-48030000D01*
X161366400Y-45950000D02*
X161366400Y-43792000D01*
X161326400Y-50162000D02*
X161326400Y-48030000D01*
X161326400Y-45950000D02*
X161326400Y-43818000D01*
X161286400Y-50134000D02*
X161286400Y-48030000D01*
X161286400Y-45950000D02*
X161286400Y-43846000D01*
X161246400Y-50106000D02*
X161246400Y-48030000D01*
X161246400Y-45950000D02*
X161246400Y-43874000D01*
X161206400Y-50078000D02*
X161206400Y-48030000D01*
X161206400Y-45950000D02*
X161206400Y-43902000D01*
X161166400Y-50048000D02*
X161166400Y-43932000D01*
X161126400Y-50018000D02*
X161126400Y-43962000D01*
X161086400Y-49986000D02*
X161086400Y-43994000D01*
X161046400Y-49954000D02*
X161046400Y-44026000D01*
X161006400Y-49921000D02*
X161006400Y-44059000D01*
X160966400Y-49888000D02*
X160966400Y-44092000D01*
X160926400Y-49853000D02*
X160926400Y-44127000D01*
X160886400Y-49817000D02*
X160886400Y-44163000D01*
X160846400Y-49780000D02*
X160846400Y-44200000D01*
X160806400Y-49742000D02*
X160806400Y-44238000D01*
X160766400Y-49703000D02*
X160766400Y-44277000D01*
X160726400Y-49663000D02*
X160726400Y-44317000D01*
X160686400Y-49622000D02*
X160686400Y-44358000D01*
X160646400Y-49579000D02*
X160646400Y-44401000D01*
X160606400Y-49536000D02*
X160606400Y-44444000D01*
X160566400Y-49490000D02*
X160566400Y-44490000D01*
X160526400Y-49444000D02*
X160526400Y-44536000D01*
X160486400Y-49395000D02*
X160486400Y-44585000D01*
X160446400Y-49345000D02*
X160446400Y-44635000D01*
X160406400Y-49294000D02*
X160406400Y-44686000D01*
X160366400Y-49240000D02*
X160366400Y-44740000D01*
X160326400Y-49185000D02*
X160326400Y-44795000D01*
X160286400Y-49127000D02*
X160286400Y-44853000D01*
X160246400Y-49067000D02*
X160246400Y-44913000D01*
X160206400Y-49004000D02*
X160206400Y-44976000D01*
X160166400Y-48939000D02*
X160166400Y-45041000D01*
X160126400Y-48871000D02*
X160126400Y-45109000D01*
X160086400Y-48799000D02*
X160086400Y-45181000D01*
X160046400Y-48723000D02*
X160046400Y-45257000D01*
X160006400Y-48644000D02*
X160006400Y-45336000D01*
X159966400Y-48559000D02*
X159966400Y-45421000D01*
X159926400Y-48468000D02*
X159926400Y-45512000D01*
X159886400Y-48371000D02*
X159886400Y-45609000D01*
X159846400Y-48265000D02*
X159846400Y-45715000D01*
X159806400Y-48148000D02*
X159806400Y-45832000D01*
X159766400Y-48018000D02*
X159766400Y-45962000D01*
X159726400Y-47867000D02*
X159726400Y-46113000D01*
X159686400Y-47683000D02*
X159686400Y-46297000D01*
X159646400Y-47431000D02*
X159646400Y-46549000D01*
X167357400Y-46990000D02*
G75*
G03*
X159617400Y-46990000I-3870000J0D01*
G01*
X159617400Y-46990000D02*
G75*
G03*
X167357400Y-46990000I3870000J0D01*
G01*
%TO.C,J3*%
X196536000Y-46295000D02*
X196536000Y-46415000D01*
X196536000Y-46415000D02*
X199196000Y-46415000D01*
X197866000Y-43755000D02*
X199196000Y-43755000D01*
X199196000Y-43755000D02*
X199196000Y-45085000D01*
X199196000Y-46295000D02*
X199196000Y-46415000D01*
%TO.C,RN1*%
X172336000Y-137330000D02*
X175136000Y-137330000D01*
X175136000Y-137330000D02*
X175136000Y-111590000D01*
X172336000Y-134620000D02*
X175136000Y-134620000D01*
X172336000Y-111590000D02*
X172336000Y-137330000D01*
X175136000Y-111590000D02*
X172336000Y-111590000D01*
%TD*%
M02*
