M48
; DRILL file {KiCad 7.0.11+1} date dom 14 abr 2024 15:42:33
; FORMAT={-:-/ absolute / inch / decimal}
; #@! TF.CreationDate,2024-04-14T15:42:33+02:00
; #@! TF.GenerationSoftware,Kicad,Pcbnew,7.0.11+1
; #@! TF.FileFunction,Plated,1,4,PTH
FMAT,2
INCH
; #@! TA.AperFunction,Plated,PTH,ViaDrill
T1C0.0157
; #@! TA.AperFunction,Plated,PTH,ComponentDrill
T2C0.0197
; #@! TA.AperFunction,Plated,PTH,ViaDrill
T3C0.0236
; #@! TA.AperFunction,Plated,PTH,ComponentDrill
T4C0.0276
; #@! TA.AperFunction,Plated,PTH,ComponentDrill
T5C0.0315
; #@! TA.AperFunction,Plated,PTH,ComponentDrill
T6C0.0394
; #@! TA.AperFunction,Plated,PTH,ComponentDrill
T7C0.0433
; #@! TA.AperFunction,Plated,PTH,ComponentDrill
T8C0.0984
%
G90
G05
T1
X7.5593Y-2.8653
X7.5848Y-3.45
X7.616Y-4.1465
X7.6185Y-2.85
X7.707Y-2.5198
X7.7839Y-2.2796
X7.8115Y-4.1465
X7.82Y-2.5484
X7.8612Y-2.7475
X7.865Y-2.3006
X7.8849Y-4.1343
X7.915Y-2.3
X7.9513Y-3.6202
X8.0002Y-3.35
X8.015Y-3.2
X8.1Y-2.94
X8.11Y-4.25
X8.1362Y-2.571
X8.1474Y-2.2211
X8.1719Y-2.5998
X8.1753Y-2.7698
X8.29Y-5.525
X8.3715Y-5.225
X8.5623Y-5.425
X8.569Y-4.45
X8.74Y-3.3
X8.74Y-3.4
X8.94Y-4.075
X8.9683Y-5.4163
T2
X6.2412Y-3.125
X6.2628Y-3.0728
X6.2628Y-3.1772
X6.315Y-3.0512
X6.315Y-3.1988
X6.3672Y-3.0728
X6.3672Y-3.1772
X6.3888Y-3.125
X6.4662Y-3.4
X6.4878Y-3.3478
X6.4878Y-3.4522
X6.54Y-3.3262
X6.54Y-3.4738
X6.5922Y-3.3478
X6.5922Y-3.4522
X6.6138Y-3.4
X9.015Y-4.6
X9.115Y-4.6
T3
X6.49Y-3.8
X6.99Y-4.15
X6.99Y-5.125
X7.09Y-4.2
X7.09Y-4.35
X7.14Y-5.2
X7.14Y-5.3
X7.19Y-4.25
X7.19Y-5.425
X7.315Y-5.25
X7.39Y-4.45
X7.39Y-4.55
X7.44Y-1.975
X7.59Y-5.2
X7.69Y-3.3
X7.69Y-5.175
X7.735Y-4.745
X7.735Y-5.325
X7.79Y-4.65
X7.89Y-5.425
X7.965Y-2.275
X7.965Y-2.4
X7.965Y-4.2
X8.02Y-3.09
X8.04Y-3.3
X8.065Y-2.275
X8.065Y-2.425
X8.19Y-1.93
X8.19Y-2.925
X8.29Y-2.925
X8.44Y-1.925
X8.54Y-4.325
X8.59Y-2.9
X8.715Y-4.25
X8.99Y-4.7
X8.99Y-5.0
X8.99Y-5.075
X9.015Y-4.45
X9.04Y-4.2
X9.04Y-5.5
X9.05Y-4.95
X9.07Y-4.36
X9.09Y-4.5
X9.09Y-4.85
X9.09Y-5.3
X9.23Y-4.05
X9.23Y-4.15
X9.24Y-3.05
X9.24Y-3.45
X9.332Y-1.81
X9.465Y-4.7
X9.49Y-4.8
X9.49Y-4.9
X9.515Y-5.25
T4
X6.94Y-4.9
X6.94Y-5.2
X7.04Y-4.9
X7.04Y-5.2
X8.29Y-1.925
X8.59Y-1.925
X8.69Y-1.825
X8.99Y-1.825
X9.2223Y-1.8427
X9.2223Y-1.9427
X9.2723Y-1.8927
T5
X6.3416Y-2.05
X6.3873Y-1.85
X6.4857Y-1.85
X6.5384Y-2.05
X6.5958Y-3.685
X6.69Y-1.875
X6.69Y-2.175
X6.6942Y-3.685
X6.79Y-1.875
X6.79Y-2.175
X6.79Y-2.4
X6.79Y-2.7
X6.7916Y-2.275
X6.83Y-4.25
X6.84Y-4.45
X6.84Y-4.55
X6.84Y-4.65
X6.84Y-4.75
X6.84Y-4.85
X6.84Y-4.95
X6.84Y-5.05
X6.84Y-5.15
X6.84Y-5.25
X6.84Y-5.35
X6.89Y-1.875
X6.89Y-2.175
X6.89Y-2.4
X6.89Y-2.7
X6.89Y-3.1
X6.89Y-3.2
X6.89Y-3.3
X6.89Y-3.4
X6.89Y-3.5
X6.89Y-3.6
X6.89Y-3.7
X6.89Y-3.8
X6.89Y-3.9
X6.99Y-1.875
X6.99Y-2.175
X6.99Y-2.4
X6.99Y-2.7
X6.99Y-3.0
X6.99Y-3.1
X6.99Y-3.2
X6.99Y-3.3
X6.99Y-3.4
X6.99Y-3.5
X6.99Y-3.6
X6.99Y-3.7
X6.99Y-3.8
X6.99Y-3.9
X6.99Y-4.0
X6.99Y-4.5079
X6.99Y-4.7
X6.9924Y-5.3
X7.0269Y-4.25
X7.0869Y-2.275
X7.09Y-1.875
X7.09Y-2.175
X7.09Y-2.4
X7.09Y-2.7
X7.09Y-3.0
X7.09Y-3.1
X7.09Y-3.9
X7.09Y-4.0
X7.19Y-1.875
X7.19Y-2.175
X7.19Y-2.4
X7.19Y-2.7
X7.19Y-3.0
X7.19Y-3.1
X7.19Y-3.9
X7.19Y-4.0
X7.19Y-4.35
X7.19Y-4.45
X7.19Y-4.55
X7.19Y-4.65
X7.19Y-4.75
X7.19Y-4.85
X7.19Y-4.95
X7.29Y-1.875
X7.29Y-2.175
X7.29Y-2.4
X7.29Y-2.7
X7.29Y-3.0
X7.29Y-3.1
X7.29Y-3.9
X7.29Y-4.0
X7.29Y-4.25
X7.29Y-4.35
X7.29Y-4.45
X7.29Y-4.55
X7.29Y-4.65
X7.29Y-4.75
X7.29Y-4.85
X7.29Y-4.95
X7.29Y-5.05
X7.3861Y-5.3
X7.39Y-1.875
X7.39Y-2.175
X7.39Y-2.4
X7.39Y-2.7
X7.39Y-3.0
X7.39Y-3.1
X7.39Y-3.9
X7.39Y-4.0
X7.39Y-4.25
X7.39Y-4.35
X7.39Y-4.95
X7.39Y-5.05
X7.49Y-1.875
X7.49Y-2.175
X7.49Y-2.4
X7.49Y-2.7
X7.49Y-3.0
X7.49Y-3.1
X7.49Y-3.9
X7.49Y-4.0
X7.49Y-4.25
X7.49Y-4.35
X7.49Y-4.95
X7.49Y-5.05
X7.59Y-1.875
X7.59Y-2.175
X7.59Y-2.4
X7.59Y-2.7
X7.59Y-3.0
X7.59Y-3.1
X7.59Y-3.9
X7.59Y-4.0
X7.59Y-4.25
X7.59Y-4.35
X7.59Y-4.95
X7.59Y-5.05
X7.69Y-1.875
X7.69Y-2.175
X7.69Y-2.4
X7.69Y-2.7
X7.69Y-3.0
X7.69Y-3.1
X7.69Y-3.9
X7.69Y-4.0
X7.69Y-4.25
X7.69Y-4.35
X7.69Y-4.95
X7.69Y-5.05
X7.79Y-1.875
X7.79Y-2.175
X7.79Y-3.0
X7.79Y-3.1
X7.79Y-3.2
X7.79Y-3.3
X7.79Y-3.4
X7.79Y-3.5
X7.79Y-3.6
X7.79Y-3.7
X7.79Y-3.8
X7.79Y-3.9
X7.79Y-4.0
X7.79Y-4.25
X7.79Y-4.35
X7.79Y-4.95
X7.79Y-5.05
X7.84Y-2.39
X7.84Y-2.69
X7.89Y-1.825
X7.89Y-3.1
X7.89Y-3.2
X7.89Y-3.3
X7.89Y-3.4
X7.89Y-3.5
X7.89Y-3.6
X7.89Y-3.7
X7.89Y-3.8
X7.89Y-3.9
X7.89Y-4.25
X7.89Y-4.35
X7.89Y-4.45
X7.89Y-4.55
X7.89Y-4.65
X7.89Y-4.75
X7.89Y-4.85
X7.89Y-4.95
X7.89Y-5.05
X7.9166Y-1.975
X7.9166Y-2.175
X7.99Y-4.35
X7.99Y-4.45
X7.99Y-4.55
X7.99Y-4.65
X7.99Y-4.75
X7.99Y-4.85
X7.99Y-4.95
X8.1134Y-1.975
X8.1134Y-2.175
X8.14Y-2.39
X8.14Y-2.69
X8.14Y-3.1
X8.14Y-3.2
X8.14Y-3.3
X8.14Y-3.4
X8.14Y-3.5
X8.14Y-3.6
X8.14Y-3.7
X8.14Y-3.8
X8.14Y-3.9
X8.19Y-1.825
X8.19Y-4.2
X8.19Y-4.3
X8.19Y-4.4
X8.19Y-4.5
X8.19Y-4.6
X8.19Y-4.7
X8.19Y-4.8
X8.19Y-4.9
X8.19Y-5.0
X8.19Y-5.1
X8.19Y-5.2
X8.19Y-5.3
X8.19Y-5.4
X8.19Y-5.5
X8.24Y-2.2
X8.24Y-2.4
X8.24Y-2.6
X8.24Y-2.8
X8.24Y-3.0
X8.24Y-3.1
X8.24Y-3.2
X8.24Y-3.3
X8.24Y-3.4
X8.24Y-3.5
X8.24Y-3.6
X8.24Y-3.7
X8.24Y-3.8
X8.24Y-3.9
X8.24Y-4.0
X8.29Y-1.825
X8.29Y-2.1
X8.29Y-2.3
X8.29Y-2.5
X8.29Y-2.7
X8.34Y-2.2
X8.34Y-2.4
X8.34Y-2.6
X8.34Y-2.8
X8.34Y-3.0
X8.34Y-3.1
X8.34Y-3.9
X8.34Y-4.0
X8.34Y-4.2
X8.34Y-4.3
X8.34Y-4.4
X8.34Y-4.5
X8.34Y-4.6
X8.34Y-4.7
X8.34Y-4.8
X8.34Y-4.9
X8.34Y-5.0
X8.34Y-5.1
X8.39Y-2.1
X8.39Y-2.3
X8.39Y-2.5
X8.39Y-2.7
X8.3916Y-5.5
X8.44Y-2.2
X8.44Y-2.4
X8.44Y-2.6
X8.44Y-2.8
X8.44Y-3.0
X8.44Y-3.1
X8.44Y-3.9
X8.44Y-4.0
X8.49Y-2.1
X8.49Y-2.3
X8.49Y-2.5
X8.49Y-2.7
X8.54Y-2.2
X8.54Y-2.4
X8.54Y-2.6
X8.54Y-2.8
X8.54Y-3.0
X8.54Y-3.1
X8.54Y-3.9
X8.54Y-4.0
X8.59Y-1.825
X8.59Y-2.1
X8.59Y-2.3
X8.59Y-2.5
X8.59Y-2.7
X8.64Y-2.2
X8.64Y-2.4
X8.64Y-2.6
X8.64Y-2.8
X8.64Y-3.0
X8.64Y-3.1
X8.64Y-3.9
X8.64Y-4.0
X8.64Y-4.2
X8.64Y-4.3
X8.64Y-4.4
X8.64Y-4.5
X8.64Y-4.6
X8.64Y-4.7
X8.64Y-4.8
X8.64Y-4.9
X8.64Y-5.0
X8.64Y-5.1
X8.6869Y-5.5
X8.69Y-1.925
X8.69Y-2.1
X8.69Y-2.3
X8.69Y-2.5
X8.69Y-2.7
X8.74Y-2.2
X8.74Y-2.4
X8.74Y-2.6
X8.74Y-2.8
X8.74Y-3.0
X8.74Y-3.1
X8.74Y-3.9
X8.74Y-4.0
X8.79Y-2.1
X8.79Y-2.3
X8.79Y-2.5
X8.79Y-2.7
X8.79Y-4.2
X8.79Y-4.3
X8.79Y-4.4
X8.79Y-4.5
X8.79Y-4.6
X8.79Y-4.7
X8.79Y-4.8
X8.79Y-4.9
X8.79Y-5.0
X8.79Y-5.1
X8.79Y-5.2
X8.79Y-5.3
X8.79Y-5.4
X8.79Y-5.5
X8.84Y-2.2
X8.84Y-2.4
X8.84Y-2.6
X8.84Y-2.8
X8.84Y-3.0
X8.84Y-3.1
X8.84Y-3.9
X8.84Y-4.0
X8.89Y-2.1
X8.89Y-2.3
X8.89Y-2.5
X8.89Y-2.7
X8.89Y-4.5008
X8.89Y-4.5992
X8.89Y-4.7
X8.89Y-4.8
X8.89Y-4.9
X8.89Y-5.0
X8.89Y-5.1
X8.89Y-5.2
X8.89Y-5.3
X8.89Y-5.4
X8.89Y-5.5
X8.94Y-2.2
X8.94Y-2.4
X8.94Y-2.6
X8.94Y-2.8
X8.94Y-3.0
X8.94Y-3.1
X8.94Y-3.9
X8.94Y-4.0
X8.9772Y-4.3
X8.99Y-1.925
X8.99Y-2.1
X8.99Y-2.3
X8.99Y-2.5
X8.99Y-2.7
X9.04Y-2.2
X9.04Y-2.4
X9.04Y-2.6
X9.04Y-2.8
X9.04Y-3.0
X9.04Y-3.1
X9.04Y-3.2
X9.04Y-3.3
X9.04Y-3.4
X9.04Y-3.5
X9.04Y-3.6
X9.04Y-3.7
X9.04Y-3.8
X9.04Y-3.9
X9.04Y-4.0
X9.09Y-2.1
X9.09Y-2.3
X9.09Y-2.5
X9.09Y-2.7
X9.115Y-4.3
X9.14Y-2.2
X9.14Y-2.4
X9.14Y-2.6
X9.14Y-2.8
X9.14Y-3.1
X9.14Y-3.2
X9.14Y-3.3
X9.14Y-3.4
X9.14Y-3.5
X9.14Y-3.6
X9.14Y-3.7
X9.14Y-3.8
X9.14Y-3.9
X9.1853Y-5.5
X9.19Y-2.1
X9.19Y-2.3
X9.19Y-2.5
X9.19Y-2.7
X9.19Y-4.5
X9.19Y-4.5984
X9.19Y-4.7
X9.19Y-4.8
X9.19Y-4.9
X9.19Y-5.0
X9.19Y-5.1
X9.19Y-5.2
X9.19Y-5.3
X9.19Y-5.4
T6
X6.64Y-3.8
X6.64Y-3.9
X6.64Y-4.0
X6.64Y-4.1
X6.64Y-4.2
X6.64Y-4.3
X6.64Y-4.4
X6.64Y-4.5
X6.64Y-4.6
X6.64Y-4.7
X6.64Y-4.8
X6.64Y-4.9
X6.64Y-5.0
X6.64Y-5.1
X6.64Y-5.2
X6.64Y-5.3
X6.64Y-5.4
X6.74Y-3.8
X6.74Y-3.9
X6.74Y-4.0
X6.74Y-4.1
X6.74Y-4.2
X6.74Y-4.3
X6.74Y-4.4
X6.74Y-4.5
X6.74Y-4.6
X6.74Y-4.7
X6.74Y-4.8
X6.74Y-4.9
X6.74Y-5.0
X6.74Y-5.1
X6.74Y-5.2
X6.74Y-5.3
X6.74Y-5.4
X6.79Y-1.775
X6.79Y-2.8
X7.79Y-1.775
X7.79Y-2.8
X9.29Y-2.1
X9.29Y-2.2
X9.29Y-2.3
X9.29Y-2.4
X9.29Y-2.5
X9.29Y-2.6
X9.29Y-2.7
X9.29Y-2.8
X9.29Y-2.9
X9.29Y-3.0
X9.29Y-3.1
X9.29Y-3.2
X9.29Y-3.3
X9.29Y-3.4
X9.29Y-3.5
X9.29Y-3.6
X9.29Y-3.7
X9.29Y-3.8
X9.29Y-3.9
X9.29Y-4.0
X9.29Y-4.1
X9.29Y-4.2
X9.29Y-4.3
X9.29Y-4.4
X9.29Y-4.5
X9.29Y-4.6
X9.29Y-4.7
X9.29Y-4.8
X9.29Y-4.9
X9.29Y-5.0
X9.29Y-5.1
X9.29Y-5.2
X9.39Y-2.1
X9.39Y-2.2
X9.39Y-2.3
X9.39Y-2.4
X9.39Y-2.5
X9.39Y-2.6
X9.39Y-2.7
X9.39Y-2.8
X9.39Y-2.9
X9.39Y-3.0
X9.39Y-3.1
X9.39Y-3.2
X9.39Y-3.3
X9.39Y-3.4
X9.39Y-3.5
X9.39Y-3.6
X9.39Y-3.7
X9.39Y-3.8
X9.39Y-3.9
X9.39Y-4.0
X9.39Y-4.1
X9.39Y-4.2
X9.39Y-4.3
X9.39Y-4.4
X9.39Y-4.5
X9.39Y-4.6
X9.39Y-4.7
X9.39Y-4.8
X9.39Y-4.9
X9.39Y-5.0
X9.39Y-5.1
X9.39Y-5.2
T7
X6.34Y-2.2
X6.44Y-2.2
X6.54Y-2.2
X6.79Y-5.5
X7.3806Y-5.5
X7.4894Y-5.325
X7.4894Y-5.5
X8.08Y-5.325
X8.08Y-5.5
T8
X6.315Y-3.125
X6.54Y-3.4
M30
