%TF.GenerationSoftware,KiCad,Pcbnew,7.0.11+1*%
%TF.CreationDate,2024-04-14T15:49:11+02:00*%
%TF.ProjectId,GoldCard,476f6c64-4361-4726-942e-6b696361645f,rev?*%
%TF.SameCoordinates,Original*%
%TF.FileFunction,Copper,L4,Bot*%
%TF.FilePolarity,Positive*%
%FSLAX46Y46*%
G04 Gerber Fmt 4.6, Leading zero omitted, Abs format (unit mm)*
G04 Created by KiCad (PCBNEW 7.0.11+1) date 2024-04-14 15:49:11*
%MOMM*%
%LPD*%
G01*
G04 APERTURE LIST*
G04 Aperture macros list*
%AMRoundRect*
0 Rectangle with rounded corners*
0 $1 Rounding radius*
0 $2 $3 $4 $5 $6 $7 $8 $9 X,Y pos of 4 corners*
0 Add a 4 corners polygon primitive as box body*
4,1,4,$2,$3,$4,$5,$6,$7,$8,$9,$2,$3,0*
0 Add four circle primitives for the rounded corners*
1,1,$1+$1,$2,$3*
1,1,$1+$1,$4,$5*
1,1,$1+$1,$6,$7*
1,1,$1+$1,$8,$9*
0 Add four rect primitives between the rounded corners*
20,1,$1+$1,$2,$3,$4,$5,0*
20,1,$1+$1,$4,$5,$6,$7,0*
20,1,$1+$1,$6,$7,$8,$9,0*
20,1,$1+$1,$8,$9,$2,$3,0*%
G04 Aperture macros list end*
%ADD10C,0.300000*%
%TA.AperFunction,NonConductor*%
%ADD11C,0.300000*%
%TD*%
%TA.AperFunction,ComponentPad*%
%ADD12R,1.600000X1.600000*%
%TD*%
%TA.AperFunction,ComponentPad*%
%ADD13O,1.600000X1.600000*%
%TD*%
%TA.AperFunction,ComponentPad*%
%ADD14C,1.400000*%
%TD*%
%TA.AperFunction,ComponentPad*%
%ADD15O,1.400000X1.400000*%
%TD*%
%TA.AperFunction,ComponentPad*%
%ADD16R,1.700000X1.700000*%
%TD*%
%TA.AperFunction,ComponentPad*%
%ADD17O,1.700000X1.700000*%
%TD*%
%TA.AperFunction,ComponentPad*%
%ADD18O,1.200000X1.600000*%
%TD*%
%TA.AperFunction,ComponentPad*%
%ADD19O,1.200000X1.200000*%
%TD*%
%TA.AperFunction,ComponentPad*%
%ADD20C,0.800000*%
%TD*%
%TA.AperFunction,ComponentPad*%
%ADD21C,5.000000*%
%TD*%
%TA.AperFunction,ComponentPad*%
%ADD22C,2.200000*%
%TD*%
%TA.AperFunction,ComponentPad*%
%ADD23C,1.600000*%
%TD*%
%TA.AperFunction,ComponentPad*%
%ADD24C,1.000000*%
%TD*%
%TA.AperFunction,ComponentPad*%
%ADD25RoundRect,0.249999X0.525001X-0.525001X0.525001X0.525001X-0.525001X0.525001X-0.525001X-0.525001X0*%
%TD*%
%TA.AperFunction,ComponentPad*%
%ADD26C,1.550000*%
%TD*%
%TA.AperFunction,ComponentPad*%
%ADD27C,1.500000*%
%TD*%
%TA.AperFunction,ComponentPad*%
%ADD28R,1.422400X1.422400*%
%TD*%
%TA.AperFunction,ComponentPad*%
%ADD29C,1.422400*%
%TD*%
%TA.AperFunction,ComponentPad*%
%ADD30R,1.905000X2.000000*%
%TD*%
%TA.AperFunction,ComponentPad*%
%ADD31O,1.905000X2.000000*%
%TD*%
%TA.AperFunction,ViaPad*%
%ADD32C,0.800000*%
%TD*%
%TA.AperFunction,ViaPad*%
%ADD33C,1.000000*%
%TD*%
%TA.AperFunction,Conductor*%
%ADD34C,0.250000*%
%TD*%
G04 APERTURE END LIST*
D10*
D11*
X173062441Y-73907733D02*
X171538632Y-73907733D01*
X172300536Y-74669638D02*
X172300536Y-73145828D01*
D10*
D11*
G36*
X167361655Y-81661535D02*
G01*
X167986917Y-81661535D01*
X167986917Y-80420781D01*
X166942779Y-80420781D01*
X166926799Y-80442907D01*
X166911144Y-80464864D01*
X166895815Y-80486652D01*
X166880812Y-80508270D01*
X166866134Y-80529718D01*
X166851782Y-80550998D01*
X166837755Y-80572108D01*
X166824054Y-80593049D01*
X166810679Y-80613820D01*
X166784904Y-80654855D01*
X166760432Y-80695212D01*
X166737263Y-80734892D01*
X166715395Y-80773894D01*
X166694830Y-80812220D01*
X166675567Y-80849867D01*
X166657607Y-80886838D01*
X166640949Y-80923131D01*
X166625593Y-80958746D01*
X166611540Y-80993684D01*
X166598788Y-81027945D01*
X166592901Y-81044822D01*
X166581884Y-81078717D01*
X166571578Y-81113391D01*
X166561982Y-81148842D01*
X166553097Y-81185070D01*
X166544923Y-81222077D01*
X166537460Y-81259860D01*
X166530707Y-81298421D01*
X166524666Y-81337760D01*
X166519335Y-81377877D01*
X166514715Y-81418771D01*
X166510805Y-81460442D01*
X166507607Y-81502891D01*
X166505119Y-81546118D01*
X166503342Y-81590122D01*
X166502276Y-81634904D01*
X166501921Y-81680464D01*
X166502071Y-81708619D01*
X166502522Y-81736451D01*
X166503273Y-81763960D01*
X166504325Y-81791146D01*
X166505677Y-81818008D01*
X166507330Y-81844548D01*
X166509284Y-81870764D01*
X166511538Y-81896657D01*
X166514092Y-81922226D01*
X166516947Y-81947473D01*
X166520103Y-81972396D01*
X166523559Y-81996997D01*
X166527316Y-82021274D01*
X166535731Y-82068858D01*
X166545348Y-82115150D01*
X166556167Y-82160149D01*
X166568188Y-82203855D01*
X166581412Y-82246268D01*
X166595837Y-82287389D01*
X166611465Y-82327216D01*
X166628295Y-82365751D01*
X166646327Y-82402994D01*
X166655794Y-82421130D01*
X166675615Y-82456500D01*
X166696609Y-82490863D01*
X166718777Y-82524220D01*
X166742118Y-82556570D01*
X166766633Y-82587914D01*
X166792322Y-82618251D01*
X166819184Y-82647582D01*
X166847219Y-82675906D01*
X166876428Y-82703223D01*
X166906810Y-82729534D01*
X166938366Y-82754839D01*
X166971096Y-82779137D01*
X167004999Y-82802428D01*
X167040075Y-82824713D01*
X167076325Y-82845991D01*
X167113749Y-82866263D01*
X167152179Y-82885339D01*
X167191296Y-82903185D01*
X167231100Y-82919800D01*
X167271591Y-82935185D01*
X167312769Y-82949339D01*
X167354633Y-82962261D01*
X167397185Y-82973954D01*
X167440424Y-82984415D01*
X167484349Y-82993646D01*
X167528962Y-83001646D01*
X167574261Y-83008415D01*
X167620248Y-83013953D01*
X167666921Y-83018261D01*
X167714281Y-83021338D01*
X167762328Y-83023184D01*
X167811062Y-83023799D01*
X167836795Y-83023630D01*
X167862320Y-83023124D01*
X167887637Y-83022280D01*
X167912747Y-83021099D01*
X167937650Y-83019580D01*
X167962345Y-83017724D01*
X167986832Y-83015530D01*
X168035185Y-83010130D01*
X168082707Y-83003380D01*
X168129400Y-82995280D01*
X168175262Y-82985830D01*
X168220294Y-82975030D01*
X168264497Y-82962880D01*
X168307869Y-82949380D01*
X168350411Y-82934530D01*
X168392123Y-82918329D01*
X168433005Y-82900779D01*
X168473057Y-82881879D01*
X168512279Y-82861629D01*
X168531579Y-82850997D01*
X168569391Y-82828770D01*
X168606044Y-82805288D01*
X168641538Y-82780551D01*
X168675873Y-82754560D01*
X168709048Y-82727314D01*
X168741065Y-82698813D01*
X168771922Y-82669058D01*
X168801620Y-82638048D01*
X168830158Y-82605784D01*
X168857538Y-82572265D01*
X168883758Y-82537491D01*
X168908819Y-82501463D01*
X168932721Y-82464180D01*
X168955464Y-82425643D01*
X168977048Y-82385851D01*
X168997472Y-82344804D01*
X169012334Y-82311598D01*
X169026237Y-82277008D01*
X169039182Y-82241034D01*
X169051167Y-82203678D01*
X169062194Y-82164937D01*
X169072262Y-82124814D01*
X169081371Y-82083307D01*
X169089521Y-82040416D01*
X169096712Y-81996143D01*
X169102945Y-81950485D01*
X169108218Y-81903445D01*
X169112533Y-81855021D01*
X169114331Y-81830290D01*
X169115889Y-81805213D01*
X169117208Y-81779791D01*
X169118286Y-81754023D01*
X169119125Y-81727908D01*
X169119725Y-81701448D01*
X169120084Y-81674643D01*
X169120204Y-81647491D01*
X169120126Y-81621402D01*
X169119894Y-81595723D01*
X169119506Y-81570454D01*
X169118964Y-81545596D01*
X169118266Y-81521148D01*
X169116406Y-81473482D01*
X169113925Y-81427458D01*
X169110824Y-81383074D01*
X169107103Y-81340332D01*
X169102762Y-81299230D01*
X169097801Y-81259770D01*
X169092220Y-81221950D01*
X169086018Y-81185772D01*
X169079197Y-81151234D01*
X169071755Y-81118338D01*
X169063693Y-81087082D01*
X169055011Y-81057468D01*
X169045709Y-81029494D01*
X169040825Y-81016123D01*
X169030557Y-80989996D01*
X169019597Y-80964431D01*
X169007945Y-80939430D01*
X168995602Y-80914991D01*
X168982567Y-80891116D01*
X168968840Y-80867803D01*
X168954422Y-80845053D01*
X168939312Y-80822866D01*
X168923510Y-80801242D01*
X168907016Y-80780181D01*
X168889831Y-80759682D01*
X168871954Y-80739747D01*
X168853385Y-80720375D01*
X168834125Y-80701565D01*
X168814173Y-80683318D01*
X168793529Y-80665635D01*
X168772189Y-80648406D01*
X168749995Y-80631679D01*
X168726947Y-80615453D01*
X168703045Y-80599727D01*
X168678289Y-80584502D01*
X168652679Y-80569779D01*
X168626216Y-80555556D01*
X168598898Y-80541834D01*
X168570727Y-80528613D01*
X168541701Y-80515893D01*
X168511822Y-80503673D01*
X168481089Y-80491955D01*
X168449502Y-80480737D01*
X168417061Y-80470021D01*
X168383766Y-80459805D01*
X168349618Y-80450090D01*
X168218948Y-81237773D01*
X168244855Y-81247650D01*
X168269452Y-81258503D01*
X168292739Y-81270333D01*
X168314718Y-81283140D01*
X168335387Y-81296923D01*
X168360908Y-81316820D01*
X168384102Y-81338454D01*
X168404967Y-81361824D01*
X168423505Y-81386930D01*
X168427775Y-81393478D01*
X168443518Y-81420688D01*
X168457161Y-81449807D01*
X168466016Y-81472898D01*
X168473690Y-81497062D01*
X168480184Y-81522300D01*
X168485497Y-81548611D01*
X168489629Y-81575995D01*
X168492581Y-81604453D01*
X168494352Y-81633983D01*
X168494942Y-81664588D01*
X168494315Y-81695106D01*
X168492433Y-81724838D01*
X168489297Y-81753782D01*
X168484905Y-81781939D01*
X168479260Y-81809309D01*
X168472359Y-81835892D01*
X168464204Y-81861687D01*
X168454795Y-81886696D01*
X168444131Y-81910918D01*
X168432212Y-81934352D01*
X168419039Y-81956999D01*
X168404611Y-81978860D01*
X168388928Y-81999933D01*
X168371991Y-82020219D01*
X168353799Y-82039718D01*
X168334353Y-82058429D01*
X168313525Y-82076175D01*
X168291190Y-82092776D01*
X168267348Y-82108232D01*
X168241998Y-82122543D01*
X168215141Y-82135709D01*
X168186776Y-82147731D01*
X168156904Y-82158607D01*
X168125525Y-82168339D01*
X168092638Y-82176925D01*
X168058244Y-82184367D01*
X168022342Y-82190664D01*
X167984933Y-82195816D01*
X167946016Y-82199823D01*
X167905592Y-82202685D01*
X167863660Y-82204403D01*
X167820221Y-82204975D01*
X167774054Y-82204395D01*
X167729584Y-82202657D01*
X167686813Y-82199759D01*
X167645740Y-82195701D01*
X167606366Y-82190485D01*
X167568689Y-82184109D01*
X167532711Y-82176575D01*
X167498431Y-82167881D01*
X167465850Y-82158027D01*
X167434966Y-82147015D01*
X167405781Y-82134844D01*
X167378295Y-82121513D01*
X167352506Y-82107023D01*
X167328416Y-82091374D01*
X167306023Y-82074565D01*
X167285330Y-82056598D01*
X167266179Y-82037590D01*
X167248264Y-82017662D01*
X167231584Y-81996813D01*
X167216140Y-81975043D01*
X167201932Y-81952353D01*
X167188959Y-81928742D01*
X167177221Y-81904211D01*
X167166719Y-81878758D01*
X167157453Y-81852385D01*
X167149422Y-81825092D01*
X167142626Y-81796877D01*
X167137067Y-81767742D01*
X167132742Y-81737687D01*
X167129653Y-81706710D01*
X167127800Y-81674813D01*
X167127182Y-81641995D01*
X167127574Y-81610120D01*
X167128747Y-81578607D01*
X167130703Y-81547456D01*
X167133441Y-81516668D01*
X167136962Y-81486243D01*
X167141264Y-81456180D01*
X167146350Y-81426480D01*
X167152217Y-81397142D01*
X167159106Y-81367499D01*
X167166948Y-81337188D01*
X167175745Y-81306209D01*
X167182968Y-81282537D01*
X167190728Y-81258489D01*
X167199025Y-81234065D01*
X167207859Y-81209266D01*
X167217229Y-81184091D01*
X167227136Y-81158540D01*
X167234039Y-81141297D01*
X167361655Y-81141297D01*
X167361655Y-81661535D01*
G37*
G36*
X167531237Y-78012225D02*
G01*
X167577753Y-78014922D01*
X167623324Y-78019418D01*
X167667951Y-78025713D01*
X167711634Y-78033806D01*
X167754371Y-78043697D01*
X167796164Y-78055387D01*
X167837013Y-78068875D01*
X167876917Y-78084162D01*
X167915877Y-78101247D01*
X167953892Y-78120130D01*
X167990962Y-78140812D01*
X168027088Y-78163293D01*
X168062270Y-78187571D01*
X168096507Y-78213649D01*
X168129799Y-78241524D01*
X168149860Y-78259612D01*
X168169284Y-78278230D01*
X168188070Y-78297379D01*
X168206221Y-78317058D01*
X168223734Y-78337269D01*
X168240610Y-78358010D01*
X168256850Y-78379281D01*
X168272452Y-78401084D01*
X168287418Y-78423417D01*
X168301747Y-78446280D01*
X168315439Y-78469675D01*
X168328495Y-78493600D01*
X168340913Y-78518056D01*
X168352695Y-78543043D01*
X168363839Y-78568560D01*
X168374347Y-78594608D01*
X168384218Y-78621187D01*
X168393453Y-78648296D01*
X168402050Y-78675936D01*
X168410011Y-78704107D01*
X168417334Y-78732808D01*
X168424021Y-78762041D01*
X168430071Y-78791804D01*
X168435484Y-78822097D01*
X168440261Y-78852921D01*
X168444400Y-78884277D01*
X168447903Y-78916162D01*
X168450769Y-78948579D01*
X168452998Y-78981526D01*
X168454590Y-79015004D01*
X168455545Y-79049012D01*
X168455863Y-79083551D01*
X168455593Y-79113811D01*
X168454781Y-79143680D01*
X168453427Y-79173159D01*
X168451532Y-79202248D01*
X168449095Y-79230947D01*
X168446118Y-79259256D01*
X168442598Y-79287175D01*
X168438537Y-79314704D01*
X168433935Y-79341844D01*
X168428792Y-79368593D01*
X168423106Y-79394952D01*
X168416880Y-79420921D01*
X168410112Y-79446501D01*
X168402803Y-79471690D01*
X168394952Y-79496489D01*
X168386560Y-79520899D01*
X168377626Y-79544918D01*
X168368151Y-79568548D01*
X168358134Y-79591787D01*
X168347576Y-79614637D01*
X168336477Y-79637096D01*
X168324836Y-79659166D01*
X168312653Y-79680845D01*
X168299930Y-79702135D01*
X168286664Y-79723034D01*
X168272858Y-79743544D01*
X168258510Y-79763663D01*
X168243620Y-79783393D01*
X168228189Y-79802733D01*
X168212217Y-79821682D01*
X168195703Y-79840242D01*
X168178648Y-79858412D01*
X168161175Y-79876106D01*
X168143409Y-79893238D01*
X168106997Y-79925817D01*
X168069411Y-79956150D01*
X168030652Y-79984235D01*
X167990719Y-80010074D01*
X167949613Y-80033666D01*
X167907333Y-80055011D01*
X167863880Y-80074109D01*
X167819253Y-80090960D01*
X167773453Y-80105565D01*
X167726479Y-80117922D01*
X167702552Y-80123259D01*
X167678332Y-80128033D01*
X167653818Y-80132246D01*
X167629011Y-80135897D01*
X167603910Y-80138986D01*
X167578516Y-80141514D01*
X167552829Y-80143480D01*
X167526849Y-80144884D01*
X167500575Y-80145727D01*
X167474007Y-80146008D01*
X167445442Y-80145675D01*
X167417221Y-80144677D01*
X167389343Y-80143013D01*
X167361808Y-80140684D01*
X167334617Y-80137690D01*
X167307769Y-80134029D01*
X167281265Y-80129704D01*
X167255105Y-80124713D01*
X167229287Y-80119056D01*
X167203814Y-80112735D01*
X167178683Y-80105747D01*
X167153896Y-80098094D01*
X167129453Y-80089776D01*
X167105353Y-80080792D01*
X167081597Y-80071143D01*
X167058184Y-80060828D01*
X167035114Y-80049848D01*
X167012388Y-80038202D01*
X166990006Y-80025891D01*
X166967967Y-80012915D01*
X166946271Y-79999273D01*
X166924919Y-79984965D01*
X166903910Y-79969992D01*
X166883245Y-79954354D01*
X166862923Y-79938050D01*
X166842945Y-79921080D01*
X166823310Y-79903445D01*
X166804019Y-79885145D01*
X166785071Y-79866179D01*
X166766466Y-79846548D01*
X166748205Y-79826251D01*
X166730288Y-79805289D01*
X166702634Y-79770122D01*
X166676764Y-79733619D01*
X166652679Y-79695781D01*
X166630377Y-79656606D01*
X166609860Y-79616096D01*
X166591127Y-79574251D01*
X166574177Y-79531069D01*
X166559012Y-79486552D01*
X166545632Y-79440699D01*
X166534035Y-79393511D01*
X166528905Y-79369416D01*
X166524222Y-79344987D01*
X166519985Y-79320224D01*
X166516194Y-79295127D01*
X166512848Y-79269696D01*
X166509949Y-79243931D01*
X166507496Y-79217833D01*
X166505489Y-79191400D01*
X166503928Y-79164633D01*
X166502813Y-79137533D01*
X166502144Y-79110099D01*
X166501921Y-79082330D01*
X166501953Y-79078667D01*
X167009946Y-79078667D01*
X167010939Y-79104586D01*
X167013917Y-79129679D01*
X167018881Y-79153945D01*
X167028589Y-79185014D01*
X167041827Y-79214614D01*
X167054072Y-79235850D01*
X167068302Y-79256260D01*
X167084519Y-79275843D01*
X167102720Y-79294599D01*
X167122908Y-79312529D01*
X167137610Y-79323842D01*
X167161560Y-79339443D01*
X167187785Y-79353402D01*
X167216286Y-79365718D01*
X167247062Y-79376392D01*
X167280113Y-79385425D01*
X167315440Y-79392814D01*
X167340256Y-79396829D01*
X167366082Y-79400113D01*
X167392920Y-79402668D01*
X167420770Y-79404492D01*
X167449631Y-79405587D01*
X167479503Y-79405952D01*
X167494378Y-79405860D01*
X167523391Y-79405126D01*
X167551422Y-79403656D01*
X167578470Y-79401452D01*
X167604535Y-79398514D01*
X167629618Y-79394841D01*
X167665399Y-79387953D01*
X167698969Y-79379413D01*
X167730329Y-79369220D01*
X167759477Y-79357374D01*
X167786414Y-79343875D01*
X167811140Y-79328723D01*
X167833655Y-79311919D01*
X167847482Y-79299897D01*
X167866549Y-79281150D01*
X167883610Y-79261543D01*
X167898664Y-79241079D01*
X167911710Y-79219755D01*
X167922749Y-79197573D01*
X167931781Y-79174532D01*
X167938806Y-79150632D01*
X167943824Y-79125874D01*
X167946835Y-79100257D01*
X167947838Y-79073782D01*
X167947729Y-79065389D01*
X167946083Y-79040704D01*
X167940816Y-79008943D01*
X167932039Y-78978498D01*
X167919750Y-78949371D01*
X167903951Y-78921559D01*
X167889797Y-78901565D01*
X167873669Y-78882311D01*
X167855565Y-78863798D01*
X167835487Y-78846025D01*
X167820958Y-78834786D01*
X167797350Y-78819287D01*
X167771564Y-78805420D01*
X167743598Y-78793184D01*
X167713453Y-78782579D01*
X167681130Y-78773606D01*
X167646628Y-78766265D01*
X167622416Y-78762277D01*
X167597235Y-78759014D01*
X167571087Y-78756476D01*
X167543969Y-78754663D01*
X167515884Y-78753576D01*
X167486830Y-78753213D01*
X167455634Y-78753573D01*
X167425550Y-78754654D01*
X167396577Y-78756455D01*
X167368716Y-78758976D01*
X167341966Y-78762217D01*
X167316327Y-78766179D01*
X167291801Y-78770861D01*
X167257094Y-78779235D01*
X167224889Y-78789229D01*
X167195185Y-78800845D01*
X167167981Y-78814081D01*
X167143278Y-78828937D01*
X167121076Y-78845415D01*
X167101216Y-78863028D01*
X167083309Y-78881522D01*
X167067356Y-78900895D01*
X167053356Y-78921149D01*
X167037728Y-78949523D01*
X167025573Y-78979462D01*
X167018736Y-79002943D01*
X167013853Y-79027304D01*
X167010922Y-79052545D01*
X167009946Y-79078667D01*
X166501953Y-79078667D01*
X166502190Y-79051210D01*
X166502996Y-79020513D01*
X166504341Y-78990240D01*
X166506224Y-78960390D01*
X166508644Y-78930964D01*
X166511602Y-78901960D01*
X166515098Y-78873380D01*
X166519132Y-78845224D01*
X166523704Y-78817491D01*
X166528814Y-78790181D01*
X166534461Y-78763295D01*
X166540646Y-78736832D01*
X166547370Y-78710792D01*
X166554631Y-78685176D01*
X166562430Y-78659983D01*
X166570767Y-78635213D01*
X166579641Y-78610867D01*
X166589054Y-78586944D01*
X166599004Y-78563445D01*
X166609492Y-78540369D01*
X166620519Y-78517716D01*
X166632083Y-78495487D01*
X166644184Y-78473681D01*
X166656824Y-78452298D01*
X166670002Y-78431339D01*
X166683717Y-78410803D01*
X166697970Y-78390691D01*
X166712761Y-78371002D01*
X166728090Y-78351736D01*
X166743957Y-78332894D01*
X166760362Y-78314475D01*
X166777304Y-78296479D01*
X166794668Y-78278935D01*
X166830307Y-78245519D01*
X166867163Y-78214330D01*
X166905236Y-78185369D01*
X166944524Y-78158636D01*
X166985030Y-78134131D01*
X167026751Y-78111853D01*
X167069689Y-78091803D01*
X167113844Y-78073981D01*
X167159215Y-78058387D01*
X167205802Y-78045020D01*
X167229552Y-78039172D01*
X167253606Y-78033881D01*
X167277964Y-78029147D01*
X167302626Y-78024970D01*
X167327593Y-78021350D01*
X167352863Y-78018287D01*
X167378438Y-78015781D01*
X167404316Y-78013832D01*
X167430499Y-78012439D01*
X167456986Y-78011604D01*
X167483777Y-78011325D01*
X167531237Y-78012225D01*
G37*
G36*
X169081125Y-77703579D02*
G01*
X169081125Y-76963524D01*
X166541000Y-76963524D01*
X166541000Y-77703579D01*
X169081125Y-77703579D01*
G37*
G36*
X169081125Y-75348468D02*
G01*
X168284893Y-75348468D01*
X168297883Y-75362759D01*
X168314650Y-75383534D01*
X168330789Y-75406274D01*
X168346297Y-75430980D01*
X168361176Y-75457651D01*
X168375425Y-75486288D01*
X168385698Y-75509055D01*
X168395618Y-75532928D01*
X168405183Y-75557906D01*
X168411320Y-75575048D01*
X168419783Y-75601218D01*
X168427356Y-75627935D01*
X168434037Y-75655199D01*
X168439828Y-75683011D01*
X168444728Y-75711371D01*
X168448736Y-75740277D01*
X168451855Y-75769731D01*
X168454082Y-75799733D01*
X168455418Y-75830281D01*
X168455863Y-75861378D01*
X168454895Y-75903803D01*
X168451990Y-75945289D01*
X168447148Y-75985834D01*
X168440369Y-76025440D01*
X168431654Y-76064106D01*
X168421002Y-76101833D01*
X168408413Y-76138620D01*
X168393887Y-76174467D01*
X168377424Y-76209374D01*
X168359025Y-76243341D01*
X168338689Y-76276369D01*
X168316416Y-76308457D01*
X168292206Y-76339605D01*
X168266060Y-76369813D01*
X168237977Y-76399082D01*
X168207957Y-76427411D01*
X168176203Y-76454325D01*
X168142765Y-76479503D01*
X168107643Y-76502945D01*
X168070837Y-76524650D01*
X168032348Y-76544618D01*
X167992174Y-76562851D01*
X167950317Y-76579347D01*
X167906775Y-76594106D01*
X167861549Y-76607129D01*
X167814640Y-76618416D01*
X167790554Y-76623408D01*
X167766047Y-76627966D01*
X167741119Y-76632090D01*
X167715769Y-76635780D01*
X167689999Y-76639036D01*
X167663808Y-76641858D01*
X167637196Y-76644245D01*
X167610163Y-76646199D01*
X167582709Y-76647718D01*
X167554834Y-76648803D01*
X167526538Y-76649454D01*
X167497821Y-76649672D01*
X167472104Y-76649475D01*
X167446625Y-76648887D01*
X167421385Y-76647906D01*
X167396384Y-76646533D01*
X167371621Y-76644767D01*
X167347096Y-76642609D01*
X167298763Y-76637116D01*
X167251384Y-76630053D01*
X167204958Y-76621421D01*
X167159487Y-76611220D01*
X167114970Y-76599449D01*
X167071407Y-76586109D01*
X167028798Y-76571199D01*
X166987143Y-76554720D01*
X166946443Y-76536671D01*
X166906696Y-76517053D01*
X166867903Y-76495865D01*
X166830065Y-76473108D01*
X166793180Y-76448782D01*
X166757911Y-76422886D01*
X166724916Y-76395573D01*
X166694197Y-76366844D01*
X166665754Y-76336697D01*
X166639586Y-76305134D01*
X166615694Y-76272154D01*
X166594077Y-76237757D01*
X166574736Y-76201944D01*
X166557670Y-76164714D01*
X166542879Y-76126066D01*
X166530364Y-76086002D01*
X166520124Y-76044522D01*
X166512160Y-76001624D01*
X166506472Y-75957310D01*
X166503058Y-75911579D01*
X166501921Y-75864431D01*
X166502212Y-75840829D01*
X166503739Y-75805937D01*
X166506577Y-75771657D01*
X166510723Y-75737988D01*
X166516179Y-75704931D01*
X166522945Y-75672486D01*
X166531020Y-75640653D01*
X166532399Y-75636064D01*
X167009946Y-75636064D01*
X167010053Y-75643243D01*
X167012614Y-75671278D01*
X167018591Y-75698226D01*
X167027984Y-75724086D01*
X167040793Y-75748858D01*
X167057017Y-75772543D01*
X167076656Y-75795141D01*
X167099712Y-75816650D01*
X167119244Y-75832069D01*
X167133508Y-75841755D01*
X167156871Y-75855112D01*
X167182595Y-75867064D01*
X167210680Y-75877610D01*
X167241127Y-75886749D01*
X167273936Y-75894482D01*
X167309105Y-75900810D01*
X167333863Y-75904247D01*
X167359671Y-75907059D01*
X167386528Y-75909246D01*
X167414435Y-75910808D01*
X167443391Y-75911746D01*
X167473397Y-75912058D01*
X167505387Y-75911755D01*
X167536175Y-75910846D01*
X167565760Y-75909332D01*
X167594144Y-75907211D01*
X167621326Y-75904485D01*
X167647305Y-75901153D01*
X167672082Y-75897215D01*
X167706994Y-75890172D01*
X167739201Y-75881766D01*
X167768704Y-75871997D01*
X167795501Y-75860865D01*
X167819594Y-75848370D01*
X167840982Y-75834511D01*
X167866026Y-75814580D01*
X167887732Y-75793562D01*
X167906098Y-75771456D01*
X167921124Y-75748263D01*
X167932812Y-75723982D01*
X167941160Y-75698613D01*
X167946169Y-75672156D01*
X167947838Y-75644612D01*
X167947402Y-75628600D01*
X167943910Y-75597593D01*
X167936926Y-75567940D01*
X167926450Y-75539643D01*
X167912483Y-75512700D01*
X167895023Y-75487111D01*
X167874072Y-75462878D01*
X167856067Y-75445592D01*
X167836097Y-75429068D01*
X167828994Y-75423771D01*
X167806254Y-75408889D01*
X167781367Y-75395521D01*
X167754333Y-75383666D01*
X167725153Y-75373324D01*
X167693826Y-75364496D01*
X167660352Y-75357181D01*
X167624732Y-75351380D01*
X167599792Y-75348353D01*
X167573899Y-75345999D01*
X167547051Y-75344318D01*
X167519249Y-75343309D01*
X167490494Y-75342972D01*
X167458709Y-75343304D01*
X167428078Y-75344298D01*
X167398602Y-75345956D01*
X167370280Y-75348277D01*
X167343113Y-75351261D01*
X167317100Y-75354908D01*
X167292242Y-75359218D01*
X167257119Y-75366926D01*
X167224593Y-75376126D01*
X167194665Y-75386819D01*
X167167335Y-75399003D01*
X167142601Y-75412679D01*
X167120466Y-75427847D01*
X167113666Y-75433152D01*
X167094563Y-75449533D01*
X167072113Y-75472459D01*
X167053118Y-75496626D01*
X167037576Y-75522033D01*
X167025488Y-75548680D01*
X167016853Y-75576568D01*
X167011673Y-75605696D01*
X167009946Y-75636064D01*
X166532399Y-75636064D01*
X166540404Y-75609431D01*
X166551098Y-75578822D01*
X166563102Y-75548824D01*
X166576415Y-75519438D01*
X166583766Y-75504828D01*
X166595741Y-75483085D01*
X166608853Y-75461545D01*
X166623103Y-75440208D01*
X166638492Y-75419076D01*
X166655017Y-75398148D01*
X166672681Y-75377424D01*
X166691482Y-75356904D01*
X166711421Y-75336587D01*
X166732498Y-75316475D01*
X166754712Y-75296566D01*
X166541000Y-75296566D01*
X166541000Y-74603527D01*
X169081125Y-74603527D01*
X169081125Y-75348468D01*
G37*
G36*
X167601013Y-72502428D02*
G01*
X167392796Y-71783133D01*
X167354994Y-71792669D01*
X167318064Y-71802806D01*
X167282007Y-71813544D01*
X167246823Y-71824883D01*
X167212512Y-71836823D01*
X167179074Y-71849365D01*
X167146509Y-71862507D01*
X167114818Y-71876250D01*
X167083999Y-71890595D01*
X167054053Y-71905540D01*
X167024980Y-71921087D01*
X166996780Y-71937235D01*
X166969452Y-71953984D01*
X166942998Y-71971333D01*
X166917417Y-71989284D01*
X166892709Y-72007836D01*
X166868884Y-72026896D01*
X166845797Y-72046524D01*
X166823451Y-72066719D01*
X166801843Y-72087482D01*
X166780975Y-72108813D01*
X166760847Y-72130711D01*
X166741458Y-72153177D01*
X166722808Y-72176211D01*
X166704897Y-72199813D01*
X166687726Y-72223982D01*
X166671295Y-72248718D01*
X166655603Y-72274023D01*
X166640650Y-72299895D01*
X166626437Y-72326335D01*
X166612963Y-72353342D01*
X166600228Y-72380917D01*
X166588324Y-72409244D01*
X166577188Y-72438505D01*
X166566819Y-72468701D01*
X166557219Y-72499833D01*
X166548386Y-72531899D01*
X166540322Y-72564901D01*
X166533026Y-72598837D01*
X166526498Y-72633709D01*
X166520737Y-72669515D01*
X166515745Y-72706256D01*
X166511521Y-72743933D01*
X166508065Y-72782544D01*
X166505377Y-72822090D01*
X166503457Y-72862572D01*
X166502305Y-72903988D01*
X166501921Y-72946339D01*
X166502038Y-72972106D01*
X166502391Y-72997580D01*
X166502978Y-73022762D01*
X166503800Y-73047652D01*
X166504857Y-73072250D01*
X166507677Y-73120569D01*
X166511436Y-73167720D01*
X166516135Y-73213701D01*
X166521773Y-73258514D01*
X166528351Y-73302158D01*
X166535870Y-73344633D01*
X166544327Y-73385940D01*
X166553725Y-73426078D01*
X166564062Y-73465047D01*
X166575340Y-73502848D01*
X166587557Y-73539479D01*
X166600713Y-73574942D01*
X166614810Y-73609236D01*
X166622210Y-73625945D01*
X166637957Y-73658713D01*
X166655126Y-73690917D01*
X166673716Y-73722559D01*
X166693728Y-73753638D01*
X166715161Y-73784154D01*
X166738016Y-73814107D01*
X166762292Y-73843498D01*
X166787990Y-73872325D01*
X166815110Y-73900589D01*
X166843651Y-73928291D01*
X166873613Y-73955430D01*
X166904998Y-73982005D01*
X166937803Y-74008018D01*
X166972031Y-74033468D01*
X167007680Y-74058355D01*
X167044750Y-74082679D01*
X167083259Y-74105897D01*
X167123070Y-74127616D01*
X167164184Y-74147838D01*
X167206599Y-74166561D01*
X167250317Y-74183787D01*
X167295338Y-74199515D01*
X167341660Y-74213745D01*
X167365310Y-74220298D01*
X167389285Y-74226477D01*
X167413586Y-74232282D01*
X167438213Y-74237711D01*
X167463165Y-74242767D01*
X167488442Y-74247448D01*
X167514045Y-74251754D01*
X167539974Y-74255686D01*
X167566229Y-74259244D01*
X167592808Y-74262427D01*
X167619714Y-74265235D01*
X167646945Y-74267669D01*
X167674502Y-74269729D01*
X167702384Y-74271414D01*
X167730592Y-74272725D01*
X167759125Y-74273661D01*
X167787984Y-74274223D01*
X167817168Y-74274410D01*
X167856042Y-74274080D01*
X167894353Y-74273091D01*
X167932101Y-74271442D01*
X167969286Y-74269134D01*
X168005908Y-74266166D01*
X168041967Y-74262539D01*
X168077464Y-74258252D01*
X168112397Y-74253306D01*
X168146767Y-74247700D01*
X168180575Y-74241435D01*
X168213820Y-74234510D01*
X168246502Y-74226926D01*
X168278620Y-74218682D01*
X168310176Y-74209778D01*
X168341169Y-74200216D01*
X168371600Y-74189993D01*
X168401467Y-74179112D01*
X168430771Y-74167570D01*
X168459513Y-74155369D01*
X168487691Y-74142509D01*
X168515307Y-74128989D01*
X168542360Y-74114810D01*
X168568850Y-74099971D01*
X168594777Y-74084473D01*
X168620141Y-74068315D01*
X168644942Y-74051498D01*
X168669180Y-74034021D01*
X168692855Y-74015884D01*
X168715968Y-73997089D01*
X168738517Y-73977633D01*
X168760504Y-73957518D01*
X168781928Y-73936744D01*
X168802740Y-73915331D01*
X168822891Y-73893374D01*
X168842381Y-73870875D01*
X168861211Y-73847834D01*
X168879380Y-73824250D01*
X168896889Y-73800123D01*
X168913736Y-73775454D01*
X168929924Y-73750242D01*
X168945450Y-73724487D01*
X168960316Y-73698190D01*
X168974521Y-73671350D01*
X168988065Y-73643968D01*
X169000948Y-73616042D01*
X169013171Y-73587575D01*
X169024733Y-73558564D01*
X169035635Y-73529011D01*
X169045876Y-73498916D01*
X169055456Y-73468277D01*
X169064375Y-73437096D01*
X169072634Y-73405373D01*
X169080232Y-73373107D01*
X169087169Y-73340298D01*
X169093446Y-73306946D01*
X169099062Y-73273052D01*
X169104017Y-73238616D01*
X169108311Y-73203636D01*
X169111945Y-73168114D01*
X169114918Y-73132050D01*
X169117231Y-73095443D01*
X169118883Y-73058293D01*
X169119874Y-73020600D01*
X169120204Y-72982365D01*
X169120012Y-72952454D01*
X169119436Y-72922943D01*
X169118476Y-72893831D01*
X169117132Y-72865119D01*
X169115404Y-72836806D01*
X169113292Y-72808893D01*
X169110796Y-72781379D01*
X169107915Y-72754265D01*
X169104651Y-72727551D01*
X169101003Y-72701235D01*
X169096971Y-72675320D01*
X169092555Y-72649804D01*
X169087755Y-72624687D01*
X169082571Y-72599970D01*
X169077002Y-72575653D01*
X169071050Y-72551734D01*
X169057994Y-72505097D01*
X169043401Y-72460058D01*
X169027272Y-72416616D01*
X169009608Y-72374773D01*
X168990407Y-72334528D01*
X168969670Y-72295881D01*
X168947397Y-72258832D01*
X168923588Y-72223381D01*
X168898112Y-72189258D01*
X168870838Y-72156195D01*
X168841765Y-72124190D01*
X168810893Y-72093245D01*
X168778223Y-72063359D01*
X168743755Y-72034531D01*
X168707488Y-72006763D01*
X168669423Y-71980054D01*
X168629560Y-71954403D01*
X168587898Y-71929812D01*
X168566392Y-71917914D01*
X168544437Y-71906280D01*
X168522033Y-71894911D01*
X168499178Y-71883807D01*
X168475875Y-71872967D01*
X168452121Y-71862392D01*
X168427918Y-71852082D01*
X168403265Y-71842037D01*
X168378163Y-71832257D01*
X168352611Y-71822741D01*
X168326610Y-71813490D01*
X168300159Y-71804504D01*
X168139569Y-72530516D01*
X168162930Y-72538051D01*
X168191958Y-72548030D01*
X168218562Y-72557934D01*
X168242743Y-72567761D01*
X168269561Y-72579937D01*
X168292593Y-72591994D01*
X168315234Y-72606305D01*
X168318477Y-72608674D01*
X168339085Y-72624683D01*
X168358472Y-72641570D01*
X168376637Y-72659335D01*
X168393581Y-72677978D01*
X168409305Y-72697498D01*
X168423807Y-72717896D01*
X168437087Y-72739172D01*
X168449147Y-72761325D01*
X168459880Y-72784252D01*
X168469182Y-72807846D01*
X168477053Y-72832108D01*
X168483493Y-72857038D01*
X168488502Y-72882636D01*
X168492080Y-72908901D01*
X168494227Y-72935835D01*
X168494942Y-72963436D01*
X168494162Y-72994725D01*
X168491822Y-73025089D01*
X168487923Y-73054527D01*
X168482463Y-73083039D01*
X168475443Y-73110626D01*
X168466864Y-73137288D01*
X168456724Y-73163024D01*
X168445025Y-73187834D01*
X168431766Y-73211720D01*
X168416947Y-73234679D01*
X168400568Y-73256714D01*
X168382629Y-73277823D01*
X168363130Y-73298006D01*
X168342071Y-73317264D01*
X168319452Y-73335597D01*
X168295274Y-73353004D01*
X168265684Y-73371336D01*
X168233013Y-73387866D01*
X168209522Y-73397883D01*
X168184661Y-73407100D01*
X168158431Y-73415515D01*
X168130832Y-73423128D01*
X168101864Y-73429940D01*
X168071527Y-73435951D01*
X168039821Y-73441160D01*
X168006745Y-73445568D01*
X167972301Y-73449174D01*
X167936487Y-73451979D01*
X167899305Y-73453983D01*
X167860753Y-73455185D01*
X167820832Y-73455586D01*
X167795971Y-73455467D01*
X167747747Y-73454518D01*
X167701522Y-73452619D01*
X167657296Y-73449771D01*
X167615069Y-73445974D01*
X167574840Y-73441227D01*
X167536611Y-73435532D01*
X167500380Y-73428887D01*
X167466147Y-73421292D01*
X167433914Y-73412748D01*
X167403679Y-73403255D01*
X167375444Y-73392813D01*
X167349207Y-73381421D01*
X167324968Y-73369080D01*
X167302729Y-73355790D01*
X167282488Y-73341551D01*
X167273117Y-73334075D01*
X167247037Y-73310308D01*
X167223522Y-73284802D01*
X167202573Y-73257557D01*
X167184188Y-73228573D01*
X167168369Y-73197851D01*
X167155115Y-73165390D01*
X167144427Y-73131190D01*
X167138726Y-73107424D01*
X167134166Y-73082885D01*
X167130745Y-73057574D01*
X167128465Y-73031489D01*
X167127325Y-73004632D01*
X167127182Y-72990914D01*
X167127631Y-72964460D01*
X167128976Y-72938831D01*
X167131218Y-72914027D01*
X167136263Y-72878369D01*
X167143325Y-72844568D01*
X167152406Y-72812624D01*
X167163504Y-72782537D01*
X167176620Y-72754306D01*
X167191754Y-72727933D01*
X167208906Y-72703416D01*
X167228076Y-72680756D01*
X167241976Y-72666681D01*
X167264742Y-72646562D01*
X167289761Y-72627419D01*
X167317035Y-72609253D01*
X167346562Y-72592063D01*
X167378343Y-72575850D01*
X167400783Y-72565585D01*
X167424225Y-72555753D01*
X167448668Y-72546355D01*
X167474113Y-72537392D01*
X167500560Y-72528862D01*
X167528009Y-72520767D01*
X167556459Y-72513106D01*
X167585912Y-72505879D01*
X167601013Y-72502428D01*
G37*
G36*
X166549709Y-69448082D02*
G01*
X166575022Y-69460030D01*
X166599111Y-69471066D01*
X166621976Y-69481189D01*
X166650561Y-69493268D01*
X166676969Y-69503724D01*
X166701203Y-69512559D01*
X166728436Y-69521322D01*
X166752270Y-69527550D01*
X166756752Y-69528489D01*
X166780827Y-69532738D01*
X166807676Y-69536241D01*
X166837297Y-69538999D01*
X166862990Y-69540669D01*
X166890458Y-69541861D01*
X166919700Y-69542577D01*
X166950717Y-69542815D01*
X167760993Y-69542815D01*
X167777684Y-69543023D01*
X167802918Y-69544112D01*
X167828388Y-69546135D01*
X167854095Y-69549092D01*
X167880037Y-69552983D01*
X167906216Y-69557808D01*
X167932630Y-69563566D01*
X167959281Y-69570259D01*
X167986168Y-69577885D01*
X168013291Y-69586444D01*
X168040651Y-69595938D01*
X168058711Y-69602733D01*
X168084836Y-69613508D01*
X168109802Y-69624980D01*
X168133608Y-69637150D01*
X168156256Y-69650017D01*
X168177744Y-69663583D01*
X168198073Y-69677845D01*
X168223375Y-69697948D01*
X168246616Y-69719290D01*
X168267796Y-69741873D01*
X168288846Y-69766937D01*
X168308490Y-69793128D01*
X168326728Y-69820447D01*
X168343559Y-69848892D01*
X168358985Y-69878464D01*
X168373005Y-69909163D01*
X168385618Y-69940989D01*
X168396825Y-69973942D01*
X168406627Y-70008022D01*
X168415022Y-70043229D01*
X168419838Y-70067327D01*
X168424200Y-70092075D01*
X168428281Y-70117778D01*
X168432081Y-70144435D01*
X168435599Y-70172046D01*
X168438836Y-70200611D01*
X168441791Y-70230130D01*
X168444465Y-70260603D01*
X168446857Y-70292030D01*
X168448968Y-70324411D01*
X168450797Y-70357747D01*
X168452345Y-70392036D01*
X168453612Y-70427280D01*
X168454597Y-70463477D01*
X168455301Y-70500629D01*
X168455723Y-70538735D01*
X168455863Y-70577794D01*
X168455735Y-70602347D01*
X168455058Y-70638801D01*
X168453803Y-70674805D01*
X168451967Y-70710357D01*
X168449552Y-70745458D01*
X168446558Y-70780109D01*
X168442983Y-70814309D01*
X168438830Y-70848058D01*
X168434096Y-70881357D01*
X168428783Y-70914204D01*
X168422891Y-70946601D01*
X168416456Y-70978025D01*
X168409517Y-71008182D01*
X168402073Y-71037072D01*
X168394125Y-71064696D01*
X168385673Y-71091054D01*
X168376716Y-71116145D01*
X168367254Y-71139969D01*
X168357289Y-71162527D01*
X168343216Y-71190634D01*
X168328247Y-71216489D01*
X168317592Y-71233486D01*
X168301154Y-71258033D01*
X168284168Y-71281443D01*
X168266635Y-71303714D01*
X168248555Y-71324848D01*
X168229927Y-71344844D01*
X168210752Y-71363703D01*
X168191030Y-71381424D01*
X168170760Y-71398007D01*
X168149943Y-71413452D01*
X168128578Y-71427759D01*
X168121264Y-71432309D01*
X168098105Y-71445601D01*
X168073121Y-71458355D01*
X168046313Y-71470573D01*
X168017680Y-71482255D01*
X167987222Y-71493400D01*
X167954940Y-71504008D01*
X167920833Y-71514079D01*
X167897082Y-71520495D01*
X167872519Y-71526673D01*
X167847145Y-71532612D01*
X167820961Y-71538313D01*
X167793965Y-71543775D01*
X167711533Y-70839134D01*
X167728337Y-70833498D01*
X167752156Y-70824802D01*
X167781327Y-70812757D01*
X167807540Y-70800197D01*
X167830796Y-70787121D01*
X167851093Y-70773530D01*
X167872307Y-70755817D01*
X167891662Y-70733499D01*
X167895119Y-70728341D01*
X167907846Y-70706064D01*
X167918818Y-70681153D01*
X167928034Y-70653609D01*
X167935495Y-70623431D01*
X167939939Y-70599070D01*
X167943395Y-70573228D01*
X167945863Y-70545904D01*
X167947345Y-70517100D01*
X167947838Y-70486814D01*
X167947657Y-70471324D01*
X167946207Y-70442206D01*
X167943306Y-70415568D01*
X167937642Y-70385760D01*
X167929711Y-70359827D01*
X167917203Y-70333823D01*
X167901432Y-70313401D01*
X167898471Y-70310471D01*
X167878149Y-70294844D01*
X167853448Y-70282565D01*
X167829519Y-70274890D01*
X167802548Y-70269541D01*
X167772537Y-70266518D01*
X167746338Y-70265774D01*
X167735557Y-70295064D01*
X167725196Y-70324316D01*
X167715254Y-70353530D01*
X167705733Y-70382705D01*
X167696631Y-70411843D01*
X167687949Y-70440942D01*
X167679686Y-70470003D01*
X167671844Y-70499026D01*
X167665717Y-70523101D01*
X167658785Y-70552049D01*
X167651048Y-70585869D01*
X167645443Y-70611124D01*
X167639480Y-70638544D01*
X167633159Y-70668130D01*
X167626481Y-70699881D01*
X167619444Y-70733798D01*
X167612050Y-70769882D01*
X167604298Y-70808130D01*
X167596189Y-70848545D01*
X167587721Y-70891125D01*
X167578896Y-70935871D01*
X167569713Y-70982783D01*
X167564988Y-71007051D01*
X167560913Y-71027761D01*
X167552360Y-71067956D01*
X167543268Y-71106519D01*
X167533636Y-71143451D01*
X167523466Y-71178752D01*
X167512756Y-71212421D01*
X167501508Y-71244459D01*
X167489720Y-71274866D01*
X167477394Y-71303640D01*
X167464528Y-71330784D01*
X167451123Y-71356296D01*
X167437179Y-71380176D01*
X167422697Y-71402425D01*
X167407675Y-71423043D01*
X167392114Y-71442029D01*
X167367762Y-71467449D01*
X167350684Y-71482903D01*
X167323993Y-71504214D01*
X167296015Y-71523281D01*
X167266749Y-71540106D01*
X167236195Y-71554687D01*
X167204353Y-71567025D01*
X167171222Y-71577120D01*
X167136804Y-71584971D01*
X167101098Y-71590579D01*
X167076578Y-71593072D01*
X167051486Y-71594567D01*
X167025822Y-71595066D01*
X166998244Y-71594381D01*
X166971229Y-71592328D01*
X166944778Y-71588905D01*
X166918889Y-71584113D01*
X166893563Y-71577952D01*
X166868800Y-71570422D01*
X166844600Y-71561523D01*
X166820963Y-71551255D01*
X166797889Y-71539617D01*
X166775377Y-71526611D01*
X166753429Y-71512236D01*
X166732043Y-71496491D01*
X166711221Y-71479377D01*
X166690961Y-71460894D01*
X166671264Y-71441043D01*
X166652130Y-71419822D01*
X166633941Y-71397296D01*
X166616925Y-71373530D01*
X166601082Y-71348524D01*
X166586413Y-71322277D01*
X166572918Y-71294790D01*
X166560596Y-71266063D01*
X166549448Y-71236096D01*
X166539473Y-71204888D01*
X166530672Y-71172440D01*
X166523044Y-71138751D01*
X166516590Y-71103823D01*
X166511309Y-71067654D01*
X166507201Y-71030245D01*
X166504268Y-70991595D01*
X166502507Y-70951705D01*
X166501921Y-70910575D01*
X166502221Y-70879668D01*
X166503123Y-70849228D01*
X166504625Y-70819256D01*
X166506729Y-70789751D01*
X166509434Y-70760714D01*
X166512740Y-70732144D01*
X166516647Y-70704042D01*
X166521155Y-70676407D01*
X166526264Y-70649240D01*
X166526526Y-70648014D01*
X166931788Y-70648014D01*
X166931829Y-70654526D01*
X166932817Y-70679522D01*
X166935902Y-70708407D01*
X166941046Y-70734668D01*
X166948246Y-70758305D01*
X166959602Y-70783206D01*
X166973920Y-70804330D01*
X166984815Y-70816208D01*
X167005627Y-70833184D01*
X167028660Y-70845309D01*
X167053913Y-70852585D01*
X167081387Y-70855010D01*
X167095269Y-70854199D01*
X167122059Y-70847711D01*
X167144436Y-70836713D01*
X167165820Y-70820747D01*
X167183358Y-70803108D01*
X167197950Y-70782897D01*
X167209751Y-70761254D01*
X167221668Y-70734745D01*
X167230680Y-70711670D01*
X167239757Y-70685858D01*
X167248898Y-70657309D01*
X167258104Y-70626023D01*
X167267374Y-70592000D01*
X167273590Y-70567798D01*
X167279834Y-70542379D01*
X167282088Y-70532571D01*
X167288879Y-70503596D01*
X167295712Y-70475298D01*
X167302589Y-70447675D01*
X167309508Y-70420729D01*
X167316471Y-70394460D01*
X167323476Y-70368866D01*
X167330524Y-70343949D01*
X167337615Y-70319707D01*
X167344749Y-70296142D01*
X167354328Y-70265774D01*
X167280445Y-70265774D01*
X167252891Y-70266394D01*
X167226711Y-70268255D01*
X167201905Y-70271355D01*
X167172830Y-70276976D01*
X167145901Y-70284534D01*
X167121119Y-70294030D01*
X167098484Y-70305464D01*
X167081549Y-70316121D01*
X167061266Y-70331937D01*
X167041967Y-70350527D01*
X167023652Y-70371889D01*
X167006320Y-70396024D01*
X166993164Y-70417329D01*
X166980637Y-70440408D01*
X166969188Y-70464622D01*
X166959265Y-70489333D01*
X166950870Y-70514539D01*
X166944000Y-70540242D01*
X166938657Y-70566441D01*
X166934841Y-70593136D01*
X166932551Y-70620327D01*
X166931788Y-70648014D01*
X166526526Y-70648014D01*
X166531974Y-70622540D01*
X166538285Y-70596308D01*
X166545197Y-70570543D01*
X166552711Y-70545246D01*
X166560825Y-70520416D01*
X166569541Y-70496054D01*
X166578857Y-70472159D01*
X166586454Y-70454860D01*
X166598574Y-70429295D01*
X166611563Y-70404191D01*
X166625421Y-70379549D01*
X166640149Y-70355369D01*
X166655747Y-70331650D01*
X166672213Y-70308393D01*
X166689549Y-70285597D01*
X166707755Y-70263262D01*
X166726830Y-70241390D01*
X166746774Y-70219979D01*
X166738568Y-70218671D01*
X166714402Y-70214168D01*
X166688344Y-70208146D01*
X166663121Y-70201050D01*
X166660636Y-70200253D01*
X166637661Y-70191476D01*
X166613051Y-70180289D01*
X166588608Y-70168096D01*
X166565877Y-70156099D01*
X166541000Y-70142431D01*
X166541000Y-69443897D01*
X166549709Y-69448082D01*
G37*
G36*
X168416785Y-69169734D02*
G01*
X168416785Y-68476085D01*
X168179258Y-68476085D01*
X168201972Y-68464473D01*
X168223859Y-68452078D01*
X168244920Y-68438899D01*
X168265154Y-68424937D01*
X168290847Y-68405102D01*
X168315071Y-68383873D01*
X168337825Y-68361252D01*
X168359111Y-68337238D01*
X168378927Y-68311831D01*
X168396959Y-68284812D01*
X168412587Y-68256266D01*
X168422730Y-68233855D01*
X168431520Y-68210585D01*
X168438958Y-68186457D01*
X168445044Y-68161469D01*
X168449778Y-68135623D01*
X168453159Y-68108919D01*
X168455187Y-68081356D01*
X168455863Y-68052934D01*
X168454940Y-68022661D01*
X168452171Y-67991604D01*
X168447556Y-67959763D01*
X168441094Y-67927139D01*
X168432787Y-67893732D01*
X168422633Y-67859541D01*
X168414838Y-67836311D01*
X168406223Y-67812734D01*
X168396787Y-67788808D01*
X168386531Y-67764534D01*
X168375454Y-67739912D01*
X168363557Y-67714941D01*
X168350839Y-67689623D01*
X167811673Y-67920432D01*
X167822040Y-67945586D01*
X167831386Y-67969526D01*
X167842263Y-67999561D01*
X167851327Y-68027439D01*
X167858578Y-68053160D01*
X167865092Y-68082281D01*
X167868774Y-68108032D01*
X167869681Y-68126207D01*
X167868030Y-68157061D01*
X167863078Y-68186123D01*
X167854826Y-68213390D01*
X167843272Y-68238864D01*
X167828417Y-68262544D01*
X167810261Y-68284430D01*
X167788804Y-68304523D01*
X167764046Y-68322822D01*
X167732513Y-68341591D01*
X167708766Y-68353078D01*
X167682839Y-68363745D01*
X167654732Y-68373591D01*
X167624445Y-68382616D01*
X167591978Y-68390821D01*
X167557331Y-68398206D01*
X167520503Y-68404770D01*
X167481496Y-68410514D01*
X167440309Y-68415437D01*
X167396941Y-68419539D01*
X167351394Y-68422821D01*
X167303666Y-68425283D01*
X167278985Y-68426206D01*
X167253759Y-68426924D01*
X167227987Y-68427436D01*
X167201671Y-68427744D01*
X167174810Y-68427847D01*
X166541000Y-68427847D01*
X166541000Y-69169734D01*
X168416785Y-69169734D01*
G37*
G36*
X169081125Y-66367658D02*
G01*
X168284893Y-66367658D01*
X168297883Y-66381950D01*
X168314650Y-66402725D01*
X168330789Y-66425465D01*
X168346297Y-66450171D01*
X168361176Y-66476842D01*
X168375425Y-66505478D01*
X168385698Y-66528246D01*
X168395618Y-66552118D01*
X168405183Y-66577096D01*
X168411320Y-66594239D01*
X168419783Y-66620408D01*
X168427356Y-66647126D01*
X168434037Y-66674390D01*
X168439828Y-66702202D01*
X168444728Y-66730561D01*
X168448736Y-66759468D01*
X168451855Y-66788922D01*
X168454082Y-66818923D01*
X168455418Y-66849472D01*
X168455863Y-66880568D01*
X168454895Y-66922994D01*
X168451990Y-66964479D01*
X168447148Y-67005025D01*
X168440369Y-67044631D01*
X168431654Y-67083297D01*
X168421002Y-67121023D01*
X168408413Y-67157810D01*
X168393887Y-67193657D01*
X168377424Y-67228564D01*
X168359025Y-67262532D01*
X168338689Y-67295559D01*
X168316416Y-67327647D01*
X168292206Y-67358795D01*
X168266060Y-67389004D01*
X168237977Y-67418272D01*
X168207957Y-67446601D01*
X168176203Y-67473515D01*
X168142765Y-67498693D01*
X168107643Y-67522135D01*
X168070837Y-67543840D01*
X168032348Y-67563809D01*
X167992174Y-67582041D01*
X167950317Y-67598537D01*
X167906775Y-67613297D01*
X167861549Y-67626320D01*
X167814640Y-67637607D01*
X167790554Y-67642599D01*
X167766047Y-67647157D01*
X167741119Y-67651281D01*
X167715769Y-67654971D01*
X167689999Y-67658226D01*
X167663808Y-67661048D01*
X167637196Y-67663436D01*
X167610163Y-67665389D01*
X167582709Y-67666909D01*
X167554834Y-67667994D01*
X167526538Y-67668645D01*
X167497821Y-67668862D01*
X167472104Y-67668666D01*
X167446625Y-67668077D01*
X167421385Y-67667096D01*
X167396384Y-67665723D01*
X167371621Y-67663957D01*
X167347096Y-67661799D01*
X167298763Y-67656306D01*
X167251384Y-67649244D01*
X167204958Y-67640612D01*
X167159487Y-67630410D01*
X167114970Y-67618640D01*
X167071407Y-67605299D01*
X167028798Y-67590389D01*
X166987143Y-67573910D01*
X166946443Y-67555862D01*
X166906696Y-67536243D01*
X166867903Y-67515056D01*
X166830065Y-67492299D01*
X166793180Y-67467972D01*
X166757911Y-67442076D01*
X166724916Y-67414764D01*
X166694197Y-67386034D01*
X166665754Y-67355888D01*
X166639586Y-67324325D01*
X166615694Y-67291345D01*
X166594077Y-67256948D01*
X166574736Y-67221134D01*
X166557670Y-67183904D01*
X166542879Y-67145257D01*
X166530364Y-67105193D01*
X166520124Y-67063712D01*
X166512160Y-67020815D01*
X166506472Y-66976500D01*
X166503058Y-66930769D01*
X166501921Y-66883621D01*
X166502212Y-66860020D01*
X166503739Y-66825128D01*
X166506577Y-66790847D01*
X166510723Y-66757178D01*
X166516179Y-66724122D01*
X166522945Y-66691677D01*
X166531020Y-66659843D01*
X166532399Y-66655254D01*
X167009946Y-66655254D01*
X167010053Y-66662433D01*
X167012614Y-66690468D01*
X167018591Y-66717416D01*
X167027984Y-66743276D01*
X167040793Y-66768049D01*
X167057017Y-66791734D01*
X167076656Y-66814331D01*
X167099712Y-66835841D01*
X167119244Y-66851259D01*
X167133508Y-66860945D01*
X167156871Y-66874303D01*
X167182595Y-66886255D01*
X167210680Y-66896800D01*
X167241127Y-66905939D01*
X167273936Y-66913673D01*
X167309105Y-66920000D01*
X167333863Y-66923437D01*
X167359671Y-66926249D01*
X167386528Y-66928436D01*
X167414435Y-66929999D01*
X167443391Y-66930936D01*
X167473397Y-66931249D01*
X167505387Y-66930946D01*
X167536175Y-66930037D01*
X167565760Y-66928522D01*
X167594144Y-66926402D01*
X167621326Y-66923676D01*
X167647305Y-66920344D01*
X167672082Y-66916406D01*
X167706994Y-66909363D01*
X167739201Y-66900957D01*
X167768704Y-66891188D01*
X167795501Y-66880055D01*
X167819594Y-66867560D01*
X167840982Y-66853702D01*
X167866026Y-66833771D01*
X167887732Y-66812753D01*
X167906098Y-66790647D01*
X167921124Y-66767453D01*
X167932812Y-66743172D01*
X167941160Y-66717803D01*
X167946169Y-66691347D01*
X167947838Y-66663803D01*
X167947402Y-66647791D01*
X167943910Y-66616784D01*
X167936926Y-66587131D01*
X167926450Y-66558833D01*
X167912483Y-66531890D01*
X167895023Y-66506302D01*
X167874072Y-66482068D01*
X167856067Y-66464782D01*
X167836097Y-66448258D01*
X167828994Y-66442961D01*
X167806254Y-66428080D01*
X167781367Y-66414711D01*
X167754333Y-66402856D01*
X167725153Y-66392515D01*
X167693826Y-66383687D01*
X167660352Y-66376372D01*
X167624732Y-66370571D01*
X167599792Y-66367544D01*
X167573899Y-66365190D01*
X167547051Y-66363508D01*
X167519249Y-66362499D01*
X167490494Y-66362163D01*
X167458709Y-66362494D01*
X167428078Y-66363489D01*
X167398602Y-66365147D01*
X167370280Y-66367467D01*
X167343113Y-66370451D01*
X167317100Y-66374098D01*
X167292242Y-66378408D01*
X167257119Y-66386117D01*
X167224593Y-66395317D01*
X167194665Y-66406009D01*
X167167335Y-66418193D01*
X167142601Y-66431869D01*
X167120466Y-66447037D01*
X167113666Y-66452342D01*
X167094563Y-66468723D01*
X167072113Y-66491650D01*
X167053118Y-66515816D01*
X167037576Y-66541223D01*
X167025488Y-66567871D01*
X167016853Y-66595758D01*
X167011673Y-66624886D01*
X167009946Y-66655254D01*
X166532399Y-66655254D01*
X166540404Y-66628622D01*
X166551098Y-66598012D01*
X166563102Y-66568014D01*
X166576415Y-66538628D01*
X166583766Y-66524019D01*
X166595741Y-66502275D01*
X166608853Y-66480735D01*
X166623103Y-66459399D01*
X166638492Y-66438267D01*
X166655017Y-66417339D01*
X166672681Y-66396614D01*
X166691482Y-66376094D01*
X166711421Y-66355778D01*
X166732498Y-66335665D01*
X166754712Y-66315757D01*
X166541000Y-66315757D01*
X166541000Y-65622718D01*
X169081125Y-65622718D01*
X169081125Y-66367658D01*
G37*
G36*
X168296495Y-63390338D02*
G01*
X168413121Y-64092536D01*
X168456550Y-64080732D01*
X168498606Y-64067759D01*
X168539288Y-64053617D01*
X168578595Y-64038307D01*
X168616529Y-64021827D01*
X168653090Y-64004179D01*
X168688276Y-63985363D01*
X168722088Y-63965377D01*
X168754527Y-63944223D01*
X168785591Y-63921900D01*
X168815282Y-63898408D01*
X168843599Y-63873748D01*
X168870542Y-63847919D01*
X168896111Y-63820921D01*
X168920306Y-63792754D01*
X168943128Y-63763419D01*
X168964571Y-63732657D01*
X168984630Y-63700364D01*
X169003306Y-63666540D01*
X169020599Y-63631184D01*
X169036508Y-63594297D01*
X169051034Y-63555879D01*
X169064176Y-63515930D01*
X169075935Y-63474449D01*
X169086311Y-63431437D01*
X169095303Y-63386894D01*
X169102911Y-63340819D01*
X169109137Y-63293213D01*
X169111731Y-63268836D01*
X169113979Y-63244076D01*
X169115881Y-63218933D01*
X169117437Y-63193408D01*
X169118648Y-63167499D01*
X169119512Y-63141208D01*
X169120031Y-63114534D01*
X169120204Y-63087477D01*
X169120025Y-63056489D01*
X169119488Y-63026037D01*
X169118594Y-62996120D01*
X169117342Y-62966739D01*
X169115732Y-62937893D01*
X169113764Y-62909583D01*
X169111438Y-62881808D01*
X169108755Y-62854568D01*
X169105714Y-62827864D01*
X169102315Y-62801696D01*
X169098558Y-62776063D01*
X169094444Y-62750966D01*
X169089972Y-62726403D01*
X169085142Y-62702377D01*
X169074408Y-62655930D01*
X169062244Y-62611625D01*
X169048648Y-62569463D01*
X169033622Y-62529442D01*
X169017164Y-62491562D01*
X168999275Y-62455825D01*
X168979955Y-62422230D01*
X168959204Y-62390776D01*
X168937022Y-62361465D01*
X168913750Y-62334033D01*
X168889728Y-62308371D01*
X168864958Y-62284478D01*
X168839439Y-62262356D01*
X168813171Y-62242003D01*
X168786154Y-62223420D01*
X168758388Y-62206607D01*
X168729873Y-62191564D01*
X168700610Y-62178290D01*
X168670597Y-62166786D01*
X168639835Y-62157052D01*
X168608324Y-62149088D01*
X168576065Y-62142894D01*
X168543056Y-62138469D01*
X168509299Y-62135815D01*
X168474792Y-62134930D01*
X168444378Y-62135745D01*
X168414500Y-62138193D01*
X168385158Y-62142271D01*
X168356354Y-62147981D01*
X168328086Y-62155323D01*
X168300354Y-62164296D01*
X168273160Y-62174901D01*
X168246502Y-62187137D01*
X168220380Y-62201004D01*
X168194795Y-62216503D01*
X168178037Y-62227742D01*
X168153703Y-62245448D01*
X168130388Y-62263992D01*
X168108093Y-62283373D01*
X168086818Y-62303591D01*
X168066563Y-62324646D01*
X168047327Y-62346538D01*
X168029110Y-62369268D01*
X168011914Y-62392835D01*
X167995737Y-62417239D01*
X167980580Y-62442480D01*
X167971041Y-62459773D01*
X167964391Y-62435062D01*
X167956959Y-62411000D01*
X167948745Y-62387587D01*
X167939748Y-62364823D01*
X167927401Y-62337280D01*
X167913833Y-62310751D01*
X167899042Y-62285236D01*
X167895937Y-62280254D01*
X167880373Y-62256487D01*
X167863908Y-62233729D01*
X167846542Y-62211980D01*
X167828274Y-62191239D01*
X167809104Y-62171508D01*
X167789033Y-62152785D01*
X167768060Y-62135072D01*
X167746185Y-62118367D01*
X167723409Y-62102671D01*
X167699731Y-62087985D01*
X167683445Y-62078754D01*
X167658281Y-62065877D01*
X167632247Y-62054268D01*
X167605344Y-62043924D01*
X167577572Y-62034847D01*
X167548930Y-62027037D01*
X167519419Y-62020493D01*
X167489038Y-62015216D01*
X167457788Y-62011205D01*
X167425668Y-62008461D01*
X167392680Y-62006984D01*
X167370204Y-62006702D01*
X167341956Y-62007163D01*
X167313847Y-62008544D01*
X167285876Y-62010845D01*
X167258043Y-62014068D01*
X167230349Y-62018211D01*
X167202793Y-62023274D01*
X167175375Y-62029259D01*
X167148096Y-62036164D01*
X167120955Y-62043990D01*
X167093952Y-62052736D01*
X167067088Y-62062403D01*
X167040362Y-62072991D01*
X167013774Y-62084500D01*
X166987325Y-62096929D01*
X166961014Y-62110279D01*
X166934841Y-62124549D01*
X166909188Y-62139683D01*
X166884285Y-62155624D01*
X166860130Y-62172370D01*
X166836724Y-62189923D01*
X166814067Y-62208281D01*
X166792159Y-62227446D01*
X166771000Y-62247417D01*
X166750590Y-62268195D01*
X166730929Y-62289778D01*
X166712017Y-62312168D01*
X166693854Y-62335364D01*
X166676440Y-62359366D01*
X166659775Y-62384174D01*
X166643858Y-62409789D01*
X166628691Y-62436209D01*
X166614272Y-62463436D01*
X166600667Y-62491524D01*
X166587940Y-62520681D01*
X166576090Y-62550906D01*
X166565118Y-62582199D01*
X166555024Y-62614562D01*
X166545808Y-62647992D01*
X166537469Y-62682492D01*
X166530009Y-62718060D01*
X166523425Y-62754696D01*
X166517720Y-62792401D01*
X166512892Y-62831174D01*
X166508943Y-62871017D01*
X166505871Y-62911927D01*
X166503676Y-62953907D01*
X166502360Y-62996954D01*
X166501921Y-63041071D01*
X166502240Y-63083861D01*
X166503199Y-63125525D01*
X166504797Y-63166064D01*
X166507034Y-63205477D01*
X166509911Y-63243764D01*
X166513427Y-63280925D01*
X166517582Y-63316960D01*
X166522376Y-63351870D01*
X166527809Y-63385653D01*
X166533882Y-63418311D01*
X166540594Y-63449844D01*
X166547945Y-63480250D01*
X166555936Y-63509530D01*
X166564565Y-63537685D01*
X166573834Y-63564714D01*
X166583742Y-63590617D01*
X166594268Y-63615676D01*
X166605390Y-63640172D01*
X166617108Y-63664105D01*
X166629423Y-63687475D01*
X166642334Y-63710282D01*
X166655841Y-63732526D01*
X166669945Y-63754207D01*
X166684645Y-63775326D01*
X166699941Y-63795881D01*
X166715833Y-63815874D01*
X166732322Y-63835304D01*
X166749407Y-63854170D01*
X166767089Y-63872474D01*
X166785366Y-63890215D01*
X166804240Y-63907393D01*
X166823711Y-63924009D01*
X166843951Y-63940128D01*
X166864984Y-63955817D01*
X166886808Y-63971078D01*
X166909425Y-63985909D01*
X166932833Y-64000311D01*
X166957033Y-64014283D01*
X166982025Y-64027826D01*
X167007809Y-64040940D01*
X167034384Y-64053624D01*
X167061752Y-64065879D01*
X167089911Y-64077705D01*
X167118863Y-64089101D01*
X167148606Y-64100069D01*
X167179141Y-64110606D01*
X167210468Y-64120715D01*
X167242587Y-64130394D01*
X167324408Y-63391559D01*
X167290454Y-63383098D01*
X167258656Y-63373971D01*
X167229016Y-63364178D01*
X167201533Y-63353721D01*
X167176208Y-63342597D01*
X167153040Y-63330809D01*
X167132030Y-63318354D01*
X167107372Y-63300713D01*
X167086549Y-63281890D01*
X167073449Y-63266995D01*
X167058565Y-63245834D01*
X167045666Y-63223261D01*
X167034752Y-63199275D01*
X167025822Y-63173878D01*
X167018876Y-63147068D01*
X167013915Y-63118847D01*
X167010938Y-63089213D01*
X167009946Y-63058168D01*
X167011377Y-63025882D01*
X167015670Y-62994970D01*
X167022826Y-62965432D01*
X167032844Y-62937267D01*
X167045724Y-62910477D01*
X167061466Y-62885061D01*
X167080070Y-62861018D01*
X167101537Y-62838349D01*
X167125408Y-62817598D01*
X167151225Y-62799614D01*
X167178989Y-62784396D01*
X167208698Y-62771946D01*
X167232258Y-62764423D01*
X167256912Y-62758457D01*
X167282662Y-62754048D01*
X167309506Y-62751194D01*
X167337445Y-62749898D01*
X167347001Y-62749811D01*
X167375900Y-62750552D01*
X167403523Y-62752773D01*
X167429868Y-62756476D01*
X167454935Y-62761661D01*
X167478726Y-62768326D01*
X167508459Y-62779517D01*
X167535922Y-62793342D01*
X167561115Y-62809800D01*
X167584036Y-62828891D01*
X167589412Y-62834075D01*
X167609304Y-62856114D01*
X167626544Y-62880099D01*
X167641132Y-62906031D01*
X167653068Y-62933909D01*
X167662351Y-62963733D01*
X167668982Y-62995504D01*
X167672214Y-63020609D01*
X167673955Y-63046809D01*
X167674286Y-63064884D01*
X167673168Y-63092028D01*
X167670664Y-63116834D01*
X167666728Y-63144387D01*
X167661362Y-63174689D01*
X167656397Y-63199218D01*
X167650628Y-63225293D01*
X167644054Y-63252913D01*
X167636675Y-63282079D01*
X167628491Y-63312791D01*
X168192081Y-63273712D01*
X168188761Y-63246056D01*
X168186128Y-63221705D01*
X168183685Y-63194381D01*
X168182350Y-63168490D01*
X168182311Y-63164413D01*
X168183399Y-63132452D01*
X168186662Y-63101902D01*
X168192100Y-63072765D01*
X168199714Y-63045040D01*
X168209503Y-63018726D01*
X168221467Y-62993825D01*
X168235606Y-62970336D01*
X168251921Y-62948258D01*
X168269838Y-62928223D01*
X168288481Y-62910859D01*
X168312804Y-62892910D01*
X168338260Y-62879136D01*
X168364848Y-62869535D01*
X168392570Y-62864109D01*
X168415563Y-62862773D01*
X168442558Y-62864309D01*
X168467823Y-62868915D01*
X168491359Y-62876593D01*
X168517319Y-62889859D01*
X168537050Y-62904292D01*
X168555052Y-62921797D01*
X168558445Y-62925666D01*
X168573925Y-62946366D01*
X168586781Y-62969541D01*
X168597014Y-62995191D01*
X168604623Y-63023315D01*
X168608821Y-63047597D01*
X168611339Y-63073461D01*
X168612179Y-63100910D01*
X168611168Y-63129370D01*
X168608134Y-63156437D01*
X168603077Y-63182111D01*
X168595998Y-63206393D01*
X168586896Y-63229281D01*
X168572674Y-63255932D01*
X168555292Y-63280407D01*
X168547454Y-63289588D01*
X168529508Y-63306790D01*
X168507727Y-63322675D01*
X168482110Y-63337244D01*
X168452658Y-63350496D01*
X168428052Y-63359571D01*
X168401288Y-63367905D01*
X168372367Y-63375499D01*
X168341289Y-63382352D01*
X168308053Y-63388465D01*
X168296495Y-63390338D01*
G37*
D10*
D11*
G36*
X179025071Y-46483613D02*
G01*
X179678665Y-46483613D01*
X179678665Y-45709851D01*
X180327374Y-45709851D01*
X180327374Y-46483613D01*
X180983411Y-46483613D01*
X180983411Y-44197500D01*
X180327374Y-44197500D01*
X180327374Y-45111945D01*
X179678665Y-45111945D01*
X179678665Y-44197500D01*
X179025071Y-44197500D01*
X179025071Y-46483613D01*
G37*
G36*
X181336586Y-46483613D02*
G01*
X181927165Y-46483613D01*
X181927165Y-46026390D01*
X181336586Y-46026390D01*
X181336586Y-46483613D01*
G37*
G36*
X181336586Y-45885706D02*
G01*
X181927165Y-45885706D01*
X181927165Y-44197500D01*
X181336586Y-44197500D01*
X181336586Y-45885706D01*
G37*
G36*
X184189004Y-44197742D02*
G01*
X184210462Y-44198470D01*
X184232220Y-44199683D01*
X184254280Y-44201381D01*
X184276642Y-44203564D01*
X184299305Y-44206232D01*
X184322269Y-44209386D01*
X184345535Y-44213024D01*
X184369103Y-44217148D01*
X184392972Y-44221757D01*
X184417142Y-44226851D01*
X184441614Y-44232430D01*
X184466388Y-44238494D01*
X184491463Y-44245044D01*
X184516839Y-44252078D01*
X184542517Y-44259598D01*
X184561669Y-44265656D01*
X184580657Y-44272427D01*
X184599481Y-44279910D01*
X184618141Y-44288106D01*
X184636637Y-44297015D01*
X184654968Y-44306636D01*
X184673136Y-44316970D01*
X184691139Y-44328017D01*
X184708978Y-44339776D01*
X184726654Y-44352248D01*
X184744165Y-44365433D01*
X184761512Y-44379331D01*
X184778694Y-44393941D01*
X184795713Y-44409264D01*
X184812568Y-44425299D01*
X184829258Y-44442048D01*
X184845699Y-44459474D01*
X184861682Y-44477408D01*
X184877206Y-44495847D01*
X184892273Y-44514794D01*
X184906882Y-44534247D01*
X184921033Y-44554207D01*
X184934726Y-44574673D01*
X184947960Y-44595646D01*
X184960737Y-44617125D01*
X184973056Y-44639112D01*
X184984917Y-44661604D01*
X184996321Y-44684604D01*
X185007266Y-44708110D01*
X185017753Y-44732122D01*
X185027782Y-44756642D01*
X185037353Y-44781667D01*
X185041951Y-44794465D01*
X185050710Y-44821011D01*
X185058884Y-44848823D01*
X185066475Y-44877902D01*
X185073482Y-44908247D01*
X185079905Y-44939859D01*
X185085743Y-44972737D01*
X185090998Y-45006882D01*
X185095670Y-45042293D01*
X185099757Y-45078971D01*
X185103260Y-45116916D01*
X185106180Y-45156127D01*
X185108515Y-45196604D01*
X185110267Y-45238348D01*
X185111435Y-45281359D01*
X185111800Y-45303339D01*
X185112019Y-45325636D01*
X185112092Y-45348250D01*
X185111895Y-45377215D01*
X185111305Y-45405995D01*
X185110323Y-45434591D01*
X185108947Y-45463002D01*
X185107178Y-45491228D01*
X185105016Y-45519270D01*
X185102461Y-45547128D01*
X185099513Y-45574800D01*
X185096172Y-45602288D01*
X185092438Y-45629592D01*
X185088310Y-45656711D01*
X185083790Y-45683645D01*
X185078876Y-45710394D01*
X185073570Y-45736959D01*
X185067870Y-45763340D01*
X185061778Y-45789535D01*
X185055305Y-45815439D01*
X185048344Y-45840944D01*
X185040895Y-45866049D01*
X185032957Y-45890755D01*
X185024531Y-45915062D01*
X185015616Y-45938969D01*
X185006212Y-45962477D01*
X184996321Y-45985586D01*
X184985940Y-46008296D01*
X184975071Y-46030606D01*
X184963714Y-46052517D01*
X184951868Y-46074029D01*
X184939534Y-46095141D01*
X184926711Y-46115854D01*
X184913400Y-46136168D01*
X184899600Y-46156083D01*
X184885383Y-46175579D01*
X184870696Y-46194500D01*
X184855539Y-46212845D01*
X184839913Y-46230615D01*
X184823818Y-46247810D01*
X184807254Y-46264429D01*
X184790220Y-46280474D01*
X184772716Y-46295942D01*
X184754743Y-46310836D01*
X184736301Y-46325154D01*
X184717389Y-46338897D01*
X184698008Y-46352065D01*
X184678158Y-46364657D01*
X184657838Y-46376674D01*
X184637049Y-46388116D01*
X184615790Y-46398982D01*
X184593948Y-46409231D01*
X184571285Y-46418818D01*
X184547801Y-46427743D01*
X184523497Y-46436008D01*
X184498372Y-46443612D01*
X184472427Y-46450554D01*
X184445662Y-46456835D01*
X184418076Y-46462455D01*
X184389669Y-46467414D01*
X184360442Y-46471711D01*
X184330394Y-46475348D01*
X184299526Y-46478323D01*
X184267838Y-46480637D01*
X184235328Y-46482290D01*
X184201999Y-46483282D01*
X184167849Y-46483613D01*
X183227514Y-46483613D01*
X183227514Y-44760235D01*
X183881108Y-44760235D01*
X183881108Y-45920877D01*
X184020815Y-45920877D01*
X184035368Y-45920757D01*
X184063681Y-45919795D01*
X184090937Y-45917872D01*
X184117135Y-45914987D01*
X184142277Y-45911140D01*
X184166362Y-45906331D01*
X184189389Y-45900561D01*
X184211360Y-45893829D01*
X184232273Y-45886135D01*
X184252129Y-45877480D01*
X184270928Y-45867863D01*
X184288670Y-45857284D01*
X184313301Y-45839613D01*
X184335553Y-45819778D01*
X184355427Y-45797779D01*
X184361588Y-45789906D01*
X184378897Y-45763724D01*
X184389459Y-45744133D01*
X184399238Y-45722834D01*
X184408235Y-45699826D01*
X184416450Y-45675110D01*
X184423882Y-45648684D01*
X184430532Y-45620550D01*
X184436400Y-45590707D01*
X184441485Y-45559155D01*
X184445788Y-45525895D01*
X184449308Y-45490926D01*
X184452046Y-45454248D01*
X184454002Y-45415861D01*
X184455176Y-45375766D01*
X184455567Y-45333961D01*
X184455523Y-45317926D01*
X184455172Y-45286710D01*
X184454470Y-45256631D01*
X184453416Y-45227689D01*
X184452012Y-45199886D01*
X184450256Y-45173220D01*
X184448150Y-45147692D01*
X184445692Y-45123301D01*
X184442883Y-45100048D01*
X184438012Y-45067303D01*
X184432350Y-45037117D01*
X184425899Y-45009491D01*
X184418658Y-44984425D01*
X184410626Y-44961919D01*
X184407784Y-44954944D01*
X184398864Y-44934819D01*
X184386049Y-44909849D01*
X184372181Y-44887009D01*
X184357259Y-44866297D01*
X184341284Y-44847716D01*
X184324256Y-44831264D01*
X184306174Y-44816941D01*
X184287039Y-44804748D01*
X184271393Y-44796793D01*
X184247446Y-44787404D01*
X184227171Y-44781274D01*
X184204913Y-44775928D01*
X184180672Y-44771363D01*
X184154446Y-44767581D01*
X184126238Y-44764582D01*
X184106330Y-44763017D01*
X184085541Y-44761800D01*
X184063870Y-44760931D01*
X184041318Y-44760409D01*
X184017884Y-44760235D01*
X183881108Y-44760235D01*
X183227514Y-44760235D01*
X183227514Y-44197500D01*
X184167849Y-44197500D01*
X184189004Y-44197742D01*
G37*
G36*
X185862219Y-44162599D02*
G01*
X185886570Y-44163410D01*
X185910548Y-44164763D01*
X185934152Y-44166656D01*
X185957382Y-44169091D01*
X185980238Y-44172066D01*
X186002719Y-44175582D01*
X186024827Y-44179639D01*
X186046561Y-44184237D01*
X186067921Y-44189377D01*
X186088907Y-44195057D01*
X186109518Y-44201278D01*
X186129756Y-44208040D01*
X186149620Y-44215343D01*
X186169110Y-44223187D01*
X186188226Y-44231571D01*
X186202065Y-44238409D01*
X186222517Y-44249316D01*
X186242600Y-44261006D01*
X186262314Y-44273479D01*
X186281658Y-44286734D01*
X186300633Y-44300772D01*
X186319239Y-44315592D01*
X186337476Y-44331194D01*
X186355343Y-44347579D01*
X186372841Y-44364747D01*
X186389970Y-44382697D01*
X186391016Y-44375312D01*
X186394618Y-44353562D01*
X186399437Y-44330110D01*
X186405113Y-44307409D01*
X186405751Y-44305172D01*
X186412773Y-44284495D01*
X186421722Y-44262346D01*
X186431476Y-44240347D01*
X186441074Y-44219889D01*
X186452008Y-44197500D01*
X187010836Y-44197500D01*
X187007487Y-44205338D01*
X186997929Y-44228120D01*
X186989100Y-44249800D01*
X186981002Y-44270379D01*
X186971339Y-44296104D01*
X186962973Y-44319872D01*
X186955906Y-44341682D01*
X186948896Y-44366192D01*
X186943913Y-44387643D01*
X186943162Y-44391677D01*
X186939763Y-44413345D01*
X186936960Y-44437508D01*
X186934754Y-44464167D01*
X186933418Y-44487291D01*
X186932464Y-44512012D01*
X186931892Y-44538330D01*
X186931701Y-44566245D01*
X186931701Y-45295493D01*
X186931535Y-45310516D01*
X186930663Y-45333226D01*
X186929045Y-45356149D01*
X186926679Y-45379285D01*
X186923566Y-45402633D01*
X186919707Y-45426194D01*
X186915100Y-45449967D01*
X186909746Y-45473953D01*
X186903645Y-45498151D01*
X186896797Y-45522562D01*
X186889203Y-45547185D01*
X186883766Y-45563440D01*
X186875147Y-45586952D01*
X186865969Y-45609422D01*
X186856233Y-45630847D01*
X186845939Y-45651230D01*
X186835087Y-45670569D01*
X186823677Y-45688865D01*
X186807595Y-45711637D01*
X186790521Y-45732554D01*
X186772454Y-45751617D01*
X186752403Y-45770562D01*
X186731450Y-45788241D01*
X186709596Y-45804655D01*
X186686840Y-45819803D01*
X186663182Y-45833686D01*
X186638623Y-45846304D01*
X186613162Y-45857656D01*
X186586799Y-45867743D01*
X186559535Y-45876564D01*
X186531370Y-45884120D01*
X186512092Y-45888454D01*
X186492293Y-45892380D01*
X186471730Y-45896053D01*
X186450405Y-45899473D01*
X186428316Y-45902639D01*
X186405464Y-45905552D01*
X186381849Y-45908212D01*
X186357471Y-45910618D01*
X186332329Y-45912771D01*
X186306424Y-45914671D01*
X186279756Y-45916318D01*
X186252324Y-45917711D01*
X186224129Y-45918851D01*
X186195171Y-45919737D01*
X186165450Y-45920370D01*
X186134965Y-45920750D01*
X186103718Y-45920877D01*
X186084075Y-45920761D01*
X186054912Y-45920153D01*
X186026109Y-45919022D01*
X185997668Y-45917370D01*
X185969586Y-45915197D01*
X185941866Y-45912502D01*
X185914506Y-45909285D01*
X185887506Y-45905547D01*
X185860868Y-45901287D01*
X185834590Y-45896505D01*
X185808672Y-45891202D01*
X185783533Y-45885410D01*
X185759408Y-45879165D01*
X185736295Y-45872466D01*
X185714196Y-45865313D01*
X185693110Y-45857705D01*
X185673037Y-45849644D01*
X185653978Y-45841129D01*
X185635931Y-45832160D01*
X185613446Y-45819494D01*
X185592762Y-45806022D01*
X185579164Y-45796433D01*
X185559526Y-45781638D01*
X185540799Y-45766351D01*
X185522982Y-45750572D01*
X185506074Y-45734300D01*
X185490077Y-45717535D01*
X185474991Y-45700277D01*
X185460814Y-45682527D01*
X185447548Y-45664284D01*
X185435192Y-45645548D01*
X185423745Y-45626320D01*
X185420106Y-45619737D01*
X185409473Y-45598894D01*
X185399269Y-45576409D01*
X185389494Y-45552282D01*
X185380149Y-45526512D01*
X185371233Y-45499100D01*
X185362747Y-45470046D01*
X185354690Y-45439350D01*
X185349557Y-45417973D01*
X185344615Y-45395867D01*
X185339863Y-45373031D01*
X185335303Y-45349465D01*
X185330933Y-45325169D01*
X185894646Y-45250980D01*
X185899155Y-45266103D01*
X185906111Y-45287540D01*
X185915747Y-45313794D01*
X185925796Y-45337386D01*
X185936256Y-45358316D01*
X185947129Y-45376584D01*
X185961299Y-45395676D01*
X185979154Y-45413096D01*
X185983280Y-45416207D01*
X186001102Y-45427661D01*
X186021031Y-45437536D01*
X186043066Y-45445831D01*
X186067208Y-45452545D01*
X186086697Y-45456545D01*
X186107371Y-45459655D01*
X186129230Y-45461877D01*
X186152273Y-45463210D01*
X186176502Y-45463654D01*
X186188893Y-45463491D01*
X186212188Y-45462186D01*
X186233498Y-45459576D01*
X186257345Y-45454477D01*
X186278092Y-45447340D01*
X186298894Y-45436083D01*
X186315232Y-45421889D01*
X186317576Y-45419224D01*
X186330078Y-45400934D01*
X186339901Y-45378703D01*
X186346041Y-45357167D01*
X186350320Y-45332894D01*
X186352738Y-45305883D01*
X186353334Y-45282304D01*
X186329902Y-45272601D01*
X186306500Y-45263276D01*
X186283129Y-45254329D01*
X186259789Y-45245759D01*
X186236479Y-45237568D01*
X186213199Y-45229754D01*
X186189951Y-45222318D01*
X186166732Y-45215259D01*
X186147472Y-45209745D01*
X186124314Y-45203506D01*
X186097258Y-45196543D01*
X186077054Y-45191499D01*
X186055118Y-45186132D01*
X186031449Y-45180443D01*
X186006048Y-45174433D01*
X185978914Y-45168100D01*
X185950048Y-45161445D01*
X185919449Y-45154469D01*
X185887117Y-45147170D01*
X185853053Y-45139549D01*
X185817256Y-45131607D01*
X185779727Y-45123342D01*
X185760312Y-45119089D01*
X185743745Y-45115422D01*
X185711589Y-45107724D01*
X185680738Y-45099541D01*
X185651192Y-45090873D01*
X185622951Y-45081719D01*
X185596016Y-45072081D01*
X185570386Y-45061957D01*
X185546061Y-45051348D01*
X185523041Y-45040254D01*
X185501326Y-45028675D01*
X185480916Y-45016611D01*
X185461812Y-45004061D01*
X185444013Y-44991027D01*
X185427519Y-44977507D01*
X185412330Y-44963502D01*
X185391994Y-44941585D01*
X185379631Y-44926215D01*
X185362582Y-44902194D01*
X185347328Y-44877014D01*
X185333868Y-44850674D01*
X185322203Y-44823175D01*
X185312333Y-44794517D01*
X185304257Y-44764700D01*
X185297976Y-44733724D01*
X185293490Y-44701588D01*
X185291887Y-44683848D01*
X185881945Y-44683848D01*
X185882594Y-44696342D01*
X185887784Y-44720453D01*
X185896583Y-44740592D01*
X185909356Y-44759838D01*
X185923466Y-44775622D01*
X185939636Y-44788755D01*
X185956950Y-44799376D01*
X185978157Y-44810101D01*
X185996617Y-44818212D01*
X186017267Y-44826381D01*
X186040106Y-44834608D01*
X186065134Y-44842893D01*
X186092353Y-44851236D01*
X186111715Y-44856831D01*
X186132050Y-44862451D01*
X186139897Y-44864479D01*
X186163076Y-44870591D01*
X186185715Y-44876741D01*
X186207813Y-44882930D01*
X186229370Y-44889157D01*
X186250385Y-44895423D01*
X186270860Y-44901728D01*
X186290794Y-44908072D01*
X186310187Y-44914454D01*
X186329039Y-44920874D01*
X186353334Y-44929495D01*
X186353334Y-44863000D01*
X186352838Y-44838202D01*
X186351349Y-44814640D01*
X186348869Y-44792315D01*
X186344373Y-44766147D01*
X186338326Y-44741911D01*
X186330729Y-44719607D01*
X186321582Y-44699235D01*
X186313057Y-44683994D01*
X186300403Y-44665739D01*
X186285532Y-44648370D01*
X186268442Y-44631886D01*
X186249134Y-44616288D01*
X186232090Y-44604447D01*
X186213627Y-44593173D01*
X186194255Y-44582869D01*
X186174487Y-44573939D01*
X186154322Y-44566383D01*
X186133759Y-44560200D01*
X186112800Y-44555392D01*
X186091444Y-44551957D01*
X186069691Y-44549896D01*
X186047542Y-44549209D01*
X186042332Y-44549246D01*
X186022335Y-44550135D01*
X185999227Y-44552912D01*
X185978219Y-44557541D01*
X185959309Y-44564021D01*
X185939388Y-44574241D01*
X185922489Y-44587128D01*
X185912987Y-44596934D01*
X185899406Y-44615665D01*
X185889706Y-44636394D01*
X185883885Y-44659122D01*
X185881945Y-44683848D01*
X185291887Y-44683848D01*
X185291496Y-44679520D01*
X185290299Y-44656937D01*
X185289900Y-44633839D01*
X185290448Y-44609020D01*
X185292091Y-44584706D01*
X185294829Y-44560900D01*
X185298663Y-44537600D01*
X185303591Y-44514807D01*
X185309615Y-44492520D01*
X185316735Y-44470740D01*
X185324949Y-44449467D01*
X185334259Y-44428700D01*
X185344664Y-44408439D01*
X185356165Y-44388686D01*
X185368760Y-44369439D01*
X185382451Y-44350698D01*
X185397238Y-44332465D01*
X185413119Y-44314737D01*
X185430096Y-44297517D01*
X185448116Y-44281146D01*
X185467129Y-44265832D01*
X185487134Y-44251574D01*
X185508131Y-44238372D01*
X185530121Y-44226226D01*
X185553103Y-44215137D01*
X185577077Y-44205103D01*
X185602043Y-44196126D01*
X185628001Y-44188204D01*
X185654952Y-44181339D01*
X185682895Y-44175531D01*
X185711830Y-44170778D01*
X185741757Y-44167081D01*
X185772677Y-44164441D01*
X185804589Y-44162857D01*
X185837493Y-44162329D01*
X185862219Y-44162599D01*
G37*
G36*
X187052845Y-45885706D02*
G01*
X187629258Y-45885706D01*
X187853962Y-44926748D01*
X188137284Y-45885706D01*
X188663871Y-45885706D01*
X188958428Y-44908613D01*
X189183131Y-45885706D01*
X189755148Y-45885706D01*
X189206090Y-44197500D01*
X188686830Y-44197500D01*
X188403020Y-45153710D01*
X188128002Y-44197500D01*
X187606300Y-44197500D01*
X187052845Y-45885706D01*
G37*
G36*
X189866523Y-45885706D02*
G01*
X190418512Y-45885706D01*
X190418512Y-45649951D01*
X190435827Y-45673270D01*
X190453700Y-45695623D01*
X190472131Y-45717010D01*
X190491121Y-45737432D01*
X190510668Y-45756887D01*
X190530774Y-45775376D01*
X190551438Y-45792899D01*
X190572659Y-45809456D01*
X190594440Y-45825048D01*
X190616778Y-45839673D01*
X190631980Y-45848886D01*
X190655437Y-45861752D01*
X190679831Y-45873352D01*
X190705160Y-45883687D01*
X190731425Y-45892756D01*
X190758626Y-45900559D01*
X190786763Y-45907098D01*
X190806041Y-45910753D01*
X190825735Y-45913847D01*
X190845845Y-45916378D01*
X190866371Y-45918346D01*
X190887313Y-45919752D01*
X190908671Y-45920596D01*
X190930445Y-45920877D01*
X190959899Y-45920246D01*
X190988544Y-45918353D01*
X191016380Y-45915197D01*
X191043407Y-45910779D01*
X191069625Y-45905099D01*
X191095034Y-45898157D01*
X191119634Y-45889952D01*
X191143424Y-45880485D01*
X191166406Y-45869756D01*
X191188579Y-45857765D01*
X191209942Y-45844512D01*
X191230497Y-45829996D01*
X191250243Y-45814218D01*
X191269179Y-45797178D01*
X191287306Y-45778875D01*
X191304625Y-45759310D01*
X191321069Y-45738443D01*
X191336453Y-45716231D01*
X191350775Y-45692676D01*
X191364037Y-45667777D01*
X191376238Y-45641534D01*
X191387377Y-45613947D01*
X191397456Y-45585016D01*
X191406474Y-45554742D01*
X191414431Y-45523123D01*
X191421327Y-45490161D01*
X191427162Y-45455856D01*
X191431936Y-45420206D01*
X191435650Y-45383212D01*
X191438302Y-45344875D01*
X191439893Y-45305194D01*
X191440424Y-45264169D01*
X191440424Y-44197500D01*
X190847402Y-44197500D01*
X190847402Y-45125683D01*
X190846994Y-45152913D01*
X190845771Y-45178549D01*
X190843731Y-45202591D01*
X190840876Y-45225040D01*
X190835801Y-45252491D01*
X190829275Y-45277109D01*
X190821299Y-45298894D01*
X190809289Y-45322139D01*
X190800996Y-45333961D01*
X190785552Y-45351060D01*
X190768224Y-45365260D01*
X190749011Y-45376562D01*
X190727914Y-45384966D01*
X190704933Y-45390472D01*
X190685191Y-45392791D01*
X190669593Y-45393312D01*
X190646573Y-45392033D01*
X190624653Y-45388195D01*
X190603831Y-45381798D01*
X190584108Y-45372842D01*
X190565485Y-45361327D01*
X190547960Y-45347254D01*
X190531535Y-45330621D01*
X190516209Y-45311430D01*
X190502356Y-45288933D01*
X190493178Y-45269220D01*
X190485039Y-45247073D01*
X190477940Y-45222492D01*
X190471879Y-45195476D01*
X190466857Y-45166026D01*
X190462874Y-45134141D01*
X190460796Y-45111533D01*
X190459180Y-45087842D01*
X190458026Y-45063069D01*
X190457333Y-45037215D01*
X190457102Y-45010279D01*
X190457102Y-44197500D01*
X189866523Y-44197500D01*
X189866523Y-45885706D01*
G37*
G36*
X191734004Y-46483613D02*
G01*
X192362685Y-46483613D01*
X192362685Y-45950553D01*
X192245448Y-44900919D01*
X191848309Y-44900919D01*
X191734004Y-45950553D01*
X191734004Y-46483613D01*
G37*
G36*
X191754520Y-44795406D02*
G01*
X192343634Y-44795406D01*
X192343634Y-44197500D01*
X191754520Y-44197500D01*
X191754520Y-44795406D01*
G37*
D10*
D11*
G36*
X161207125Y-100334872D02*
G01*
X161207125Y-99276690D01*
X159749606Y-98896892D01*
X161207125Y-98518926D01*
X161207125Y-97463797D01*
X158667000Y-97463797D01*
X158667000Y-98138518D01*
X160606288Y-98118979D01*
X158667000Y-98596473D01*
X158667000Y-99202196D01*
X160606288Y-99678469D01*
X158667000Y-99658930D01*
X158667000Y-100334872D01*
X161207125Y-100334872D01*
G37*
G36*
X161207125Y-96993019D02*
G01*
X161207125Y-96174806D01*
X158667000Y-96174806D01*
X158667000Y-96993019D01*
X161207125Y-96993019D01*
G37*
G36*
X159414383Y-93516222D02*
G01*
X159437330Y-93528895D01*
X159458979Y-93542374D01*
X159482923Y-93558507D01*
X159503732Y-93573323D01*
X159526009Y-93589838D01*
X159549756Y-93608052D01*
X159574972Y-93627963D01*
X159593927Y-93643196D01*
X159617264Y-93662454D01*
X159638387Y-93680509D01*
X159657297Y-93697363D01*
X159677821Y-93716740D01*
X159694887Y-93734238D01*
X159712969Y-93755580D01*
X159718911Y-93763864D01*
X159732993Y-93784928D01*
X159745971Y-93806499D01*
X159757846Y-93828577D01*
X159768618Y-93851162D01*
X159778287Y-93874253D01*
X159786853Y-93897852D01*
X159793541Y-93870784D01*
X159801393Y-93843927D01*
X159810409Y-93817280D01*
X159820589Y-93790843D01*
X159831933Y-93764615D01*
X159844441Y-93738598D01*
X159858113Y-93712790D01*
X159872949Y-93687192D01*
X159885237Y-93667386D01*
X159904528Y-93638677D01*
X159924850Y-93611172D01*
X159946202Y-93584868D01*
X159968585Y-93559766D01*
X159991998Y-93535866D01*
X160016441Y-93513169D01*
X160041915Y-93491674D01*
X160068419Y-93471381D01*
X160095954Y-93452290D01*
X160124519Y-93434401D01*
X160144134Y-93423236D01*
X160174417Y-93407839D01*
X160205729Y-93394063D01*
X160238073Y-93381907D01*
X160271446Y-93371372D01*
X160305850Y-93362458D01*
X160341284Y-93355165D01*
X160365480Y-93351203D01*
X160390133Y-93347962D01*
X160415244Y-93345441D01*
X160440813Y-93343640D01*
X160466840Y-93342559D01*
X160493325Y-93342199D01*
X160523646Y-93342671D01*
X160553394Y-93344088D01*
X160582569Y-93346449D01*
X160611173Y-93349755D01*
X160639203Y-93354006D01*
X160666661Y-93359201D01*
X160693547Y-93365340D01*
X160719861Y-93372424D01*
X160745602Y-93380453D01*
X160770770Y-93389426D01*
X160795366Y-93399343D01*
X160819390Y-93410205D01*
X160842841Y-93422012D01*
X160865719Y-93434763D01*
X160888026Y-93448459D01*
X160909759Y-93463099D01*
X160930782Y-93478429D01*
X160950956Y-93494345D01*
X160970281Y-93510848D01*
X160988757Y-93527938D01*
X161006383Y-93545615D01*
X161023161Y-93563878D01*
X161039089Y-93582728D01*
X161054168Y-93602165D01*
X161068398Y-93622189D01*
X161081779Y-93642799D01*
X161094311Y-93663996D01*
X161105993Y-93685780D01*
X161116827Y-93708151D01*
X161126811Y-93731108D01*
X161135946Y-93754652D01*
X161144233Y-93778783D01*
X161151848Y-93803792D01*
X161158973Y-93830122D01*
X161165606Y-93857773D01*
X161171748Y-93886746D01*
X161177399Y-93917040D01*
X161182558Y-93948656D01*
X161187226Y-93981593D01*
X161191402Y-94015851D01*
X161195087Y-94051431D01*
X161198281Y-94088332D01*
X161200983Y-94126555D01*
X161203194Y-94166099D01*
X161204914Y-94206964D01*
X161206142Y-94249151D01*
X161206879Y-94292659D01*
X161207125Y-94337489D01*
X161207125Y-95653347D01*
X158667000Y-95653347D01*
X158667000Y-94833302D01*
X159683050Y-94833302D01*
X160191075Y-94833302D01*
X160660021Y-94833302D01*
X160660021Y-94510901D01*
X160659963Y-94498172D01*
X160659086Y-94461566D01*
X160657158Y-94427332D01*
X160654177Y-94395470D01*
X160650145Y-94365980D01*
X160645061Y-94338863D01*
X160638925Y-94314117D01*
X160629108Y-94284812D01*
X160617421Y-94259725D01*
X160600182Y-94234296D01*
X160580391Y-94213715D01*
X160558035Y-94196622D01*
X160533116Y-94183018D01*
X160505633Y-94172901D01*
X160481800Y-94167320D01*
X160456326Y-94163971D01*
X160429212Y-94162855D01*
X160419890Y-94163029D01*
X160392728Y-94165641D01*
X160366768Y-94171387D01*
X160342009Y-94180267D01*
X160318453Y-94192281D01*
X160296099Y-94207429D01*
X160289094Y-94213104D01*
X160270110Y-94231358D01*
X160254175Y-94251457D01*
X160241288Y-94273404D01*
X160231449Y-94297196D01*
X160224658Y-94322834D01*
X160222592Y-94332163D01*
X160216787Y-94358984D01*
X160211573Y-94384055D01*
X160205538Y-94414762D01*
X160200553Y-94442359D01*
X160195798Y-94472481D01*
X160192682Y-94497743D01*
X160191075Y-94524945D01*
X160191075Y-94833302D01*
X159683050Y-94833302D01*
X159683050Y-94783842D01*
X159682837Y-94771406D01*
X159680449Y-94741025D01*
X159675408Y-94711657D01*
X159667712Y-94683303D01*
X159657364Y-94655963D01*
X159644361Y-94629637D01*
X159628706Y-94604324D01*
X159623041Y-94597071D01*
X159605394Y-94578249D01*
X159582767Y-94558443D01*
X159561081Y-94541889D01*
X159536208Y-94524707D01*
X159515463Y-94511406D01*
X159492924Y-94497752D01*
X159468594Y-94483743D01*
X159442471Y-94469380D01*
X158667000Y-94048672D01*
X158667000Y-93125434D01*
X159414383Y-93516222D01*
G37*
G36*
X161207125Y-91369327D02*
G01*
X161207125Y-92244938D01*
X158667000Y-93205423D01*
X158667000Y-92367670D01*
X159096867Y-92245549D01*
X159096867Y-91564111D01*
X159683050Y-91564111D01*
X159683050Y-92065420D01*
X160483556Y-91815681D01*
X159683050Y-91564111D01*
X159096867Y-91564111D01*
X159096867Y-91388867D01*
X158667000Y-91265524D01*
X158667000Y-90408842D01*
X161207125Y-91369327D01*
G37*
G36*
X159727013Y-88572747D02*
G01*
X159518796Y-87853452D01*
X159480994Y-87862988D01*
X159444064Y-87873125D01*
X159408007Y-87883863D01*
X159372823Y-87895202D01*
X159338512Y-87907142D01*
X159305074Y-87919683D01*
X159272509Y-87932826D01*
X159240818Y-87946569D01*
X159209999Y-87960914D01*
X159180053Y-87975859D01*
X159150980Y-87991406D01*
X159122780Y-88007554D01*
X159095452Y-88024302D01*
X159068998Y-88041652D01*
X159043417Y-88059603D01*
X159018709Y-88078155D01*
X158994884Y-88097215D01*
X158971797Y-88116843D01*
X158949451Y-88137038D01*
X158927843Y-88157801D01*
X158906975Y-88179132D01*
X158886847Y-88201030D01*
X158867458Y-88223496D01*
X158848808Y-88246530D01*
X158830897Y-88270131D01*
X158813726Y-88294300D01*
X158797295Y-88319037D01*
X158781603Y-88344342D01*
X158766650Y-88370214D01*
X158752437Y-88396654D01*
X158738963Y-88423661D01*
X158726228Y-88451236D01*
X158714324Y-88479563D01*
X158703188Y-88508824D01*
X158692819Y-88539020D01*
X158683219Y-88570152D01*
X158674386Y-88602218D01*
X158666322Y-88635220D01*
X158659026Y-88669156D01*
X158652498Y-88704027D01*
X158646737Y-88739834D01*
X158641745Y-88776575D01*
X158637521Y-88814252D01*
X158634065Y-88852863D01*
X158631377Y-88892409D01*
X158629457Y-88932891D01*
X158628305Y-88974307D01*
X158627921Y-89016658D01*
X158628038Y-89042425D01*
X158628391Y-89067899D01*
X158628978Y-89093081D01*
X158629800Y-89117971D01*
X158630857Y-89142569D01*
X158633677Y-89190888D01*
X158637436Y-89238039D01*
X158642135Y-89284020D01*
X158647773Y-89328833D01*
X158654351Y-89372477D01*
X158661870Y-89414952D01*
X158670327Y-89456259D01*
X158679725Y-89496397D01*
X158690062Y-89535366D01*
X158701340Y-89573166D01*
X158713557Y-89609798D01*
X158726713Y-89645261D01*
X158740810Y-89679555D01*
X158748210Y-89696264D01*
X158763957Y-89729032D01*
X158781126Y-89761236D01*
X158799716Y-89792878D01*
X158819728Y-89823957D01*
X158841161Y-89854473D01*
X158864016Y-89884426D01*
X158888292Y-89913817D01*
X158913990Y-89942644D01*
X158941110Y-89970908D01*
X158969651Y-89998610D01*
X158999613Y-90025749D01*
X159030998Y-90052324D01*
X159063803Y-90078337D01*
X159098031Y-90103787D01*
X159133680Y-90128674D01*
X159170750Y-90152998D01*
X159209259Y-90176215D01*
X159249070Y-90197935D01*
X159290184Y-90218157D01*
X159332599Y-90236880D01*
X159376317Y-90254106D01*
X159421338Y-90269834D01*
X159467660Y-90284064D01*
X159491310Y-90290617D01*
X159515285Y-90296796D01*
X159539586Y-90302600D01*
X159564213Y-90308030D01*
X159589165Y-90313086D01*
X159614442Y-90317767D01*
X159640045Y-90322073D01*
X159665974Y-90326005D01*
X159692229Y-90329563D01*
X159718808Y-90332746D01*
X159745714Y-90335554D01*
X159772945Y-90337988D01*
X159800502Y-90340048D01*
X159828384Y-90341733D01*
X159856592Y-90343044D01*
X159885125Y-90343980D01*
X159913984Y-90344542D01*
X159943168Y-90344729D01*
X159982042Y-90344399D01*
X160020353Y-90343410D01*
X160058101Y-90341761D01*
X160095286Y-90339453D01*
X160131908Y-90336485D01*
X160167967Y-90332858D01*
X160203464Y-90328571D01*
X160238397Y-90323625D01*
X160272767Y-90318019D01*
X160306575Y-90311754D01*
X160339820Y-90304829D01*
X160372502Y-90297244D01*
X160404620Y-90289001D01*
X160436176Y-90280097D01*
X160467169Y-90270535D01*
X160497600Y-90260312D01*
X160527467Y-90249430D01*
X160556771Y-90237889D01*
X160585513Y-90225688D01*
X160613691Y-90212828D01*
X160641307Y-90199308D01*
X160668360Y-90185129D01*
X160694850Y-90170290D01*
X160720777Y-90154792D01*
X160746141Y-90138634D01*
X160770942Y-90121817D01*
X160795180Y-90104340D01*
X160818855Y-90086203D01*
X160841968Y-90067408D01*
X160864517Y-90047952D01*
X160886504Y-90027837D01*
X160907928Y-90007063D01*
X160928740Y-89985649D01*
X160948891Y-89963693D01*
X160968381Y-89941194D01*
X160987211Y-89918153D01*
X161005380Y-89894569D01*
X161022889Y-89870442D01*
X161039736Y-89845773D01*
X161055924Y-89820561D01*
X161071450Y-89794806D01*
X161086316Y-89768509D01*
X161100521Y-89741669D01*
X161114065Y-89714286D01*
X161126948Y-89686361D01*
X161139171Y-89657894D01*
X161150733Y-89628883D01*
X161161635Y-89599330D01*
X161171876Y-89569234D01*
X161181456Y-89538596D01*
X161190375Y-89507415D01*
X161198634Y-89475692D01*
X161206232Y-89443426D01*
X161213169Y-89410617D01*
X161219446Y-89377265D01*
X161225062Y-89343371D01*
X161230017Y-89308935D01*
X161234311Y-89273955D01*
X161237945Y-89238433D01*
X161240918Y-89202369D01*
X161243231Y-89165761D01*
X161244883Y-89128612D01*
X161245874Y-89090919D01*
X161246204Y-89052684D01*
X161246012Y-89022773D01*
X161245436Y-88993262D01*
X161244476Y-88964150D01*
X161243132Y-88935438D01*
X161241404Y-88907125D01*
X161239292Y-88879212D01*
X161236796Y-88851698D01*
X161233915Y-88824584D01*
X161230651Y-88797869D01*
X161227003Y-88771554D01*
X161222971Y-88745639D01*
X161218555Y-88720123D01*
X161213755Y-88695006D01*
X161208571Y-88670289D01*
X161203002Y-88645971D01*
X161197050Y-88622053D01*
X161183994Y-88575416D01*
X161169401Y-88530376D01*
X161153272Y-88486935D01*
X161135608Y-88445092D01*
X161116407Y-88404847D01*
X161095670Y-88366199D01*
X161073397Y-88329150D01*
X161049588Y-88293699D01*
X161024112Y-88259577D01*
X160996838Y-88226514D01*
X160967765Y-88194509D01*
X160936893Y-88163564D01*
X160904223Y-88133677D01*
X160869755Y-88104850D01*
X160833488Y-88077082D01*
X160795423Y-88050372D01*
X160755560Y-88024722D01*
X160713898Y-88000131D01*
X160692392Y-87988232D01*
X160670437Y-87976599D01*
X160648033Y-87965230D01*
X160625178Y-87954126D01*
X160601875Y-87943286D01*
X160578121Y-87932711D01*
X160553918Y-87922401D01*
X160529265Y-87912356D01*
X160504163Y-87902576D01*
X160478611Y-87893060D01*
X160452610Y-87883809D01*
X160426159Y-87874823D01*
X160265569Y-88600835D01*
X160288930Y-88608370D01*
X160317958Y-88618349D01*
X160344562Y-88628253D01*
X160368743Y-88638079D01*
X160395561Y-88650256D01*
X160418593Y-88662313D01*
X160441234Y-88676624D01*
X160444477Y-88678993D01*
X160465085Y-88695002D01*
X160484472Y-88711889D01*
X160502637Y-88729654D01*
X160519581Y-88748296D01*
X160535305Y-88767817D01*
X160549807Y-88788215D01*
X160563087Y-88809491D01*
X160575147Y-88831644D01*
X160585880Y-88854571D01*
X160595182Y-88878165D01*
X160603053Y-88902427D01*
X160609493Y-88927357D01*
X160614502Y-88952955D01*
X160618080Y-88979220D01*
X160620227Y-89006154D01*
X160620942Y-89033755D01*
X160620162Y-89065044D01*
X160617822Y-89095407D01*
X160613923Y-89124845D01*
X160608463Y-89153358D01*
X160601443Y-89180945D01*
X160592864Y-89207607D01*
X160582724Y-89233343D01*
X160571025Y-89258153D01*
X160557766Y-89282039D01*
X160542947Y-89304998D01*
X160526568Y-89327033D01*
X160508629Y-89348142D01*
X160489130Y-89368325D01*
X160468071Y-89387583D01*
X160445452Y-89405916D01*
X160421274Y-89423323D01*
X160391684Y-89441655D01*
X160359013Y-89458184D01*
X160335522Y-89468202D01*
X160310661Y-89477419D01*
X160284431Y-89485834D01*
X160256832Y-89493447D01*
X160227864Y-89500259D01*
X160197527Y-89506270D01*
X160165821Y-89511479D01*
X160132745Y-89515887D01*
X160098301Y-89519493D01*
X160062487Y-89522298D01*
X160025305Y-89524302D01*
X159986753Y-89525504D01*
X159946832Y-89525905D01*
X159921971Y-89525786D01*
X159873747Y-89524837D01*
X159827522Y-89522938D01*
X159783296Y-89520090D01*
X159741069Y-89516293D01*
X159700840Y-89511546D01*
X159662611Y-89505851D01*
X159626380Y-89499205D01*
X159592147Y-89491611D01*
X159559914Y-89483067D01*
X159529679Y-89473574D01*
X159501444Y-89463132D01*
X159475207Y-89451740D01*
X159450968Y-89439399D01*
X159428729Y-89426109D01*
X159408488Y-89411870D01*
X159399117Y-89404394D01*
X159373037Y-89380627D01*
X159349522Y-89355121D01*
X159328573Y-89327876D01*
X159310188Y-89298892D01*
X159294369Y-89268170D01*
X159281115Y-89235709D01*
X159270427Y-89201509D01*
X159264726Y-89177743D01*
X159260166Y-89153204D01*
X159256745Y-89127893D01*
X159254465Y-89101808D01*
X159253325Y-89074951D01*
X159253182Y-89061233D01*
X159253631Y-89034779D01*
X159254976Y-89009150D01*
X159257218Y-88984346D01*
X159262263Y-88948688D01*
X159269325Y-88914887D01*
X159278406Y-88882943D01*
X159289504Y-88852856D01*
X159302620Y-88824625D01*
X159317754Y-88798252D01*
X159334906Y-88773735D01*
X159354076Y-88751075D01*
X159367976Y-88737000D01*
X159390742Y-88716881D01*
X159415761Y-88697738D01*
X159443035Y-88679572D01*
X159472562Y-88662382D01*
X159504343Y-88646169D01*
X159526783Y-88635904D01*
X159550225Y-88626072D01*
X159574668Y-88616674D01*
X159600113Y-88607711D01*
X159626560Y-88599181D01*
X159654009Y-88591086D01*
X159682459Y-88583425D01*
X159711912Y-88576198D01*
X159727013Y-88572747D01*
G37*
G36*
X161207125Y-87564635D02*
G01*
X161207125Y-86747642D01*
X159331340Y-86747642D01*
X159331340Y-85533755D01*
X158667000Y-85533755D01*
X158667000Y-87564635D01*
X161207125Y-87564635D01*
G37*
G36*
X161207125Y-85233947D02*
G01*
X161207125Y-83110256D01*
X160581863Y-83110256D01*
X160581863Y-84415123D01*
X160269233Y-84415123D01*
X160269233Y-83204289D01*
X159722129Y-83204289D01*
X159722129Y-84415123D01*
X159292261Y-84415123D01*
X159292261Y-83072398D01*
X158667000Y-83072398D01*
X158667000Y-85233947D01*
X161207125Y-85233947D01*
G37*
G36*
X159557265Y-75839146D02*
G01*
X159606113Y-75060622D01*
X159570618Y-75055422D01*
X159536948Y-75049438D01*
X159505102Y-75042670D01*
X159475081Y-75035120D01*
X159446884Y-75026785D01*
X159420513Y-75017667D01*
X159395965Y-75007766D01*
X159373243Y-74997081D01*
X159345785Y-74981615D01*
X159321570Y-74964757D01*
X159295381Y-74942363D01*
X159271768Y-74918231D01*
X159250730Y-74892360D01*
X159232269Y-74864751D01*
X159216384Y-74835402D01*
X159203074Y-74804315D01*
X159192341Y-74771489D01*
X159184184Y-74736924D01*
X159178602Y-74700620D01*
X159176313Y-74675452D01*
X159175168Y-74649510D01*
X159175025Y-74636250D01*
X159175647Y-74607034D01*
X159177515Y-74579149D01*
X159180627Y-74552594D01*
X159184985Y-74527371D01*
X159190588Y-74503479D01*
X159199995Y-74473693D01*
X159211616Y-74446272D01*
X159225450Y-74421219D01*
X159241497Y-74398531D01*
X159245855Y-74393228D01*
X159264030Y-74373479D01*
X159282835Y-74356363D01*
X159307226Y-74338671D01*
X159332602Y-74325093D01*
X159358961Y-74315630D01*
X159386304Y-74310281D01*
X159408887Y-74308965D01*
X159435565Y-74310903D01*
X159461409Y-74316716D01*
X159486418Y-74326406D01*
X159510591Y-74339972D01*
X159533930Y-74357414D01*
X159552001Y-74374158D01*
X159565203Y-74388344D01*
X159583130Y-74412329D01*
X159596462Y-74434951D01*
X159609698Y-74461545D01*
X159622838Y-74492110D01*
X159635880Y-74526646D01*
X159644522Y-74551877D01*
X159653120Y-74578872D01*
X159661676Y-74607633D01*
X159670189Y-74638158D01*
X159678659Y-74670449D01*
X159687085Y-74704504D01*
X159695469Y-74740325D01*
X159703810Y-74777911D01*
X159710947Y-74809909D01*
X159718236Y-74841333D01*
X159725678Y-74872182D01*
X159733272Y-74902456D01*
X159741019Y-74932155D01*
X159748919Y-74961279D01*
X159756971Y-74989829D01*
X159765176Y-75017803D01*
X159773534Y-75045203D01*
X159782044Y-75072028D01*
X159790707Y-75098278D01*
X159799523Y-75123953D01*
X159808491Y-75149054D01*
X159817612Y-75173580D01*
X159826886Y-75197530D01*
X159836312Y-75220906D01*
X159845891Y-75243708D01*
X159865507Y-75287585D01*
X159885733Y-75329164D01*
X159906570Y-75368443D01*
X159928018Y-75405423D01*
X159950076Y-75440104D01*
X159972745Y-75472485D01*
X159996024Y-75502567D01*
X160007893Y-75516745D01*
X160032503Y-75544177D01*
X160057943Y-75569840D01*
X160084214Y-75593732D01*
X160111314Y-75615855D01*
X160139245Y-75636207D01*
X160168005Y-75654790D01*
X160197596Y-75671604D01*
X160228017Y-75686647D01*
X160259267Y-75699920D01*
X160291348Y-75711424D01*
X160324259Y-75721158D01*
X160358000Y-75729122D01*
X160392570Y-75735317D01*
X160427971Y-75739741D01*
X160464202Y-75742396D01*
X160501263Y-75743281D01*
X160525828Y-75742830D01*
X160550217Y-75741478D01*
X160586469Y-75737758D01*
X160622323Y-75732011D01*
X160657781Y-75724234D01*
X160692841Y-75714430D01*
X160727505Y-75702596D01*
X160750393Y-75693580D01*
X160773104Y-75683662D01*
X160795640Y-75672843D01*
X160817998Y-75661122D01*
X160840181Y-75648500D01*
X160862186Y-75634976D01*
X160873123Y-75627876D01*
X160894730Y-75612928D01*
X160915741Y-75597088D01*
X160936156Y-75580356D01*
X160955975Y-75562732D01*
X160975197Y-75544216D01*
X160993823Y-75524807D01*
X161011852Y-75504507D01*
X161029286Y-75483315D01*
X161046123Y-75461230D01*
X161062364Y-75438254D01*
X161078008Y-75414385D01*
X161093056Y-75389625D01*
X161107508Y-75363972D01*
X161121363Y-75337427D01*
X161134623Y-75309991D01*
X161147286Y-75281662D01*
X161159264Y-75252233D01*
X161170470Y-75221498D01*
X161180902Y-75189455D01*
X161190562Y-75156106D01*
X161199450Y-75121449D01*
X161207564Y-75085485D01*
X161214906Y-75048214D01*
X161221474Y-75009636D01*
X161227270Y-74969751D01*
X161232294Y-74928559D01*
X161236544Y-74886060D01*
X161240022Y-74842254D01*
X161242726Y-74797140D01*
X161244658Y-74750720D01*
X161245818Y-74702992D01*
X161246204Y-74653958D01*
X161246027Y-74623614D01*
X161245496Y-74593720D01*
X161244610Y-74564275D01*
X161243370Y-74535280D01*
X161241776Y-74506735D01*
X161239828Y-74478639D01*
X161237526Y-74450993D01*
X161234870Y-74423797D01*
X161231859Y-74397050D01*
X161228494Y-74370753D01*
X161224775Y-74344905D01*
X161220702Y-74319507D01*
X161216274Y-74294559D01*
X161211492Y-74270060D01*
X161206356Y-74246011D01*
X161195022Y-74199261D01*
X161182271Y-74154310D01*
X161168103Y-74111157D01*
X161152518Y-74069803D01*
X161135517Y-74030247D01*
X161117098Y-73992489D01*
X161097263Y-73956530D01*
X161076011Y-73922370D01*
X161064854Y-73905964D01*
X161041271Y-73874336D01*
X161015862Y-73844331D01*
X160988626Y-73815947D01*
X160959562Y-73789185D01*
X160928672Y-73764045D01*
X160895954Y-73740528D01*
X160861409Y-73718632D01*
X160825038Y-73698357D01*
X160786839Y-73679705D01*
X160746813Y-73662675D01*
X160704960Y-73647267D01*
X160661281Y-73633480D01*
X160615774Y-73621316D01*
X160568440Y-73610774D01*
X160544087Y-73606110D01*
X160519279Y-73601853D01*
X160494013Y-73598001D01*
X160468290Y-73594554D01*
X160424327Y-74366362D01*
X160455935Y-74372591D01*
X160485729Y-74379828D01*
X160513709Y-74388075D01*
X160539875Y-74397331D01*
X160564227Y-74407596D01*
X160586765Y-74418869D01*
X160613994Y-74435470D01*
X160637999Y-74453865D01*
X160658778Y-74474053D01*
X160667959Y-74484819D01*
X160684417Y-74507898D01*
X160698680Y-74533172D01*
X160710749Y-74560640D01*
X160720624Y-74590302D01*
X160726590Y-74613989D01*
X160731321Y-74638910D01*
X160734819Y-74665065D01*
X160737082Y-74692455D01*
X160738110Y-74721078D01*
X160738179Y-74730894D01*
X160737377Y-74762064D01*
X160734973Y-74791153D01*
X160730966Y-74818163D01*
X160725356Y-74843093D01*
X160716090Y-74871331D01*
X160704319Y-74896319D01*
X160690043Y-74918057D01*
X160686888Y-74922014D01*
X160667153Y-74943180D01*
X160645958Y-74959967D01*
X160623304Y-74972375D01*
X160599189Y-74980403D01*
X160573615Y-74984053D01*
X160564766Y-74984296D01*
X160540533Y-74981167D01*
X160517292Y-74971779D01*
X160495043Y-74956132D01*
X160476389Y-74937307D01*
X160473786Y-74934226D01*
X160456970Y-74909754D01*
X160445903Y-74887620D01*
X160434950Y-74860829D01*
X160426811Y-74837681D01*
X160418736Y-74811914D01*
X160410725Y-74783528D01*
X160402779Y-74752523D01*
X160394897Y-74718899D01*
X160389678Y-74695028D01*
X160387080Y-74682656D01*
X160380357Y-74650881D01*
X160373623Y-74619671D01*
X160366876Y-74589024D01*
X160360118Y-74558941D01*
X160353347Y-74529423D01*
X160346565Y-74500469D01*
X160339771Y-74472078D01*
X160332965Y-74444252D01*
X160326147Y-74416990D01*
X160319317Y-74390292D01*
X160312475Y-74364158D01*
X160305621Y-74338589D01*
X160298755Y-74313583D01*
X160291878Y-74289141D01*
X160284988Y-74265264D01*
X160271173Y-74219201D01*
X160257310Y-74175395D01*
X160243400Y-74133845D01*
X160229442Y-74094551D01*
X160215436Y-74057514D01*
X160201382Y-74022734D01*
X160187281Y-73990209D01*
X160173132Y-73959941D01*
X160166040Y-73945653D01*
X160151624Y-73918040D01*
X160136769Y-73891376D01*
X160121475Y-73865661D01*
X160105743Y-73840896D01*
X160089571Y-73817080D01*
X160072961Y-73794213D01*
X160055911Y-73772296D01*
X160038423Y-73751328D01*
X160020496Y-73731309D01*
X160002130Y-73712239D01*
X159983325Y-73694119D01*
X159964082Y-73676948D01*
X159944399Y-73660726D01*
X159924278Y-73645454D01*
X159903717Y-73631131D01*
X159882718Y-73617757D01*
X159861342Y-73605261D01*
X159839651Y-73593572D01*
X159817646Y-73582688D01*
X159795325Y-73572611D01*
X159772690Y-73563339D01*
X159749739Y-73554874D01*
X159726474Y-73547216D01*
X159702894Y-73540363D01*
X159679000Y-73534316D01*
X159654790Y-73529076D01*
X159630266Y-73524642D01*
X159605426Y-73521014D01*
X159580272Y-73518193D01*
X159554803Y-73516177D01*
X159529019Y-73514968D01*
X159502921Y-73514565D01*
X159472309Y-73515101D01*
X159441994Y-73516711D01*
X159411974Y-73519395D01*
X159382249Y-73523151D01*
X159352821Y-73527981D01*
X159323688Y-73533885D01*
X159294851Y-73540861D01*
X159266310Y-73548911D01*
X159238065Y-73558035D01*
X159210115Y-73568231D01*
X159182462Y-73579501D01*
X159155104Y-73591845D01*
X159128041Y-73605261D01*
X159101275Y-73619751D01*
X159074804Y-73635315D01*
X159048629Y-73651951D01*
X159023072Y-73669544D01*
X158998302Y-73687977D01*
X158974319Y-73707249D01*
X158951123Y-73727361D01*
X158928714Y-73748313D01*
X158907092Y-73770104D01*
X158886258Y-73792734D01*
X158866210Y-73816205D01*
X158846950Y-73840514D01*
X158828476Y-73865664D01*
X158810790Y-73891653D01*
X158793891Y-73918481D01*
X158777779Y-73946149D01*
X158762455Y-73974657D01*
X158747917Y-74004005D01*
X158734166Y-74034191D01*
X158721301Y-74065213D01*
X158709265Y-74097218D01*
X158698059Y-74130205D01*
X158687684Y-74164174D01*
X158678138Y-74199127D01*
X158669423Y-74235062D01*
X158661537Y-74271980D01*
X158654482Y-74309881D01*
X158648257Y-74348764D01*
X158642861Y-74388630D01*
X158638296Y-74429478D01*
X158634561Y-74471310D01*
X158631656Y-74514124D01*
X158629581Y-74557921D01*
X158628336Y-74602700D01*
X158627921Y-74648462D01*
X158628172Y-74688718D01*
X158628925Y-74728196D01*
X158630180Y-74766899D01*
X158631937Y-74804825D01*
X158634197Y-74841975D01*
X158636958Y-74878349D01*
X158640222Y-74913946D01*
X158643987Y-74948766D01*
X158648255Y-74982811D01*
X158653025Y-75016079D01*
X158658297Y-75048570D01*
X158664070Y-75080285D01*
X158670347Y-75111224D01*
X158677125Y-75141387D01*
X158684405Y-75170773D01*
X158692187Y-75199382D01*
X158700471Y-75227216D01*
X158709258Y-75254273D01*
X158718546Y-75280553D01*
X158728337Y-75306057D01*
X158738630Y-75330785D01*
X158749424Y-75354737D01*
X158760721Y-75377912D01*
X158772520Y-75400310D01*
X158784821Y-75421933D01*
X158797624Y-75442779D01*
X158824736Y-75482141D01*
X158853857Y-75518398D01*
X158884986Y-75551550D01*
X158917737Y-75582298D01*
X158951724Y-75611342D01*
X158986946Y-75638683D01*
X159023403Y-75664322D01*
X159061096Y-75688257D01*
X159100025Y-75710489D01*
X159140189Y-75731018D01*
X159181589Y-75749845D01*
X159224224Y-75766968D01*
X159268095Y-75782388D01*
X159313201Y-75796105D01*
X159359542Y-75808120D01*
X159407120Y-75818431D01*
X159431372Y-75822948D01*
X159455933Y-75827039D01*
X159480802Y-75830704D01*
X159505981Y-75833944D01*
X159531468Y-75836758D01*
X159557265Y-75839146D01*
G37*
G36*
X161207125Y-73447398D02*
G01*
X161207125Y-72536372D01*
X160396239Y-72038727D01*
X161207125Y-71541693D01*
X161207125Y-70634942D01*
X159728235Y-71631452D01*
X158667000Y-71631452D01*
X158667000Y-72449666D01*
X159728235Y-72449666D01*
X161207125Y-73447398D01*
G37*
G36*
X159557265Y-70666083D02*
G01*
X159606113Y-69887558D01*
X159570618Y-69882358D01*
X159536948Y-69876374D01*
X159505102Y-69869607D01*
X159475081Y-69862056D01*
X159446884Y-69853722D01*
X159420513Y-69844604D01*
X159395965Y-69834702D01*
X159373243Y-69824017D01*
X159345785Y-69808552D01*
X159321570Y-69791693D01*
X159295381Y-69769300D01*
X159271768Y-69745168D01*
X159250730Y-69719297D01*
X159232269Y-69691687D01*
X159216384Y-69662339D01*
X159203074Y-69631251D01*
X159192341Y-69598425D01*
X159184184Y-69563860D01*
X159178602Y-69527557D01*
X159176313Y-69502388D01*
X159175168Y-69476447D01*
X159175025Y-69463187D01*
X159175647Y-69433970D01*
X159177515Y-69406085D01*
X159180627Y-69379531D01*
X159184985Y-69354308D01*
X159190588Y-69330415D01*
X159199995Y-69300629D01*
X159211616Y-69273209D01*
X159225450Y-69248155D01*
X159241497Y-69225467D01*
X159245855Y-69220165D01*
X159264030Y-69200416D01*
X159282835Y-69183299D01*
X159307226Y-69165607D01*
X159332602Y-69152030D01*
X159358961Y-69142567D01*
X159386304Y-69137218D01*
X159408887Y-69135901D01*
X159435565Y-69137839D01*
X159461409Y-69143653D01*
X159486418Y-69153343D01*
X159510591Y-69166908D01*
X159533930Y-69184350D01*
X159552001Y-69201094D01*
X159565203Y-69215280D01*
X159583130Y-69239265D01*
X159596462Y-69261888D01*
X159609698Y-69288481D01*
X159622838Y-69319046D01*
X159635880Y-69353583D01*
X159644522Y-69378813D01*
X159653120Y-69405809D01*
X159661676Y-69434569D01*
X159670189Y-69465095D01*
X159678659Y-69497385D01*
X159687085Y-69531441D01*
X159695469Y-69567262D01*
X159703810Y-69604847D01*
X159710947Y-69636846D01*
X159718236Y-69668269D01*
X159725678Y-69699118D01*
X159733272Y-69729392D01*
X159741019Y-69759091D01*
X159748919Y-69788216D01*
X159756971Y-69816765D01*
X159765176Y-69844740D01*
X159773534Y-69872139D01*
X159782044Y-69898964D01*
X159790707Y-69925215D01*
X159799523Y-69950890D01*
X159808491Y-69975990D01*
X159817612Y-70000516D01*
X159826886Y-70024467D01*
X159836312Y-70047843D01*
X159845891Y-70070644D01*
X159865507Y-70114522D01*
X159885733Y-70156100D01*
X159906570Y-70195380D01*
X159928018Y-70232359D01*
X159950076Y-70267040D01*
X159972745Y-70299421D01*
X159996024Y-70329503D01*
X160007893Y-70343682D01*
X160032503Y-70371114D01*
X160057943Y-70396776D01*
X160084214Y-70420669D01*
X160111314Y-70442791D01*
X160139245Y-70463144D01*
X160168005Y-70481727D01*
X160197596Y-70498540D01*
X160228017Y-70513583D01*
X160259267Y-70526857D01*
X160291348Y-70538361D01*
X160324259Y-70548095D01*
X160358000Y-70556059D01*
X160392570Y-70562253D01*
X160427971Y-70566678D01*
X160464202Y-70569332D01*
X160501263Y-70570217D01*
X160525828Y-70569766D01*
X160550217Y-70568414D01*
X160586469Y-70564695D01*
X160622323Y-70558947D01*
X160657781Y-70551171D01*
X160692841Y-70541366D01*
X160727505Y-70529533D01*
X160750393Y-70520517D01*
X160773104Y-70510599D01*
X160795640Y-70499780D01*
X160817998Y-70488059D01*
X160840181Y-70475437D01*
X160862186Y-70461913D01*
X160873123Y-70454812D01*
X160894730Y-70439865D01*
X160915741Y-70424025D01*
X160936156Y-70407292D01*
X160955975Y-70389668D01*
X160975197Y-70371152D01*
X160993823Y-70351744D01*
X161011852Y-70331444D01*
X161029286Y-70310251D01*
X161046123Y-70288167D01*
X161062364Y-70265190D01*
X161078008Y-70241322D01*
X161093056Y-70216561D01*
X161107508Y-70190909D01*
X161121363Y-70164364D01*
X161134623Y-70136927D01*
X161147286Y-70108598D01*
X161159264Y-70079170D01*
X161170470Y-70048434D01*
X161180902Y-70016392D01*
X161190562Y-69983042D01*
X161199450Y-69948385D01*
X161207564Y-69912422D01*
X161214906Y-69875151D01*
X161221474Y-69836573D01*
X161227270Y-69796688D01*
X161232294Y-69755496D01*
X161236544Y-69712996D01*
X161240022Y-69669190D01*
X161242726Y-69624077D01*
X161244658Y-69577656D01*
X161245818Y-69529929D01*
X161246204Y-69480894D01*
X161246027Y-69450550D01*
X161245496Y-69420656D01*
X161244610Y-69391212D01*
X161243370Y-69362217D01*
X161241776Y-69333672D01*
X161239828Y-69305576D01*
X161237526Y-69277930D01*
X161234870Y-69250733D01*
X161231859Y-69223987D01*
X161228494Y-69197689D01*
X161224775Y-69171842D01*
X161220702Y-69146444D01*
X161216274Y-69121495D01*
X161211492Y-69096996D01*
X161206356Y-69072947D01*
X161195022Y-69026198D01*
X161182271Y-68981246D01*
X161168103Y-68938094D01*
X161152518Y-68896739D01*
X161135517Y-68857183D01*
X161117098Y-68819426D01*
X161097263Y-68783467D01*
X161076011Y-68749306D01*
X161064854Y-68732900D01*
X161041271Y-68701273D01*
X161015862Y-68671267D01*
X160988626Y-68642884D01*
X160959562Y-68616122D01*
X160928672Y-68590982D01*
X160895954Y-68567464D01*
X160861409Y-68545568D01*
X160825038Y-68525294D01*
X160786839Y-68506642D01*
X160746813Y-68489612D01*
X160704960Y-68474203D01*
X160661281Y-68460417D01*
X160615774Y-68448253D01*
X160568440Y-68437710D01*
X160544087Y-68433047D01*
X160519279Y-68428789D01*
X160494013Y-68424937D01*
X160468290Y-68421491D01*
X160424327Y-69193298D01*
X160455935Y-69199527D01*
X160485729Y-69206765D01*
X160513709Y-69215012D01*
X160539875Y-69224267D01*
X160564227Y-69234532D01*
X160586765Y-69245806D01*
X160613994Y-69262406D01*
X160637999Y-69280801D01*
X160658778Y-69300989D01*
X160667959Y-69311756D01*
X160684417Y-69334835D01*
X160698680Y-69360108D01*
X160710749Y-69387576D01*
X160720624Y-69417238D01*
X160726590Y-69440925D01*
X160731321Y-69465846D01*
X160734819Y-69492001D01*
X160737082Y-69519391D01*
X160738110Y-69548015D01*
X160738179Y-69557831D01*
X160737377Y-69589000D01*
X160734973Y-69618090D01*
X160730966Y-69645100D01*
X160725356Y-69670030D01*
X160716090Y-69698267D01*
X160704319Y-69723255D01*
X160690043Y-69744993D01*
X160686888Y-69748951D01*
X160667153Y-69770117D01*
X160645958Y-69786904D01*
X160623304Y-69799311D01*
X160599189Y-69807340D01*
X160573615Y-69810989D01*
X160564766Y-69811233D01*
X160540533Y-69808103D01*
X160517292Y-69798715D01*
X160495043Y-69783068D01*
X160476389Y-69764243D01*
X160473786Y-69761163D01*
X160456970Y-69736691D01*
X160445903Y-69714556D01*
X160434950Y-69687766D01*
X160426811Y-69664618D01*
X160418736Y-69638851D01*
X160410725Y-69610464D01*
X160402779Y-69579459D01*
X160394897Y-69545836D01*
X160389678Y-69521965D01*
X160387080Y-69509593D01*
X160380357Y-69477818D01*
X160373623Y-69446607D01*
X160366876Y-69415960D01*
X160360118Y-69385878D01*
X160353347Y-69356359D01*
X160346565Y-69327405D01*
X160339771Y-69299015D01*
X160332965Y-69271189D01*
X160326147Y-69243927D01*
X160319317Y-69217229D01*
X160312475Y-69191095D01*
X160305621Y-69165525D01*
X160298755Y-69140519D01*
X160291878Y-69116078D01*
X160284988Y-69092200D01*
X160271173Y-69046138D01*
X160257310Y-69002331D01*
X160243400Y-68960781D01*
X160229442Y-68921488D01*
X160215436Y-68884451D01*
X160201382Y-68849670D01*
X160187281Y-68817146D01*
X160173132Y-68786878D01*
X160166040Y-68772590D01*
X160151624Y-68744977D01*
X160136769Y-68718313D01*
X160121475Y-68692598D01*
X160105743Y-68667833D01*
X160089571Y-68644017D01*
X160072961Y-68621150D01*
X160055911Y-68599232D01*
X160038423Y-68578264D01*
X160020496Y-68558245D01*
X160002130Y-68539176D01*
X159983325Y-68521056D01*
X159964082Y-68503885D01*
X159944399Y-68487663D01*
X159924278Y-68472391D01*
X159903717Y-68458068D01*
X159882718Y-68444694D01*
X159861342Y-68432198D01*
X159839651Y-68420508D01*
X159817646Y-68409624D01*
X159795325Y-68399547D01*
X159772690Y-68390276D01*
X159749739Y-68381811D01*
X159726474Y-68374152D01*
X159702894Y-68367299D01*
X159679000Y-68361253D01*
X159654790Y-68356013D01*
X159630266Y-68351579D01*
X159605426Y-68347951D01*
X159580272Y-68345129D01*
X159554803Y-68343114D01*
X159529019Y-68341904D01*
X159502921Y-68341501D01*
X159472309Y-68342038D01*
X159441994Y-68343648D01*
X159411974Y-68346331D01*
X159382249Y-68350088D01*
X159352821Y-68354918D01*
X159323688Y-68360821D01*
X159294851Y-68367798D01*
X159266310Y-68375848D01*
X159238065Y-68384971D01*
X159210115Y-68395168D01*
X159182462Y-68406438D01*
X159155104Y-68418781D01*
X159128041Y-68432198D01*
X159101275Y-68446688D01*
X159074804Y-68462251D01*
X159048629Y-68478888D01*
X159023072Y-68496481D01*
X158998302Y-68514914D01*
X158974319Y-68534186D01*
X158951123Y-68554298D01*
X158928714Y-68575249D01*
X158907092Y-68597040D01*
X158886258Y-68619671D01*
X158866210Y-68643141D01*
X158846950Y-68667451D01*
X158828476Y-68692600D01*
X158810790Y-68718589D01*
X158793891Y-68745418D01*
X158777779Y-68773086D01*
X158762455Y-68801594D01*
X158747917Y-68830941D01*
X158734166Y-68861128D01*
X158721301Y-68892150D01*
X158709265Y-68924154D01*
X158698059Y-68957141D01*
X158687684Y-68991111D01*
X158678138Y-69026063D01*
X158669423Y-69061999D01*
X158661537Y-69098916D01*
X158654482Y-69136817D01*
X158648257Y-69175700D01*
X158642861Y-69215566D01*
X158638296Y-69256415D01*
X158634561Y-69298246D01*
X158631656Y-69341060D01*
X158629581Y-69384857D01*
X158628336Y-69429637D01*
X158627921Y-69475399D01*
X158628172Y-69515654D01*
X158628925Y-69555133D01*
X158630180Y-69593836D01*
X158631937Y-69631762D01*
X158634197Y-69668912D01*
X158636958Y-69705285D01*
X158640222Y-69740882D01*
X158643987Y-69775703D01*
X158648255Y-69809747D01*
X158653025Y-69843015D01*
X158658297Y-69875507D01*
X158664070Y-69907222D01*
X158670347Y-69938161D01*
X158677125Y-69968323D01*
X158684405Y-69997709D01*
X158692187Y-70026319D01*
X158700471Y-70054152D01*
X158709258Y-70081209D01*
X158718546Y-70107490D01*
X158728337Y-70132994D01*
X158738630Y-70157722D01*
X158749424Y-70181673D01*
X158760721Y-70204848D01*
X158772520Y-70227247D01*
X158784821Y-70248869D01*
X158797624Y-70269715D01*
X158824736Y-70309078D01*
X158853857Y-70345335D01*
X158884986Y-70378487D01*
X158917737Y-70409234D01*
X158951724Y-70438278D01*
X158986946Y-70465620D01*
X159023403Y-70491258D01*
X159061096Y-70515193D01*
X159100025Y-70537426D01*
X159140189Y-70557955D01*
X159181589Y-70576781D01*
X159224224Y-70593904D01*
X159268095Y-70609325D01*
X159313201Y-70623042D01*
X159359542Y-70635056D01*
X159407120Y-70645367D01*
X159431372Y-70649884D01*
X159455933Y-70653975D01*
X159480802Y-70657641D01*
X159505981Y-70660880D01*
X159531468Y-70663694D01*
X159557265Y-70666083D01*
G37*
G36*
X161207125Y-68253574D02*
G01*
X161207125Y-65849614D01*
X160581863Y-65849614D01*
X160581863Y-66642792D01*
X158667000Y-66642792D01*
X158667000Y-67459785D01*
X160581863Y-67459785D01*
X160581863Y-68253574D01*
X161207125Y-68253574D01*
G37*
G36*
X161207125Y-65552859D02*
G01*
X161207125Y-63429167D01*
X160581863Y-63429167D01*
X160581863Y-64734034D01*
X160269233Y-64734034D01*
X160269233Y-63523200D01*
X159722129Y-63523200D01*
X159722129Y-64734034D01*
X159292261Y-64734034D01*
X159292261Y-63391309D01*
X158667000Y-63391309D01*
X158667000Y-65552859D01*
X161207125Y-65552859D01*
G37*
G36*
X161207125Y-63034104D02*
G01*
X161207125Y-61975922D01*
X159749606Y-61596124D01*
X161207125Y-61218159D01*
X161207125Y-60163030D01*
X158667000Y-60163030D01*
X158667000Y-60837750D01*
X160606288Y-60818211D01*
X158667000Y-61295706D01*
X158667000Y-61901428D01*
X160606288Y-62377702D01*
X158667000Y-62358162D01*
X158667000Y-63034104D01*
X161207125Y-63034104D01*
G37*
G36*
X159557265Y-59860779D02*
G01*
X159606113Y-59082255D01*
X159570618Y-59077055D01*
X159536948Y-59071071D01*
X159505102Y-59064303D01*
X159475081Y-59056753D01*
X159446884Y-59048418D01*
X159420513Y-59039300D01*
X159395965Y-59029399D01*
X159373243Y-59018714D01*
X159345785Y-59003248D01*
X159321570Y-58986390D01*
X159295381Y-58963996D01*
X159271768Y-58939864D01*
X159250730Y-58913993D01*
X159232269Y-58886384D01*
X159216384Y-58857035D01*
X159203074Y-58825948D01*
X159192341Y-58793122D01*
X159184184Y-58758557D01*
X159178602Y-58722253D01*
X159176313Y-58697085D01*
X159175168Y-58671143D01*
X159175025Y-58657883D01*
X159175647Y-58628667D01*
X159177515Y-58600782D01*
X159180627Y-58574227D01*
X159184985Y-58549004D01*
X159190588Y-58525112D01*
X159199995Y-58495326D01*
X159211616Y-58467905D01*
X159225450Y-58442851D01*
X159241497Y-58420164D01*
X159245855Y-58414861D01*
X159264030Y-58395112D01*
X159282835Y-58377996D01*
X159307226Y-58360304D01*
X159332602Y-58346726D01*
X159358961Y-58337263D01*
X159386304Y-58331914D01*
X159408887Y-58330598D01*
X159435565Y-58332536D01*
X159461409Y-58338349D01*
X159486418Y-58348039D01*
X159510591Y-58361605D01*
X159533930Y-58379047D01*
X159552001Y-58395791D01*
X159565203Y-58409976D01*
X159583130Y-58433962D01*
X159596462Y-58456584D01*
X159609698Y-58483178D01*
X159622838Y-58513743D01*
X159635880Y-58548279D01*
X159644522Y-58573509D01*
X159653120Y-58600505D01*
X159661676Y-58629266D01*
X159670189Y-58659791D01*
X159678659Y-58692082D01*
X159687085Y-58726137D01*
X159695469Y-58761958D01*
X159703810Y-58799544D01*
X159710947Y-58831542D01*
X159718236Y-58862966D01*
X159725678Y-58893815D01*
X159733272Y-58924089D01*
X159741019Y-58953788D01*
X159748919Y-58982912D01*
X159756971Y-59011461D01*
X159765176Y-59039436D01*
X159773534Y-59066836D01*
X159782044Y-59093661D01*
X159790707Y-59119911D01*
X159799523Y-59145586D01*
X159808491Y-59170687D01*
X159817612Y-59195212D01*
X159826886Y-59219163D01*
X159836312Y-59242539D01*
X159845891Y-59265340D01*
X159865507Y-59309218D01*
X159885733Y-59350797D01*
X159906570Y-59390076D01*
X159928018Y-59427056D01*
X159950076Y-59461736D01*
X159972745Y-59494118D01*
X159996024Y-59524200D01*
X160007893Y-59538378D01*
X160032503Y-59565810D01*
X160057943Y-59591473D01*
X160084214Y-59615365D01*
X160111314Y-59637488D01*
X160139245Y-59657840D01*
X160168005Y-59676423D01*
X160197596Y-59693237D01*
X160228017Y-59708280D01*
X160259267Y-59721553D01*
X160291348Y-59733057D01*
X160324259Y-59742791D01*
X160358000Y-59750755D01*
X160392570Y-59756950D01*
X160427971Y-59761374D01*
X160464202Y-59764029D01*
X160501263Y-59764914D01*
X160525828Y-59764463D01*
X160550217Y-59763110D01*
X160586469Y-59759391D01*
X160622323Y-59753644D01*
X160657781Y-59745867D01*
X160692841Y-59736062D01*
X160727505Y-59724229D01*
X160750393Y-59715213D01*
X160773104Y-59705295D01*
X160795640Y-59694476D01*
X160817998Y-59682755D01*
X160840181Y-59670133D01*
X160862186Y-59656609D01*
X160873123Y-59649509D01*
X160894730Y-59634561D01*
X160915741Y-59618721D01*
X160936156Y-59601989D01*
X160955975Y-59584365D01*
X160975197Y-59565849D01*
X160993823Y-59546440D01*
X161011852Y-59526140D01*
X161029286Y-59504948D01*
X161046123Y-59482863D01*
X161062364Y-59459887D01*
X161078008Y-59436018D01*
X161093056Y-59411258D01*
X161107508Y-59385605D01*
X161121363Y-59359060D01*
X161134623Y-59331624D01*
X161147286Y-59303295D01*
X161159264Y-59273866D01*
X161170470Y-59243131D01*
X161180902Y-59211088D01*
X161190562Y-59177739D01*
X161199450Y-59143082D01*
X161207564Y-59107118D01*
X161214906Y-59069847D01*
X161221474Y-59031269D01*
X161227270Y-58991384D01*
X161232294Y-58950192D01*
X161236544Y-58907693D01*
X161240022Y-58863887D01*
X161242726Y-58818773D01*
X161244658Y-58772353D01*
X161245818Y-58724625D01*
X161246204Y-58675591D01*
X161246027Y-58645247D01*
X161245496Y-58615353D01*
X161244610Y-58585908D01*
X161243370Y-58556913D01*
X161241776Y-58528368D01*
X161239828Y-58500272D01*
X161237526Y-58472626D01*
X161234870Y-58445430D01*
X161231859Y-58418683D01*
X161228494Y-58392386D01*
X161224775Y-58366538D01*
X161220702Y-58341140D01*
X161216274Y-58316192D01*
X161211492Y-58291693D01*
X161206356Y-58267644D01*
X161195022Y-58220894D01*
X161182271Y-58175943D01*
X161168103Y-58132790D01*
X161152518Y-58091436D01*
X161135517Y-58051880D01*
X161117098Y-58014122D01*
X161097263Y-57978163D01*
X161076011Y-57944003D01*
X161064854Y-57927597D01*
X161041271Y-57895969D01*
X161015862Y-57865964D01*
X160988626Y-57837580D01*
X160959562Y-57810818D01*
X160928672Y-57785678D01*
X160895954Y-57762160D01*
X160861409Y-57740264D01*
X160825038Y-57719990D01*
X160786839Y-57701338D01*
X160746813Y-57684308D01*
X160704960Y-57668900D01*
X160661281Y-57655113D01*
X160615774Y-57642949D01*
X160568440Y-57632406D01*
X160544087Y-57627743D01*
X160519279Y-57623486D01*
X160494013Y-57619634D01*
X160468290Y-57616187D01*
X160424327Y-58387995D01*
X160455935Y-58394224D01*
X160485729Y-58401461D01*
X160513709Y-58409708D01*
X160539875Y-58418964D01*
X160564227Y-58429228D01*
X160586765Y-58440502D01*
X160613994Y-58457103D01*
X160637999Y-58475497D01*
X160658778Y-58495686D01*
X160667959Y-58506452D01*
X160684417Y-58529531D01*
X160698680Y-58554805D01*
X160710749Y-58582273D01*
X160720624Y-58611935D01*
X160726590Y-58635621D01*
X160731321Y-58660542D01*
X160734819Y-58686698D01*
X160737082Y-58714087D01*
X160738110Y-58742711D01*
X160738179Y-58752527D01*
X160737377Y-58783697D01*
X160734973Y-58812786D01*
X160730966Y-58839796D01*
X160725356Y-58864726D01*
X160716090Y-58892964D01*
X160704319Y-58917952D01*
X160690043Y-58939689D01*
X160686888Y-58943647D01*
X160667153Y-58964813D01*
X160645958Y-58981600D01*
X160623304Y-58994008D01*
X160599189Y-59002036D01*
X160573615Y-59005686D01*
X160564766Y-59005929D01*
X160540533Y-59002800D01*
X160517292Y-58993412D01*
X160495043Y-58977765D01*
X160476389Y-58958940D01*
X160473786Y-58955859D01*
X160456970Y-58931387D01*
X160445903Y-58909253D01*
X160434950Y-58882462D01*
X160426811Y-58859314D01*
X160418736Y-58833547D01*
X160410725Y-58805161D01*
X160402779Y-58774156D01*
X160394897Y-58740532D01*
X160389678Y-58716661D01*
X160387080Y-58704289D01*
X160380357Y-58672514D01*
X160373623Y-58641304D01*
X160366876Y-58610657D01*
X160360118Y-58580574D01*
X160353347Y-58551056D01*
X160346565Y-58522102D01*
X160339771Y-58493711D01*
X160332965Y-58465885D01*
X160326147Y-58438623D01*
X160319317Y-58411925D01*
X160312475Y-58385791D01*
X160305621Y-58360222D01*
X160298755Y-58335216D01*
X160291878Y-58310774D01*
X160284988Y-58286897D01*
X160271173Y-58240834D01*
X160257310Y-58197028D01*
X160243400Y-58155478D01*
X160229442Y-58116184D01*
X160215436Y-58079147D01*
X160201382Y-58044367D01*
X160187281Y-58011842D01*
X160173132Y-57981574D01*
X160166040Y-57967286D01*
X160151624Y-57939673D01*
X160136769Y-57913009D01*
X160121475Y-57887294D01*
X160105743Y-57862529D01*
X160089571Y-57838713D01*
X160072961Y-57815846D01*
X160055911Y-57793929D01*
X160038423Y-57772961D01*
X160020496Y-57752942D01*
X160002130Y-57733872D01*
X159983325Y-57715752D01*
X159964082Y-57698581D01*
X159944399Y-57682359D01*
X159924278Y-57667087D01*
X159903717Y-57652764D01*
X159882718Y-57639390D01*
X159861342Y-57626894D01*
X159839651Y-57615205D01*
X159817646Y-57604321D01*
X159795325Y-57594244D01*
X159772690Y-57584972D01*
X159749739Y-57576507D01*
X159726474Y-57568848D01*
X159702894Y-57561996D01*
X159679000Y-57555949D01*
X159654790Y-57550709D01*
X159630266Y-57546275D01*
X159605426Y-57542647D01*
X159580272Y-57539826D01*
X159554803Y-57537810D01*
X159529019Y-57536601D01*
X159502921Y-57536198D01*
X159472309Y-57536734D01*
X159441994Y-57538344D01*
X159411974Y-57541028D01*
X159382249Y-57544784D01*
X159352821Y-57549614D01*
X159323688Y-57555518D01*
X159294851Y-57562494D01*
X159266310Y-57570544D01*
X159238065Y-57579668D01*
X159210115Y-57589864D01*
X159182462Y-57601134D01*
X159155104Y-57613478D01*
X159128041Y-57626894D01*
X159101275Y-57641384D01*
X159074804Y-57656948D01*
X159048629Y-57673584D01*
X159023072Y-57691177D01*
X158998302Y-57709610D01*
X158974319Y-57728882D01*
X158951123Y-57748994D01*
X158928714Y-57769946D01*
X158907092Y-57791737D01*
X158886258Y-57814367D01*
X158866210Y-57837838D01*
X158846950Y-57862147D01*
X158828476Y-57887297D01*
X158810790Y-57913286D01*
X158793891Y-57940114D01*
X158777779Y-57967782D01*
X158762455Y-57996290D01*
X158747917Y-58025637D01*
X158734166Y-58055824D01*
X158721301Y-58086846D01*
X158709265Y-58118850D01*
X158698059Y-58151838D01*
X158687684Y-58185807D01*
X158678138Y-58220760D01*
X158669423Y-58256695D01*
X158661537Y-58293613D01*
X158654482Y-58331513D01*
X158648257Y-58370397D01*
X158642861Y-58410263D01*
X158638296Y-58451111D01*
X158634561Y-58492943D01*
X158631656Y-58535757D01*
X158629581Y-58579554D01*
X158628336Y-58624333D01*
X158627921Y-58670095D01*
X158628172Y-58710350D01*
X158628925Y-58749829D01*
X158630180Y-58788532D01*
X158631937Y-58826458D01*
X158634197Y-58863608D01*
X158636958Y-58899982D01*
X158640222Y-58935579D01*
X158643987Y-58970399D01*
X158648255Y-59004444D01*
X158653025Y-59037712D01*
X158658297Y-59070203D01*
X158664070Y-59101918D01*
X158670347Y-59132857D01*
X158677125Y-59163020D01*
X158684405Y-59192406D01*
X158692187Y-59221015D01*
X158700471Y-59248849D01*
X158709258Y-59275906D01*
X158718546Y-59302186D01*
X158728337Y-59327690D01*
X158738630Y-59352418D01*
X158749424Y-59376370D01*
X158760721Y-59399545D01*
X158772520Y-59421943D01*
X158784821Y-59443566D01*
X158797624Y-59464411D01*
X158824736Y-59503774D01*
X158853857Y-59540031D01*
X158884986Y-59573183D01*
X158917737Y-59603930D01*
X158951724Y-59632975D01*
X158986946Y-59660316D01*
X159023403Y-59685955D01*
X159061096Y-59709890D01*
X159100025Y-59732122D01*
X159140189Y-59752651D01*
X159181589Y-59771478D01*
X159224224Y-59788601D01*
X159268095Y-59804021D01*
X159313201Y-59817738D01*
X159359542Y-59829753D01*
X159407120Y-59840064D01*
X159431372Y-59844581D01*
X159455933Y-59848672D01*
X159480802Y-59852337D01*
X159505981Y-59855577D01*
X159531468Y-59858391D01*
X159557265Y-59860779D01*
G37*
D12*
%TO.P,U6,1,A->B*%
%TO.N,GND*%
X219456000Y-129540000D03*
D13*
%TO.P,U6,2,A0*%
%TO.N,unconnected-(U6-A0-Pad2)*%
X219456000Y-127000000D03*
%TO.P,U6,3,A1*%
%TO.N,/A10*%
X219456000Y-124460000D03*
%TO.P,U6,4,A2*%
%TO.N,/A17*%
X219456000Y-121920000D03*
%TO.P,U6,5,A3*%
%TO.N,/A11*%
X219456000Y-119380000D03*
%TO.P,U6,6,A4*%
%TO.N,/A9*%
X219456000Y-116840000D03*
%TO.P,U6,7,A5*%
%TO.N,/A8*%
X219456000Y-114300000D03*
%TO.P,U6,8,A6*%
%TO.N,/A13*%
X219456000Y-111760000D03*
%TO.P,U6,9,A7*%
%TO.N,/A14*%
X219456000Y-109220000D03*
%TO.P,U6,10,GND*%
%TO.N,GND*%
X219456000Y-106680000D03*
%TO.P,U6,11,B7*%
%TO.N,/AG14*%
X211836000Y-106680000D03*
%TO.P,U6,12,B6*%
%TO.N,/AG13*%
X211836000Y-109220000D03*
%TO.P,U6,13,B5*%
%TO.N,/AG8*%
X211836000Y-111760000D03*
%TO.P,U6,14,B4*%
%TO.N,/AG9*%
X211836000Y-114300000D03*
%TO.P,U6,15,B3*%
%TO.N,/AG11*%
X211836000Y-116840000D03*
%TO.P,U6,16,B2*%
%TO.N,/AG17*%
X211836000Y-119380000D03*
%TO.P,U6,17,B1*%
%TO.N,/AG10*%
X211836000Y-121920000D03*
%TO.P,U6,18,B0*%
%TO.N,unconnected-(U6-B0-Pad18)*%
X211836000Y-124460000D03*
%TO.P,U6,19,CE*%
%TO.N,GND*%
X211836000Y-127000000D03*
%TO.P,U6,20,VCC*%
%TO.N,+5V*%
X211836000Y-129540000D03*
%TD*%
D14*
%TO.P,R3,1*%
%TO.N,Net-(U12-SETCU)*%
X176276000Y-132080000D03*
D15*
%TO.P,R3,2*%
%TO.N,GND*%
X176276000Y-124460000D03*
%TD*%
D16*
%TO.P,J2,1,Pin_1*%
%TO.N,GND*%
X171196000Y-137160000D03*
D17*
%TO.P,J2,2,Pin_2*%
%TO.N,unconnected-(J2-Pin_2-Pad2)*%
X168656000Y-137160000D03*
%TO.P,J2,3,Pin_3*%
%TO.N,GND*%
X171196000Y-134620000D03*
%TO.P,J2,4,Pin_4*%
%TO.N,unconnected-(J2-Pin_4-Pad4)*%
X168656000Y-134620000D03*
%TO.P,J2,5,Pin_5*%
%TO.N,GND*%
X171196000Y-132080000D03*
%TO.P,J2,6,Pin_6*%
%TO.N,unconnected-(J2-Pin_6-Pad6)*%
X168656000Y-132080000D03*
%TO.P,J2,7,Pin_7*%
%TO.N,GND*%
X171196000Y-129540000D03*
%TO.P,J2,8,Pin_8*%
%TO.N,/FDC_IP*%
X168656000Y-129540000D03*
%TO.P,J2,9,Pin_9*%
%TO.N,GND*%
X171196000Y-127000000D03*
%TO.P,J2,10,Pin_10*%
%TO.N,/DS0*%
X168656000Y-127000000D03*
%TO.P,J2,11,Pin_11*%
%TO.N,GND*%
X171196000Y-124460000D03*
%TO.P,J2,12,Pin_12*%
%TO.N,/DS1*%
X168656000Y-124460000D03*
%TO.P,J2,13,Pin_13*%
%TO.N,GND*%
X171196000Y-121920000D03*
%TO.P,J2,14,Pin_14*%
%TO.N,/DS2*%
X168656000Y-121920000D03*
%TO.P,J2,15,Pin_15*%
%TO.N,GND*%
X171196000Y-119380000D03*
%TO.P,J2,16,Pin_16*%
%TO.N,/MOTOR_ON*%
X168656000Y-119380000D03*
%TO.P,J2,17,Pin_17*%
%TO.N,GND*%
X171196000Y-116840000D03*
%TO.P,J2,18,Pin_18*%
%TO.N,/FDC_DIR*%
X168656000Y-116840000D03*
%TO.P,J2,19,Pin_19*%
%TO.N,GND*%
X171196000Y-114300000D03*
%TO.P,J2,20,Pin_20*%
%TO.N,/FDC_STEP*%
X168656000Y-114300000D03*
%TO.P,J2,21,Pin_21*%
%TO.N,GND*%
X171196000Y-111760000D03*
%TO.P,J2,22,Pin_22*%
%TO.N,/FDC_WD*%
X168656000Y-111760000D03*
%TO.P,J2,23,Pin_23*%
%TO.N,GND*%
X171196000Y-109220000D03*
%TO.P,J2,24,Pin_24*%
%TO.N,/FDC_WG*%
X168656000Y-109220000D03*
%TO.P,J2,25,Pin_25*%
%TO.N,GND*%
X171196000Y-106680000D03*
%TO.P,J2,26,Pin_26*%
%TO.N,/FDC_T0*%
X168656000Y-106680000D03*
%TO.P,J2,27,Pin_27*%
%TO.N,GND*%
X171196000Y-104140000D03*
%TO.P,J2,28,Pin_28*%
%TO.N,/FDC_WPRT*%
X168656000Y-104140000D03*
%TO.P,J2,29,Pin_29*%
%TO.N,GND*%
X171196000Y-101600000D03*
%TO.P,J2,30,Pin_30*%
%TO.N,/FDC_RD*%
X168656000Y-101600000D03*
%TO.P,J2,31,Pin_31*%
%TO.N,GND*%
X171196000Y-99060000D03*
%TO.P,J2,32,Pin_32*%
%TO.N,/FDC_HD*%
X168656000Y-99060000D03*
%TO.P,J2,33,Pin_33*%
%TO.N,GND*%
X171196000Y-96520000D03*
%TO.P,J2,34,Pin_34*%
%TO.N,unconnected-(J2-Pin_34-Pad34)*%
X168656000Y-96520000D03*
%TD*%
D12*
%TO.P,U4,1,A->B*%
%TO.N,/RW*%
X195326000Y-60960000D03*
D13*
%TO.P,U4,2,A0*%
%TO.N,/D7*%
X192786000Y-60960000D03*
%TO.P,U4,3,A1*%
%TO.N,/D6*%
X190246000Y-60960000D03*
%TO.P,U4,4,A2*%
%TO.N,/D5*%
X187706000Y-60960000D03*
%TO.P,U4,5,A3*%
%TO.N,/D4*%
X185166000Y-60960000D03*
%TO.P,U4,6,A4*%
%TO.N,/D3*%
X182626000Y-60960000D03*
%TO.P,U4,7,A5*%
%TO.N,/D2*%
X180086000Y-60960000D03*
%TO.P,U4,8,A6*%
%TO.N,/D1*%
X177546000Y-60960000D03*
%TO.P,U4,9,A7*%
%TO.N,/D0*%
X175006000Y-60960000D03*
%TO.P,U4,10,GND*%
%TO.N,GND*%
X172466000Y-60960000D03*
%TO.P,U4,11,B7*%
%TO.N,/DG0*%
X172466000Y-68580000D03*
%TO.P,U4,12,B6*%
%TO.N,/DG1*%
X175006000Y-68580000D03*
%TO.P,U4,13,B5*%
%TO.N,/DG2*%
X177546000Y-68580000D03*
%TO.P,U4,14,B4*%
%TO.N,/DG3*%
X180086000Y-68580000D03*
%TO.P,U4,15,B3*%
%TO.N,/DG4*%
X182626000Y-68580000D03*
%TO.P,U4,16,B2*%
%TO.N,/DG5*%
X185166000Y-68580000D03*
%TO.P,U4,17,B1*%
%TO.N,/DG6*%
X187706000Y-68580000D03*
%TO.P,U4,18,B0*%
%TO.N,/DG7*%
X190246000Y-68580000D03*
%TO.P,U4,19,CE*%
%TO.N,/RDL*%
X192786000Y-68580000D03*
%TO.P,U4,20,VCC*%
%TO.N,+5V*%
X195326000Y-68580000D03*
%TD*%
D18*
%TO.P,Q1,1,E*%
%TO.N,/CSRTC*%
X234245700Y-49345300D03*
D19*
%TO.P,Q1,2,B*%
%TO.N,Net-(Q1-B)*%
X235515700Y-48075300D03*
%TO.P,Q1,3,C*%
%TO.N,Net-(Q1-C)*%
X234245700Y-46805300D03*
%TD*%
D12*
%TO.P,D1,1,K*%
%TO.N,GND*%
X200406000Y-46355000D03*
D13*
%TO.P,D1,2,A*%
%TO.N,Net-(D1-A)*%
X208026000Y-46355000D03*
%TD*%
D20*
%TO.P,H1,1,1*%
%TO.N,GND*%
X158526000Y-79375000D03*
X159075175Y-78049175D03*
X159075175Y-80700825D03*
X160401000Y-77500000D03*
D21*
X160401000Y-79375000D03*
D20*
X160401000Y-81250000D03*
X161726825Y-78049175D03*
X161726825Y-80700825D03*
X162276000Y-79375000D03*
%TD*%
D22*
%TO.P,C3,1*%
%TO.N,Net-(U12-FE50)*%
X205232000Y-139700000D03*
%TO.P,C3,2*%
%TO.N,Net-(C3-Pad2)*%
X190232000Y-139700000D03*
%TD*%
D23*
%TO.P,C10,1*%
%TO.N,+5V*%
X201081000Y-50165000D03*
%TO.P,C10,2*%
%TO.N,GND*%
X206081000Y-50165000D03*
%TD*%
%TO.P,C14,1*%
%TO.N,+5V*%
X178482000Y-107950000D03*
%TO.P,C14,2*%
%TO.N,GND*%
X173482000Y-107950000D03*
%TD*%
%TO.P,C1,1*%
%TO.N,Net-(U7-XTAL_IN)*%
X233426000Y-116800000D03*
%TO.P,C1,2*%
%TO.N,GND*%
X233426000Y-114300000D03*
%TD*%
D24*
%TO.P,Y3,1,1*%
%TO.N,Net-(U7-XTAL_OUT)*%
X228981000Y-116840000D03*
%TO.P,Y3,2,2*%
%TO.N,Net-(U7-XTAL_IN)*%
X231521000Y-116840000D03*
%TD*%
D12*
%TO.P,U8,1,~{OE}*%
%TO.N,GND*%
X209296000Y-66040000D03*
D23*
%TO.P,U8,2,~{CAS}*%
%TO.N,/CAS0*%
X210566000Y-63500000D03*
%TO.P,U8,3,D2*%
%TO.N,/DG3*%
X211836000Y-66040000D03*
%TO.P,U8,4,D3*%
%TO.N,/DG1*%
X213106000Y-63500000D03*
%TO.P,U8,5,GND*%
%TO.N,GND*%
X214376000Y-66040000D03*
%TO.P,U8,6,D0*%
%TO.N,/DG0*%
X215646000Y-63500000D03*
%TO.P,U8,7,D1*%
%TO.N,/DG2*%
X216916000Y-66040000D03*
%TO.P,U8,8,~{WR}*%
%TO.N,/RW*%
X218186000Y-63500000D03*
%TO.P,U8,9,~{RAS}*%
%TO.N,/RAS*%
X219456000Y-66040000D03*
%TO.P,U8,10,A9*%
%TO.N,/MA9*%
X220726000Y-63500000D03*
%TO.P,U8,11,A0*%
%TO.N,/MA0*%
X221996000Y-66040000D03*
%TO.P,U8,12,A1*%
%TO.N,/MA1*%
X223266000Y-63500000D03*
%TO.P,U8,13,A2*%
%TO.N,/MA2*%
X224536000Y-66040000D03*
%TO.P,U8,14,A3*%
%TO.N,/MA3*%
X225806000Y-63500000D03*
%TO.P,U8,15,VCC*%
%TO.N,+5V*%
X227076000Y-66040000D03*
%TO.P,U8,16,A4*%
%TO.N,/MA4*%
X228346000Y-63500000D03*
%TO.P,U8,17,A5*%
%TO.N,/MA5*%
X229616000Y-66040000D03*
%TO.P,U8,18,A6*%
%TO.N,/MA6*%
X230886000Y-63500000D03*
%TO.P,U8,19,A7*%
%TO.N,/MA7*%
X232156000Y-66040000D03*
%TO.P,U8,20,A8*%
%TO.N,/MA8*%
X233426000Y-63500000D03*
%TD*%
D16*
%TO.P,J5,1,Pin_1*%
%TO.N,unconnected-(J5-Pin_1-Pad1)*%
X197866000Y-71120000D03*
%TD*%
D23*
%TO.P,C15,1*%
%TO.N,+5V*%
X201081000Y-55245000D03*
%TO.P,C15,2*%
%TO.N,GND*%
X206081000Y-55245000D03*
%TD*%
D16*
%TO.P,J6,1,Pin_1*%
%TO.N,unconnected-(J6-Pin_1-Pad1)*%
X172466000Y-45085000D03*
%TD*%
D14*
%TO.P,R1,1*%
%TO.N,GND*%
X210566000Y-48895000D03*
D15*
%TO.P,R1,2*%
%TO.N,Net-(D3-A)*%
X218186000Y-48895000D03*
%TD*%
D22*
%TO.P,C4,1*%
%TO.N,Net-(U12-FE25)*%
X205232000Y-135255000D03*
%TO.P,C4,2*%
%TO.N,Net-(C3-Pad2)*%
X190232000Y-135255000D03*
%TD*%
D23*
%TO.P,C6,1*%
%TO.N,Net-(U12-FILT)*%
X177606000Y-134620000D03*
%TO.P,C6,2*%
%TO.N,GND*%
X187606000Y-134620000D03*
%TD*%
D12*
%TO.P,X1,1,EN*%
%TO.N,+5V*%
X199136000Y-60706000D03*
D13*
%TO.P,X1,4,GND*%
%TO.N,GND*%
X199136000Y-68326000D03*
%TO.P,X1,5,OUT*%
%TO.N,/16MHZ*%
X206756000Y-68326000D03*
%TO.P,X1,8,Vcc*%
%TO.N,+5V*%
X206756000Y-60706000D03*
%TD*%
D12*
%TO.P,C16,1*%
%TO.N,+5V*%
X228021000Y-109220000D03*
D23*
%TO.P,C16,2*%
%TO.N,GND*%
X231521000Y-109220000D03*
%TD*%
D25*
%TO.P,J1,a1,GND*%
%TO.N,GND*%
X238506000Y-132080000D03*
D26*
%TO.P,J1,a2,D3*%
%TO.N,/D3*%
X238506000Y-129540000D03*
%TO.P,J1,a3,D4*%
%TO.N,/D4*%
X238506000Y-127000000D03*
%TO.P,J1,a4,D5*%
%TO.N,/D5*%
X238506000Y-124460000D03*
%TO.P,J1,a5,D6*%
%TO.N,/D6*%
X238506000Y-121920000D03*
%TO.P,J1,a6,D7*%
%TO.N,/D7*%
X238506000Y-119380000D03*
%TO.P,J1,a7,A19*%
%TO.N,/A18*%
X238506000Y-116840000D03*
%TO.P,J1,a8,A18*%
X238506000Y-114300000D03*
%TO.P,J1,a9,A17*%
%TO.N,/A17*%
X238506000Y-111760000D03*
%TO.P,J1,a10,A16*%
%TO.N,/A16*%
X238506000Y-109220000D03*
%TO.P,J1,a11,CLKCPU*%
%TO.N,unconnected-(J1-CLKCPU-Pada11)*%
X238506000Y-106680000D03*
%TO.P,J1,a12,RED*%
%TO.N,unconnected-(J1-RED-Pada12)*%
X238506000Y-104140000D03*
%TO.P,J1,a13,A14*%
%TO.N,/A14*%
X238506000Y-101600000D03*
%TO.P,J1,a14,A13*%
%TO.N,/A13*%
X238506000Y-99060000D03*
%TO.P,J1,a15,A12*%
%TO.N,/A12*%
X238506000Y-96520000D03*
%TO.P,J1,a16,A11*%
%TO.N,/A11*%
X238506000Y-93980000D03*
%TO.P,J1,a17,A10*%
%TO.N,/A10*%
X238506000Y-91440000D03*
%TO.P,J1,a18,A9*%
%TO.N,/A9*%
X238506000Y-88900000D03*
%TO.P,J1,a19,A8*%
%TO.N,/A8*%
X238506000Y-86360000D03*
%TO.P,J1,a20,A7*%
%TO.N,/A7*%
X238506000Y-83820000D03*
%TO.P,J1,a21,A6*%
%TO.N,/A6*%
X238506000Y-81280000D03*
%TO.P,J1,a22,A5*%
%TO.N,/A5*%
X238506000Y-78740000D03*
%TO.P,J1,a23,A4*%
%TO.N,/A4*%
X238506000Y-76200000D03*
%TO.P,J1,a24,A3*%
%TO.N,/A3*%
X238506000Y-73660000D03*
%TO.P,J1,a25,~{DBG}*%
%TO.N,unconnected-(J1-~{DBG}-Pada25)*%
X238506000Y-71120000D03*
%TO.P,J1,a26,SP2*%
%TO.N,GND*%
X238506000Y-68580000D03*
%TO.P,J1,a27,~{DSMC}*%
%TO.N,unconnected-(J1-~{DSMC}-Pada27)*%
X238506000Y-66040000D03*
%TO.P,J1,a28,SP1*%
%TO.N,GND*%
X238506000Y-63500000D03*
%TO.P,J1,a29,SP0*%
X238506000Y-60960000D03*
%TO.P,J1,a30,+12V*%
%TO.N,unconnected-(J1-+12V-Pada30)*%
X238506000Y-58420000D03*
%TO.P,J1,a31,-12V*%
%TO.N,unconnected-(J1--12V-Pada31)*%
X238506000Y-55880000D03*
%TO.P,J1,a32,Vin*%
%TO.N,+9V*%
X238506000Y-53340000D03*
%TO.P,J1,b1,GND*%
%TO.N,GND*%
X235966000Y-132080000D03*
%TO.P,J1,b2,D2*%
%TO.N,/D2*%
X235966000Y-129540000D03*
%TO.P,J1,b3,D1*%
%TO.N,/D1*%
X235966000Y-127000000D03*
%TO.P,J1,b4,D0*%
%TO.N,/D0*%
X235966000Y-124460000D03*
%TO.P,J1,b5,~{AS}*%
%TO.N,unconnected-(J1-~{AS}-Padb5)*%
X235966000Y-121920000D03*
%TO.P,J1,b6,~{DS}*%
%TO.N,/DS*%
X235966000Y-119380000D03*
%TO.P,J1,b7,~{DRW}*%
%TO.N,/RDW*%
X235966000Y-116840000D03*
%TO.P,J1,b8,~{DTACK}*%
%TO.N,/DTACK*%
X235966000Y-114300000D03*
%TO.P,J1,b9,~{BG}*%
%TO.N,unconnected-(J1-~{BG}-Padb9)*%
X235966000Y-111760000D03*
%TO.P,J1,b10,~{BR}*%
%TO.N,/A18*%
X235966000Y-109220000D03*
%TO.P,J1,b11,A15*%
%TO.N,/A15*%
X235966000Y-106680000D03*
%TO.P,J1,b12,~{RESETCPU}*%
%TO.N,/RESET*%
X235966000Y-104140000D03*
%TO.P,J1,b13,~{CSYNC}*%
%TO.N,unconnected-(J1-~{CSYNC}-Padb13)*%
X235966000Y-101600000D03*
%TO.P,J1,b14,E*%
%TO.N,unconnected-(J1-E-Padb14)*%
X235966000Y-99060000D03*
%TO.P,J1,b15,VSYNCH*%
%TO.N,/VSYNC*%
X235966000Y-96520000D03*
%TO.P,J1,b16,~{VPA}*%
%TO.N,/VPA*%
X235966000Y-93980000D03*
%TO.P,J1,b17,GREEN*%
%TO.N,unconnected-(J1-GREEN-Padb17)*%
X235966000Y-91440000D03*
%TO.P,J1,b18,BLUE*%
%TO.N,unconnected-(J1-BLUE-Padb18)*%
X235966000Y-88900000D03*
%TO.P,J1,b19,FC2*%
%TO.N,unconnected-(J1-FC2-Padb19)*%
X235966000Y-86360000D03*
%TO.P,J1,b20,FC1*%
%TO.N,/FC1*%
X235966000Y-83820000D03*
%TO.P,J1,b21,FC0*%
%TO.N,/FC0*%
X235966000Y-81280000D03*
%TO.P,J1,b22,A0*%
%TO.N,/A0*%
X235966000Y-78740000D03*
%TO.P,J1,b23,ROMOEH*%
%TO.N,unconnected-(J1-ROMOEH-Padb23)*%
X235966000Y-76200000D03*
%TO.P,J1,b24,A1*%
%TO.N,/A1*%
X235966000Y-73660000D03*
%TO.P,J1,b25,A2*%
%TO.N,/A2*%
X235966000Y-71120000D03*
%TO.P,J1,b26,SP3*%
%TO.N,GND*%
X235966000Y-68580000D03*
%TO.P,J1,b27,~{IPLO}*%
%TO.N,/IPL0*%
X235966000Y-66040000D03*
%TO.P,J1,b28,~{BERR}*%
%TO.N,unconnected-(J1-~{BERR}-Padb28)*%
X235966000Y-63500000D03*
%TO.P,J1,b29,~{IPL1}*%
%TO.N,/IPL1*%
X235966000Y-60960000D03*
%TO.P,J1,b30,~{EXTINT}*%
%TO.N,unconnected-(J1-~{EXTINT}-Padb30)*%
X235966000Y-58420000D03*
%TO.P,J1,b31,Vin*%
%TO.N,+9V*%
X235966000Y-55880000D03*
%TO.P,J1,b32,Vin*%
X235966000Y-53340000D03*
%TD*%
D27*
%TO.P,Y2,1,1*%
%TO.N,Net-(U12-OSC2{slash}CLK)*%
X177546000Y-119380000D03*
%TO.P,Y2,2,2*%
%TO.N,Net-(U12-OSC1)*%
X177546000Y-114500000D03*
%TD*%
D28*
%TO.P,U2,1,GND*%
%TO.N,GND*%
X219456000Y-76200000D03*
D29*
%TO.P,U2,2,I/O_1A*%
%TO.N,/RAS*%
X219456000Y-78740000D03*
%TO.P,U2,3,I/O_2A*%
%TO.N,/DTA*%
X216916000Y-76200000D03*
%TO.P,U2,4,I/O_3A*%
%TO.N,/A0*%
X216916000Y-78740000D03*
%TO.P,U2,5,I/O_4A*%
%TO.N,/RDH*%
X214376000Y-76200000D03*
%TO.P,U2,6,I/O_5A*%
%TO.N,/WRH*%
X214376000Y-78740000D03*
%TO.P,U2,7,I/O_6A*%
%TO.N,/CAS0*%
X211836000Y-76200000D03*
%TO.P,U2,8,I/O_7A*%
%TO.N,/CAS1*%
X211836000Y-78740000D03*
%TO.P,U2,9,I/O_8A*%
%TO.N,/RDL*%
X209296000Y-76200000D03*
%TO.P,U2,10,I/O_9A*%
%TO.N,/UDS*%
X206756000Y-78740000D03*
%TO.P,U2,11,I/O_10A*%
%TO.N,/DTACK*%
X209296000Y-78740000D03*
%TO.P,U2,12,I/O_11A*%
%TO.N,/LDS*%
X206756000Y-81280000D03*
%TO.P,U2,13,I/O_12A*%
%TO.N,unconnected-(U2-I{slash}O_12A-Pad13)*%
X209296000Y-81280000D03*
%TO.P,U2,14,INP1*%
%TO.N,/RW*%
X206756000Y-83820000D03*
%TO.P,U2,15,INP2*%
%TO.N,/AG3*%
X209296000Y-83820000D03*
%TO.P,U2,16,INP3*%
%TO.N,/AG5*%
X206756000Y-86360000D03*
%TO.P,U2,17,INP4/CLK1*%
%TO.N,/RESET*%
X209296000Y-86360000D03*
%TO.P,U2,18,VCC*%
%TO.N,+5V*%
X206756000Y-88900000D03*
%TO.P,U2,19,INP5/CLK2*%
%TO.N,/AG19*%
X209296000Y-88900000D03*
%TO.P,U2,20,INP6*%
%TO.N,/16MHZ*%
X206756000Y-91440000D03*
%TO.P,U2,21,INP7*%
%TO.N,/AG20*%
X209296000Y-91440000D03*
%TO.P,U2,22,INP8*%
%TO.N,/AG17*%
X206756000Y-93980000D03*
%TO.P,U2,23,I/O_13B*%
%TO.N,unconnected-(U2-I{slash}O_13B-Pad23)*%
X209296000Y-93980000D03*
%TO.P,U2,24,I/O_14B*%
%TO.N,/AG16*%
X206756000Y-96520000D03*
%TO.P,U2,25,I/O_15B*%
%TO.N,/AG14*%
X209296000Y-96520000D03*
%TO.P,U2,26,I/O_16B*%
%TO.N,/AG13*%
X206756000Y-99060000D03*
%TO.P,U2,27,I/O_17B*%
%TO.N,/A12*%
X209296000Y-101600000D03*
%TO.P,U2,28,I/O_18B*%
%TO.N,/A15*%
X209296000Y-99060000D03*
%TO.P,U2,29,I/O_19B*%
%TO.N,/A6*%
X211836000Y-101600000D03*
%TO.P,U2,30,I/O_20B*%
%TO.N,/A7*%
X211836000Y-99060000D03*
%TO.P,U2,31,I/O_21B*%
%TO.N,/A4*%
X214376000Y-101600000D03*
%TO.P,U2,32,I/O_22B*%
%TO.N,/A5*%
X214376000Y-99060000D03*
%TO.P,U2,33,I/O_23B*%
%TO.N,/A3*%
X216916000Y-101600000D03*
%TO.P,U2,34,I/O_24B*%
%TO.N,/A2*%
X216916000Y-99060000D03*
%TO.P,U2,35,GND*%
%TO.N,GND*%
X219456000Y-101600000D03*
%TO.P,U2,36,I/O_25C*%
%TO.N,/AG1*%
X219456000Y-99060000D03*
%TO.P,U2,37,I/O_26C*%
%TO.N,/A1*%
X221996000Y-101600000D03*
%TO.P,U2,38,I/O_27C*%
%TO.N,/CSRTC*%
X221996000Y-99060000D03*
%TO.P,U2,39,I/O_28C*%
%TO.N,/RDW*%
X224536000Y-101600000D03*
%TO.P,U2,40,I/O_29C*%
%TO.N,/A16*%
X224536000Y-99060000D03*
%TO.P,U2,41,I/O_30C*%
%TO.N,/MA5*%
X227076000Y-101600000D03*
%TO.P,U2,42,I/O_31C*%
%TO.N,/MA8*%
X227076000Y-99060000D03*
%TO.P,U2,43,I/O_32C*%
%TO.N,/DS*%
X229616000Y-101600000D03*
%TO.P,U2,44,I/O_33C*%
%TO.N,/FDCON_CS*%
X232156000Y-99060000D03*
%TO.P,U2,45,I/O_34C*%
%TO.N,/CSROM*%
X229616000Y-99060000D03*
%TO.P,U2,46,I/O_35C*%
%TO.N,unconnected-(U2-I{slash}O_35C-Pad46)*%
X232156000Y-96520000D03*
%TO.P,U2,47,I/O_36C*%
%TO.N,/RESFDC*%
X229616000Y-96520000D03*
%TO.P,U2,48,INP9*%
%TO.N,/AG2*%
X232156000Y-93980000D03*
%TO.P,U2,49,INP10*%
%TO.N,/AG4*%
X229616000Y-93980000D03*
%TO.P,U2,50,INP11*%
%TO.N,/AG8*%
X232156000Y-91440000D03*
%TO.P,U2,51,CLK3/INP12*%
%TO.N,/AG6*%
X229616000Y-91440000D03*
%TO.P,U2,52,VCC*%
%TO.N,+5V*%
X232156000Y-88900000D03*
%TO.P,U2,53,CLK4/INP13*%
%TO.N,/AG10*%
X229616000Y-88900000D03*
%TO.P,U2,54,INP14*%
%TO.N,/AG12*%
X232156000Y-86360000D03*
%TO.P,U2,55,INP15*%
%TO.N,/AG11*%
X229616000Y-86360000D03*
%TO.P,U2,56,INP16*%
%TO.N,/AG15*%
X232156000Y-83820000D03*
%TO.P,U2,57,I/O_37D*%
%TO.N,/AG18*%
X229616000Y-83820000D03*
%TO.P,U2,58,I/O_38D*%
%TO.N,/AG9*%
X232156000Y-81280000D03*
%TO.P,U2,59,I/O_39D*%
%TO.N,/AG7*%
X229616000Y-81280000D03*
%TO.P,U2,60,I/O_40D*%
%TO.N,unconnected-(U2-I{slash}O_40D-Pad60)*%
X232156000Y-78740000D03*
%TO.P,U2,61,I/O_41D*%
%TO.N,/MA6*%
X229616000Y-76200000D03*
%TO.P,U2,62,I/O_42D*%
%TO.N,/MA7*%
X229616000Y-78740000D03*
%TO.P,U2,63,I/O_43D*%
%TO.N,/MA4*%
X227076000Y-76200000D03*
%TO.P,U2,64,I/O_44D*%
%TO.N,/MA3*%
X227076000Y-78740000D03*
%TO.P,U2,65,I/O_45D*%
%TO.N,/MA2*%
X224536000Y-76200000D03*
%TO.P,U2,66,I/O_46D*%
%TO.N,/MA1*%
X224536000Y-78740000D03*
%TO.P,U2,67,I/O_47D*%
%TO.N,/MA0*%
X221996000Y-76200000D03*
%TO.P,U2,68,I/O_48D*%
%TO.N,/MA9*%
X221996000Y-78740000D03*
%TD*%
D28*
%TO.P,U1,1,D4*%
%TO.N,/DG4*%
X187706000Y-76200000D03*
D29*
%TO.P,U1,2,D3*%
%TO.N,/DG3*%
X187706000Y-78740000D03*
%TO.P,U1,3,D2*%
%TO.N,/DG2*%
X185166000Y-76200000D03*
%TO.P,U1,4,D1*%
%TO.N,/DG1*%
X185166000Y-78740000D03*
%TO.P,U1,5,D0*%
%TO.N,/DG0*%
X182626000Y-76200000D03*
%TO.P,U1,6,AS*%
%TO.N,unconnected-(U1-AS-Pad6)*%
X182626000Y-78740000D03*
%TO.P,U1,7,UDS*%
%TO.N,/UDS*%
X180086000Y-76200000D03*
%TO.P,U1,8,LDS*%
%TO.N,/LDS*%
X180086000Y-78740000D03*
%TO.P,U1,9,R/W*%
%TO.N,/RW*%
X177546000Y-76200000D03*
%TO.P,U1,10,DTACK*%
%TO.N,/DTA*%
X175006000Y-78740000D03*
%TO.P,U1,11,BG*%
%TO.N,unconnected-(U1-BG-Pad11)*%
X177546000Y-78740000D03*
%TO.P,U1,12,BGACK*%
%TO.N,+5V*%
X175006000Y-81280000D03*
%TO.P,U1,13,BR*%
X177546000Y-81280000D03*
%TO.P,U1,14,VCC*%
X175006000Y-83820000D03*
%TO.P,U1,15,CLK*%
%TO.N,/16MHZ*%
X177546000Y-83820000D03*
%TO.P,U1,16,GND*%
%TO.N,GND*%
X175006000Y-86360000D03*
%TO.P,U1,17,GND*%
X177546000Y-86360000D03*
%TO.P,U1,18,NC*%
%TO.N,unconnected-(U1-NC-Pad18)*%
X175006000Y-88900000D03*
%TO.P,U1,19,HALT*%
%TO.N,/RESET*%
X177546000Y-88900000D03*
%TO.P,U1,20,RESET*%
X175006000Y-91440000D03*
%TO.P,U1,21,VMA*%
%TO.N,unconnected-(U1-VMA-Pad21)*%
X177546000Y-91440000D03*
%TO.P,U1,22,E*%
%TO.N,unconnected-(U1-E-Pad22)*%
X175006000Y-93980000D03*
%TO.P,U1,23,VPA*%
%TO.N,/VPA*%
X177546000Y-93980000D03*
%TO.P,U1,24,BERR*%
%TO.N,+5V*%
X175006000Y-96520000D03*
%TO.P,U1,25,IPL2*%
%TO.N,unconnected-(U1-IPL2-Pad25)*%
X177546000Y-96520000D03*
%TO.P,U1,26,IPL1*%
%TO.N,/IPL1*%
X175006000Y-99060000D03*
%TO.P,U1,27,IPL0*%
%TO.N,/IPL0*%
X177546000Y-101600000D03*
%TO.P,U1,28,FC2*%
%TO.N,unconnected-(U1-FC2-Pad28)*%
X177546000Y-99060000D03*
%TO.P,U1,29,FC1*%
%TO.N,/FC1*%
X180086000Y-101600000D03*
%TO.P,U1,30,FC0*%
%TO.N,/FC0*%
X180086000Y-99060000D03*
%TO.P,U1,31,NC*%
%TO.N,unconnected-(U1-NC-Pad31)*%
X182626000Y-101600000D03*
%TO.P,U1,32,A1*%
%TO.N,/AG1*%
X182626000Y-99060000D03*
%TO.P,U1,33,A2*%
%TO.N,/AG2*%
X185166000Y-101600000D03*
%TO.P,U1,34,A3*%
%TO.N,/AG3*%
X185166000Y-99060000D03*
%TO.P,U1,35,A4*%
%TO.N,/AG4*%
X187706000Y-101600000D03*
%TO.P,U1,36,A5*%
%TO.N,/AG5*%
X187706000Y-99060000D03*
%TO.P,U1,37,A6*%
%TO.N,/AG6*%
X190246000Y-101600000D03*
%TO.P,U1,38,A7*%
%TO.N,/AG7*%
X190246000Y-99060000D03*
%TO.P,U1,39,A8*%
%TO.N,/AG8*%
X192786000Y-101600000D03*
%TO.P,U1,40,A9*%
%TO.N,/AG9*%
X192786000Y-99060000D03*
%TO.P,U1,41,A10*%
%TO.N,/AG10*%
X195326000Y-101600000D03*
%TO.P,U1,42,A11*%
%TO.N,/AG11*%
X195326000Y-99060000D03*
%TO.P,U1,43,A12*%
%TO.N,/AG12*%
X197866000Y-101600000D03*
%TO.P,U1,44,A13*%
%TO.N,/AG13*%
X200406000Y-99060000D03*
%TO.P,U1,45,A14*%
%TO.N,/AG14*%
X197866000Y-99060000D03*
%TO.P,U1,46,A15*%
%TO.N,/AG15*%
X200406000Y-96520000D03*
%TO.P,U1,47,A16*%
%TO.N,/AG16*%
X197866000Y-96520000D03*
%TO.P,U1,48,A17*%
%TO.N,/AG17*%
X200406000Y-93980000D03*
%TO.P,U1,49,A18*%
%TO.N,/AG18*%
X197866000Y-93980000D03*
%TO.P,U1,50,A19*%
%TO.N,/AG19*%
X200406000Y-91440000D03*
%TO.P,U1,51,A20*%
%TO.N,/AG20*%
X197866000Y-91440000D03*
%TO.P,U1,52,VCC*%
%TO.N,+5V*%
X200406000Y-88900000D03*
%TO.P,U1,53,A21*%
%TO.N,unconnected-(U1-A21-Pad53)*%
X197866000Y-88900000D03*
%TO.P,U1,54,A22*%
%TO.N,unconnected-(U1-A22-Pad54)*%
X200406000Y-86360000D03*
%TO.P,U1,55,A23*%
%TO.N,unconnected-(U1-A23-Pad55)*%
X197866000Y-86360000D03*
%TO.P,U1,56,GND*%
%TO.N,GND*%
X200406000Y-83820000D03*
%TO.P,U1,57,GND*%
X197866000Y-83820000D03*
%TO.P,U1,58,D15*%
%TO.N,/DG15*%
X200406000Y-81280000D03*
%TO.P,U1,59,D14*%
%TO.N,/DG14*%
X197866000Y-81280000D03*
%TO.P,U1,60,D13*%
%TO.N,/DG13*%
X200406000Y-78740000D03*
%TO.P,U1,61,D12*%
%TO.N,/DG12*%
X197866000Y-76200000D03*
%TO.P,U1,62,D11*%
%TO.N,/DG11*%
X197866000Y-78740000D03*
%TO.P,U1,63,D10*%
%TO.N,/DG10*%
X195326000Y-76200000D03*
%TO.P,U1,64,D9*%
%TO.N,/DG9*%
X195326000Y-78740000D03*
%TO.P,U1,65,D8*%
%TO.N,/DG8*%
X192786000Y-76200000D03*
%TO.P,U1,66,D7*%
%TO.N,/DG7*%
X192786000Y-78740000D03*
%TO.P,U1,67,D6*%
%TO.N,/DG6*%
X190246000Y-76200000D03*
%TO.P,U1,68,D5*%
%TO.N,/DG5*%
X190246000Y-78740000D03*
%TD*%
D23*
%TO.P,C7,1*%
%TO.N,+5V*%
X225806000Y-139700000D03*
%TO.P,C7,2*%
%TO.N,GND*%
X233306000Y-139700000D03*
%TD*%
%TO.P,C11,1*%
%TO.N,+5V*%
X167533000Y-93599000D03*
%TO.P,C11,2*%
%TO.N,GND*%
X170033000Y-93599000D03*
%TD*%
D14*
%TO.P,R4,1*%
%TO.N,Net-(U12-FILT)*%
X178816000Y-124460000D03*
D15*
%TO.P,R4,2*%
%TO.N,Net-(C3-Pad2)*%
X178816000Y-132080000D03*
%TD*%
D12*
%TO.P,U5,1,CP_AB*%
%TO.N,/WRH*%
X197866000Y-47625000D03*
D13*
%TO.P,U5,2,S_AB*%
X195326000Y-47625000D03*
%TO.P,U5,3,DIR*%
%TO.N,/RW*%
X192786000Y-47625000D03*
%TO.P,U5,4,A0*%
%TO.N,/D7*%
X190246000Y-47625000D03*
%TO.P,U5,5,A1*%
%TO.N,/D6*%
X187706000Y-47625000D03*
%TO.P,U5,6,A2*%
%TO.N,/D5*%
X185166000Y-47625000D03*
%TO.P,U5,7,A3*%
%TO.N,/D4*%
X182626000Y-47625000D03*
%TO.P,U5,8,A4*%
%TO.N,/D3*%
X180086000Y-47625000D03*
%TO.P,U5,9,A5*%
%TO.N,/D2*%
X177546000Y-47625000D03*
%TO.P,U5,10,A6*%
%TO.N,/D1*%
X175006000Y-47625000D03*
%TO.P,U5,11,A7*%
%TO.N,/D0*%
X172466000Y-47625000D03*
%TO.P,U5,12,GND*%
%TO.N,GND*%
X169926000Y-47625000D03*
%TO.P,U5,13,B7*%
%TO.N,/DG8*%
X169926000Y-55245000D03*
%TO.P,U5,14,B6*%
%TO.N,/DG9*%
X172466000Y-55245000D03*
%TO.P,U5,15,B5*%
%TO.N,/DG10*%
X175006000Y-55245000D03*
%TO.P,U5,16,B4*%
%TO.N,/DG11*%
X177546000Y-55245000D03*
%TO.P,U5,17,B3*%
%TO.N,/DG12*%
X180086000Y-55245000D03*
%TO.P,U5,18,B2*%
%TO.N,/DG13*%
X182626000Y-55245000D03*
%TO.P,U5,19,B1*%
%TO.N,/DG14*%
X185166000Y-55245000D03*
%TO.P,U5,20,B0*%
%TO.N,/DG15*%
X187706000Y-55245000D03*
%TO.P,U5,21,OE_L*%
%TO.N,/RDH*%
X190246000Y-55245000D03*
%TO.P,U5,22,S_BA*%
%TO.N,GND*%
X192786000Y-55245000D03*
%TO.P,U5,23,CP_BA*%
X195326000Y-55245000D03*
%TO.P,U5,24,VCC*%
%TO.N,+5V*%
X197866000Y-55245000D03*
%TD*%
D23*
%TO.P,C12,1*%
%TO.N,+5V*%
X172506000Y-57785000D03*
%TO.P,C12,2*%
%TO.N,GND*%
X180006000Y-57785000D03*
%TD*%
D30*
%TO.P,U0,1,IN*%
%TO.N,+9V*%
X166116000Y-55880000D03*
D31*
%TO.P,U0,2,GND*%
%TO.N,GND*%
X163576000Y-55880000D03*
%TO.P,U0,3,OUT*%
%TO.N,+5V*%
X161036000Y-55880000D03*
%TD*%
D23*
%TO.P,C13,1*%
%TO.N,+5V*%
X213146000Y-139700000D03*
%TO.P,C13,2*%
%TO.N,GND*%
X220646000Y-139700000D03*
%TD*%
D12*
%TO.P,U11,1,~{OE}*%
%TO.N,GND*%
X209296000Y-60960000D03*
D23*
%TO.P,U11,2,~{CAS}*%
%TO.N,/CAS1*%
X210566000Y-58420000D03*
%TO.P,U11,3,D2*%
%TO.N,/DG14*%
X211836000Y-60960000D03*
%TO.P,U11,4,D3*%
%TO.N,/DG13*%
X213106000Y-58420000D03*
%TO.P,U11,5,GND*%
%TO.N,GND*%
X214376000Y-60960000D03*
%TO.P,U11,6,D0*%
%TO.N,/DG12*%
X215646000Y-58420000D03*
%TO.P,U11,7,D1*%
%TO.N,/DG15*%
X216916000Y-60960000D03*
%TO.P,U11,8,~{WR}*%
%TO.N,/RW*%
X218186000Y-58420000D03*
%TO.P,U11,9,~{RAS}*%
%TO.N,/RAS*%
X219456000Y-60960000D03*
%TO.P,U11,10,A9*%
%TO.N,/MA9*%
X220726000Y-58420000D03*
%TO.P,U11,11,A0*%
%TO.N,/MA0*%
X221996000Y-60960000D03*
%TO.P,U11,12,A1*%
%TO.N,/MA1*%
X223266000Y-58420000D03*
%TO.P,U11,13,A2*%
%TO.N,/MA2*%
X224536000Y-60960000D03*
%TO.P,U11,14,A3*%
%TO.N,/MA3*%
X225806000Y-58420000D03*
%TO.P,U11,15,VCC*%
%TO.N,+5V*%
X227076000Y-60960000D03*
%TO.P,U11,16,A4*%
%TO.N,/MA4*%
X228346000Y-58420000D03*
%TO.P,U11,17,A5*%
%TO.N,/MA5*%
X229616000Y-60960000D03*
%TO.P,U11,18,A6*%
%TO.N,/MA6*%
X230886000Y-58420000D03*
%TO.P,U11,19,A7*%
%TO.N,/MA7*%
X232156000Y-60960000D03*
%TO.P,U11,20,A8*%
%TO.N,/MA8*%
X233426000Y-58420000D03*
%TD*%
D16*
%TO.P,J4,1,Pin_1*%
%TO.N,+5V*%
X172466000Y-71120000D03*
%TD*%
D12*
%TO.P,U7,1,~{CS}*%
%TO.N,Net-(Q1-C)*%
X225806000Y-119380000D03*
D13*
%TO.P,U7,2,RD*%
%TO.N,/A1*%
X225806000Y-121920000D03*
%TO.P,U7,3,WR*%
%TO.N,/RDW*%
X225806000Y-124460000D03*
%TO.P,U7,4,DB3*%
%TO.N,/D7*%
X225806000Y-127000000D03*
%TO.P,U7,5,DB2*%
%TO.N,/D6*%
X225806000Y-129540000D03*
%TO.P,U7,6,DB1*%
%TO.N,/D5*%
X225806000Y-132080000D03*
%TO.P,U7,7,DB0*%
%TO.N,/D4*%
X225806000Y-134620000D03*
%TO.P,U7,8,GND*%
%TO.N,Net-(D1-A)*%
X225806000Y-137160000D03*
%TO.P,U7,9,A3*%
%TO.N,/A5*%
X233426000Y-137160000D03*
%TO.P,U7,10,A2*%
%TO.N,/A4*%
X233426000Y-134620000D03*
%TO.P,U7,11,A1*%
%TO.N,/A3*%
X233426000Y-132080000D03*
%TO.P,U7,12,A0*%
%TO.N,/A2*%
X233426000Y-129540000D03*
%TO.P,U7,13,~{INT}*%
%TO.N,unconnected-(U7-~{INT}-Pad13)*%
X233426000Y-127000000D03*
%TO.P,U7,14,XTAL_OUT*%
%TO.N,Net-(U7-XTAL_OUT)*%
X233426000Y-124460000D03*
%TO.P,U7,15,XTAL_IN*%
%TO.N,Net-(U7-XTAL_IN)*%
X233426000Y-121920000D03*
%TO.P,U7,16,VCC*%
%TO.N,+5V*%
X233426000Y-119380000D03*
%TD*%
D20*
%TO.P,H2,1,1*%
%TO.N,GND*%
X164241000Y-86360000D03*
X164790175Y-85034175D03*
X164790175Y-87685825D03*
X166116000Y-84485000D03*
D21*
X166116000Y-86360000D03*
D20*
X166116000Y-88235000D03*
X167441825Y-85034175D03*
X167441825Y-87685825D03*
X167991000Y-86360000D03*
%TD*%
D12*
%TO.P,U3,1,A15*%
%TO.N,/A15*%
X208026000Y-106680000D03*
D13*
%TO.P,U3,2,A12*%
%TO.N,/A12*%
X208026000Y-109220000D03*
%TO.P,U3,3,A7*%
%TO.N,/A7*%
X208026000Y-111760000D03*
%TO.P,U3,4,A6*%
%TO.N,/A6*%
X208026000Y-114300000D03*
%TO.P,U3,5,A5*%
%TO.N,/A5*%
X208026000Y-116840000D03*
%TO.P,U3,6,A4*%
%TO.N,/A4*%
X208026000Y-119380000D03*
%TO.P,U3,7,A3*%
%TO.N,/A3*%
X208026000Y-121920000D03*
%TO.P,U3,8,A2*%
%TO.N,/A2*%
X208026000Y-124460000D03*
%TO.P,U3,9,A1*%
%TO.N,/A1*%
X208026000Y-127000000D03*
%TO.P,U3,10,A0*%
%TO.N,/A0*%
X208026000Y-129540000D03*
%TO.P,U3,11,D0*%
%TO.N,/D0*%
X208026000Y-132080000D03*
%TO.P,U3,12,D1*%
%TO.N,/D1*%
X208026000Y-134620000D03*
%TO.P,U3,13,D2*%
%TO.N,/D2*%
X208026000Y-137160000D03*
%TO.P,U3,14,GND*%
%TO.N,GND*%
X208026000Y-139700000D03*
%TO.P,U3,15,D3*%
%TO.N,/D3*%
X223266000Y-139700000D03*
%TO.P,U3,16,D4*%
%TO.N,/D4*%
X223266000Y-137160000D03*
%TO.P,U3,17,D5*%
%TO.N,/D5*%
X223266000Y-134620000D03*
%TO.P,U3,18,D6*%
%TO.N,/D6*%
X223266000Y-132080000D03*
%TO.P,U3,19,D7*%
%TO.N,/D7*%
X223266000Y-129540000D03*
%TO.P,U3,20,~{CE}*%
%TO.N,/CSROM*%
X223266000Y-127000000D03*
%TO.P,U3,21,A10*%
%TO.N,/A10*%
X223266000Y-124460000D03*
%TO.P,U3,22,~{OE/Vpp}*%
%TO.N,GND*%
X223266000Y-121920000D03*
%TO.P,U3,23,A11*%
%TO.N,/A11*%
X223266000Y-119380000D03*
%TO.P,U3,24,A9*%
%TO.N,/A9*%
X223266000Y-116840000D03*
%TO.P,U3,25,A8*%
%TO.N,/A8*%
X223266000Y-114300000D03*
%TO.P,U3,26,A13*%
%TO.N,/A13*%
X223266000Y-111760000D03*
%TO.P,U3,27,A14*%
%TO.N,/A14*%
X223266000Y-109220000D03*
%TO.P,U3,28,VCC*%
%TO.N,+5V*%
X223266000Y-106680000D03*
%TD*%
D22*
%TO.P,C5,1*%
%TO.N,Net-(C3-Pad2)*%
X172466000Y-139700000D03*
%TO.P,C5,2*%
%TO.N,GND*%
X187466000Y-139700000D03*
%TD*%
D12*
%TO.P,U9,1,~{OE}*%
%TO.N,GND*%
X209296000Y-71120000D03*
D23*
%TO.P,U9,2,~{CAS}*%
%TO.N,/CAS0*%
X210566000Y-68580000D03*
%TO.P,U9,3,D2*%
%TO.N,/DG7*%
X211836000Y-71120000D03*
%TO.P,U9,4,D3*%
%TO.N,/DG5*%
X213106000Y-68580000D03*
%TO.P,U9,5,GND*%
%TO.N,GND*%
X214376000Y-71120000D03*
%TO.P,U9,6,D0*%
%TO.N,/DG4*%
X215646000Y-68580000D03*
%TO.P,U9,7,D1*%
%TO.N,/DG6*%
X216916000Y-71120000D03*
%TO.P,U9,8,~{WR}*%
%TO.N,/RW*%
X218186000Y-68580000D03*
%TO.P,U9,9,~{RAS}*%
%TO.N,/RAS*%
X219456000Y-71120000D03*
%TO.P,U9,10,A9*%
%TO.N,/MA9*%
X220726000Y-68580000D03*
%TO.P,U9,11,A0*%
%TO.N,/MA0*%
X221996000Y-71120000D03*
%TO.P,U9,12,A1*%
%TO.N,/MA1*%
X223266000Y-68580000D03*
%TO.P,U9,13,A2*%
%TO.N,/MA2*%
X224536000Y-71120000D03*
%TO.P,U9,14,A3*%
%TO.N,/MA3*%
X225806000Y-68580000D03*
%TO.P,U9,15,VCC*%
%TO.N,+5V*%
X227076000Y-71120000D03*
%TO.P,U9,16,A4*%
%TO.N,/MA4*%
X228346000Y-68580000D03*
%TO.P,U9,17,A5*%
%TO.N,/MA5*%
X229616000Y-71120000D03*
%TO.P,U9,18,A6*%
%TO.N,/MA6*%
X230886000Y-68580000D03*
%TO.P,U9,19,A7*%
%TO.N,/MA7*%
X232156000Y-71120000D03*
%TO.P,U9,20,A8*%
%TO.N,/MA8*%
X233426000Y-68580000D03*
%TD*%
%TO.P,C2,1*%
%TO.N,Net-(U7-XTAL_OUT)*%
X225806000Y-116820000D03*
%TO.P,C2,2*%
%TO.N,GND*%
X225806000Y-114320000D03*
%TD*%
D12*
%TO.P,D3,1,K*%
%TO.N,+9V*%
X228346000Y-48895000D03*
D13*
%TO.P,D3,2,A*%
%TO.N,Net-(D3-A)*%
X220726000Y-48895000D03*
%TD*%
D28*
%TO.P,U12,1,MOTOR2*%
%TO.N,/DS2*%
X192786000Y-128270000D03*
D29*
%TO.P,U12,2*%
%TO.N,N/C*%
X192786000Y-125730000D03*
%TO.P,U12,3,WD*%
%TO.N,/FDC_WD*%
X195326000Y-128270000D03*
%TO.P,U12,4,DIRC*%
%TO.N,/FDC_DIR*%
X195326000Y-125730000D03*
%TO.P,U12,5,DR1*%
%TO.N,/MOTOR_ON*%
X197866000Y-128270000D03*
%TO.P,U12,6,DR0*%
X197866000Y-125730000D03*
%TO.P,U12,7,MOTOR1*%
%TO.N,/DS1*%
X200406000Y-128270000D03*
%TO.P,U12,8,MOTOR0*%
%TO.N,/DS0*%
X202946000Y-125730000D03*
%TO.P,U12,9,HDSEL*%
%TO.N,/FDC_HD*%
X200406000Y-125730000D03*
%TO.P,U12,10,~{TR00}*%
%TO.N,/FDC_T0*%
X202946000Y-123190000D03*
%TO.P,U12,11,~{IP}*%
%TO.N,/FDC_IP*%
X200406000Y-123190000D03*
%TO.P,U12,12,~{WPRT}*%
%TO.N,/FDC_WPRT*%
X202946000Y-120650000D03*
%TO.P,U12,13*%
%TO.N,N/C*%
X200406000Y-120650000D03*
%TO.P,U12,14,GND*%
%TO.N,GND*%
X202946000Y-118110000D03*
%TO.P,U12,15,VCC*%
%TO.N,+5V*%
X200406000Y-118110000D03*
%TO.P,U12,16,WR*%
%TO.N,/RDW*%
X202946000Y-115570000D03*
%TO.P,U12,17,RD*%
%TO.N,/A1*%
X200406000Y-115570000D03*
%TO.P,U12,18,~{CS}*%
%TO.N,/FDCON_CS*%
X202946000Y-113030000D03*
%TO.P,U12,19,A0*%
%TO.N,/A5*%
X200406000Y-113030000D03*
%TO.P,U12,20,A1*%
%TO.N,/A6*%
X202946000Y-110490000D03*
%TO.P,U12,21,A2*%
%TO.N,/A7*%
X200406000Y-107950000D03*
%TO.P,U12,22,DI0*%
%TO.N,/D0*%
X200406000Y-110490000D03*
%TO.P,U12,23,DI1*%
%TO.N,/D1*%
X197866000Y-107950000D03*
%TO.P,U12,24,DI2*%
%TO.N,/D2*%
X197866000Y-110490000D03*
%TO.P,U12,25,DI3*%
%TO.N,/D3*%
X195326000Y-107950000D03*
%TO.P,U12,26,DI4*%
%TO.N,/D4*%
X195326000Y-110490000D03*
%TO.P,U12,27*%
%TO.N,N/C*%
X192786000Y-107950000D03*
%TO.P,U12,28,DI5*%
%TO.N,/D5*%
X192786000Y-110490000D03*
%TO.P,U12,29,DI6*%
%TO.N,/D6*%
X190246000Y-107950000D03*
%TO.P,U12,30,DI7*%
%TO.N,/D7*%
X190246000Y-110490000D03*
%TO.P,U12,31,DRQ*%
%TO.N,unconnected-(U12-DRQ-Pad31)*%
X187706000Y-107950000D03*
%TO.P,U12,32,DAK*%
%TO.N,+5V*%
X187706000Y-110490000D03*
%TO.P,U12,33,TC*%
X185166000Y-107950000D03*
%TO.P,U12,34,INTRQ*%
%TO.N,unconnected-(U12-INTRQ-Pad34)*%
X182626000Y-110490000D03*
%TO.P,U12,35,DSKCHG*%
%TO.N,/VSYNC*%
X185166000Y-110490000D03*
%TO.P,U12,36*%
%TO.N,N/C*%
X182626000Y-113030000D03*
%TO.P,U12,37*%
X185166000Y-113030000D03*
%TO.P,U12,38,OSC1*%
%TO.N,Net-(U12-OSC1)*%
X182626000Y-115570000D03*
%TO.P,U12,39,OSC2/CLK*%
%TO.N,Net-(U12-OSC2{slash}CLK)*%
X185166000Y-115570000D03*
%TO.P,U12,40,FILT*%
%TO.N,Net-(U12-FILT)*%
X182626000Y-118110000D03*
%TO.P,U12,41,FE50*%
%TO.N,Net-(U12-FE50)*%
X185166000Y-118110000D03*
%TO.P,U12,42,FE25*%
%TO.N,Net-(U12-FE25)*%
X182626000Y-120650000D03*
%TO.P,U12,43,DR3*%
%TO.N,unconnected-(U12-DR3-Pad43)*%
X185166000Y-120650000D03*
%TO.P,U12,44,~{RD}*%
%TO.N,/FDC_RD*%
X182626000Y-123190000D03*
%TO.P,U12,45,DR2*%
%TO.N,/MOTOR_ON*%
X185166000Y-123190000D03*
%TO.P,U12,46*%
%TO.N,N/C*%
X182626000Y-125730000D03*
%TO.P,U12,47,DRVTYP*%
%TO.N,GND*%
X185166000Y-128270000D03*
%TO.P,U12,48,PUMP*%
X185166000Y-125730000D03*
%TO.P,U12,49,WG*%
%TO.N,/FDC_WG*%
X187706000Y-128270000D03*
%TO.P,U12,50,STEP*%
%TO.N,/FDC_STEP*%
X187706000Y-125730000D03*
%TO.P,U12,51,RPM/LC*%
%TO.N,unconnected-(U12-RPM{slash}LC-Pad51)*%
X190246000Y-128270000D03*
%TO.P,U12,52,MOTOR3*%
%TO.N,unconnected-(U12-MOTOR3-Pad52)*%
X190246000Y-125730000D03*
%TD*%
D12*
%TO.P,D2,1,K*%
%TO.N,Net-(D2-K)*%
X218186000Y-46355000D03*
D13*
%TO.P,D2,2,A*%
%TO.N,Net-(D1-A)*%
X210566000Y-46355000D03*
%TD*%
D23*
%TO.P,C9,1*%
%TO.N,+9V*%
X166076000Y-52070000D03*
%TO.P,C9,2*%
%TO.N,GND*%
X161076000Y-52070000D03*
%TD*%
D12*
%TO.P,U10,1,~{OE}*%
%TO.N,GND*%
X209296000Y-55880000D03*
D23*
%TO.P,U10,2,~{CAS}*%
%TO.N,/CAS1*%
X210566000Y-53340000D03*
%TO.P,U10,3,D2*%
%TO.N,/DG11*%
X211836000Y-55880000D03*
%TO.P,U10,4,D3*%
%TO.N,/DG10*%
X213106000Y-53340000D03*
%TO.P,U10,5,GND*%
%TO.N,GND*%
X214376000Y-55880000D03*
%TO.P,U10,6,D0*%
%TO.N,/DG8*%
X215646000Y-53340000D03*
%TO.P,U10,7,D1*%
%TO.N,/DG9*%
X216916000Y-55880000D03*
%TO.P,U10,8,~{WR}*%
%TO.N,/RW*%
X218186000Y-53340000D03*
%TO.P,U10,9,~{RAS}*%
%TO.N,/RAS*%
X219456000Y-55880000D03*
%TO.P,U10,10,A9*%
%TO.N,/MA9*%
X220726000Y-53340000D03*
%TO.P,U10,11,A0*%
%TO.N,/MA0*%
X221996000Y-55880000D03*
%TO.P,U10,12,A1*%
%TO.N,/MA1*%
X223266000Y-53340000D03*
%TO.P,U10,13,A2*%
%TO.N,/MA2*%
X224536000Y-55880000D03*
%TO.P,U10,14,A3*%
%TO.N,/MA3*%
X225806000Y-53340000D03*
%TO.P,U10,15,VCC*%
%TO.N,+5V*%
X227076000Y-55880000D03*
%TO.P,U10,16,A4*%
%TO.N,/MA4*%
X228346000Y-53340000D03*
%TO.P,U10,17,A5*%
%TO.N,/MA5*%
X229616000Y-55880000D03*
%TO.P,U10,18,A6*%
%TO.N,/MA6*%
X230886000Y-53340000D03*
%TO.P,U10,19,A7*%
%TO.N,/MA7*%
X232156000Y-55880000D03*
%TO.P,U10,20,A8*%
%TO.N,/MA8*%
X233426000Y-53340000D03*
%TD*%
D14*
%TO.P,R2,1*%
%TO.N,Net-(D3-A)*%
X220726000Y-46355000D03*
D15*
%TO.P,R2,2*%
%TO.N,Net-(Q1-B)*%
X228346000Y-46355000D03*
%TD*%
D12*
%TO.P,C8,1*%
%TO.N,+9V*%
X164737400Y-46990000D03*
D23*
%TO.P,C8,2*%
%TO.N,GND*%
X162237400Y-46990000D03*
%TD*%
D16*
%TO.P,J3,1,Pin_1*%
%TO.N,Net-(D2-K)*%
X197866000Y-45085000D03*
%TD*%
D12*
%TO.P,RN1,1,common*%
%TO.N,+5V*%
X173736000Y-135890000D03*
D13*
%TO.P,RN1,2,R1*%
%TO.N,unconnected-(RN1-R1-Pad2)*%
X173736000Y-133350000D03*
%TO.P,RN1,3,R2*%
%TO.N,/FDC_IP*%
X173736000Y-130810000D03*
%TO.P,RN1,4,R3*%
%TO.N,/DS0*%
X173736000Y-128270000D03*
%TO.P,RN1,5,R4*%
%TO.N,/DS1*%
X173736000Y-125730000D03*
%TO.P,RN1,6,R5*%
%TO.N,/FDC_RD*%
X173736000Y-123190000D03*
%TO.P,RN1,7,R6*%
%TO.N,/FDC_T0*%
X173736000Y-120650000D03*
%TO.P,RN1,8,R7*%
%TO.N,unconnected-(RN1-R7-Pad8)*%
X173736000Y-118110000D03*
%TO.P,RN1,9,R8*%
%TO.N,/FDC_WPRT*%
X173736000Y-115570000D03*
%TO.P,RN1,10,R9*%
%TO.N,/DS2*%
X173736000Y-113030000D03*
%TD*%
D32*
%TO.N,/AG9*%
X221996000Y-83820000D03*
%TO.N,/DTA*%
X203581000Y-81280000D03*
D33*
%TO.N,/RDW*%
X230886000Y-123190000D03*
%TO.N,/DTACK*%
X234696000Y-77470000D03*
D32*
%TO.N,/VSYNC*%
X193446400Y-105320000D03*
X198411000Y-105320000D03*
%TO.N,/FC1*%
X192654550Y-87630000D03*
%TO.N,/FC0*%
X203205000Y-85090000D03*
D33*
%TO.N,/A3*%
X228346000Y-127000000D03*
%TO.N,/A4*%
X229616000Y-139700000D03*
D32*
X210566000Y-140335000D03*
D33*
%TO.N,/A9*%
X241046000Y-121920000D03*
%TO.N,/A10*%
X241046000Y-124460000D03*
%TO.N,/A11*%
X240411000Y-119380000D03*
%TO.N,/A17*%
X216916000Y-109855000D03*
D32*
%TO.N,/IPL0*%
X201962300Y-91952800D03*
D33*
%TO.N,/D7*%
X195326000Y-131445000D03*
%TO.N,/D6*%
X192786000Y-132080000D03*
%TO.N,/D5*%
X185801000Y-133350000D03*
X187706000Y-113030000D03*
%TO.N,/D4*%
X187706000Y-115570000D03*
X200406000Y-137795000D03*
%TO.N,/D3*%
X182626000Y-107950000D03*
X182626000Y-137795000D03*
%TO.N,/IPL1*%
X237033000Y-45974000D03*
X164846000Y-96520000D03*
%TO.N,/A2*%
X228346000Y-128905000D03*
X210566000Y-74295000D03*
%TO.N,/A1*%
X218186000Y-73660000D03*
%TO.N,/VPA*%
X234442000Y-105410000D03*
%TO.N,/RESET*%
X195326000Y-83820000D03*
D32*
X221996000Y-86360000D03*
X227076000Y-103505000D03*
D33*
%TO.N,+5V*%
X202311000Y-106680000D03*
%TO.N,/DS*%
X234442000Y-102870000D03*
D32*
%TO.N,/D0*%
X212635600Y-132715000D03*
D33*
X177546000Y-130175000D03*
X177546000Y-105410000D03*
%TO.N,/D1*%
X180086000Y-106680000D03*
X181356000Y-132080000D03*
D32*
%TO.N,/D2*%
X217481200Y-137795000D03*
D33*
X181356000Y-134620000D03*
X180086000Y-110490000D03*
%TO.N,/16MHZ*%
X204216000Y-83820000D03*
D32*
%TO.N,/DG3*%
X207566500Y-66034700D03*
%TO.N,/DG2*%
X198628500Y-64730200D03*
X207653200Y-70352300D03*
X199673400Y-69785500D03*
%TO.N,/DG1*%
X206658400Y-65304200D03*
%TO.N,/DG0*%
X206944100Y-56417100D03*
X201041000Y-58420000D03*
X195758300Y-64003300D03*
D33*
%TO.N,/RW*%
X208026000Y-74295000D03*
D32*
%TO.N,/AG8*%
X217651600Y-113030000D03*
D33*
X228981000Y-113030000D03*
%TO.N,/AG9*%
X230886000Y-114300000D03*
%TO.N,/AG10*%
X229870000Y-125730000D03*
%TO.N,/AG11*%
X228346000Y-119380000D03*
D32*
X200276400Y-105010100D03*
%TO.N,/AG13*%
X205994000Y-107950000D03*
D33*
%TO.N,/DG15*%
X204851000Y-61595000D03*
%TO.N,/DG14*%
X202311000Y-60960000D03*
%TO.N,/DG13*%
X202311000Y-57785000D03*
%TO.N,/DG12*%
X204851000Y-57785000D03*
D32*
%TO.N,/DG11*%
X199771000Y-58435800D03*
%TO.N,/DG9*%
X197709900Y-57901800D03*
%TO.N,/DG6*%
X205740000Y-74676000D03*
X192006249Y-72779445D03*
%TO.N,/DG5*%
X193511000Y-72390000D03*
D33*
%TO.N,/CSRTC*%
X234696000Y-87630000D03*
%TO.N,/CSROM*%
X229616000Y-106680000D03*
X221361000Y-107950000D03*
%TO.N,Net-(D1-A)*%
X203708000Y-78486000D03*
D32*
X227794600Y-137574100D03*
D33*
X208026000Y-49022000D03*
%TO.N,/RDH*%
X188976000Y-50165000D03*
X214376000Y-48895000D03*
%TO.N,/FDCON_CS*%
X230378000Y-110744000D03*
%TO.N,Net-(Q1-C)*%
X230886000Y-134620000D03*
X241681000Y-133350000D03*
%TO.N,Net-(U12-FE50)*%
X197866000Y-118110000D03*
%TO.N,Net-(U12-FE25)*%
X196469000Y-135255000D03*
X196469000Y-120523000D03*
%TD*%
D34*
%TO.N,/AG8*%
X228981000Y-113030000D02*
X230251000Y-113030000D01*
X233192000Y-92476200D02*
X232156000Y-91440000D01*
X230251000Y-113030000D02*
X232791000Y-110490000D01*
X232791000Y-102641000D02*
X232791000Y-100330000D01*
X232791000Y-110490000D02*
X232791000Y-108899009D01*
X232791000Y-108899009D02*
X232156000Y-108264010D01*
X232156000Y-108264010D02*
X232156000Y-103276000D01*
X232791000Y-100330000D02*
X233192000Y-99928800D01*
X232156000Y-103276000D02*
X232791000Y-102641000D01*
X233192000Y-99928800D02*
X233192000Y-92476200D01*
%TO.N,/RDW*%
X226127000Y-120650000D02*
X224826000Y-120650000D01*
X227076000Y-123190000D02*
X227076000Y-121599000D01*
X234551000Y-122700000D02*
X234061000Y-123190000D01*
X227076000Y-121599000D02*
X226127000Y-120650000D01*
X224826000Y-120650000D02*
X224536000Y-120360000D01*
X225171000Y-111125000D02*
X225171000Y-102235000D01*
X224536000Y-120360000D02*
X224536000Y-111760000D01*
X225806000Y-124460000D02*
X227076000Y-123190000D01*
X234551000Y-118255000D02*
X234551000Y-122700000D01*
X224536000Y-111760000D02*
X225171000Y-111125000D01*
X235966000Y-116840000D02*
X234551000Y-118255000D01*
X225171000Y-102235000D02*
X224536000Y-101600000D01*
X234061000Y-123190000D02*
X230886000Y-123190000D01*
%TO.N,/DTACK*%
X238792000Y-107950000D02*
X238220000Y-107950000D01*
X237406000Y-108764000D02*
X237406000Y-112860000D01*
X238962000Y-100160000D02*
X239776000Y-100974000D01*
X236592000Y-77470000D02*
X237236000Y-78114400D01*
X238050000Y-100160000D02*
X238962000Y-100160000D01*
X237406000Y-112860000D02*
X235966000Y-114300000D01*
X237236000Y-99345600D02*
X238050000Y-100160000D01*
X237236000Y-78114400D02*
X237236000Y-99345600D01*
X239776000Y-106966000D02*
X238792000Y-107950000D01*
X238220000Y-107950000D02*
X237406000Y-108764000D01*
X234696000Y-77470000D02*
X236592000Y-77470000D01*
X239776000Y-100974000D02*
X239776000Y-106966000D01*
%TO.N,/A3*%
X209296000Y-123190000D02*
X213106000Y-123190000D01*
X214376000Y-121920000D02*
X214376000Y-104140000D01*
X228981000Y-127000000D02*
X228346000Y-127000000D01*
X230251000Y-128270000D02*
X228981000Y-127000000D01*
X233426000Y-132080000D02*
X234696000Y-130810000D01*
X234061000Y-128270000D02*
X230251000Y-128270000D01*
X234696000Y-128905000D02*
X234061000Y-128270000D01*
X234696000Y-130810000D02*
X234696000Y-128905000D01*
X214376000Y-104140000D02*
X216916000Y-101600000D01*
X208026000Y-121920000D02*
X209296000Y-123190000D01*
X213106000Y-123190000D02*
X214376000Y-121920000D01*
%TO.N,/A4*%
X213741000Y-102235000D02*
X213741000Y-120015000D01*
X213741000Y-120015000D02*
X213106000Y-120650000D01*
X206756000Y-135255000D02*
X207391000Y-135890000D01*
X213106000Y-120650000D02*
X209296000Y-120650000D01*
X206756000Y-120650000D02*
X206756000Y-135255000D01*
X207391000Y-135890000D02*
X208661000Y-135890000D01*
X208661000Y-135890000D02*
X209296000Y-136525000D01*
X214376000Y-101600000D02*
X213741000Y-102235000D01*
X209296000Y-136525000D02*
X209296000Y-139065000D01*
X209296000Y-139065000D02*
X210566000Y-140335000D01*
X229616000Y-138430000D02*
X229616000Y-139700000D01*
X209296000Y-120650000D02*
X208026000Y-119380000D01*
X208026000Y-119380000D02*
X206756000Y-120650000D01*
X233426000Y-134620000D02*
X229616000Y-138430000D01*
%TO.N,/A5*%
X211836000Y-95250000D02*
X214376000Y-97790000D01*
X206121000Y-131445000D02*
X206121000Y-118745000D01*
X203807000Y-133759000D02*
X206121000Y-131445000D01*
X200406000Y-113030000D02*
X201676000Y-111760000D01*
X206791000Y-139100000D02*
X203807000Y-136116000D01*
X206756000Y-140970000D02*
X206791000Y-140935000D01*
X230886000Y-141605000D02*
X207391000Y-141605000D01*
X210566000Y-92710000D02*
X211836000Y-93980000D01*
X203807000Y-136116000D02*
X203807000Y-133759000D01*
X214376000Y-97790000D02*
X214376000Y-99060000D01*
X203581000Y-93980000D02*
X204851000Y-92710000D01*
X232156000Y-140335000D02*
X230886000Y-141605000D01*
X204851000Y-92710000D02*
X210566000Y-92710000D01*
X232156000Y-138430000D02*
X232156000Y-140335000D01*
X211836000Y-93980000D02*
X211836000Y-95250000D01*
X208026000Y-116840000D02*
X206121000Y-118745000D01*
X203581000Y-107315000D02*
X203581000Y-93980000D01*
X201676000Y-111760000D02*
X201676000Y-109220000D01*
X233426000Y-137160000D02*
X232156000Y-138430000D01*
X201676000Y-109220000D02*
X203581000Y-107315000D01*
X206791000Y-140935000D02*
X206791000Y-139100000D01*
X207391000Y-141605000D02*
X206756000Y-140970000D01*
%TO.N,/A6*%
X211836000Y-102870000D02*
X210566000Y-104140000D01*
X211836000Y-101600000D02*
X211836000Y-102870000D01*
X210566000Y-112395000D02*
X208026000Y-114935000D01*
X210566000Y-104140000D02*
X210566000Y-112395000D01*
%TO.N,/A7*%
X208026000Y-112395000D02*
X209931000Y-110490000D01*
X209931000Y-103505000D02*
X210566000Y-102870000D01*
X209931000Y-110490000D02*
X209931000Y-103505000D01*
X210566000Y-102870000D02*
X210566000Y-100330000D01*
X210566000Y-100330000D02*
X211836000Y-99060000D01*
%TO.N,/A9*%
X242316000Y-92710000D02*
X242316000Y-120650000D01*
X242316000Y-120650000D02*
X241046000Y-121920000D01*
X238506000Y-88900000D02*
X242316000Y-92710000D01*
%TO.N,/A10*%
X241046000Y-123190000D02*
X241046000Y-124460000D01*
X241681000Y-94615000D02*
X241681000Y-120015000D01*
X241681000Y-120015000D02*
X241491000Y-120015000D01*
X240221000Y-121285000D02*
X240221000Y-122365000D01*
X241491000Y-120015000D02*
X240221000Y-121285000D01*
X238506000Y-91440000D02*
X241681000Y-94615000D01*
X240221000Y-122365000D02*
X241046000Y-123190000D01*
%TO.N,/A11*%
X238506000Y-93980000D02*
X240411000Y-95885000D01*
X240411000Y-95885000D02*
X240411000Y-119380000D01*
%TO.N,/A12*%
X209296000Y-108295000D02*
X208026000Y-109565000D01*
X209296000Y-101600000D02*
X209296000Y-108295000D01*
%TO.N,/A17*%
X216916000Y-120015000D02*
X216916000Y-109855000D01*
X219456000Y-122555000D02*
X216916000Y-120015000D01*
%TO.N,/D7*%
X237066000Y-132885000D02*
X236601000Y-133350000D01*
X229616000Y-133350000D02*
X227076000Y-130810000D01*
X231343000Y-135585000D02*
X231330000Y-135572000D01*
X237066000Y-120820000D02*
X237066000Y-132885000D01*
X194056000Y-69215000D02*
X194056000Y-62230000D01*
X190246000Y-110490000D02*
X191516000Y-109220000D01*
X190246000Y-50165000D02*
X191516000Y-51435000D01*
X230378000Y-135572000D02*
X230378000Y-135534000D01*
X194056000Y-124460000D02*
X190246000Y-120650000D01*
X191516000Y-51435000D02*
X191516000Y-59690000D01*
X194056000Y-129540000D02*
X194056000Y-124460000D01*
X190246000Y-120650000D02*
X190246000Y-110490000D01*
X195326000Y-131445000D02*
X195326000Y-130810000D01*
X195326000Y-130810000D02*
X194056000Y-129540000D01*
X230378000Y-135534000D02*
X229616000Y-134772000D01*
X192786000Y-73025000D02*
X192786000Y-70485000D01*
X191516000Y-59690000D02*
X192786000Y-60960000D01*
X229616000Y-134772000D02*
X229616000Y-133350000D01*
X232156000Y-134772000D02*
X231343000Y-135585000D01*
X231330000Y-135572000D02*
X230378000Y-135572000D01*
X191516000Y-74295000D02*
X192786000Y-73025000D01*
X238506000Y-119380000D02*
X237066000Y-120820000D01*
X224536000Y-130810000D02*
X227076000Y-130810000D01*
X191516000Y-109220000D02*
X191516000Y-74295000D01*
X223266000Y-129540000D02*
X224536000Y-130810000D01*
X194056000Y-62230000D02*
X192786000Y-60960000D01*
X232156000Y-133985000D02*
X232156000Y-134772000D01*
X192786000Y-70485000D02*
X194056000Y-69215000D01*
X236601000Y-133350000D02*
X232791000Y-133350000D01*
X190246000Y-47625000D02*
X190246000Y-50165000D01*
X232791000Y-133350000D02*
X232156000Y-133985000D01*
%TO.N,/D6*%
X192786000Y-132080000D02*
X192786000Y-130810000D01*
X238506000Y-121920000D02*
X239606000Y-123020000D01*
X221996000Y-137795000D02*
X221996000Y-133350000D01*
X222631000Y-138430000D02*
X221996000Y-137795000D01*
X236601000Y-133985000D02*
X234696000Y-135890000D01*
X187706000Y-47625000D02*
X187706000Y-50800000D01*
X228346000Y-139700000D02*
X227076000Y-138430000D01*
X230886000Y-140335000D02*
X230251000Y-140970000D01*
X191516000Y-71755000D02*
X188976000Y-74295000D01*
X228981000Y-140970000D02*
X228346000Y-140335000D01*
X230886000Y-138109000D02*
X230886000Y-140335000D01*
X239606000Y-123020000D02*
X239606000Y-132885000D01*
X188976000Y-74295000D02*
X188976000Y-106680000D01*
X188976000Y-52070000D02*
X188976000Y-59690000D01*
X189611000Y-112395000D02*
X188976000Y-111760000D01*
X230251000Y-140970000D02*
X228981000Y-140970000D01*
X188976000Y-59690000D02*
X190246000Y-60960000D01*
X190246000Y-60960000D02*
X191516000Y-62230000D01*
X233105000Y-135890000D02*
X230886000Y-138109000D01*
X228346000Y-140335000D02*
X228346000Y-139700000D01*
X192786000Y-130810000D02*
X191516000Y-129540000D01*
X239606000Y-132885000D02*
X238506000Y-133985000D01*
X187706000Y-50800000D02*
X188976000Y-52070000D01*
X223266000Y-132080000D02*
X221996000Y-133350000D01*
X188976000Y-106680000D02*
X190246000Y-107950000D01*
X188976000Y-109220000D02*
X190246000Y-107950000D01*
X191516000Y-123825000D02*
X189611000Y-121920000D01*
X191516000Y-62230000D02*
X191516000Y-71755000D01*
X238506000Y-133985000D02*
X236601000Y-133985000D01*
X189611000Y-121920000D02*
X189611000Y-112395000D01*
X227076000Y-138430000D02*
X222631000Y-138430000D01*
X188976000Y-111760000D02*
X188976000Y-109220000D01*
X234696000Y-135890000D02*
X233105000Y-135890000D01*
X191516000Y-129540000D02*
X191516000Y-123825000D01*
%TO.N,/D5*%
X188976000Y-114300000D02*
X188976000Y-121920000D01*
X188976000Y-62230000D02*
X188976000Y-71755000D01*
X185166000Y-50800000D02*
X186436000Y-52070000D01*
X187706000Y-60960000D02*
X188976000Y-62230000D01*
X185166000Y-47625000D02*
X185166000Y-50800000D01*
X186436000Y-59690000D02*
X187706000Y-60960000D01*
X186436000Y-132715000D02*
X185801000Y-133350000D01*
X186436000Y-52070000D02*
X186436000Y-59690000D01*
X187706000Y-113030000D02*
X188976000Y-114300000D01*
X188976000Y-121920000D02*
X186436000Y-124460000D01*
X186436000Y-74295000D02*
X186436000Y-111760000D01*
X186436000Y-111760000D02*
X187706000Y-113030000D01*
X186436000Y-124460000D02*
X186436000Y-132715000D01*
X188976000Y-71755000D02*
X186436000Y-74295000D01*
%TO.N,/D4*%
X185166000Y-60960000D02*
X186436000Y-62230000D01*
X183896000Y-74295000D02*
X183896000Y-113665000D01*
X195326000Y-110490000D02*
X195326000Y-117475000D01*
X182626000Y-50800000D02*
X183896000Y-52070000D01*
X183896000Y-52070000D02*
X183896000Y-59690000D01*
X199136000Y-121285000D02*
X199136000Y-129540000D01*
X200406000Y-130810000D02*
X200406000Y-137795000D01*
X186436000Y-71755000D02*
X183896000Y-74295000D01*
X182626000Y-47625000D02*
X182626000Y-50800000D01*
X186436000Y-62230000D02*
X186436000Y-71755000D01*
X186436000Y-114300000D02*
X187706000Y-115570000D01*
X184531000Y-114300000D02*
X186436000Y-114300000D01*
X199136000Y-129540000D02*
X200406000Y-130810000D01*
X183896000Y-113665000D02*
X184531000Y-114300000D01*
X195326000Y-117475000D02*
X199136000Y-121285000D01*
X183896000Y-59690000D02*
X185166000Y-60960000D01*
%TO.N,/D3*%
X181590000Y-127234000D02*
X181590000Y-108986000D01*
X182626000Y-104140000D02*
X182626000Y-107950000D01*
X181356000Y-74295000D02*
X181356000Y-102870000D01*
X183896000Y-62230000D02*
X183896000Y-71755000D01*
X182626000Y-137795000D02*
X182626000Y-135705000D01*
X181356000Y-59690000D02*
X182626000Y-60960000D01*
X181590000Y-108986000D02*
X182626000Y-107950000D01*
X180086000Y-50800000D02*
X181356000Y-52070000D01*
X182626000Y-135705000D02*
X183076000Y-135255000D01*
X180086000Y-47625000D02*
X180086000Y-50800000D01*
X183896000Y-71755000D02*
X181356000Y-74295000D01*
X183076000Y-128720000D02*
X181590000Y-127234000D01*
X181356000Y-102870000D02*
X182626000Y-104140000D01*
X183076000Y-135255000D02*
X183076000Y-128720000D01*
X182626000Y-60960000D02*
X183896000Y-62230000D01*
X181356000Y-52070000D02*
X181356000Y-59690000D01*
%TO.N,/IPL1*%
X171704000Y-92202000D02*
X172466000Y-91440000D01*
X172466000Y-91440000D02*
X172466000Y-77470000D01*
X170434000Y-75438000D02*
X170434000Y-58674000D01*
X170434000Y-58674000D02*
X167894000Y-56134000D01*
X167894000Y-56134000D02*
X167894000Y-46736000D01*
X167894000Y-46736000D02*
X171265000Y-43365000D01*
X164846000Y-93726000D02*
X166370000Y-92202000D01*
X234424000Y-43365000D02*
X237033000Y-45974000D01*
X171265000Y-43365000D02*
X234424000Y-43365000D01*
X166370000Y-92202000D02*
X171704000Y-92202000D01*
X172466000Y-77470000D02*
X170434000Y-75438000D01*
X164846000Y-96520000D02*
X164846000Y-93726000D01*
%TO.N,/A2*%
X233426000Y-129540000D02*
X228981000Y-129540000D01*
X218186000Y-100330000D02*
X218186000Y-102235000D01*
X228981000Y-129540000D02*
X228346000Y-128905000D01*
X218186000Y-102235000D02*
X215011000Y-105410000D01*
X213741000Y-125730000D02*
X209296000Y-125730000D01*
X215011000Y-105410000D02*
X215011000Y-124460000D01*
X213106000Y-82550000D02*
X213106000Y-95250000D01*
X216916000Y-99060000D02*
X218186000Y-100330000D01*
X209296000Y-125730000D02*
X208026000Y-124460000D01*
X213106000Y-95250000D02*
X216916000Y-99060000D01*
X210566000Y-80010000D02*
X213106000Y-82550000D01*
X210566000Y-74295000D02*
X210566000Y-80010000D01*
X215011000Y-124460000D02*
X213741000Y-125730000D01*
%TO.N,/A1*%
X216281000Y-73660000D02*
X215646000Y-74295000D01*
X215646000Y-74295000D02*
X215646000Y-76395400D01*
X219456000Y-80645000D02*
X219456000Y-96520000D01*
X221996000Y-111125000D02*
X222631000Y-110490000D01*
X218186000Y-78486000D02*
X218186000Y-79375000D01*
X225806000Y-121920000D02*
X224856991Y-121920000D01*
X217170000Y-77470000D02*
X218186000Y-78486000D01*
X222631000Y-120650000D02*
X221996000Y-120015000D01*
X218186000Y-79375000D02*
X219456000Y-80645000D01*
X222631000Y-110490000D02*
X223901000Y-110490000D01*
X224536000Y-109855000D02*
X224536000Y-104140000D01*
X224536000Y-104140000D02*
X221996000Y-101600000D01*
X223586991Y-120650000D02*
X222631000Y-120650000D01*
X219456000Y-96520000D02*
X220726000Y-97790000D01*
X224856991Y-121920000D02*
X223586991Y-120650000D01*
X221996000Y-120015000D02*
X221996000Y-111125000D01*
X220726000Y-100330000D02*
X221996000Y-101600000D01*
X218186000Y-73660000D02*
X216281000Y-73660000D01*
X223901000Y-110490000D02*
X224536000Y-109855000D01*
X216721000Y-77470000D02*
X217170000Y-77470000D01*
X220726000Y-97790000D02*
X220726000Y-100330000D01*
X215646000Y-76395400D02*
X216721000Y-77470000D01*
%TO.N,/A0*%
X219260591Y-100330000D02*
X218186000Y-99255409D01*
X218186000Y-99255409D02*
X218186000Y-97790000D01*
X213741000Y-128270000D02*
X215646000Y-126365000D01*
X219651000Y-100330000D02*
X219260591Y-100330000D01*
X220726000Y-101405000D02*
X219651000Y-100330000D01*
X218186000Y-97790000D02*
X216916000Y-96520000D01*
X208026000Y-129540000D02*
X209296000Y-128270000D01*
X216916000Y-96520000D02*
X216916000Y-78740000D01*
X215646000Y-126365000D02*
X215646000Y-107950000D01*
X220726000Y-102870000D02*
X220726000Y-101405000D01*
X215646000Y-107950000D02*
X220726000Y-102870000D01*
X209296000Y-128270000D02*
X213741000Y-128270000D01*
%TO.N,/VPA*%
X235680000Y-100330000D02*
X234866000Y-99515600D01*
X234866000Y-99515600D02*
X234866000Y-95080000D01*
X237236000Y-104426000D02*
X237236000Y-100965000D01*
X237236000Y-100965000D02*
X236601000Y-100330000D01*
X236252000Y-105410000D02*
X237236000Y-104426000D01*
X234442000Y-105410000D02*
X236252000Y-105410000D01*
X236601000Y-100330000D02*
X235680000Y-100330000D01*
X234866000Y-95080000D02*
X235966000Y-93980000D01*
%TO.N,/RESET*%
X223266000Y-99695000D02*
X223266000Y-87630000D01*
X227076000Y-103505000D02*
X226441000Y-103505000D01*
X225806000Y-102870000D02*
X225806000Y-100965000D01*
X223901000Y-100330000D02*
X223266000Y-99695000D01*
X225171000Y-100330000D02*
X223901000Y-100330000D01*
X208026000Y-87630000D02*
X196596000Y-87630000D01*
X195326000Y-86360000D02*
X195326000Y-83820000D01*
X225806000Y-100965000D02*
X225171000Y-100330000D01*
X223266000Y-87630000D02*
X221996000Y-86360000D01*
X196596000Y-87630000D02*
X195326000Y-86360000D01*
X226441000Y-103505000D02*
X225806000Y-102870000D01*
X209296000Y-86360000D02*
X208026000Y-87630000D01*
%TO.N,/A15*%
X208026000Y-107315000D02*
X208026000Y-100330000D01*
X208026000Y-100330000D02*
X209296000Y-99060000D01*
%TO.N,+5V*%
X199136000Y-116840000D02*
X199136000Y-107315000D01*
X200406000Y-118110000D02*
X199136000Y-116840000D01*
X199136000Y-107315000D02*
X199771000Y-106680000D01*
X199771000Y-106680000D02*
X202311000Y-106680000D01*
%TO.N,/DS*%
X233326000Y-107215000D02*
X233326000Y-103986000D01*
X237236000Y-118110000D02*
X237236000Y-116205000D01*
X235966000Y-119380000D02*
X237236000Y-118110000D01*
X234696000Y-114586000D02*
X234696000Y-108585000D01*
X234696000Y-108585000D02*
X233326000Y-107215000D01*
X236601000Y-115570000D02*
X235680000Y-115570000D01*
X233326000Y-103986000D02*
X234442000Y-102870000D01*
X237236000Y-116205000D02*
X236601000Y-115570000D01*
X235680000Y-115570000D02*
X234696000Y-114586000D01*
%TO.N,/D0*%
X176276000Y-111125000D02*
X176911000Y-110490000D01*
X176276000Y-62230000D02*
X176276000Y-73025000D01*
X176911000Y-110490000D02*
X176911000Y-106045000D01*
X173831000Y-59785000D02*
X175006000Y-60960000D01*
X176276000Y-102870000D02*
X176276000Y-104140000D01*
X176276000Y-104140000D02*
X177546000Y-105410000D01*
X173736000Y-75565000D02*
X173736000Y-100330000D01*
X172466000Y-47625000D02*
X172466000Y-50800000D01*
X175006000Y-60960000D02*
X176276000Y-62230000D01*
X173831000Y-52165000D02*
X173831000Y-59785000D01*
X176911000Y-106045000D02*
X177546000Y-105410000D01*
X173736000Y-100330000D02*
X176276000Y-102870000D01*
X177546000Y-130175000D02*
X177546000Y-123190000D01*
X177546000Y-123190000D02*
X176276000Y-121920000D01*
X172466000Y-50800000D02*
X173831000Y-52165000D01*
X176276000Y-121920000D02*
X176276000Y-111125000D01*
X176276000Y-73025000D02*
X173736000Y-75565000D01*
%TO.N,/D1*%
X180086000Y-106044000D02*
X180086000Y-106680000D01*
X176276000Y-52070000D02*
X176276000Y-59690000D01*
X178816000Y-71755000D02*
X176276000Y-74295000D01*
X175006000Y-47625000D02*
X175006000Y-50800000D01*
X180086000Y-107950000D02*
X178816000Y-109220000D01*
X178816000Y-62230000D02*
X178816000Y-71755000D01*
X176276000Y-59690000D02*
X177546000Y-60960000D01*
X175006000Y-50800000D02*
X176276000Y-52070000D01*
X181356000Y-129540000D02*
X181356000Y-132080000D01*
X178816000Y-109220000D02*
X178816000Y-111125000D01*
X180086000Y-106680000D02*
X180086000Y-107950000D01*
X177546000Y-60960000D02*
X178816000Y-62230000D01*
X180086000Y-112395000D02*
X180086000Y-128270000D01*
X176276000Y-74295000D02*
X176276000Y-102234000D01*
X180086000Y-128270000D02*
X181356000Y-129540000D01*
X178816000Y-111125000D02*
X180086000Y-112395000D01*
X176276000Y-102234000D02*
X180086000Y-106044000D01*
%TO.N,/D2*%
X177546000Y-50800000D02*
X177546000Y-47625000D01*
X180086000Y-60960000D02*
X178681000Y-59555000D01*
X180086000Y-109220000D02*
X181356000Y-107950000D01*
X180721000Y-127635000D02*
X180721000Y-111125000D01*
X178681000Y-59555000D02*
X178681000Y-51935000D01*
X178681000Y-51935000D02*
X177546000Y-50800000D01*
X180721000Y-111125000D02*
X180086000Y-110490000D01*
X182181000Y-133795000D02*
X182181000Y-129095000D01*
X182181000Y-129095000D02*
X180721000Y-127635000D01*
X181356000Y-71755000D02*
X181356000Y-62230000D01*
X181356000Y-107950000D02*
X181356000Y-104775000D01*
X181356000Y-62230000D02*
X180086000Y-60960000D01*
X181356000Y-104775000D02*
X178816000Y-102235000D01*
X178816000Y-74295000D02*
X181356000Y-71755000D01*
X180086000Y-110490000D02*
X180086000Y-109220000D01*
X178816000Y-102235000D02*
X178816000Y-74295000D01*
X181356000Y-134620000D02*
X182181000Y-133795000D01*
%TO.N,/16MHZ*%
X204978000Y-77978000D02*
X206756000Y-76200000D01*
X209101000Y-90170000D02*
X209931000Y-90170000D01*
X204216000Y-83820000D02*
X204978000Y-83058000D01*
X207831000Y-91440000D02*
X209101000Y-90170000D01*
X206756000Y-76200000D02*
X206756000Y-68326000D01*
X209931000Y-85090000D02*
X205486000Y-85090000D01*
X210566000Y-89535000D02*
X210566000Y-85725000D01*
X205486000Y-85090000D02*
X204216000Y-83820000D01*
X210566000Y-85725000D02*
X209931000Y-85090000D01*
X204978000Y-83058000D02*
X204978000Y-77978000D01*
X209931000Y-90170000D02*
X210566000Y-89535000D01*
X206756000Y-91440000D02*
X207831000Y-91440000D01*
%TO.N,/RW*%
X194056000Y-59690000D02*
X195326000Y-60960000D01*
X194056000Y-51435000D02*
X194056000Y-59690000D01*
X192786000Y-47625000D02*
X192786000Y-50165000D01*
X192786000Y-50165000D02*
X194056000Y-51435000D01*
X208026000Y-74295000D02*
X208026000Y-82550000D01*
X208026000Y-82550000D02*
X206756000Y-83820000D01*
%TO.N,/AG9*%
X232791000Y-90170000D02*
X234061000Y-91440000D01*
X231961000Y-90170000D02*
X232791000Y-90170000D01*
X230886000Y-114300000D02*
X234060000Y-111126000D01*
X230886000Y-82550000D02*
X230886000Y-89095400D01*
X232791000Y-107950000D02*
X232791000Y-103431000D01*
X233426000Y-100331000D02*
X234061000Y-99696400D01*
X232156000Y-81280000D02*
X230886000Y-82550000D01*
X233426000Y-102796000D02*
X233426000Y-100331000D01*
X234060000Y-109220000D02*
X232790500Y-107950500D01*
X232790500Y-107950500D02*
X232791000Y-107950000D01*
X234061000Y-99696400D02*
X234061000Y-91440000D01*
X234060000Y-111126000D02*
X234060000Y-109220000D01*
X230886000Y-89095400D02*
X231961000Y-90170000D01*
X232791000Y-103431000D02*
X233426000Y-102796000D01*
%TO.N,/AG10*%
X229616000Y-88900000D02*
X230886000Y-90170000D01*
X230886000Y-90170000D02*
X230886000Y-99466400D01*
X229616000Y-108076000D02*
X229616000Y-109875000D01*
X229108000Y-124968000D02*
X229870000Y-125730000D01*
X228092000Y-114046000D02*
X228092000Y-117348000D01*
X229801000Y-119957000D02*
X229108000Y-120650000D01*
X229108000Y-120650000D02*
X229108000Y-124968000D01*
X230886000Y-99466400D02*
X231521000Y-100101000D01*
X227584000Y-111907000D02*
X227584000Y-113538000D01*
X230746500Y-106945500D02*
X229616000Y-108076000D01*
X229616000Y-109875000D02*
X227584000Y-111907000D01*
X231521000Y-101956000D02*
X230746500Y-102730500D01*
X228092000Y-117348000D02*
X229801000Y-119057000D01*
X231521000Y-100101000D02*
X231521000Y-101956000D01*
X229801000Y-119057000D02*
X229801000Y-119957000D01*
X227584000Y-113538000D02*
X228092000Y-114046000D01*
X230746500Y-102730500D02*
X230746500Y-106945500D01*
%TO.N,/AG11*%
X227076000Y-118110000D02*
X228346000Y-119380000D01*
X226441000Y-106680000D02*
X226441000Y-113030000D01*
X226441000Y-113030000D02*
X227076000Y-113665000D01*
X228346000Y-87630000D02*
X228346000Y-104775000D01*
X227076000Y-113665000D02*
X227076000Y-118110000D01*
X229616000Y-86360000D02*
X228346000Y-87630000D01*
X228346000Y-104775000D02*
X226441000Y-106680000D01*
%TO.N,/AG13*%
X206756000Y-107188000D02*
X206756000Y-99060000D01*
X205994000Y-107950000D02*
X206756000Y-107188000D01*
%TO.N,/AG14*%
X213106000Y-98425000D02*
X211201000Y-96520000D01*
X211201000Y-96520000D02*
X209296000Y-96520000D01*
X213106000Y-105410000D02*
X213106000Y-98425000D01*
X211836000Y-106680000D02*
X213106000Y-105410000D01*
%TO.N,/AG17*%
X204851000Y-114300000D02*
X206121000Y-115570000D01*
X206121000Y-115570000D02*
X208661000Y-115570000D01*
X206756000Y-93980000D02*
X204851000Y-95885000D01*
X208661000Y-115570000D02*
X209931000Y-116840000D01*
X209931000Y-117475000D02*
X211836000Y-119380000D01*
X209931000Y-116840000D02*
X209931000Y-117475000D01*
X204851000Y-95885000D02*
X204851000Y-114300000D01*
%TO.N,/AG19*%
X208221000Y-88900000D02*
X206951000Y-90170000D01*
X206951000Y-90170000D02*
X201676000Y-90170000D01*
X201676000Y-90170000D02*
X200406000Y-91440000D01*
X209296000Y-88900000D02*
X208221000Y-88900000D01*
%TO.N,/DG15*%
X202311000Y-78105000D02*
X202311000Y-79375000D01*
X204851000Y-61595000D02*
X204216000Y-62230000D01*
X202311000Y-79375000D02*
X200406000Y-81280000D01*
X204216000Y-76200000D02*
X202311000Y-78105000D01*
X204216000Y-62230000D02*
X204216000Y-76200000D01*
%TO.N,/DG14*%
X197866000Y-81280000D02*
X199136000Y-80010000D01*
X199136000Y-80010000D02*
X199136000Y-77470000D01*
X202311000Y-74295000D02*
X202311000Y-60960000D01*
X199136000Y-77470000D02*
X202311000Y-74295000D01*
%TO.N,/DG13*%
X203581000Y-75565000D02*
X203581000Y-60325000D01*
X206121000Y-58420000D02*
X206121000Y-57150000D01*
X200406000Y-78740000D02*
X203581000Y-75565000D01*
X204851000Y-59055000D02*
X205486000Y-59055000D01*
X205486000Y-59055000D02*
X206121000Y-58420000D01*
X206121000Y-57150000D02*
X205486000Y-56515000D01*
X203581000Y-56515000D02*
X202311000Y-57785000D01*
X203581000Y-60325000D02*
X204851000Y-59055000D01*
X205486000Y-56515000D02*
X203581000Y-56515000D01*
%TO.N,/DG12*%
X201676000Y-72390000D02*
X201676000Y-66675000D01*
X197866000Y-76200000D02*
X201676000Y-72390000D01*
X201041000Y-60325000D02*
X202311000Y-59055000D01*
X201676000Y-66675000D02*
X201041000Y-66040000D01*
X201041000Y-66040000D02*
X201041000Y-60325000D01*
X202311000Y-59055000D02*
X203581000Y-59055000D01*
X203581000Y-59055000D02*
X204851000Y-57785000D01*
%TO.N,/DG11*%
X208661000Y-47625000D02*
X209296000Y-48260000D01*
X199771000Y-59055000D02*
X200406000Y-59690000D01*
X201041000Y-71121400D02*
X201041000Y-67310000D01*
X204851000Y-48895000D02*
X206121000Y-47625000D01*
X199771000Y-58435800D02*
X199771000Y-59055000D01*
X199771000Y-58420000D02*
X204851000Y-53340000D01*
X201041000Y-67310000D02*
X200406000Y-66675000D01*
X206121000Y-47625000D02*
X208661000Y-47625000D01*
X196830000Y-75332600D02*
X201041000Y-71121400D01*
X196830000Y-77703800D02*
X196830000Y-75332600D01*
X204851000Y-53340000D02*
X204851000Y-48895000D01*
X209296000Y-48260000D02*
X209296000Y-49530000D01*
X211836000Y-52070000D02*
X211836000Y-55880000D01*
X200406000Y-66675000D02*
X200406000Y-59690000D01*
X209296000Y-49530000D02*
X211836000Y-52070000D01*
X197866000Y-78740000D02*
X196830000Y-77703800D01*
X199771000Y-58435800D02*
X199771000Y-58420000D01*
%TO.N,/DG10*%
X200406000Y-67945000D02*
X200406000Y-71120000D01*
X197866000Y-59055000D02*
X197866000Y-65405000D01*
X211836000Y-50800000D02*
X211836000Y-45720000D01*
X204216000Y-53060600D02*
X203302000Y-53975000D01*
X213106000Y-52070000D02*
X211836000Y-50800000D01*
X206121000Y-45085000D02*
X204216000Y-46990000D01*
X213106000Y-53340000D02*
X213106000Y-52070000D01*
X204216000Y-46990000D02*
X204216000Y-53060600D01*
X203302000Y-53975000D02*
X200407000Y-53975000D01*
X211201000Y-45085000D02*
X206121000Y-45085000D01*
X200406000Y-71120000D02*
X195326000Y-76200000D01*
X199771000Y-54611400D02*
X199771000Y-57150000D01*
X197866000Y-65405000D02*
X200406000Y-67945000D01*
X199771000Y-57150000D02*
X197866000Y-59055000D01*
X200407000Y-53975000D02*
X199771000Y-54611400D01*
X211836000Y-45720000D02*
X211201000Y-45085000D01*
%TO.N,/DG9*%
X198349200Y-57262500D02*
X197709900Y-57901800D01*
X203581000Y-46356400D02*
X205487000Y-44450000D01*
X215646000Y-54610000D02*
X216916000Y-55880000D01*
X214376000Y-53975000D02*
X215011000Y-54610000D01*
X197231000Y-69216400D02*
X197231000Y-58420000D01*
X199136000Y-54610000D02*
X200406000Y-53340000D01*
X195961000Y-70486400D02*
X197231000Y-69216400D01*
X194056000Y-77470000D02*
X194056000Y-75565000D01*
X198388500Y-57262500D02*
X198349200Y-57262500D01*
X205487000Y-44450000D02*
X211836000Y-44450000D01*
X202946000Y-53340000D02*
X203581000Y-52705000D01*
X203581000Y-52705000D02*
X203581000Y-46356400D01*
X195326000Y-78740000D02*
X194056000Y-77470000D01*
X212656000Y-50350000D02*
X214376000Y-52070000D01*
X214376000Y-52070000D02*
X214376000Y-53975000D01*
X215011000Y-54610000D02*
X215646000Y-54610000D01*
X198388500Y-57262500D02*
X199136000Y-56515000D01*
X211836000Y-44450000D02*
X212656000Y-45270000D01*
X197231000Y-58420000D02*
X198388500Y-57262500D01*
X199136000Y-56515000D02*
X199136000Y-54610000D01*
X200406000Y-53340000D02*
X202946000Y-53340000D01*
X212656000Y-45270000D02*
X212656000Y-50350000D01*
X195961000Y-73660000D02*
X195961000Y-70486400D01*
X194056000Y-75565000D02*
X195961000Y-73660000D01*
%TO.N,/DG8*%
X195326000Y-70485000D02*
X196596000Y-69215000D01*
X192786000Y-76200000D02*
X192786000Y-74930000D01*
X197866000Y-52705000D02*
X202311000Y-52705000D01*
X195326000Y-72390000D02*
X195326000Y-70485000D01*
X202946000Y-52070000D02*
X202946000Y-46355000D01*
X202311000Y-52705000D02*
X202946000Y-52070000D01*
X196596000Y-53975000D02*
X197866000Y-52705000D01*
X213106000Y-44450000D02*
X213106000Y-49530000D01*
X212471000Y-43815000D02*
X213106000Y-44450000D01*
X215646000Y-52069700D02*
X215646000Y-53340000D01*
X213853600Y-50277300D02*
X215646000Y-52069700D01*
X213106000Y-49530000D02*
X213853600Y-50277300D01*
X205486000Y-43815000D02*
X212471000Y-43815000D01*
X202946000Y-46355000D02*
X205486000Y-43815000D01*
X196596000Y-69215000D02*
X196596000Y-53975000D01*
X192786000Y-74930000D02*
X195326000Y-72390000D01*
%TO.N,/CSRTC*%
X234696000Y-51435000D02*
X234696000Y-72390000D01*
X234246000Y-50984700D02*
X234696000Y-51435000D01*
X234246000Y-50165000D02*
X234246000Y-50984700D01*
X234246000Y-50165000D02*
X234245700Y-50164700D01*
X234245700Y-50164700D02*
X234245700Y-49345300D01*
X232791000Y-74295000D02*
X232791000Y-77470000D01*
X232791000Y-77470000D02*
X234696000Y-79375000D01*
X234696000Y-72390000D02*
X232791000Y-74295000D01*
X234696000Y-79375000D02*
X234696000Y-87630000D01*
X234246000Y-49345300D02*
X234246000Y-50165000D01*
%TO.N,/MA5*%
X227076000Y-101600000D02*
X227076000Y-100965000D01*
X229616000Y-72390000D02*
X229616000Y-71120000D01*
X228346000Y-73660000D02*
X229616000Y-72390000D01*
X225806000Y-81915000D02*
X228346000Y-79375000D01*
X225806000Y-99695000D02*
X225806000Y-81915000D01*
X227076000Y-100965000D02*
X225806000Y-99695000D01*
X228346000Y-79375000D02*
X228346000Y-73660000D01*
%TO.N,/MA8*%
X231775000Y-77655600D02*
X231775000Y-74041000D01*
X227076000Y-81915000D02*
X228981000Y-80010000D01*
X230886000Y-78544600D02*
X231775000Y-77655600D01*
X230886000Y-79375000D02*
X230886000Y-78544600D01*
X230251000Y-80010000D02*
X230886000Y-79375000D01*
X227076000Y-99060000D02*
X227076000Y-81915000D01*
X228981000Y-80010000D02*
X230251000Y-80010000D01*
X233426000Y-72390000D02*
X233426000Y-68580000D01*
X231775000Y-74041000D02*
X233426000Y-72390000D01*
%TO.N,/CSROM*%
X230886000Y-100330000D02*
X230886000Y-101795000D01*
X229616000Y-103065000D02*
X229616000Y-106680000D01*
X230886000Y-101795000D02*
X229616000Y-103065000D01*
X221361000Y-107950000D02*
X221361000Y-125095000D01*
X221361000Y-125095000D02*
X223266000Y-127000000D01*
X229616000Y-99060000D02*
X230886000Y-100330000D01*
%TO.N,Net-(C3-Pad2)*%
X190232000Y-139700000D02*
X190232000Y-135255000D01*
%TO.N,Net-(D1-A)*%
X204978000Y-64770000D02*
X204978000Y-77341600D01*
X208026000Y-61722000D02*
X204978000Y-64770000D01*
X208026000Y-49022000D02*
X208026000Y-61722000D01*
X204978000Y-77341600D02*
X203834000Y-78486000D01*
X203834000Y-78486000D02*
X203708000Y-78486000D01*
%TO.N,/FDC_T0*%
X172466000Y-111760000D02*
X174741000Y-109485000D01*
X172466000Y-111760000D02*
X172466000Y-119380000D01*
X172466000Y-119380000D02*
X173736000Y-120650000D01*
X173196000Y-105505000D02*
X174741000Y-107050000D01*
X174741000Y-107050000D02*
X174741000Y-109485000D01*
X168656000Y-106680000D02*
X169831000Y-105505000D01*
X169831000Y-105505000D02*
X173196000Y-105505000D01*
%TO.N,/FDC_WPRT*%
X169926000Y-102870000D02*
X172466000Y-102870000D01*
X175191000Y-105595000D02*
X175191000Y-114115000D01*
X175191000Y-114115000D02*
X173736000Y-115570000D01*
X172466000Y-102870000D02*
X175191000Y-105595000D01*
X168656000Y-104140000D02*
X169926000Y-102870000D01*
%TO.N,/FDC_RD*%
X175641000Y-121285000D02*
X173736000Y-123190000D01*
X168656000Y-101600000D02*
X169926000Y-100330000D01*
X172466000Y-100330000D02*
X175641000Y-103505000D01*
X169926000Y-100330000D02*
X172466000Y-100330000D01*
X175641000Y-103505000D02*
X175641000Y-121285000D01*
%TO.N,/RAS*%
X218186000Y-77470000D02*
X219456000Y-78740000D01*
X219456000Y-73660000D02*
X218186000Y-74930000D01*
X218186000Y-74930000D02*
X218186000Y-77470000D01*
X219456000Y-71120000D02*
X219456000Y-73660000D01*
%TO.N,/RDH*%
X214376000Y-73025000D02*
X214376000Y-76200000D01*
X216916000Y-53661000D02*
X218186000Y-54931000D01*
X214521000Y-62720000D02*
X214521000Y-64280000D01*
X214521000Y-69674000D02*
X215646000Y-70799000D01*
X214376000Y-58099000D02*
X214376000Y-59055000D01*
X217551000Y-57150000D02*
X215325000Y-57150000D01*
X215646000Y-61595000D02*
X214521000Y-62720000D01*
X215325000Y-57150000D02*
X214376000Y-58099000D01*
X215646000Y-60325000D02*
X215646000Y-61595000D01*
X214376000Y-59055000D02*
X215646000Y-60325000D01*
X214376000Y-48895000D02*
X216916000Y-51435000D01*
X218186000Y-54931000D02*
X218186000Y-56515000D01*
X214521000Y-67800000D02*
X214521000Y-69674000D01*
X215646000Y-66675000D02*
X214521000Y-67800000D01*
X215646000Y-70799000D02*
X215646000Y-71755000D01*
X214521000Y-64280000D02*
X215646000Y-65405000D01*
X215646000Y-71755000D02*
X214376000Y-73025000D01*
X218186000Y-56515000D02*
X217551000Y-57150000D01*
X216916000Y-51435000D02*
X216916000Y-53661000D01*
X215646000Y-65405000D02*
X215646000Y-66675000D01*
X190246000Y-55245000D02*
X190246000Y-51435000D01*
X190246000Y-51435000D02*
X188976000Y-50165000D01*
%TO.N,/CAS0*%
X211836000Y-72711000D02*
X210566000Y-71441000D01*
X211836000Y-76200000D02*
X211836000Y-72711000D01*
X210566000Y-63500000D02*
X210566000Y-68580000D01*
X210566000Y-71441000D02*
X210566000Y-68580000D01*
%TO.N,/CAS1*%
X210566000Y-58420000D02*
X210566000Y-61341000D01*
X210566000Y-61341000D02*
X211836000Y-62611000D01*
X213106000Y-65405000D02*
X213106000Y-66675000D01*
X211836000Y-64135000D02*
X213106000Y-65405000D01*
X211836000Y-62611000D02*
X211836000Y-64135000D01*
X211836000Y-67945000D02*
X211836000Y-69215000D01*
X210566000Y-53340000D02*
X210566000Y-58420000D01*
X211836000Y-69215000D02*
X213106000Y-70485000D01*
X213106000Y-70485000D02*
X213106000Y-77470000D01*
X213106000Y-66675000D02*
X211836000Y-67945000D01*
X213106000Y-77470000D02*
X211836000Y-78740000D01*
%TO.N,/MA6*%
X230886000Y-72390000D02*
X229616000Y-73660000D01*
X229616000Y-73660000D02*
X229616000Y-76200000D01*
X230886000Y-68580000D02*
X230886000Y-72390000D01*
%TO.N,/MA7*%
X230886000Y-77470000D02*
X229616000Y-78740000D01*
X230886000Y-73660000D02*
X230886000Y-77470000D01*
X232156000Y-72390000D02*
X232216000Y-72450500D01*
X232216000Y-72450500D02*
X230886000Y-73660000D01*
X232156000Y-71120000D02*
X232156000Y-72390000D01*
%TO.N,/MA4*%
X228346000Y-72390000D02*
X227076000Y-73660000D01*
X227076000Y-73660000D02*
X227076000Y-76200000D01*
X228346000Y-68580000D02*
X228346000Y-72390000D01*
%TO.N,/MA3*%
X225806000Y-68580000D02*
X225806000Y-77470000D01*
X225806000Y-77470000D02*
X227076000Y-78740000D01*
%TO.N,/MA2*%
X224536000Y-71120000D02*
X224536000Y-76200000D01*
%TO.N,/MA1*%
X223266000Y-68580000D02*
X223381000Y-76200000D01*
X223381000Y-77585500D02*
X224536000Y-78740000D01*
X223381000Y-76200000D02*
X223381000Y-77585500D01*
%TO.N,/MA0*%
X221996000Y-71120000D02*
X221996000Y-76200000D01*
%TO.N,/MA9*%
X220853000Y-77597000D02*
X220853000Y-76200000D01*
X221996000Y-78740000D02*
X220853000Y-77597000D01*
X220853000Y-76200000D02*
X220726000Y-68580000D01*
%TO.N,/FDCON_CS*%
X232156000Y-102236000D02*
X232156000Y-99060000D01*
X231521500Y-102870500D02*
X231521500Y-107441500D01*
X230378000Y-110744000D02*
X230378000Y-108585000D01*
X231521500Y-102870500D02*
X232156000Y-102236000D01*
X231521500Y-107441500D02*
X230378000Y-108585000D01*
%TO.N,/FDC_STEP*%
X172371000Y-135985000D02*
X172276000Y-135890000D01*
X192024000Y-140191000D02*
X191060000Y-141155000D01*
X192024000Y-133858000D02*
X192024000Y-140191000D01*
X191060000Y-141155000D02*
X177096000Y-141155000D01*
X188976000Y-130810000D02*
X192024000Y-133858000D01*
X173393000Y-137452000D02*
X173048000Y-137452000D01*
X167386000Y-115570000D02*
X168656000Y-114300000D01*
X177096000Y-141155000D02*
X173393000Y-137452000D01*
X188976000Y-127000000D02*
X188976000Y-130810000D01*
X173048000Y-137452000D02*
X172371000Y-136775000D01*
X187706000Y-125730000D02*
X188976000Y-127000000D01*
X172371000Y-136775000D02*
X172371000Y-135985000D01*
X172276000Y-135890000D02*
X168264000Y-135890000D01*
X168264000Y-135890000D02*
X167386000Y-135012000D01*
X167386000Y-135012000D02*
X167386000Y-115570000D01*
%TO.N,/FDC_WG*%
X177546000Y-140335000D02*
X184531000Y-140335000D01*
X184531000Y-140335000D02*
X187020000Y-137846000D01*
X175641000Y-138430000D02*
X177546000Y-140335000D01*
X188290000Y-137846000D02*
X188807000Y-137329000D01*
X170899000Y-128365000D02*
X171926000Y-128365000D01*
X168656000Y-109220000D02*
X169926000Y-110490000D01*
X188807000Y-137329000D02*
X188807000Y-133181000D01*
X175641000Y-135545000D02*
X175641000Y-138430000D01*
X188807000Y-133181000D02*
X187706000Y-132080000D01*
X187706000Y-132080000D02*
X187706000Y-128270000D01*
X169926000Y-110490000D02*
X169926000Y-127392000D01*
X172466000Y-133985000D02*
X173101000Y-134620000D01*
X171926000Y-128365000D02*
X172466000Y-128905000D01*
X187020000Y-137846000D02*
X188290000Y-137846000D01*
X174716000Y-134620000D02*
X175641000Y-135545000D01*
X169926000Y-127392000D02*
X170899000Y-128365000D01*
X172466000Y-128905000D02*
X172466000Y-133985000D01*
X173101000Y-134620000D02*
X174716000Y-134620000D01*
%TO.N,/FDC_HD*%
X166116000Y-136525000D02*
X170716000Y-141125000D01*
X170716000Y-141125000D02*
X176430000Y-141125000D01*
X195961000Y-139700000D02*
X200406000Y-139700000D01*
X168656000Y-99060000D02*
X166116000Y-101600000D01*
X194056000Y-141605000D02*
X195961000Y-139700000D01*
X176910000Y-141605000D02*
X194056000Y-141605000D01*
X201676000Y-127000000D02*
X200406000Y-125730000D01*
X176430000Y-141125000D02*
X176910000Y-141605000D01*
X200406000Y-139700000D02*
X201676000Y-138430000D01*
X166116000Y-101600000D02*
X166116000Y-136525000D01*
X201676000Y-138430000D02*
X201676000Y-127000000D01*
%TO.N,Net-(Q1-C)*%
X236416000Y-46805300D02*
X237871000Y-48260000D01*
X230886000Y-132715000D02*
X230886000Y-134620000D01*
X228346000Y-121920000D02*
X228346000Y-125095000D01*
X227076000Y-126365000D02*
X227076000Y-128905000D01*
X241681000Y-126365000D02*
X241681000Y-133350000D01*
X228346000Y-125095000D02*
X227076000Y-126365000D01*
X237871000Y-48260000D02*
X237871000Y-50165000D01*
X225806000Y-119380000D02*
X228346000Y-121920000D01*
X240411000Y-52705000D02*
X240411000Y-87630000D01*
X240411000Y-87630000D02*
X242951000Y-90170000D01*
X242951000Y-90170000D02*
X242951000Y-125095000D01*
X237871000Y-50165000D02*
X240411000Y-52705000D01*
X234246000Y-46805300D02*
X236416000Y-46805300D01*
X227076000Y-128905000D02*
X230886000Y-132715000D01*
X242951000Y-125095000D02*
X241681000Y-126365000D01*
%TO.N,Net-(U7-XTAL_IN)*%
X231521000Y-117654900D02*
X231521000Y-116840000D01*
X233426000Y-121920000D02*
X231521000Y-120015000D01*
X231521000Y-118745000D02*
X231516000Y-118740000D01*
X231516000Y-117659900D02*
X231516000Y-116840000D01*
X231521000Y-120015000D02*
X231521000Y-118745000D01*
X231516000Y-118740000D02*
X231516000Y-117659900D01*
X231516000Y-117659900D02*
X231521000Y-117654900D01*
%TO.N,Net-(U7-XTAL_OUT)*%
X230251000Y-124460000D02*
X233426000Y-124460000D01*
X229616000Y-121285000D02*
X229616000Y-123825000D01*
X228981000Y-116840000D02*
X230251000Y-118110000D01*
X230251000Y-118110000D02*
X230251000Y-120650000D01*
X230251000Y-120650000D02*
X229616000Y-121285000D01*
X229616000Y-123825000D02*
X230251000Y-124460000D01*
%TO.N,Net-(U12-FE50)*%
X202895000Y-127686000D02*
X204216000Y-126365000D01*
X199136000Y-119380000D02*
X197866000Y-118110000D01*
X202895000Y-137363000D02*
X202895000Y-127686000D01*
X204216000Y-120015000D02*
X203581000Y-119380000D01*
X204216000Y-126365000D02*
X204216000Y-120015000D01*
X205232000Y-139700000D02*
X202895000Y-137363000D01*
X203581000Y-119380000D02*
X199136000Y-119380000D01*
%TO.N,Net-(U12-FE25)*%
X196469000Y-135255000D02*
X196469000Y-120523000D01*
%TO.N,Net-(U12-FILT)*%
X177606000Y-134620000D02*
X178816000Y-134620000D01*
X180086000Y-133350000D02*
X180086000Y-131445000D01*
X178816000Y-134620000D02*
X180086000Y-133350000D01*
X183896000Y-138430000D02*
X183896000Y-119380000D01*
X182626000Y-139700000D02*
X183896000Y-138430000D01*
X178816000Y-139700000D02*
X182626000Y-139700000D01*
X177606000Y-134620000D02*
X177606000Y-138490000D01*
X177606000Y-138490000D02*
X178816000Y-139700000D01*
X178816000Y-130175000D02*
X178816000Y-124460000D01*
X180086000Y-131445000D02*
X178816000Y-130175000D01*
X183896000Y-119380000D02*
X182626000Y-118110000D01*
%TD*%
M02*
